<svg width="594" height="447" viewBox="0 0 594 447" fill="none" xmlns="http://www.w3.org/2000/svg">
<path d="M492.16 423.028C492.16 423.028 566.12 370.358 587.41 280.708C608.7 191.058 576.2 82.3578 514.57 27.4478C452.94 -27.4622 341.99 9.51775 292.69 55.4678L243.38 101.418C243.38 101.418 196.31 127.188 134.68 124.948C73.0496 122.698 18.1396 206.748 3.56963 272.858C-11.0004 338.978 23.7396 426.388 23.7396 426.388L492.16 423.028Z" fill="#D9EDFF"/>
<g style="mix-blend-mode:multiply">
<path d="M525.779 436.478C525.779 436.478 577.329 408.458 590.779 343.468C604.229 278.468 545.959 219.078 540.349 186.578C534.749 154.078 547.069 113.738 495.529 82.3578C443.979 50.9778 352.089 62.1878 317.349 54.3378C282.609 46.4978 242.269 -7.29219 172.789 5.02781C103.299 17.3578 36.0693 54.3378 32.7093 135.028C29.3493 215.708 55.1193 217.958 29.3493 261.658C3.56931 305.358 -6.52069 335.618 5.80931 380.438C18.1393 425.258 43.9093 437.588 43.9093 437.588L525.779 436.468V436.478Z" fill="#D9EDFF"/>
</g>
<g style="mix-blend-mode:multiply">
<path d="M418.14 421.908C421.35 418.548 468.38 324.418 416 238.128C363.63 151.838 232.15 161.928 179.78 195.548C127.41 229.168 101.75 272.868 96.4098 318.818C91.0698 364.768 126.34 436.488 126.34 436.488L418.14 421.918V421.908Z" fill="#D9EDFF"/>
</g>
<path d="M111.562 219.728H47.6016C44.8401 219.728 42.6016 221.966 42.6016 224.728V258.428C42.6016 261.189 44.8401 263.428 47.6016 263.428H111.562C114.323 263.428 116.562 261.189 116.562 258.428V224.728C116.562 221.966 114.323 219.728 111.562 219.728Z" fill="#4CA9FF"/>
<path d="M79.5817 280.518L89.1617 257.828H70.0117L79.5817 280.518Z" fill="#4CA9FF"/>
<path d="M79.3633 234.078H96.6533V236.608L105.133 231.718L96.6533 226.828V229.358H79.3633V234.078Z" fill="#04377D"/>
<path d="M105.133 244.018H87.8333V241.488L79.3633 246.378L87.8333 251.268V248.738H105.133V244.018Z" fill="white"/>
<path d="M68.742 248.468L67.922 248.768C67.922 248.768 65.352 245.838 64.022 242.648C62.692 239.458 62.642 235.558 62.642 235.558L63.242 235.308L59.582 226.558C58.932 227.068 58.312 227.718 57.802 228.568C55.732 232.068 55.942 237.438 58.022 242.678C60.102 247.918 62.332 252.598 66.392 255.538C68.792 257.278 70.842 257.578 72.442 257.328L68.742 248.468Z" fill="#04377D"/>
<path d="M71.3705 247.438L70.2305 247.848L73.9705 256.808C74.3905 256.668 74.7705 256.498 75.1005 256.318C76.0705 255.788 76.4905 254.628 76.0805 253.598L74.1205 248.668C73.6905 247.578 72.4605 247.028 71.3505 247.428L71.3705 247.438Z" fill="#04377D"/>
<path d="M62.4427 225.018C61.9827 225.188 61.4827 225.408 60.9727 225.708L64.7027 234.648L65.9627 234.118C67.0527 233.658 67.5827 232.418 67.1527 231.318L65.1927 226.278C64.7627 225.188 63.5427 224.618 62.4427 225.018Z" fill="#04377D"/>
<path d="M435.62 406.778V305.918C435.62 305.918 436.74 278.748 422.45 270.898C408.16 263.058 347.93 267.258 347.93 267.258V406.778H435.62Z" fill="#009FDD"/>
<path d="M329.112 172.848C329.112 172.848 332.752 203.388 334.152 205.908L335.552 208.428L342.552 213.188C342.552 213.188 329.102 232.238 312.572 235.318C296.042 238.398 297.442 228.598 297.442 228.598L299.962 223.278L296.602 194.138C296.602 194.138 326.582 180.408 329.102 172.848H329.112Z" fill="#FF9D8A"/>
<path d="M351.241 215.708L340.311 210.948C340.311 210.948 333.311 222.438 317.061 229.158C300.811 235.878 300.531 231.958 299.691 229.158C298.851 226.358 299.971 223.278 299.971 223.278L298.771 213.468L292.271 215.638L269.711 398.098L327.701 400.898L351.231 215.718L351.241 215.708Z" fill="white"/>
<path d="M297.73 213.658C297.73 213.658 293.81 222.718 290.17 244.008C286.53 265.298 283.17 301.158 282.33 325.818C281.49 350.468 280.93 406.778 280.93 406.778C280.93 406.778 208.65 406.778 207.81 406.778C206.97 406.778 201.93 379.038 201.93 379.038C201.93 379.038 233.87 351.678 235.55 347.198C236.67 344.208 236.11 288.828 240.87 263.338C245.63 237.848 251.8 232.708 264.68 226.358C278 219.798 297.74 213.658 297.74 213.658H297.73Z" fill="#FCC82B"/>
<path d="M259.629 374.678C259.999 374.678 260.309 374.378 260.309 373.998C260.309 371.998 260.669 343.538 261.009 316.018C261.359 288.488 261.709 260.028 261.709 258.018C261.709 257.648 261.409 257.338 261.029 257.338C260.649 257.338 260.349 257.638 260.349 258.018C260.349 260.018 259.989 288.478 259.649 315.998C259.299 343.528 258.949 371.988 258.949 373.998C258.949 374.368 259.249 374.678 259.629 374.678Z" fill="#7591B7"/>
<path d="M405.311 367.838L405.871 406.778H320.701C320.701 406.778 317.061 373.718 318.461 370.638C319.861 367.558 405.311 367.838 405.311 367.838Z" fill="#FCC82B"/>
<g style="mix-blend-mode:multiply">
<path d="M310.529 205.068C307.059 207.868 302.309 210.108 298.609 211.468L296.609 194.138C296.609 194.138 319.129 183.828 326.769 176.148C325.169 184.868 321.249 196.418 310.529 205.058V205.068Z" fill="#7F99BD"/>
</g>
<path d="M270.279 115.978C270.279 115.978 264.399 126.068 263.279 138.388C262.159 150.718 263.279 182.368 273.369 195.818C283.459 209.268 304.469 205.348 313.989 197.218C322.729 189.758 331.359 181.528 333.599 165.278C335.839 149.028 328.839 118.208 308.949 111.768C289.059 105.328 270.289 115.968 270.289 115.968L270.279 115.978Z" fill="#FF9D8A"/>
<path d="M245 389.168C245 389.168 245.99 389.168 247.49 389.128C247.84 389.118 248.23 389.128 248.64 389.118C250.09 389.078 251.85 389.038 253.62 388.978C254.01 388.968 254.42 388.948 254.81 388.938C256.57 388.898 258.07 389.118 259.48 389.028H259.52C259.82 389.018 260.25 389.058 260.6 389.068C260.78 389.078 260.94 389.098 261.05 389.078C261.86 388.928 262.03 388.738 262.91 388.348C264.05 387.838 279.44 384.398 291.97 384.478C304.48 384.528 315.71 385.388 317.54 383.858C319.38 382.298 320.49 366.578 309.81 365.548L296.68 370.528C296.68 370.528 266.69 366.968 255.69 375.078C244.67 383.188 245.01 389.158 245.01 389.158L245 389.168Z" fill="#FF9D8A"/>
<path d="M259.531 389.028C259.831 389.018 260.261 389.058 260.611 389.068C260.881 388.638 261.451 387.848 261.761 387.528C265.151 384.078 273.321 381.838 276.291 381.128C276.561 381.058 276.741 380.788 276.671 380.518C276.621 380.248 276.331 380.088 276.051 380.138C271.731 381.178 262.561 383.848 259.961 388.218C259.881 388.338 259.661 388.758 259.531 389.028Z" fill="#04377D"/>
<path d="M253.629 388.978C254.019 388.978 254.429 388.958 254.819 388.938C258.519 382.198 264.559 380.258 272.039 377.858L272.479 377.708C272.739 377.618 272.889 377.328 272.799 377.068C272.709 376.808 272.439 376.658 272.159 376.748L271.729 376.898C263.829 379.438 257.469 381.468 253.629 388.988V388.978Z" fill="#04377D"/>
<path d="M247.488 389.128C247.838 389.128 248.228 389.128 248.638 389.118C250.878 384.408 258.298 376.518 268.118 374.678C268.398 374.628 268.588 374.368 268.538 374.088C268.478 373.818 268.218 373.638 267.948 373.678C257.838 375.578 249.678 383.838 247.488 389.128Z" fill="#04377D"/>
<path d="M326.87 151.418C326.87 151.418 320.71 148.478 316.36 140.208C312.02 131.948 312.58 124.518 312.58 124.518C312.58 124.518 304.74 123.258 292.97 126.758C281.2 130.258 267.2 135.018 255.43 128.298C243.66 121.578 243.66 110.788 249.41 106.308C255.84 101.288 268.6 104.348 268.6 104.348C268.6 104.348 263.7 99.5877 266.36 96.7877C269.02 93.9877 278.69 97.6277 278.69 97.6277C278.69 97.6277 290.46 88.2377 312.73 89.3677C335 90.4877 345.65 106.038 346.91 123.408C348.17 140.778 341.87 158.148 341.87 158.148L326.88 151.428L326.87 151.418Z" fill="#04377D"/>
<g style="mix-blend-mode:multiply">
<path d="M281.678 155.628C282.938 158.738 282.908 162.348 283.228 165.658C283.478 168.228 283.948 171.218 281.598 172.958C280.478 173.788 275.158 176.018 277.888 177.828C278.928 178.518 280.678 178.328 281.868 178.278C282.688 178.238 283.508 178.208 284.328 178.148C285.208 178.078 286.068 177.818 286.948 177.808C287.468 177.808 287.628 178.488 287.208 178.758C285.798 179.648 283.718 179.918 282.068 179.978C280.418 180.038 279.298 179.968 277.818 179.228C276.908 178.778 276.018 178.138 275.878 177.048C275.718 175.828 276.628 174.728 277.548 174.048C278.608 173.258 279.908 172.898 280.978 172.128C282.458 171.068 282.338 169.278 282.238 167.618C281.988 163.638 281.068 159.718 280.718 155.758C280.668 155.148 281.498 155.148 281.698 155.628H281.678Z" fill="#7F99BD"/>
</g>
<path d="M270.23 164.938C270.65 167.298 272.37 168.968 274.07 168.668C275.77 168.368 276.81 166.208 276.39 163.848C275.97 161.488 274.25 159.818 272.55 160.118C270.85 160.418 269.81 162.578 270.23 164.938Z" fill="#04377D"/>
<path d="M291.669 163.068C292.049 165.618 293.839 167.458 295.679 167.188C297.519 166.918 298.699 164.628 298.319 162.078C297.939 159.528 296.149 157.688 294.309 157.958C292.469 158.228 291.289 160.518 291.669 163.068Z" fill="#04377D"/>
<path d="M275.219 155.208C273.909 155.428 272.589 155.208 271.269 155.298C270.949 155.318 270.639 155.368 270.319 155.398C270.099 155.418 270.739 155.328 270.429 155.388C270.359 155.398 270.289 155.408 270.229 155.418C270.059 155.448 269.899 155.478 269.739 155.518C269.459 155.588 269.189 155.688 268.899 155.758C268.639 155.818 268.359 155.878 268.099 155.858C267.959 155.838 267.809 155.818 267.669 155.798C267.759 155.818 267.849 155.828 267.939 155.848C267.939 155.878 267.449 155.798 267.399 155.788C266.649 155.608 266.189 154.748 266.399 154.018C266.459 153.808 266.549 153.618 266.689 153.448C266.749 153.378 266.799 153.298 266.859 153.228C266.809 153.288 266.749 153.348 266.699 153.408C266.759 153.328 266.809 153.248 266.869 153.178C266.939 153.048 267.039 152.948 267.169 152.878C267.269 152.798 267.379 152.708 267.489 152.638C267.839 152.398 268.289 152.258 268.699 152.148C269.479 151.948 270.299 151.848 271.109 151.838C271.909 151.838 272.699 151.918 273.489 152.028C274.189 152.128 274.969 152.358 275.529 152.788C275.969 153.118 276.239 153.538 276.159 154.108C276.099 154.578 275.719 155.118 275.209 155.208H275.219Z" fill="#04377D"/>
<path d="M290.159 151.458C290.339 151.348 290.519 151.258 290.709 151.178C290.869 151.108 291.299 150.878 290.979 151.058C291.099 150.988 291.219 150.928 291.339 150.868C291.879 150.598 292.449 150.408 293.029 150.258C294.309 149.928 295.649 149.848 296.959 149.988C298.359 150.138 299.639 150.478 300.849 151.208C301.019 151.308 301.199 151.408 301.339 151.558C301.439 151.678 301.529 151.798 301.619 151.928C301.589 151.888 301.569 151.848 301.539 151.808C301.909 152.068 302.129 152.498 302.129 152.948C302.129 153.388 301.899 153.748 301.519 153.958C301.059 154.208 300.629 154.088 300.159 153.968H300.869C300.479 154.028 300.209 154.048 299.809 153.958C299.799 153.958 299.429 153.868 299.669 153.918C299.899 153.968 299.289 153.868 299.219 153.858C299.139 153.848 298.719 153.808 299.169 153.858C299.089 153.858 299.009 153.838 298.919 153.828C298.709 153.798 298.499 153.778 298.289 153.758C297.369 153.688 296.439 153.648 295.519 153.608C294.659 153.578 293.779 153.568 292.929 153.608C292.559 153.628 292.199 153.638 291.829 153.648C291.619 153.648 291.709 153.688 291.849 153.648C291.769 153.668 291.699 153.688 291.619 153.708C291.469 153.748 291.319 153.798 291.169 153.858C290.569 154.088 289.859 153.658 289.639 153.108C289.399 152.508 289.599 151.818 290.169 151.488L290.159 151.458Z" fill="#04377D"/>
<path d="M283.51 190.398C282.22 187.818 279.89 185.918 277.18 184.698C279.53 184.458 290.61 183.438 293.41 185.018C296.54 186.798 292.83 193.938 286.35 194.298C285.67 194.338 285.05 194.278 284.46 194.188C284.41 192.888 284.11 191.598 283.51 190.388V190.398Z" fill="#04377D"/>
<path d="M334.711 175.368C334.711 175.368 333.591 179.708 327.151 184.758C320.711 189.798 311.371 193.488 311.371 193.488L310.621 190.218C310.621 190.218 320.291 186.018 324.771 181.398C329.251 176.778 329.811 174.258 329.811 174.258L334.711 175.378V175.368Z" fill="#D9E1EB"/>
<path d="M309.501 187.798C304.311 187.558 301.421 191.658 301.061 194.308C300.701 196.958 303.191 199.938 309.021 197.318C316.261 194.068 314.691 188.028 309.501 187.788V187.798Z" fill="#04377D"/>
<path d="M330.65 143.288C330.65 143.288 328.41 127.188 317.62 116.258C297.03 95.3877 279.52 96.6477 279.52 96.6477C279.52 96.6477 279.66 93.7077 286.24 91.4677C292.42 89.3677 295.2 90.4877 295.2 90.4877C295.2 90.4877 312.15 91.8877 326.44 107.718C340.73 123.548 342.27 143.718 342.27 143.718L330.64 143.298L330.65 143.288Z" fill="#D9E1EB"/>
<path d="M332.189 141.328C345.679 139.038 353.199 149.588 353.759 160.238C354.319 170.888 346.579 178.978 336.249 178.168C312.999 176.348 315.659 144.128 332.189 141.328Z" fill="white"/>
<path d="M338.909 167.828C342.469 167.828 345.479 166.038 347.199 162.888C349.039 159.508 348.889 155.358 346.809 152.298C346.649 152.068 346.339 152.008 346.099 152.168C345.869 152.328 345.809 152.638 345.969 152.878C347.839 155.618 347.969 159.358 346.309 162.408C344.729 165.298 341.949 166.938 338.649 166.818C335.569 166.738 332.959 165.328 331.299 162.848C329.399 160.018 328.969 156.118 330.189 152.898C331.399 149.708 334.719 147.538 337.749 147.928C338.019 147.968 338.279 147.768 338.319 147.488C338.359 147.208 338.159 146.958 337.879 146.918C334.349 146.448 330.629 148.858 329.239 152.528C327.909 156.038 328.379 160.308 330.459 163.408C332.309 166.168 335.209 167.738 338.629 167.828C338.729 167.828 338.819 167.828 338.919 167.828H338.909Z" fill="#708DB5"/>
<path d="M348.72 211.788C348.72 211.788 389.62 221.878 403.91 238.118C418.2 254.368 424.92 334.488 425.2 349.338C425.48 364.188 415.11 370.348 408.95 374.548C402.79 378.748 375.61 386.318 353.76 387.438C331.91 388.558 311.18 387.438 311.18 387.438C311.18 387.438 311.25 382.678 307.89 375.668C304.77 369.168 300.82 367.828 300.82 367.828L319.59 361.108C319.59 361.108 322.88 302.218 327.99 273.698C333.87 240.918 348.72 211.788 348.72 211.788Z" fill="#FCC82B"/>
<path d="M280.92 351.698C281.01 351.698 281.11 351.678 281.19 351.638C281.53 351.488 281.69 351.088 281.54 350.748C277.71 342.098 273.74 325.128 271.5 313.218L271.32 312.258C270.64 308.758 269.8 304.398 271.48 301.388C272.34 299.858 274.27 296.528 276.13 293.328C278.06 290.008 279.89 286.868 280.39 285.928C281.38 284.098 278.27 279.218 273.77 272.508C272.56 270.698 271.51 269.138 270.89 268.078C269.29 265.308 270.35 262.768 271.59 259.818L272.01 258.808C273.13 256.058 274.4 253.308 275.63 250.638C276.13 249.548 276.64 248.458 277.13 247.368C277.79 245.918 278.45 244.448 279.12 242.958C283.08 234.138 287.17 225.008 292.41 216.188C292.6 215.868 292.5 215.448 292.17 215.258C291.85 215.068 291.43 215.168 291.24 215.498C285.96 224.378 281.85 233.538 277.87 242.398C277.2 243.888 276.54 245.358 275.89 246.808C275.39 247.898 274.89 248.988 274.39 250.068C273.15 252.748 271.87 255.518 270.74 258.288L270.32 259.288C269.06 262.288 267.76 265.388 269.7 268.748C270.33 269.848 271.4 271.428 272.62 273.258C274.96 276.758 279.84 284.028 279.17 285.278C278.67 286.198 276.85 289.328 274.93 292.638C273.06 295.848 271.12 299.178 270.26 300.718C268.34 304.158 269.23 308.788 269.95 312.498L270.13 313.448C270.94 317.788 275.26 339.988 280.26 351.278C280.37 351.528 280.62 351.678 280.88 351.678L280.92 351.698Z" fill="#7591B7"/>
<path d="M320.849 354.088C321.019 354.088 321.199 354.018 321.329 353.888C324.509 350.678 339.869 324.098 341.009 319.098C341.639 316.358 340.069 309.418 338.549 302.708C337.369 297.508 336.159 292.128 336.499 290.678C337.019 288.498 340.939 285.298 344.739 282.198C349.329 278.448 354.069 274.578 354.989 271.088C356.029 267.118 355.139 242.288 354.549 225.858C354.339 219.948 354.169 215.288 354.169 213.618C354.169 213.248 353.869 212.938 353.489 212.938C353.119 212.938 352.809 213.238 352.809 213.618C352.809 215.308 352.979 219.988 353.189 225.908C353.739 241.268 354.669 266.968 353.669 270.738C352.859 273.798 348.089 277.698 343.879 281.148C339.729 284.538 335.799 287.748 335.179 290.368C334.759 292.128 335.899 297.168 337.219 303.018C338.639 309.278 340.239 316.368 339.679 318.808C338.559 323.708 323.489 349.798 320.359 352.948C320.099 353.218 320.099 353.638 320.359 353.908C320.489 354.038 320.659 354.108 320.839 354.108L320.849 354.088Z" fill="#7591B7"/>
<path d="M375.9 342.458C375.9 342.458 375.96 342.458 376 342.458C376.37 342.408 376.63 342.058 376.58 341.688C376.08 338.168 368.31 268.028 367.95 262.648C367.92 262.278 367.6 261.978 367.23 262.018C366.86 262.048 366.57 262.368 366.6 262.738C366.96 268.118 374.74 338.348 375.24 341.878C375.29 342.218 375.58 342.458 375.91 342.458H375.9Z" fill="#7591B7"/>
<path d="M320.141 361.508C320.221 361.508 320.311 361.488 320.391 361.458C322.111 360.758 329.721 358.198 339.351 354.948C358.791 348.388 385.421 339.408 390.481 336.778C390.811 336.608 390.941 336.198 390.771 335.868C390.601 335.538 390.191 335.398 389.861 335.578C384.891 338.158 357.221 347.488 338.921 353.658C329.271 356.918 321.641 359.488 319.881 360.198C319.531 360.338 319.371 360.738 319.511 361.078C319.621 361.338 319.871 361.498 320.141 361.498V361.508Z" fill="#7591B7"/>
<path d="M329.489 389.438C346.599 389.438 379.769 386.348 404.969 377.438C405.319 377.308 405.509 376.928 405.379 376.578C405.259 376.228 404.869 376.038 404.519 376.168C372.689 387.428 328.149 389.348 319.869 387.488C319.509 387.408 319.139 387.638 319.059 387.998C318.979 388.358 319.209 388.728 319.569 388.808C321.359 389.208 324.829 389.438 329.489 389.438Z" fill="#7591B7"/>
<path d="M533.16 205.318C533.1 201.428 532.44 197.608 532.48 193.698C532.52 189.898 532.89 186.118 532.96 182.318C533.03 178.408 532.48 172.808 527.62 172.228C521.79 171.528 515.64 176.728 512.87 181.378C511.57 183.568 510.6 186.218 511.1 188.788C511.54 191.048 512.89 192.978 514.01 194.948C515.21 197.048 516.02 199.198 513.99 201.088C511.85 203.068 508.85 204.158 506.52 205.948C501.75 209.608 499.93 215.248 499.56 221.088C499.3 225.228 499.56 229.378 499.41 233.528C499.27 237.678 498.93 241.828 498.47 245.958C498.46 245.998 498.44 246.028 498.43 246.068C498.19 246.968 498.14 248.188 498.38 247.288C498.92 245.248 502.23 242.558 503.46 240.938C505.16 238.708 506.81 236.448 508.64 234.318C513.3 228.918 520.03 225.918 525.34 221.248C530.2 216.978 533.25 211.938 533.16 205.328V205.318Z" fill="#009EDC"/>
<path d="M480.066 292.948C480.696 294.958 481.696 297.188 481.866 299.308C481.916 299.938 488.836 299.498 491.106 298.498C492.596 297.838 493.956 296.898 494.976 295.618C497.156 292.898 497.776 289.268 498.926 286.068C500.526 281.648 503.426 278.738 507.896 277.238C511.766 275.938 516.136 275.328 520.206 275.208C526.026 275.028 533.506 275.978 535.906 269.198C536.706 266.938 536.496 264.668 536.316 262.328C536.116 259.838 536.316 257.728 537.536 255.528C539.616 251.798 542.526 248.548 544.786 244.918C546.906 241.508 548.696 237.778 548.866 233.698C549.006 230.448 548.266 226.198 545.596 224.008C540.556 219.868 533.706 226.338 530.826 230.138C526.956 235.228 525.366 242.428 520.136 246.448C518.536 247.678 517.016 247.848 515.076 247.338C513.496 246.918 512.016 246.348 510.366 246.338C507.786 246.318 505.446 247.308 503.516 248.998C500.326 251.798 498.256 255.838 496.546 259.648C494.716 263.718 493.416 267.978 492.036 272.208C490.366 277.328 488.336 282.318 486.596 287.418C485.616 290.288 485.206 293.548 484.016 296.408C484.096 295.758 484.166 295.108 484.246 294.488C484.626 291.418 484.886 288.338 485.116 285.248C485.366 281.888 485.486 278.568 485.466 275.198C485.456 272.508 485.896 268.118 483.756 259.818C482.406 254.618 479.546 249.738 479.696 244.228C479.856 238.508 482.026 232.988 483.846 227.628C486.056 221.148 487.676 214.628 486.856 207.738C486.586 205.498 486.086 202.768 484.296 201.198C482.486 199.608 480.066 200.238 478.166 201.308C470.876 205.388 470.296 214.268 470.606 221.718C470.816 226.858 472.366 231.508 473.396 236.508C473.596 237.508 474.846 243.118 473.476 243.468C472.666 243.668 471.806 242.208 471.536 241.608C471.076 240.578 470.726 239.488 470.356 238.418C469.416 235.688 468.536 232.908 467.276 230.308C466.556 228.818 465.436 226.478 463.546 226.238C461.126 225.928 460.046 228.958 459.896 230.828C459.586 234.728 460.746 238.618 460.886 242.508C461.076 247.808 460.786 253.188 462.756 258.218C464.676 263.148 467.856 267.438 470.716 271.838C472.806 275.048 474.496 278.348 475.976 281.868C477.506 285.508 478.886 289.178 480.066 292.948Z" fill="#009EDC"/>
<path d="M442.768 293.868C443.008 297.118 444.238 300.128 446.448 302.548C448.828 305.148 452.228 305.958 455.138 307.768C456.658 308.718 458.198 310.068 458.558 311.918C458.938 313.878 457.828 315.598 456.878 317.208C455.158 320.138 453.508 322.968 453.118 326.418C452.818 329.038 453.098 331.978 455.098 333.898C457.728 336.428 461.928 336.768 465.088 338.378C472.078 341.948 477.208 347.758 481.408 354.238C481.768 354.788 482.808 354.428 482.528 353.768C482.428 353.538 482.328 353.318 482.218 353.098C481.608 348.658 480.468 344.338 479.398 339.998C478.328 335.648 477.638 331.238 476.788 326.848C475.528 320.328 474.228 313.508 471.508 307.408C470.498 305.148 469.138 302.998 467.188 301.448C464.998 299.708 462.438 299.008 459.818 298.198C455.738 296.938 452.938 294.648 451.388 290.608C450.028 287.038 449.148 283.138 448.678 279.348C448.408 277.198 448.548 275.028 448.368 272.868C448.258 271.568 448.208 269.438 446.888 268.708C446.648 268.578 446.308 268.638 446.168 268.898C444.328 272.458 444.448 276.738 443.848 280.608C443.188 284.888 442.438 289.548 442.768 293.878V293.868Z" fill="#009EDC"/>
<path d="M487.807 325.868C483.967 334.468 482.288 343.408 482.188 352.798C482.188 353.148 482.847 353.468 483.047 353.288C483.407 353.568 483.177 354.118 483.217 353.508C483.597 347.178 488.148 340.618 492.978 336.748C497.718 332.938 503.358 330.588 508.918 328.258C511.498 327.178 514.058 326.078 516.568 324.858C518.498 323.918 520.557 322.988 522.107 321.458C525.297 318.328 523.848 313.388 520.638 310.828C517.928 308.668 514.658 308.478 511.538 307.478C514.058 304.128 517.518 301.618 520.508 298.708C522.498 296.768 525.518 293.738 524.768 290.648C523.488 285.378 517.138 288.898 514.448 290.688C509.408 294.038 504.927 298.158 501.207 302.948C495.847 309.858 491.357 317.888 487.797 325.868H487.807Z" fill="#009EDC"/>
<path d="M514.037 215.548C511.987 219.798 509.847 223.948 507.577 228.098C505.387 232.088 503.207 236.048 501.567 240.308C499.547 245.548 497.437 250.718 495.307 255.908C493.087 261.308 491.107 266.808 489.527 272.428C486.427 283.398 484.127 294.678 482.987 306.028C482.407 311.798 482.147 317.598 482.307 323.398C482.427 327.928 482.937 332.408 483.367 336.908C483.807 341.598 484.127 346.338 483.737 351.038C483.407 354.968 482.787 359.648 479.737 362.448C479.137 362.998 478.297 362.308 478.637 361.598C482.267 354.158 482.057 346.058 481.367 337.988C480.987 333.538 480.457 329.108 480.307 324.638C480.117 318.948 480.337 313.258 480.877 307.588C481.927 296.458 484.147 285.458 487.027 274.668C488.507 269.128 490.327 263.708 492.437 258.378C494.547 253.038 496.987 247.848 499.027 242.478C502.727 232.778 508.357 224.168 513.347 215.128C513.607 214.658 514.287 215.068 514.057 215.548H514.037Z" fill="#2A5590"/>
<path d="M482.806 294.898C482.216 287.828 481.596 281.028 479.216 274.288C478.106 271.148 476.756 268.088 475.686 264.928C474.796 262.318 473.476 258.738 474.156 255.968C474.236 255.658 474.686 255.678 474.766 255.968C475.226 257.548 475.176 259.288 475.496 260.908C475.816 262.488 476.246 264.038 476.736 265.578C477.786 268.848 479.146 271.978 480.326 275.188C482.616 281.398 483.786 288.278 483.286 294.898C483.266 295.208 482.826 295.208 482.796 294.898H482.806Z" fill="#2A5590"/>
<path d="M523.759 254.288C520.949 261.068 512.519 261.458 506.379 262.978C501.989 264.058 498.759 266.988 496.429 270.788C493.889 274.948 492.159 279.818 490.749 284.458C490.729 284.508 490.659 284.488 490.669 284.438C492.389 276.318 494.849 266.538 503.219 262.758C509.929 259.728 518.769 261.248 523.059 254.008C523.269 253.648 523.929 253.888 523.759 254.298V254.288Z" fill="#2A5590"/>
<path d="M487.248 293.828C486.918 294.278 486.608 294.748 486.268 295.188C486.098 295.408 485.928 295.618 485.708 295.788C485.488 295.968 485.228 296.188 484.928 296.188C484.798 296.188 484.718 296.048 484.778 295.938C484.918 295.708 485.168 295.578 485.358 295.408C485.558 295.228 485.768 295.058 485.958 294.868C486.348 294.498 486.708 294.098 487.088 293.718C487.158 293.648 487.308 293.748 487.238 293.838L487.248 293.828Z" fill="#2A5590"/>
<path d="M504.788 315.328C499.948 319.298 495.488 323.998 491.938 329.148C490.238 331.608 488.678 334.218 487.258 336.848C485.708 339.718 484.688 342.758 483.478 345.768C483.388 345.998 482.968 345.998 482.998 345.708C483.668 339.338 487.708 333.868 490.938 328.568C492.618 325.818 494.708 323.598 496.948 321.298C499.268 318.928 501.628 316.678 504.348 314.768C504.678 314.538 505.098 315.078 504.788 315.328Z" fill="#2A5590"/>
<path d="M466.258 307.828C468.588 309.148 468.668 312.828 468.708 315.178C468.798 319.698 467.678 323.938 469.658 328.238C471.448 332.128 474.308 335.368 476.558 338.978C478.658 342.358 480.738 346.678 480.688 350.748C480.688 350.988 480.328 351.118 480.218 350.878C479.368 349.028 479.068 346.938 478.458 344.998C477.778 342.818 476.818 340.848 475.588 338.938C473.428 335.588 470.768 332.538 469.008 328.928C467.158 325.128 467.428 321.368 467.548 317.248C467.628 314.618 467.888 310.398 465.768 308.448C465.438 308.138 465.858 307.618 466.238 307.838L466.258 307.828Z" fill="#2A5590"/>
<path d="M481.836 351.168C491.226 351.038 509.106 350.938 509.106 350.938L504.676 383.788C503.676 391.178 497.376 396.698 489.916 396.698H482.206H481.456H473.746C466.286 396.698 459.976 391.178 458.986 383.788L454.566 350.938C454.566 350.938 472.446 351.038 481.836 351.168Z" fill="#FCC82B"/>
<path d="M28.0781 290.788L81.6381 396.878L237.778 397.998L189.588 289.298L28.0781 290.788Z" fill="#F5F7FA"/>
<path d="M341.408 397.338L341.378 388.848H240.298L193.788 286.868H32.1381L28.0781 290.788H185.998L234.328 397.248C234.328 397.248 341.408 397.058 341.408 397.338Z" fill="#D4DDE9"/>
<path d="M109.159 349.328C110.919 354.618 120.499 358.708 130.539 358.458C140.579 358.208 147.299 353.718 145.539 348.418C143.779 343.128 134.199 339.038 124.159 339.288C114.109 339.538 107.399 344.028 109.159 349.328Z" fill="#D4DDE9"/>
<path d="M234.318 397.928C234.408 397.928 234.508 397.908 234.598 397.868C234.938 397.718 235.088 397.308 234.938 396.968L186.428 290.108H28.0784C27.7084 290.108 27.3984 290.408 27.3984 290.788C27.3984 291.158 27.6984 291.468 28.0784 291.468H185.558L233.708 397.528C233.818 397.778 234.068 397.928 234.328 397.928H234.318Z" fill="white"/>
<path d="M348.44 446.558H534.18V405.378H348.44V446.558Z" fill="#43699D"/>
<path d="M15.3217 446.558L349.512 446.558V405.378L15.3217 405.378V446.558Z" fill="#6987B1"/>
<g style="mix-blend-mode:multiply">
<path d="M348.443 405.378H349.503H534.182V412.938H349.503H348.443H15.3125V405.378H348.443Z" fill="#B4C3D8"/>
</g>
<path d="M340.311 407.338H543.141V397.248H340.311V407.338Z" fill="#5C7DAA"/>
<path d="M7.19281 407.338L341.383 407.338V397.248L7.19281 397.248V407.338Z" fill="#8EA5C4"/>
<path d="M393.42 181.178H462.82C465.819 181.178 468.25 178.747 468.25 175.748V139.178C468.25 136.179 465.819 133.748 462.82 133.748H393.42C390.421 133.748 387.99 136.179 387.99 139.178V175.748C387.99 178.747 390.421 181.178 393.42 181.178Z" fill="white"/>
<path d="M369.301 157.468L393.931 147.078V167.858L369.301 157.468Z" fill="white"/>
<path d="M443.681 162.008C446.188 162.008 448.221 159.975 448.221 157.468C448.221 154.96 446.188 152.928 443.681 152.928C441.173 152.928 439.141 154.96 439.141 157.468C439.141 159.975 441.173 162.008 443.681 162.008Z" fill="#04377D"/>
<path d="M428.118 162.008C430.626 162.008 432.658 159.975 432.658 157.468C432.658 154.96 430.626 152.928 428.118 152.928C425.611 152.928 423.578 154.96 423.578 157.468C423.578 159.975 425.611 162.008 428.118 162.008Z" fill="#04377D"/>
<path d="M412.56 162.008C415.067 162.008 417.1 159.975 417.1 157.468C417.1 154.96 415.067 152.928 412.56 152.928C410.052 152.928 408.02 154.96 408.02 157.468C408.02 159.975 410.052 162.008 412.56 162.008Z" fill="#04377D"/>
<path d="M61.5102 33.0477H212.89C222.61 33.0477 230.49 40.9277 230.49 50.6477V122.468C230.49 132.188 222.61 140.068 212.89 140.068H199.32C198.94 146.578 199.87 156.258 205.31 168.648C187.82 160.578 177.75 148.468 172.49 140.068H61.5102C51.7902 140.068 43.9102 132.188 43.9102 122.468V50.6477C43.9102 40.9277 51.7902 33.0477 61.5102 33.0477Z" fill="#009FDD"/>
<path d="M126.092 67.2777H201.172C203.232 67.2777 204.912 65.6077 204.912 63.5377C204.912 61.4777 203.242 59.7977 201.172 59.7977H126.092C124.032 59.7977 122.352 61.4677 122.352 63.5377C122.352 65.5977 124.022 67.2777 126.092 67.2777Z" fill="white"/>
<path d="M72.2509 89.0378H202.621C203.881 89.0378 204.911 88.0178 204.911 86.7478C204.911 85.4878 203.891 84.4578 202.621 84.4578H72.2509C70.9909 84.4578 69.9609 85.4778 69.9609 86.7478C69.9609 88.0078 70.9809 89.0378 72.2509 89.0378Z" fill="#CCE6FF"/>
<path d="M72.2509 101.738H202.621C203.881 101.738 204.911 100.718 204.911 99.4477C204.911 98.1877 203.891 97.1577 202.621 97.1577H72.2509C70.9909 97.1577 69.9609 98.1777 69.9609 99.4477C69.9609 100.708 70.9809 101.738 72.2509 101.738Z" fill="#CCE6FF"/>
<path d="M100.688 115.278H202.618C203.878 115.278 204.908 114.258 204.908 112.988C204.908 111.728 203.888 110.698 202.618 110.698H100.688C99.4284 110.698 98.3984 111.718 98.3984 112.988C98.3984 114.248 99.4184 115.278 100.688 115.278Z" fill="#CCE6FF"/>
<path d="M73.2791 67.2777H109.099C111.159 67.2777 112.839 65.6077 112.839 63.5377C112.839 61.4777 111.169 59.7977 109.099 59.7977H73.2791C71.2191 59.7977 69.5391 61.4677 69.5391 63.5377C69.5391 65.5977 71.2091 67.2777 73.2791 67.2777Z" fill="white"/>
<path d="M162.84 232.428H204.93C206.034 232.428 206.93 231.532 206.93 230.428V201.228C206.93 200.123 206.034 199.228 204.93 199.228H162.84C161.735 199.228 160.84 200.123 160.84 201.228V230.428C160.84 231.532 161.735 232.428 162.84 232.428Z" fill="white"/>
<path d="M183.598 220.788C183.828 220.788 184.058 220.708 184.248 220.558L206.378 202.278C206.808 201.918 206.868 201.278 206.518 200.848C206.158 200.418 205.518 200.358 205.088 200.708L183.618 218.438L162.698 200.228C162.278 199.858 161.638 199.908 161.268 200.328C160.898 200.748 160.948 201.388 161.368 201.758L182.938 220.528C183.128 220.698 183.368 220.778 183.608 220.778L183.598 220.788Z" fill="#5C7DAA"/>
<path d="M205.737 231.668C205.987 231.668 206.237 231.578 206.437 231.388C206.847 230.998 206.857 230.358 206.477 229.948L190.997 213.678C190.617 213.268 189.967 213.258 189.567 213.638C189.157 214.028 189.147 214.668 189.527 215.078L205.007 231.348C205.207 231.558 205.477 231.668 205.747 231.668H205.737Z" fill="#5C7DAA"/>
<path d="M162.028 231.078C162.288 231.078 162.548 230.978 162.748 230.778L178.168 215.318C178.568 214.918 178.568 214.278 178.168 213.878C177.768 213.478 177.128 213.488 176.728 213.878L161.308 229.338C160.908 229.738 160.908 230.378 161.308 230.778C161.508 230.978 161.768 231.078 162.028 231.078Z" fill="#5C7DAA"/>
<path d="M158.729 208.298C164.307 208.298 168.829 203.776 168.829 198.198C168.829 192.62 164.307 188.098 158.729 188.098C153.151 188.098 148.629 192.62 148.629 198.198C148.629 203.776 153.151 208.298 158.729 208.298Z" fill="#FF5E3F"/>
<path d="M20.8525 193.198H103.062C105.272 193.198 107.062 191.407 107.062 189.198V173.948C107.062 171.739 105.272 169.948 103.062 169.948H20.8525C18.6434 169.948 16.8525 171.739 16.8525 173.948V189.198C16.8525 191.407 18.6434 193.198 20.8525 193.198Z" fill="#04377D"/>
<path d="M94.9705 187.288C94.7305 187.038 94.6305 186.718 94.6905 186.338L95.0305 183.328C95.0605 183.248 95.0405 183.198 94.9905 183.178C94.9405 183.148 94.8805 183.168 94.8005 183.218L92.3205 185.048C92.0205 185.248 91.6905 185.318 91.3505 185.258C91.0105 185.198 90.7505 184.998 90.5705 184.668C90.3705 184.338 90.3205 184.008 90.4405 183.678C90.5505 183.348 90.7905 183.108 91.1405 182.958L93.9205 181.698C94.0005 181.668 94.0305 181.638 94.0305 181.588C94.0305 181.538 93.9905 181.498 93.9205 181.478L91.1405 180.218C90.8105 180.088 90.5705 179.878 90.4405 179.568C90.3005 179.258 90.3405 178.908 90.5705 178.498C90.7505 178.168 91.0105 177.968 91.3505 177.908C91.6905 177.848 92.0205 177.928 92.3205 178.158L94.8005 179.948C94.8805 179.998 94.9405 180.008 94.9905 179.988C95.0405 179.958 95.0505 179.908 95.0305 179.838L94.6905 176.828C94.6405 176.448 94.7305 176.128 94.9605 175.878C95.1905 175.628 95.4805 175.498 95.8405 175.498C96.2205 175.498 96.5305 175.628 96.7505 175.878C96.9805 176.128 97.0805 176.448 97.0605 176.828L96.7205 179.838C96.7005 179.918 96.7105 179.968 96.7605 179.988C96.8105 180.018 96.8705 179.998 96.9505 179.948L99.4305 178.118C99.7405 177.918 100.05 177.848 100.38 177.908C100.71 177.968 100.98 178.168 101.18 178.498C101.36 178.828 101.4 179.158 101.29 179.488C101.19 179.818 100.96 180.058 100.6 180.208L97.8205 181.468C97.7405 181.498 97.7105 181.528 97.7105 181.578C97.7105 181.628 97.7505 181.668 97.8205 181.688L100.6 182.948C100.93 183.078 101.17 183.288 101.3 183.598C101.43 183.908 101.4 184.258 101.17 184.668C100.97 184.998 100.7 185.198 100.37 185.258C100.04 185.318 99.7205 185.238 99.4205 185.008L96.9405 183.218C96.8605 183.168 96.8005 183.158 96.7505 183.178C96.7005 183.208 96.6905 183.258 96.7105 183.328L97.0505 186.338C97.0805 186.718 96.9805 187.038 96.7605 187.288C96.5405 187.538 96.2605 187.668 95.9005 187.668C95.5205 187.668 95.2105 187.538 94.9705 187.288Z" fill="white"/>
<path d="M78.5603 187.288C78.3203 187.038 78.2203 186.718 78.2803 186.338L78.6203 183.328C78.6503 183.248 78.6303 183.198 78.5803 183.178C78.5303 183.148 78.4703 183.168 78.3903 183.218L75.9103 185.048C75.6103 185.248 75.2803 185.318 74.9403 185.258C74.6003 185.198 74.3403 184.998 74.1603 184.668C73.9603 184.338 73.9103 184.008 74.0303 183.678C74.1403 183.348 74.3803 183.108 74.7303 182.958L77.5103 181.698C77.5903 181.668 77.6203 181.638 77.6203 181.588C77.6203 181.538 77.5803 181.498 77.5103 181.478L74.7303 180.218C74.4003 180.088 74.1603 179.878 74.0303 179.568C73.8903 179.258 73.9303 178.908 74.1603 178.498C74.3403 178.168 74.6003 177.968 74.9403 177.908C75.2803 177.848 75.6103 177.928 75.9103 178.158L78.3903 179.948C78.4703 179.998 78.5303 180.008 78.5803 179.988C78.6303 179.958 78.6403 179.908 78.6203 179.838L78.2803 176.828C78.2303 176.448 78.3203 176.128 78.5503 175.878C78.7803 175.628 79.0703 175.498 79.4303 175.498C79.8103 175.498 80.1203 175.628 80.3403 175.878C80.5703 176.128 80.6703 176.448 80.6503 176.828L80.3103 179.838C80.2903 179.918 80.3003 179.968 80.3503 179.988C80.4003 180.018 80.4603 179.998 80.5403 179.948L83.0203 178.118C83.3303 177.918 83.6403 177.848 83.9703 177.908C84.3003 177.968 84.5703 178.168 84.7703 178.498C84.9503 178.828 84.9903 179.158 84.8803 179.488C84.7803 179.818 84.5503 180.058 84.1903 180.208L81.4103 181.468C81.3303 181.498 81.3003 181.528 81.3003 181.578C81.3003 181.628 81.3403 181.668 81.4103 181.688L84.1903 182.948C84.5203 183.078 84.7603 183.288 84.8903 183.598C85.0203 183.908 84.9903 184.258 84.7603 184.668C84.5603 184.998 84.2903 185.198 83.9603 185.258C83.6303 185.318 83.3103 185.238 83.0103 185.008L80.5303 183.218C80.4503 183.168 80.3903 183.158 80.3403 183.178C80.2903 183.208 80.2803 183.258 80.3003 183.328L80.6403 186.338C80.6703 186.718 80.5703 187.038 80.3503 187.288C80.1303 187.538 79.8503 187.668 79.4903 187.668C79.1103 187.668 78.8003 187.538 78.5603 187.288Z" fill="white"/>
<path d="M62.1423 187.288C61.9023 187.038 61.8023 186.718 61.8623 186.338L62.2023 183.328C62.2323 183.248 62.2123 183.198 62.1623 183.178C62.1123 183.148 62.0523 183.168 61.9723 183.218L59.4923 185.048C59.1923 185.248 58.8623 185.318 58.5223 185.258C58.1823 185.198 57.9223 184.998 57.7423 184.668C57.5423 184.338 57.4923 184.008 57.6123 183.678C57.7223 183.348 57.9623 183.108 58.3123 182.958L61.0923 181.698C61.1723 181.668 61.2023 181.638 61.2023 181.588C61.2023 181.538 61.1623 181.498 61.0923 181.478L58.3123 180.218C57.9823 180.088 57.7423 179.878 57.6123 179.568C57.4723 179.258 57.5123 178.908 57.7423 178.498C57.9223 178.168 58.1823 177.968 58.5223 177.908C58.8623 177.848 59.1923 177.928 59.4923 178.158L61.9723 179.948C62.0523 179.998 62.1123 180.008 62.1623 179.988C62.2123 179.958 62.2223 179.908 62.2023 179.838L61.8623 176.828C61.8123 176.448 61.9023 176.128 62.1323 175.878C62.3623 175.628 62.6523 175.498 63.0123 175.498C63.3923 175.498 63.7023 175.628 63.9223 175.878C64.1523 176.128 64.2523 176.448 64.2323 176.828L63.8923 179.838C63.8723 179.918 63.8823 179.968 63.9323 179.988C63.9823 180.018 64.0423 179.998 64.1223 179.948L66.6023 178.118C66.9123 177.918 67.2223 177.848 67.5523 177.908C67.8823 177.968 68.1523 178.168 68.3523 178.498C68.5323 178.828 68.5723 179.158 68.4623 179.488C68.3623 179.818 68.1323 180.058 67.7723 180.208L64.9923 181.468C64.9123 181.498 64.8823 181.528 64.8823 181.578C64.8823 181.628 64.9223 181.668 64.9923 181.688L67.7723 182.948C68.1023 183.078 68.3423 183.288 68.4723 183.598C68.6023 183.908 68.5723 184.258 68.3423 184.668C68.1423 184.998 67.8723 185.198 67.5423 185.258C67.2123 185.318 66.8923 185.238 66.5923 185.008L64.1123 183.218C64.0323 183.168 63.9723 183.158 63.9223 183.178C63.8723 183.208 63.8623 183.258 63.8823 183.328L64.2223 186.338C64.2523 186.718 64.1523 187.038 63.9323 187.288C63.7123 187.538 63.4323 187.668 63.0723 187.668C62.6923 187.668 62.3823 187.538 62.1423 187.288Z" fill="white"/>
<path d="M45.7205 187.288C45.4805 187.038 45.3805 186.718 45.4405 186.338L45.7805 183.328C45.8105 183.248 45.7905 183.198 45.7405 183.178C45.6905 183.148 45.6305 183.168 45.5505 183.218L43.0705 185.048C42.7705 185.248 42.4405 185.318 42.1005 185.258C41.7605 185.198 41.5005 184.998 41.3205 184.668C41.1205 184.338 41.0705 184.008 41.1905 183.678C41.3005 183.348 41.5405 183.108 41.8905 182.958L44.6705 181.698C44.7505 181.668 44.7805 181.638 44.7805 181.588C44.7805 181.538 44.7405 181.498 44.6705 181.478L41.8905 180.218C41.5605 180.088 41.3205 179.878 41.1905 179.568C41.0505 179.258 41.0905 178.908 41.3205 178.498C41.5005 178.168 41.7605 177.968 42.1005 177.908C42.4405 177.848 42.7705 177.928 43.0705 178.158L45.5505 179.948C45.6305 179.998 45.6905 180.008 45.7405 179.988C45.7905 179.958 45.8005 179.908 45.7805 179.838L45.4405 176.828C45.3905 176.448 45.4805 176.128 45.7105 175.878C45.9405 175.628 46.2305 175.498 46.5905 175.498C46.9705 175.498 47.2805 175.628 47.5005 175.878C47.7305 176.128 47.8305 176.448 47.8105 176.828L47.4705 179.838C47.4505 179.918 47.4605 179.968 47.5105 179.988C47.5605 180.018 47.6205 179.998 47.7005 179.948L50.1805 178.118C50.4905 177.918 50.8005 177.848 51.1305 177.908C51.4605 177.968 51.7305 178.168 51.9305 178.498C52.1105 178.828 52.1505 179.158 52.0405 179.488C51.9405 179.818 51.7105 180.058 51.3505 180.208L48.5705 181.468C48.4905 181.498 48.4605 181.528 48.4605 181.578C48.4605 181.628 48.5005 181.668 48.5705 181.688L51.3505 182.948C51.6805 183.078 51.9205 183.288 52.0505 183.598C52.1905 183.898 52.1505 184.258 51.9205 184.668C51.7205 184.998 51.4505 185.198 51.1205 185.258C50.7905 185.318 50.4705 185.238 50.1705 185.008L47.6905 183.218C47.6105 183.168 47.5505 183.158 47.5005 183.178C47.4505 183.208 47.4405 183.258 47.4605 183.328L47.8005 186.338C47.8305 186.718 47.7305 187.038 47.5105 187.288C47.2905 187.538 47.0105 187.668 46.6505 187.668C46.2705 187.668 45.9605 187.538 45.7205 187.288Z" fill="white"/>
<path d="M29.3025 187.288C29.0625 187.038 28.9625 186.718 29.0225 186.338L29.3625 183.328C29.3925 183.248 29.3725 183.198 29.3225 183.178C29.2725 183.148 29.2125 183.168 29.1325 183.218L26.6525 185.048C26.3525 185.248 26.0225 185.318 25.6825 185.258C25.3425 185.198 25.0825 184.998 24.9025 184.668C24.7025 184.338 24.6525 184.008 24.7725 183.678C24.8825 183.348 25.1225 183.108 25.4725 182.958L28.2525 181.698C28.3325 181.668 28.3625 181.638 28.3625 181.588C28.3625 181.538 28.3225 181.498 28.2525 181.478L25.4725 180.218C25.1425 180.088 24.9025 179.878 24.7725 179.568C24.6325 179.258 24.6725 178.908 24.9025 178.498C25.0825 178.168 25.3425 177.968 25.6825 177.908C26.0225 177.848 26.3525 177.928 26.6525 178.158L29.1325 179.948C29.2125 179.998 29.2725 180.008 29.3225 179.988C29.3725 179.958 29.3825 179.908 29.3625 179.838L29.0225 176.828C28.9725 176.448 29.0625 176.128 29.2925 175.878C29.5225 175.628 29.8125 175.498 30.1725 175.498C30.5525 175.498 30.8625 175.628 31.0825 175.878C31.3125 176.128 31.4125 176.448 31.3925 176.828L31.0525 179.838C31.0325 179.918 31.0425 179.968 31.0925 179.988C31.1425 180.018 31.2025 179.998 31.2825 179.948L33.7625 178.118C34.0725 177.918 34.3825 177.848 34.7125 177.908C35.0425 177.968 35.3125 178.168 35.5125 178.498C35.6925 178.828 35.7325 179.158 35.6225 179.488C35.5225 179.818 35.2925 180.058 34.9325 180.208L32.1525 181.468C32.0725 181.498 32.0425 181.528 32.0425 181.578C32.0425 181.628 32.0825 181.668 32.1525 181.688L34.9325 182.948C35.2625 183.078 35.5025 183.288 35.6325 183.598C35.7625 183.908 35.7325 184.258 35.5025 184.668C35.3025 184.998 35.0325 185.198 34.7025 185.258C34.3725 185.318 34.0525 185.238 33.7525 185.008L31.2725 183.218C31.1925 183.168 31.1325 183.158 31.0825 183.178C31.0325 183.208 31.0225 183.258 31.0425 183.328L31.3825 186.338C31.4125 186.718 31.3125 187.038 31.0925 187.288C30.8725 187.538 30.5925 187.668 30.2325 187.668C29.8525 187.668 29.5425 187.538 29.3025 187.288Z" fill="#54ADFF"/>
</svg>
