<svg width="200" height="166" viewBox="0 0 200 166" fill="none" xmlns="http://www.w3.org/2000/svg">
<path d="M-4.57764e-05 166C5.57904 163.307 11.0515 160.424 16.1035 156.835C20.9008 153.424 25.479 149.082 27.007 143.387C28.0316 139.549 27.5696 135.48 26.9478 131.553C24.3951 115.312 19.8999 96.8335 29.9624 83.8426C36.4298 75.4904 47.7124 71.9253 58.2487 72.6253C68.785 73.3193 78.7231 77.7208 87.9564 82.852C96.5501 87.6331 104.925 93.1735 114.442 95.6412C123.966 98.103 135.213 96.8276 141.84 89.5551C149.297 81.3749 148.509 68.2001 143.297 58.4361C138.079 48.6662 129.355 41.3699 121.312 33.7652C116.26 28.984 110.989 22.2157 113.595 15.7677C114.821 12.7424 117.558 10.6247 120.323 8.89847C144.132 -5.9551 174.722 -0.598561 200 13.1161L200 166L-4.57764e-05 166Z" fill="url(#paint0_linear_3395_8216)"/>
<defs>
<linearGradient id="paint0_linear_3395_8216" x1="200" y1="83.0003" x2="-1.60054e-05" y2="83.0003" gradientUnits="userSpaceOnUse">
<stop stop-color="#009FDD"/>
<stop offset="0.99" stop-color="#84D3F3"/>
</linearGradient>
</defs>
</svg>
