<svg width="855" height="567" viewBox="0 0 855 567" fill="none" xmlns="http://www.w3.org/2000/svg">
<g clip-path="url(#clip0_3395_8130)">
<path d="M635.547 217.869L448.742 151.276V274.301L635.547 217.869Z" fill="url(#paint0_linear_3395_8130)"/>
<path d="M438.309 277.458L448.741 274.301V151.276L251.504 210.852L438.309 277.458Z" fill="url(#paint1_linear_3395_8130)"/>
<path d="M635.559 217.869L633.483 218.5L448.754 152.637V151.262L635.559 217.869Z" fill="#0C96BC"/>
<path d="M448.755 152.637V151.262L251.504 210.852L253.467 211.567L448.755 152.637Z" fill="#0C96BC"/>
<path d="M448.629 243.313L480.894 232.717L481.357 279.662L449.092 290.258L448.629 243.313Z" fill="url(#paint2_linear_3395_8130)"/>
<path d="M412.227 234.233L444.506 223.637L480.894 232.717L448.628 243.313L412.227 234.233Z" fill="url(#paint3_linear_3395_8130)"/>
<path d="M448.628 243.313L412.227 234.233L412.689 281.163L449.091 290.258L448.628 243.313Z" fill="#FCC82B"/>
<path d="M416.855 55.8565C414.106 56.7547 411.596 58.3125 409.325 60.5019C403.8 65.8349 400.154 76.0379 398.443 90.8019L397.504 98.9839L429.769 88.4021L430.709 80.2201C432.419 65.442 436.079 55.2531 441.59 49.92C443.862 47.7166 446.357 46.1729 449.12 45.2747L416.855 55.8565Z" fill="url(#paint4_linear_3395_8130)"/>
<path d="M511.291 36.8682C498.657 19.0306 481.83 7.38209 461.274 2.25957C449.145 -0.771838 438.389 -0.743769 429.121 2.28764L396.855 12.8695C406.124 9.82406 416.879 9.81003 429.009 12.8414C449.551 17.964 466.378 29.6124 479.026 47.45C491.842 65.5543 498.433 85.5251 498.643 106.815C498.769 119.151 496.596 130.14 492.193 139.487C487.916 148.539 479.98 158.223 467.92 169.127C458.918 177.267 455.356 181.548 453.954 183.709C452.117 186.544 450.757 190.067 449.874 194.179C449.229 197.252 448.443 203.89 448.373 218.079L448.345 226.752L480.61 216.17L480.639 207.497C480.709 193.309 481.494 186.656 482.139 183.597C483.008 179.471 484.382 175.962 486.219 173.127C487.622 170.966 491.183 166.671 500.186 158.546C512.245 147.641 520.181 137.957 524.458 128.905C528.861 119.558 531.035 108.569 530.908 96.2333C530.698 74.9292 524.108 54.9584 511.291 36.8682Z" fill="url(#paint5_linear_3395_8130)"/>
<path d="M479.014 47.4641C466.38 29.6265 449.553 17.978 428.996 12.8555C409.533 7.99963 393.604 10.9749 381.657 21.7252C369.71 32.4755 362.545 50.4534 360.413 75.1818L359.656 83.7989L397.502 99.0261L398.442 90.8441C400.153 76.066 403.812 65.8771 409.323 60.5441C414.75 55.2952 421.452 53.7515 429.81 55.8426C438.475 58.0039 445.599 63.379 451.586 72.2627C457.518 81.0482 460.448 89.9319 460.547 99.4051C460.589 104.443 459.719 108.724 457.896 112.485C456.508 115.348 452.876 120.513 443.509 128.933C435.068 136.526 429.319 142.364 425.94 146.785C421.242 152.988 417.793 159.64 415.689 166.489C412.857 175.471 411.483 186.642 411.609 199.68C411.637 201.855 411.707 205.027 411.833 209.125L412.1 217.798L448.305 226.837L448.333 218.163C448.403 203.975 449.188 197.322 449.833 194.263C450.703 190.137 452.077 186.628 453.914 183.793C455.316 181.632 458.878 177.338 467.88 169.212C479.939 158.307 487.876 148.623 492.153 139.571C496.556 130.224 498.729 119.236 498.603 106.899C498.393 85.5953 491.802 65.6245 478.986 47.5343L479.014 47.4641Z" fill="#FCC82B"/>
<path d="M570.664 114.085L575.011 124.456L558.296 113.341L553.949 102.97L570.664 114.085Z" fill="url(#paint6_linear_3395_8130)"/>
<path d="M612.969 112.176C611.174 107.882 608.033 104.654 603.406 102.324C600.532 100.879 597.699 100.065 594.838 99.8681C592.567 99.7137 590.267 99.9383 587.925 100.57C582.653 101.973 577.367 105.889 572.192 112.218L570.664 114.085L575.011 124.456L576.539 122.59C581.714 116.26 587 112.345 592.272 110.941C594.614 110.324 596.9 110.085 599.185 110.239C602.046 110.436 604.878 111.264 607.753 112.695C612.38 115.011 615.521 118.253 617.316 122.548L612.969 112.176Z" fill="url(#paint7_linear_3395_8130)"/>
<path d="M569.092 177.408L573.439 187.779L556.374 179.19L552.027 168.819L569.092 177.408Z" fill="url(#paint8_linear_3395_8130)"/>
<path d="M637.901 120.134C637.649 119.376 637.368 118.632 637.06 117.902L632.713 107.531C633.021 108.261 633.302 109.004 633.554 109.762C636.723 119.207 635.756 128.358 630.652 136.961C627.707 141.943 623.739 145.999 618.831 149.016C614.007 151.992 606.715 154.616 596.563 157.058C590.211 158.588 585.864 159.893 583.635 160.931C581.531 161.9 579.568 163.303 577.788 165.057C575.937 166.896 573.427 170.348 570.37 175.331L569.094 177.408L573.441 187.779L574.717 185.702C577.788 180.72 580.284 177.281 582.134 175.429C583.915 173.661 585.878 172.271 587.982 171.303C590.211 170.264 594.558 168.959 600.91 167.429C611.076 164.987 618.354 162.349 623.178 159.388C628.071 156.37 632.054 152.328 634.998 147.332C640.103 138.729 641.07 129.593 637.901 120.134Z" fill="url(#paint9_linear_3395_8130)"/>
<path d="M593.379 81.806C599.479 82.227 605.733 84.0375 612.057 87.2232C623.162 92.8229 630.412 100.401 633.553 109.762C636.722 119.207 635.754 128.358 630.65 136.961C627.706 141.943 623.737 145.999 618.829 149.016C614.006 151.992 606.714 154.616 596.562 157.058C590.21 158.588 585.863 159.893 583.634 160.931C581.53 161.9 579.567 163.303 577.786 165.057C575.935 166.896 573.425 170.348 570.368 175.331L569.092 177.408L552.027 168.819L553.191 166.714C554.173 164.959 554.93 163.598 555.477 162.714C558.66 157.353 562.25 153.03 566.162 149.872C569.092 147.458 572.794 145.353 577.127 143.641C580.296 142.392 585.316 140.961 592.482 139.248C599.142 137.648 603.798 136.077 606.336 134.561C608.761 133.115 610.64 131.221 612.085 128.779C614.749 124.26 615.282 119.502 613.683 114.225C612.071 108.906 608.719 105.019 603.391 102.352C600.516 100.907 597.684 100.093 594.823 99.8962C592.552 99.7418 590.252 99.9664 587.91 100.598C582.638 102.001 577.352 105.917 572.177 112.246L570.649 114.113L553.934 102.998L555.477 100.991C562.923 91.2651 571.673 85.1321 581.46 82.8024C585.358 81.8621 589.341 81.5393 593.379 81.82V81.806Z" fill="#FCC82B"/>
<path d="M563.037 187.751L567.384 198.122L557.456 214.865L553.109 204.494L563.037 187.751Z" fill="url(#paint10_linear_3395_8130)"/>
<path d="M553.109 204.494L557.456 214.865L540.362 206.262L536.016 195.891L553.109 204.494Z" fill="url(#paint11_linear_3395_8130)"/>
<path d="M545.943 179.162L563.037 187.751L553.109 204.494L536.016 195.891L545.943 179.162Z" fill="#FCC82B"/>
<path d="M358.477 127.053C356.948 123.418 354.13 120.906 349.895 119.376C348.339 118.815 346.782 118.492 345.212 118.379C342.421 118.183 339.575 118.688 336.644 119.909C332.213 121.748 329.128 124.456 327.249 128.246C325.356 132.021 325.076 137.017 326.464 143.038L326.871 144.82L330.348 153.1L329.942 151.318C328.553 145.283 328.834 140.301 330.727 136.526C332.606 132.751 335.691 130.028 340.122 128.189C343.066 126.983 345.899 126.463 348.689 126.66C350.26 126.772 351.816 127.109 353.373 127.656C357.621 129.186 360.44 131.698 361.954 135.333L358.477 127.053Z" fill="url(#paint12_linear_3395_8130)"/>
<path d="M326.857 144.806L330.335 153.086L314.153 157.76L310.676 149.479L326.857 144.806Z" fill="url(#paint13_linear_3395_8130)"/>
<path d="M377.282 128.33L373.805 120.05C375.487 124.134 376.006 128.4 375.375 132.708C374.73 136.961 372.571 142.518 368.742 149.676C366.359 154.167 364.886 157.353 364.382 159.149C363.905 160.861 363.765 162.672 363.961 164.566C364.171 166.531 365.097 169.633 366.709 173.787L367.382 175.527L370.86 183.807L370.187 182.067C368.574 177.913 367.649 174.811 367.438 172.847C367.242 170.952 367.368 169.142 367.859 167.429C368.364 165.633 369.836 162.447 372.22 157.956C376.048 150.799 378.208 145.241 378.853 140.989C379.484 136.68 378.951 132.414 377.282 128.33Z" fill="url(#paint14_linear_3395_8130)"/>
<path d="M350.303 104.135C352.827 104.317 355.253 104.78 357.594 105.538C365.461 108.092 370.916 112.976 373.804 120.05C375.487 124.134 376.006 128.4 375.375 132.708C374.73 136.961 372.57 142.518 368.742 149.676C366.358 154.167 364.886 157.353 364.381 159.149C363.904 160.861 363.764 162.672 363.96 164.566C364.171 166.531 365.096 169.633 366.709 173.787L367.382 175.527L352.673 181.604L351.915 179.92C351.284 178.502 350.822 177.422 350.513 176.678C348.704 172.271 347.793 168.103 347.835 164.314C347.821 161.451 348.424 158.265 349.616 154.869C350.485 152.413 352.238 148.764 354.93 143.725C357.454 139.024 358.912 135.529 359.263 133.312C359.614 131.193 359.375 129.186 358.548 127.179C357.033 123.474 354.201 120.934 349.91 119.39C348.354 118.829 346.797 118.506 345.227 118.393C342.436 118.197 339.59 118.702 336.659 119.923C332.228 121.762 329.143 124.47 327.264 128.26C325.371 132.035 325.091 137.031 326.479 143.052L326.886 144.834L310.704 149.508L310.213 147.655C307.829 138.673 308.488 130.617 312.19 123.712C315.892 116.822 322.356 111.432 331.429 107.699C338.145 104.921 344.47 103.742 350.331 104.163L350.303 104.135Z" fill="#FCC82B"/>
<path d="M367.381 175.513L370.859 183.807L356.149 189.884L352.672 181.59L367.381 175.513Z" fill="url(#paint15_linear_3395_8130)"/>
<path d="M371.602 185.253L375.079 193.533L380.73 207.273L377.253 198.978L371.602 185.253Z" fill="url(#paint16_linear_3395_8130)"/>
<path d="M377.251 198.979L380.729 207.273L365.978 213.35L362.5 205.069L377.251 198.979Z" fill="url(#paint17_linear_3395_8130)"/>
<path d="M371.601 185.253L377.252 198.978L362.5 205.069L356.863 191.316L371.601 185.253Z" fill="#FCC82B"/>
<path d="M251.504 210.851L438.309 277.458V506.709L256.636 418.026L251.504 210.851Z" fill="url(#paint18_linear_3395_8130)"/>
<path style="mix-blend-mode:multiply" opacity="0.5" d="M438.308 506.709L256.636 418.026L256.285 404.286L438.308 493.348V506.709Z" fill="url(#paint19_linear_3395_8130)"/>
<path style="mix-blend-mode:multiply" opacity="0.4" d="M438.307 277.458V506.709L423.598 499.537V272.209L438.307 277.458Z" fill="url(#paint20_linear_3395_8130)"/>
<path d="M438.309 277.458V506.709L625.8 425.899L635.546 217.869L438.309 277.458Z" fill="url(#paint21_linear_3395_8130)"/>
<path style="mix-blend-mode:multiply" opacity="0.2" d="M438.309 277.458V506.709L453.789 500.042V272.785L438.309 277.458Z" fill="url(#paint22_linear_3395_8130)"/>
<path style="mix-blend-mode:multiply" opacity="0.5" d="M438.309 506.709L625.8 425.899L626.165 418.026L438.309 497.811V506.709Z" fill="url(#paint23_linear_3395_8130)"/>
<path style="mix-blend-mode:screen" opacity="0.8" d="M635.559 217.869L625.8 425.899L619.125 428.776L627.342 220.353L635.559 217.869Z" fill="url(#paint24_linear_3395_8130)"/>
<path d="M251.504 210.851L438.309 277.458V276.251L253.06 210.388L251.504 210.851Z" fill="#0C96BC"/>
<path d="M438.309 276.251V277.458L635.56 217.869L633.625 217.181L438.309 276.251Z" fill="#0C96BC"/>
<path d="M599.395 498.049L581.446 501.53L571.645 471.763L589.593 468.297L599.395 498.049Z" fill="url(#paint25_linear_3395_8130)"/>
<path d="M589.593 468.297L571.645 471.763L593.042 462.122L610.991 458.655L589.593 468.297Z" fill="url(#paint26_linear_3395_8130)"/>
<path d="M610.992 458.655L620.793 488.408L599.395 498.049L589.594 468.297L610.992 458.655Z" fill="#FCC82B"/>
<path d="M576.286 393.747C574.842 400.553 574.281 407.065 574.575 413.016C574.912 420.763 576.609 429.38 579.623 438.67C580.661 442.179 581.965 445.926 583.536 449.982L565.601 453.449C558.141 434.011 553.233 413.689 559.417 392.904C562.881 378.491 571.252 364.513 570.579 349.356C569.822 337.399 561.002 324.038 549.321 320.726C546.475 319.912 543.474 319.716 540.375 320.249L557.693 316.909C557.917 316.853 558.169 316.811 558.394 316.768C561.156 316.305 564.017 316.474 566.877 317.147C566.919 317.147 566.947 317.147 567.003 317.175C569.065 317.765 571.126 318.705 573.201 319.996C579.764 324.08 584.237 329.961 586.887 337.974C588.317 342.325 588.864 346.535 588.57 350.872C588.247 355.405 586.424 362.394 583.129 371.643C579.595 381.579 577.366 388.821 576.286 393.761V393.747Z" fill="url(#paint27_linear_3395_8130)"/>
<path d="M555.87 288.082C552.112 288.798 548.298 290.033 544.399 291.801C531.233 297.738 522.118 307.632 517.28 321.245C512.443 334.831 512.274 351.475 516.719 370.646L517.645 374.59L499.71 378.056C487.034 329.568 502.585 292.938 555.87 288.082Z" fill="url(#paint28_linear_3395_8130)"/>
<path d="M544.4 291.815C558.324 285.542 571.407 285.837 583.298 292.714C595.287 299.647 603.925 310.916 608.959 326.199C611.875 335.055 613.081 344.023 612.562 352.865C612.044 361.608 609.365 372.709 604.373 386.842C601.246 395.697 599.367 402.027 598.792 405.676C598.246 409.114 598.218 412.875 598.708 416.833C599.227 420.973 600.91 427.625 603.728 436.579L604.906 440.34L583.55 449.968L582.246 446.305C581.166 443.26 580.353 440.902 579.834 439.288C576.693 429.759 574.927 420.917 574.59 413.002C574.282 407.037 574.856 400.539 576.301 393.732C577.366 388.792 579.596 381.551 583.144 371.614C586.425 362.352 588.262 355.363 588.57 350.83C588.865 346.493 588.318 342.283 586.888 337.932C584.251 329.918 579.778 324.038 573.202 319.954C566.597 315.856 560.147 315.323 553.472 318.326C547.036 321.231 542.703 326.27 540.278 333.75C537.824 341.244 537.922 351.545 540.572 364.387L541.357 368.19L517.674 374.604L516.762 370.66C512.303 351.475 512.485 334.83 517.323 321.245C522.161 307.646 531.275 297.752 544.428 291.815H544.4Z" fill="#FCC82B"/>
<path d="M244.338 503.326L389.987 206.487L351.187 178.853L199.957 487.047L244.338 503.326Z" fill="url(#paint29_linear_3395_8130)"/>
<path style="mix-blend-mode:multiply" opacity="0.4" d="M199.957 487.047L244.338 503.326L248.698 494.415L204.612 477.573L199.957 487.047Z" fill="url(#paint30_linear_3395_8130)"/>
<path style="mix-blend-mode:multiply" opacity="0.2" d="M351.189 178.853L389.988 206.487L386.132 214.36L346.449 188.509L351.189 178.853Z" fill="url(#paint31_linear_3395_8130)"/>
<path style="mix-blend-mode:multiply" opacity="0.2" d="M351.187 178.853L199.957 487.047L207.753 489.896L357.371 183.26L351.187 178.853Z" fill="url(#paint32_linear_3395_8130)"/>
<path d="M351.187 178.853L194.544 127.305L58.0234 397.648L199.957 487.047L351.187 178.853Z" fill="url(#paint33_linear_3395_8130)"/>
<path style="mix-blend-mode:multiply" opacity="0.4" d="M58.0234 397.648L199.957 487.047L206.491 473.742L63.408 386.996L58.0234 397.648Z" fill="url(#paint34_linear_3395_8130)"/>
<path style="mix-blend-mode:multiply" opacity="0.4" d="M351.186 178.853L199.955 487.047L188.219 479.637L340.739 175.415L351.186 178.853Z" fill="url(#paint35_linear_3395_8130)"/>
<path style="mix-blend-mode:screen" opacity="0.8" d="M194.544 127.305L58.0234 397.648L66.6331 403.065L204.612 130.617L194.544 127.305Z" fill="url(#paint36_linear_3395_8130)"/>
<path style="mix-blend-mode:screen" opacity="0.8" d="M194.543 127.305L351.185 178.853L346.446 188.509L190.645 134.996L194.543 127.305Z" fill="url(#paint37_linear_3395_8130)"/>
<path style="mix-blend-mode:multiply" opacity="0.5" d="M174.195 375.123L176.481 375.923L163.118 403.865L160.832 403.065L174.195 375.123Z" fill="url(#paint38_linear_3395_8130)"/>
<path style="mix-blend-mode:multiply" opacity="0.5" d="M153.277 363.039L155.563 363.825L176.484 375.923L174.199 375.123L153.277 363.039Z" fill="url(#paint39_linear_3395_8130)"/>
<path d="M174.197 375.123L160.834 403.065L139.898 390.982L153.276 363.039L174.197 375.123Z" fill="#FCC82B"/>
<g style="mix-blend-mode:multiply" opacity="0.5">
<path d="M225.293 231.594C208.494 225.938 195.636 243.173 187.938 255.831L190.223 256.617C197.921 243.958 210.794 226.71 227.578 232.38L225.293 231.594Z" fill="url(#paint40_linear_3395_8130)"/>
<path d="M269.225 243.243C265.818 228.507 257.194 217.027 243.578 209.167C242.905 208.788 242.246 208.41 241.573 208.059C241.489 208.017 241.419 207.974 241.335 207.946C241.138 207.848 240.942 207.75 240.76 207.652C240.213 207.371 239.68 207.104 239.133 206.852C238.909 206.739 238.671 206.641 238.446 206.529C238.278 206.445 238.11 206.361 237.927 206.29C237.521 206.108 237.114 205.954 236.707 205.785C236.567 205.729 236.413 205.659 236.273 205.603C235.628 205.35 234.997 205.097 234.352 204.873C234.225 204.831 234.099 204.789 233.973 204.747L231.687 203.961C232.459 204.227 233.216 204.508 233.987 204.817C234.127 204.873 234.282 204.943 234.422 204.999C234.997 205.238 235.586 205.49 236.161 205.743C236.385 205.841 236.623 205.954 236.848 206.066C237.38 206.318 237.927 206.585 238.46 206.866C238.656 206.964 238.853 207.062 239.049 207.161C239.792 207.553 240.535 207.96 241.279 208.381C254.894 216.241 263.518 227.721 266.925 242.457C270.375 257.333 268.622 272.139 261.751 286.525C257.769 294.833 252.581 301.766 246.285 307.113C240.073 312.39 230.79 317.372 217.932 322.34C209.883 325.442 204.358 327.982 201.526 329.876C198.847 331.673 196.295 334.115 193.968 337.146C191.542 340.29 188.218 346.1 184.096 354.408L182.371 357.875L184.657 358.661L186.381 355.194C190.504 346.886 193.827 341.076 196.253 337.932C198.581 334.901 201.133 332.459 203.811 330.662C206.658 328.782 212.168 326.242 220.217 323.126C233.076 318.158 242.358 313.176 248.57 307.899C254.866 302.552 260.069 295.633 264.037 287.31C270.908 272.939 272.646 258.119 269.211 243.243H269.225Z" fill="url(#paint41_linear_3395_8130)"/>
</g>
<path d="M241.281 208.381C254.897 216.241 263.521 227.721 266.928 242.457C270.377 257.333 268.625 272.139 261.754 286.524C257.771 294.833 252.583 301.766 246.287 307.113C240.075 312.39 230.793 317.372 217.934 322.34C209.885 325.442 204.361 327.982 201.528 329.876C198.85 331.673 196.298 334.115 193.97 337.146C191.544 340.29 188.207 346.1 184.098 354.408L182.374 357.875L161.48 345.805L163.065 342.297C164.383 339.378 165.421 337.132 166.15 335.616C170.427 326.663 175.18 319.351 180.256 313.863C184.07 309.681 188.824 305.92 194.363 302.692C198.401 300.362 204.767 297.541 213.826 294.061C222.267 290.833 228.198 287.816 231.452 285.107C234.565 282.525 237.032 279.283 238.982 275.199C242.585 267.676 243.497 259.972 241.814 251.635C240.103 243.257 236.107 237.348 229.587 233.587C223.291 229.952 216.981 229.531 210.306 232.338C203.631 235.131 196.789 241.98 189.946 252.688L187.926 255.845L167.622 239.664L169.641 236.296C179.513 219.876 190.815 209.125 203.197 204.368C215.592 199.61 228.409 200.957 241.267 208.395L241.281 208.381Z" fill="#FCC82B"/>
<circle cx="178.501" cy="82.5" r="24.5" transform="rotate(120 178.501 82.5)" fill="url(#paint42_linear_3395_8130)"/>
</g>
<defs>
<linearGradient id="paint0_linear_3395_8130" x1="542.145" y1="419.219" x2="542.145" y2="173.983" gradientUnits="userSpaceOnUse">
<stop stop-color="#B94E18"/>
<stop offset="1" stop-color="#17AADF"/>
</linearGradient>
<linearGradient id="paint1_linear_3395_8130" x1="350.123" y1="280.532" x2="350.123" y2="14.3572" gradientUnits="userSpaceOnUse">
<stop stop-color="#009FDD"/>
<stop offset="1" stop-color="#19ABDF"/>
</linearGradient>
<linearGradient id="paint2_linear_3395_8130" x1="464.993" y1="141.859" x2="464.993" y2="290.3" gradientUnits="userSpaceOnUse">
<stop stop-color="#FFBF00"/>
<stop offset="1" stop-color="#EA793B"/>
</linearGradient>
<linearGradient id="paint3_linear_3395_8130" x1="360.877" y1="224.984" x2="469.678" y2="235.744" gradientUnits="userSpaceOnUse">
<stop stop-color="#FFBF00"/>
<stop offset="1" stop-color="#EA793B"/>
</linearGradient>
<linearGradient id="paint4_linear_3395_8130" x1="423.319" y1="141.466" x2="423.319" y2="73.5959" gradientUnits="userSpaceOnUse">
<stop stop-color="#FFBF00"/>
<stop offset="1" stop-color="#EA793B"/>
</linearGradient>
<linearGradient id="paint5_linear_3395_8130" x1="463.882" y1="10.8766" x2="463.882" y2="227.987" gradientUnits="userSpaceOnUse">
<stop stop-color="#FFBF00"/>
<stop offset="1" stop-color="#EA793B"/>
</linearGradient>
<linearGradient id="paint6_linear_3395_8130" x1="543.32" y1="89.2863" x2="576.347" y2="127.361" gradientUnits="userSpaceOnUse">
<stop stop-color="#FFBF00"/>
<stop offset="1" stop-color="#EA793B"/>
</linearGradient>
<linearGradient id="paint7_linear_3395_8130" x1="578.054" y1="129.93" x2="608.25" y2="105.956" gradientUnits="userSpaceOnUse">
<stop stop-color="#FFBF00"/>
<stop offset="1" stop-color="#EA793B"/>
</linearGradient>
<linearGradient id="paint8_linear_3395_8130" x1="539.099" y1="152.202" x2="567.745" y2="183.783" gradientUnits="userSpaceOnUse">
<stop stop-color="#FFBF00"/>
<stop offset="1" stop-color="#EA793B"/>
</linearGradient>
<linearGradient id="paint9_linear_3395_8130" x1="536.324" y1="235.65" x2="632.595" y2="127.345" gradientUnits="userSpaceOnUse">
<stop stop-color="#FFBF00"/>
<stop offset="1" stop-color="#EA793B"/>
</linearGradient>
<linearGradient id="paint10_linear_3395_8130" x1="532.665" y1="232.394" x2="628.922" y2="124.089" gradientUnits="userSpaceOnUse">
<stop stop-color="#FFBF00"/>
<stop offset="1" stop-color="#EA793B"/>
</linearGradient>
<linearGradient id="paint11_linear_3395_8130" x1="530.168" y1="181.071" x2="548.377" y2="207.735" gradientUnits="userSpaceOnUse">
<stop stop-color="#FFBF00"/>
<stop offset="1" stop-color="#EA793B"/>
</linearGradient>
<linearGradient id="paint12_linear_3395_8130" x1="299.724" y1="156.637" x2="346.621" y2="129.109" gradientUnits="userSpaceOnUse">
<stop stop-color="#FFBF00"/>
<stop offset="1" stop-color="#EA793B"/>
</linearGradient>
<linearGradient id="paint13_linear_3395_8130" x1="289.993" y1="145.816" x2="327.21" y2="152.472" gradientUnits="userSpaceOnUse">
<stop stop-color="#FFBF00"/>
<stop offset="1" stop-color="#EA793B"/>
</linearGradient>
<linearGradient id="paint14_linear_3395_8130" x1="363.877" y1="151.921" x2="379.119" y2="151.921" gradientUnits="userSpaceOnUse">
<stop stop-color="#FFBF00"/>
<stop offset="1" stop-color="#EA793B"/>
</linearGradient>
<linearGradient id="paint15_linear_3395_8130" x1="314.139" y1="170.152" x2="361.287" y2="182.552" gradientUnits="userSpaceOnUse">
<stop stop-color="#FFBF00"/>
<stop offset="1" stop-color="#EA793B"/>
</linearGradient>
<linearGradient id="paint16_linear_3395_8130" x1="371.602" y1="196.256" x2="380.73" y2="196.256" gradientUnits="userSpaceOnUse">
<stop stop-color="#FFBF00"/>
<stop offset="1" stop-color="#EA793B"/>
</linearGradient>
<linearGradient id="paint17_linear_3395_8130" x1="309.973" y1="189.926" x2="357.107" y2="202.327" gradientUnits="userSpaceOnUse">
<stop stop-color="#FFBF00"/>
<stop offset="1" stop-color="#EA793B"/>
</linearGradient>
<linearGradient id="paint18_linear_3395_8130" x1="464.909" y1="493.699" x2="243.997" y2="219.598" gradientUnits="userSpaceOnUse">
<stop stop-color="#29B3E0"/>
<stop offset="1" stop-color="#009FDD"/>
</linearGradient>
<linearGradient id="paint19_linear_3395_8130" x1="344.99" y1="460.255" x2="348.866" y2="452.286" gradientUnits="userSpaceOnUse">
<stop stop-color="#D95617" stop-opacity="0.98"/>
<stop offset="0.06" stop-color="#D95617" stop-opacity="0.78"/>
<stop offset="0.12" stop-color="#D95617" stop-opacity="0.59"/>
<stop offset="0.19" stop-color="#D95617" stop-opacity="0.43"/>
<stop offset="0.27" stop-color="#D95617" stop-opacity="0.3"/>
<stop offset="0.35" stop-color="#D95617" stop-opacity="0.19"/>
<stop offset="0.44" stop-color="#D95617" stop-opacity="0.1"/>
<stop offset="0.55" stop-color="#D95617" stop-opacity="0.04"/>
<stop offset="0.69" stop-color="#D95617" stop-opacity="0"/>
<stop offset="1" stop-color="#D95617" stop-opacity="0"/>
</linearGradient>
<linearGradient id="paint20_linear_3395_8130" x1="437.452" y1="389.466" x2="423.85" y2="389.466" gradientUnits="userSpaceOnUse">
<stop stop-color="#D95617" stop-opacity="0.98"/>
<stop offset="0.06" stop-color="#D95617" stop-opacity="0.78"/>
<stop offset="0.12" stop-color="#D95617" stop-opacity="0.59"/>
<stop offset="0.19" stop-color="#D95617" stop-opacity="0.43"/>
<stop offset="0.27" stop-color="#D95617" stop-opacity="0.3"/>
<stop offset="0.35" stop-color="#D95617" stop-opacity="0.19"/>
<stop offset="0.44" stop-color="#D95617" stop-opacity="0.1"/>
<stop offset="0.55" stop-color="#D95617" stop-opacity="0.04"/>
<stop offset="0.69" stop-color="#D95617" stop-opacity="0"/>
<stop offset="1" stop-color="#D95617" stop-opacity="0"/>
</linearGradient>
<linearGradient id="paint21_linear_3395_8130" x1="426.277" y1="284.461" x2="647.422" y2="439.741" gradientUnits="userSpaceOnUse">
<stop stop-color="#15A9DF"/>
<stop offset="1" stop-color="white" stop-opacity="0.9"/>
</linearGradient>
<linearGradient id="paint22_linear_3395_8130" x1="439.08" y1="389.747" x2="452.934" y2="389.747" gradientUnits="userSpaceOnUse">
<stop stop-color="#D95617" stop-opacity="0.98"/>
<stop offset="0.06" stop-color="#D95617" stop-opacity="0.78"/>
<stop offset="0.12" stop-color="#D95617" stop-opacity="0.59"/>
<stop offset="0.19" stop-color="#D95617" stop-opacity="0.43"/>
<stop offset="0.27" stop-color="#D95617" stop-opacity="0.3"/>
<stop offset="0.35" stop-color="#D95617" stop-opacity="0.19"/>
<stop offset="0.44" stop-color="#D95617" stop-opacity="0.1"/>
<stop offset="0.55" stop-color="#D95617" stop-opacity="0.04"/>
<stop offset="0.69" stop-color="#D95617" stop-opacity="0"/>
<stop offset="1" stop-color="#D95617" stop-opacity="0"/>
</linearGradient>
<linearGradient id="paint23_linear_3395_8130" x1="533.099" y1="464.367" x2="530.403" y2="458.124" gradientUnits="userSpaceOnUse">
<stop stop-color="#17AADF"/>
<stop offset="0.01" stop-color="#1FA6D6" stop-opacity="0.96"/>
<stop offset="0.07" stop-color="#4695AE" stop-opacity="0.76"/>
<stop offset="0.13" stop-color="#69868A" stop-opacity="0.58"/>
<stop offset="0.2" stop-color="#87796A" stop-opacity="0.42"/>
<stop offset="0.27" stop-color="#A06E50" stop-opacity="0.29"/>
<stop offset="0.35" stop-color="#B5653B" stop-opacity="0.18"/>
<stop offset="0.44" stop-color="#C55E2B" stop-opacity="0.1"/>
<stop offset="0.55" stop-color="#D0591F" stop-opacity="0.04"/>
<stop offset="0.69" stop-color="#D75618" stop-opacity="0"/>
<stop offset="1" stop-color="#D95617" stop-opacity="0"/>
</linearGradient>
<linearGradient id="paint24_linear_3395_8130" x1="629.796" y1="323.435" x2="624.033" y2="323.182" gradientUnits="userSpaceOnUse">
<stop stop-color="#17AADF"/>
<stop offset="0.01" stop-color="#1FA6D6" stop-opacity="0.96"/>
<stop offset="0.07" stop-color="#4695AE" stop-opacity="0.76"/>
<stop offset="0.13" stop-color="#69868A" stop-opacity="0.58"/>
<stop offset="0.2" stop-color="#87796A" stop-opacity="0.42"/>
<stop offset="0.27" stop-color="#A06E50" stop-opacity="0.29"/>
<stop offset="0.35" stop-color="#B5653B" stop-opacity="0.18"/>
<stop offset="0.44" stop-color="#C55E2B" stop-opacity="0.1"/>
<stop offset="0.55" stop-color="#D0591F" stop-opacity="0.04"/>
<stop offset="0.69" stop-color="#D75618" stop-opacity="0"/>
<stop offset="1" stop-color="#D95617" stop-opacity="0"/>
</linearGradient>
<linearGradient id="paint25_linear_3395_8130" x1="595.384" y1="515.073" x2="576.664" y2="457.935" gradientUnits="userSpaceOnUse">
<stop stop-color="#FFBF00"/>
<stop offset="0.04" stop-color="#FDB904"/>
<stop offset="0.28" stop-color="#F49D1C"/>
<stop offset="0.52" stop-color="#EE892D"/>
<stop offset="0.76" stop-color="#EB7D37"/>
<stop offset="1" stop-color="#EA793B"/>
</linearGradient>
<linearGradient id="paint26_linear_3395_8130" x1="630.188" y1="443.26" x2="586.855" y2="467.69" gradientUnits="userSpaceOnUse">
<stop stop-color="#FFBF00"/>
<stop offset="1" stop-color="#EA793B"/>
</linearGradient>
<linearGradient id="paint27_linear_3395_8130" x1="614.385" y1="497.236" x2="536.009" y2="288.912" gradientUnits="userSpaceOnUse">
<stop stop-color="#FFBF00"/>
<stop offset="1" stop-color="#EA793B"/>
</linearGradient>
<linearGradient id="paint28_linear_3395_8130" x1="513.312" y1="294.664" x2="542.564" y2="372.159" gradientUnits="userSpaceOnUse">
<stop stop-color="#FFBF00"/>
<stop offset="1" stop-color="#EA793B"/>
</linearGradient>
<linearGradient id="paint29_linear_3395_8130" x1="184.07" y1="482.401" x2="398.694" y2="216.112" gradientUnits="userSpaceOnUse">
<stop stop-color="#15A9DF"/>
<stop offset="1" stop-color="#68C5E7"/>
</linearGradient>
<linearGradient id="paint30_linear_3395_8130" x1="222.827" y1="494.653" x2="226.268" y2="485.715" gradientUnits="userSpaceOnUse">
<stop stop-color="#D95617" stop-opacity="0.98"/>
<stop offset="0.06" stop-color="#D95617" stop-opacity="0.78"/>
<stop offset="0.12" stop-color="#D95617" stop-opacity="0.59"/>
<stop offset="0.19" stop-color="#D95617" stop-opacity="0.43"/>
<stop offset="0.27" stop-color="#D95617" stop-opacity="0.3"/>
<stop offset="0.35" stop-color="#D95617" stop-opacity="0.19"/>
<stop offset="0.44" stop-color="#D95617" stop-opacity="0.1"/>
<stop offset="0.55" stop-color="#D95617" stop-opacity="0.04"/>
<stop offset="0.69" stop-color="#D95617" stop-opacity="0"/>
<stop offset="1" stop-color="#D95617" stop-opacity="0"/>
</linearGradient>
<linearGradient id="paint31_linear_3395_8130" x1="370.75" y1="193.617" x2="366.258" y2="200.027" gradientUnits="userSpaceOnUse">
<stop stop-color="#17AADF"/>
<stop offset="0.01" stop-color="#1FA6D6" stop-opacity="0.96"/>
<stop offset="0.07" stop-color="#4695AE" stop-opacity="0.76"/>
<stop offset="0.13" stop-color="#69868A" stop-opacity="0.58"/>
<stop offset="0.2" stop-color="#87796A" stop-opacity="0.42"/>
<stop offset="0.27" stop-color="#A06E50" stop-opacity="0.29"/>
<stop offset="0.35" stop-color="#B5653B" stop-opacity="0.18"/>
<stop offset="0.44" stop-color="#C55E2B" stop-opacity="0.1"/>
<stop offset="0.55" stop-color="#D0591F" stop-opacity="0.04"/>
<stop offset="0.69" stop-color="#D75618" stop-opacity="0"/>
<stop offset="1" stop-color="#D95617" stop-opacity="0"/>
</linearGradient>
<linearGradient id="paint32_linear_3395_8130" x1="275.874" y1="333.09" x2="282.817" y2="336.496" gradientUnits="userSpaceOnUse">
<stop stop-color="#17AADF"/>
<stop offset="0.01" stop-color="#1FA6D6" stop-opacity="0.96"/>
<stop offset="0.07" stop-color="#4695AE" stop-opacity="0.76"/>
<stop offset="0.13" stop-color="#69868A" stop-opacity="0.58"/>
<stop offset="0.2" stop-color="#87796A" stop-opacity="0.42"/>
<stop offset="0.27" stop-color="#A06E50" stop-opacity="0.29"/>
<stop offset="0.35" stop-color="#B5653B" stop-opacity="0.18"/>
<stop offset="0.44" stop-color="#C55E2B" stop-opacity="0.1"/>
<stop offset="0.55" stop-color="#D0591F" stop-opacity="0.04"/>
<stop offset="0.69" stop-color="#D75618" stop-opacity="0"/>
<stop offset="1" stop-color="#D95617" stop-opacity="0"/>
</linearGradient>
<linearGradient id="paint33_linear_3395_8130" x1="339.787" y1="368.064" x2="111.835" y2="243.59" gradientUnits="userSpaceOnUse">
<stop stop-color="#29B3E0"/>
<stop offset="1" stop-color="#009FDD"/>
</linearGradient>
<linearGradient id="paint34_linear_3395_8130" x1="129.369" y1="440.719" x2="135.476" y2="430.956" gradientUnits="userSpaceOnUse">
<stop stop-color="#D95617" stop-opacity="0.98"/>
<stop offset="0.06" stop-color="#D95617" stop-opacity="0.78"/>
<stop offset="0.12" stop-color="#D95617" stop-opacity="0.59"/>
<stop offset="0.19" stop-color="#D95617" stop-opacity="0.43"/>
<stop offset="0.27" stop-color="#D95617" stop-opacity="0.3"/>
<stop offset="0.35" stop-color="#D95617" stop-opacity="0.19"/>
<stop offset="0.44" stop-color="#D95617" stop-opacity="0.1"/>
<stop offset="0.55" stop-color="#D95617" stop-opacity="0.04"/>
<stop offset="0.69" stop-color="#D95617" stop-opacity="0"/>
<stop offset="1" stop-color="#D95617" stop-opacity="0"/>
</linearGradient>
<linearGradient id="paint35_linear_3395_8130" x1="274.596" y1="332.459" x2="264.118" y2="327.259" gradientUnits="userSpaceOnUse">
<stop stop-color="#D95617" stop-opacity="0.98"/>
<stop offset="0.06" stop-color="#D95617" stop-opacity="0.78"/>
<stop offset="0.12" stop-color="#D95617" stop-opacity="0.59"/>
<stop offset="0.19" stop-color="#D95617" stop-opacity="0.43"/>
<stop offset="0.27" stop-color="#D95617" stop-opacity="0.3"/>
<stop offset="0.35" stop-color="#D95617" stop-opacity="0.19"/>
<stop offset="0.44" stop-color="#D95617" stop-opacity="0.1"/>
<stop offset="0.55" stop-color="#D95617" stop-opacity="0.04"/>
<stop offset="0.69" stop-color="#D95617" stop-opacity="0"/>
<stop offset="1" stop-color="#D95617" stop-opacity="0"/>
</linearGradient>
<linearGradient id="paint36_linear_3395_8130" x1="136.618" y1="267.34" x2="127.01" y2="262.575" gradientUnits="userSpaceOnUse">
<stop stop-color="#D95617" stop-opacity="0"/>
<stop offset="0.31" stop-color="#D75618" stop-opacity="0"/>
<stop offset="0.45" stop-color="#D0591F" stop-opacity="0.04"/>
<stop offset="0.56" stop-color="#C45D2B" stop-opacity="0.1"/>
<stop offset="0.65" stop-color="#B3643B" stop-opacity="0.18"/>
<stop offset="0.73" stop-color="#9D6C50" stop-opacity="0.29"/>
<stop offset="0.8" stop-color="#82766A" stop-opacity="0.42"/>
<stop offset="0.87" stop-color="#61838A" stop-opacity="0.58"/>
<stop offset="0.93" stop-color="#3C91AE" stop-opacity="0.76"/>
<stop offset="0.99" stop-color="#13A0D6" stop-opacity="0.96"/>
<stop offset="1" stop-color="#0BA4DE"/>
</linearGradient>
<linearGradient id="paint37_linear_3395_8130" x1="271.988" y1="153.718" x2="269.699" y2="160.565" gradientUnits="userSpaceOnUse">
<stop stop-color="#17AADF"/>
<stop offset="0.01" stop-color="#1FA6D6" stop-opacity="0.96"/>
<stop offset="0.07" stop-color="#4695AE" stop-opacity="0.76"/>
<stop offset="0.13" stop-color="#69868A" stop-opacity="0.58"/>
<stop offset="0.2" stop-color="#87796A" stop-opacity="0.42"/>
<stop offset="0.27" stop-color="#A06E50" stop-opacity="0.29"/>
<stop offset="0.35" stop-color="#B5653B" stop-opacity="0.18"/>
<stop offset="0.44" stop-color="#C55E2B" stop-opacity="0.1"/>
<stop offset="0.55" stop-color="#D0591F" stop-opacity="0.04"/>
<stop offset="0.69" stop-color="#D75618" stop-opacity="0"/>
<stop offset="1" stop-color="#D95617" stop-opacity="0"/>
</linearGradient>
<linearGradient id="paint38_linear_3395_8130" x1="138.663" y1="457.925" x2="230.655" y2="248.423" gradientUnits="userSpaceOnUse">
<stop stop-color="#FFBF00"/>
<stop offset="0.04" stop-color="#FDB904"/>
<stop offset="0.28" stop-color="#F49D1C"/>
<stop offset="0.52" stop-color="#EE892D"/>
<stop offset="0.76" stop-color="#EB7D37"/>
<stop offset="1" stop-color="#EA793B"/>
</linearGradient>
<linearGradient id="paint39_linear_3395_8130" x1="153.277" y1="369.481" x2="176.484" y2="369.481" gradientUnits="userSpaceOnUse">
<stop stop-color="#FFBF00"/>
<stop offset="0.04" stop-color="#FDB904"/>
<stop offset="0.28" stop-color="#F49D1C"/>
<stop offset="0.52" stop-color="#EE892D"/>
<stop offset="0.76" stop-color="#EB7D37"/>
<stop offset="1" stop-color="#EA793B"/>
</linearGradient>
<linearGradient id="paint40_linear_3395_8130" x1="245.569" y1="194.263" x2="188.535" y2="268.443" gradientUnits="userSpaceOnUse">
<stop stop-color="#FFBF00"/>
<stop offset="0.04" stop-color="#FDB904"/>
<stop offset="0.28" stop-color="#F49D1C"/>
<stop offset="0.52" stop-color="#EE892D"/>
<stop offset="0.76" stop-color="#EB7D37"/>
<stop offset="1" stop-color="#EA793B"/>
</linearGradient>
<linearGradient id="paint41_linear_3395_8130" x1="152.223" y1="463.89" x2="244.215" y2="254.374" gradientUnits="userSpaceOnUse">
<stop stop-color="#FFBF00"/>
<stop offset="0.04" stop-color="#FDB904"/>
<stop offset="0.28" stop-color="#F49D1C"/>
<stop offset="0.52" stop-color="#EE892D"/>
<stop offset="0.76" stop-color="#EB7D37"/>
<stop offset="1" stop-color="#EA793B"/>
</linearGradient>
<linearGradient id="paint42_linear_3395_8130" x1="178.501" y1="58" x2="178.501" y2="107" gradientUnits="userSpaceOnUse">
<stop stop-color="#F2A52C"/>
<stop offset="1" stop-color="#009FDD"/>
</linearGradient>
<clipPath id="clip0_3395_8130">
<rect width="879" height="567" fill="white"/>
</clipPath>
</defs>
</svg>
