<svg width="14" height="18" viewBox="0 0 14 18" fill="none" xmlns="http://www.w3.org/2000/svg">
<path d="M5.99999 3.59999H4.79999V0.599999C4.79999 0.440869 4.8632 0.288257 4.97573 0.175736C5.08825 0.0632139 5.24086 0 5.39999 0C5.55912 0 5.71173 0.0632139 5.82425 0.175736C5.93677 0.288257 5.99999 0.440869 5.99999 0.599999V3.59999ZM10.8 8.67148V4.79999C10.8 4.48173 10.6735 4.17651 10.4485 3.95146C10.2235 3.72642 9.91824 3.59999 9.59998 3.59999H5.99999V8.15173L7.37548 6.77549C7.43123 6.71974 7.49741 6.67552 7.57025 6.64535C7.64308 6.61518 7.72115 6.59965 7.79998 6.59965C7.87882 6.59965 7.95689 6.61518 8.02972 6.64535C8.10256 6.67552 8.16874 6.71974 8.22448 6.77549C8.28023 6.83123 8.32445 6.89741 8.35462 6.97025C8.38479 7.04308 8.40032 7.12115 8.40032 7.19998C8.40032 7.27882 8.38479 7.35689 8.35462 7.42972C8.32445 7.50256 8.28023 7.56874 8.22448 7.62448L5.82449 10.0245C5.76876 10.0803 5.70259 10.1245 5.62975 10.1547C5.55691 10.1849 5.47884 10.2004 5.39999 10.2004C5.32114 10.2004 5.24306 10.1849 5.17023 10.1547C5.09739 10.1245 5.03121 10.0803 4.97549 10.0245L2.57549 7.62448C2.46291 7.5119 2.39966 7.3592 2.39966 7.19998C2.39966 7.04077 2.46291 6.88807 2.57549 6.77549C2.68808 6.6629 2.84078 6.59965 2.99999 6.59965C3.15921 6.59965 3.31191 6.6629 3.42449 6.77549L4.79999 8.15173V3.59999H1.2C0.881738 3.59999 0.576514 3.72642 0.351471 3.95146C0.126428 4.17651 0 4.48173 0 4.79999V14.4C0 14.5591 0.0632141 14.7117 0.175736 14.8242C0.288257 14.9368 0.440869 15 0.599999 15H6.20249C6.22649 15.0502 6.25274 15.1005 6.28124 15.15L6.29924 15.1785L7.96873 17.7285C8.05586 17.8616 8.19231 17.9547 8.34809 17.9873C8.50386 18.0199 8.66619 17.9892 8.79936 17.9021C8.93253 17.815 9.02564 17.6785 9.0582 17.5227C9.09076 17.367 9.06011 17.2046 8.97298 17.0715L7.31323 14.5372C7.19558 14.3295 7.16528 14.0835 7.22899 13.8534C7.29271 13.6232 7.44522 13.4279 7.65298 13.3102C7.86075 13.1926 8.10674 13.1623 8.33685 13.226C8.56695 13.2897 8.76233 13.4422 8.87998 13.65C8.88523 13.6597 8.89123 13.6695 8.89723 13.6785L9.69823 14.9017C9.76903 15.0097 9.87278 15.092 9.99406 15.1363C10.1153 15.1806 10.2477 15.1846 10.3714 15.1477C10.4952 15.1108 10.6037 15.035 10.6809 14.9315C10.7581 14.828 10.7999 14.7023 10.8 14.5732V10.2C11.3655 10.7235 11.8172 11.3578 12.1269 12.0635C12.4365 12.7692 12.5976 13.5311 12.6 14.3017V17.4C12.6 17.5591 12.6632 17.7117 12.7757 17.8242C12.8882 17.9367 13.0408 18 13.2 18C13.3591 18 13.5117 17.9367 13.6242 17.8242C13.7368 17.7117 13.8 17.5591 13.8 17.4V14.2987C13.7966 13.1872 13.5215 12.0935 12.9986 11.1127C12.4757 10.1319 11.7209 9.2938 10.8 8.67148Z" fill="#009FDD"/>
</svg>
