<svg width="26" height="24" viewBox="0 0 26 24" fill="none" xmlns="http://www.w3.org/2000/svg">
<path d="M20.2105 21.4737H5.05263V24H2.52632V21.4737H1.26316C0.928148 21.4737 0.606858 21.3406 0.36997 21.1037C0.133082 20.8668 0 20.5455 0 20.2105V1.26316C0 0.928148 0.133082 0.606858 0.36997 0.36997C0.606858 0.133082 0.928148 0 1.26316 0H24C24.335 0 24.6563 0.133082 24.8932 0.36997C25.1301 0.606858 25.2632 0.928148 25.2632 1.26316V20.2105C25.2632 20.5455 25.1301 20.8668 24.8932 21.1037C24.6563 21.3406 24.335 21.4737 24 21.4737H22.7368V24H20.2105V21.4737ZM11.3684 13.7356V17.6842H13.8947V13.7356C15.0827 13.4252 16.1171 12.693 16.8048 11.6758C17.4925 10.6585 17.7864 9.4258 17.6317 8.20772C17.477 6.98964 16.8843 5.8695 15.9641 5.05646C15.044 4.24341 13.8594 3.79306 12.6316 3.78947C11.4009 3.78826 10.2121 4.23623 9.28835 5.04931C8.36455 5.8624 7.76926 6.98469 7.61421 8.20553C7.45917 9.42638 7.75502 10.6618 8.44624 11.68C9.13747 12.6982 10.1765 13.4291 11.3684 13.7356ZM12.6316 11.3684C11.9616 11.3684 11.319 11.1023 10.8452 10.6285C10.3714 10.1547 10.1053 9.51213 10.1053 8.8421C10.1053 8.17208 10.3714 7.52951 10.8452 7.05573C11.319 6.58195 11.9616 6.31579 12.6316 6.31579C13.3016 6.31579 13.9442 6.58195 14.418 7.05573C14.8917 7.52951 15.1579 8.17208 15.1579 8.8421C15.1579 9.51213 14.8917 10.1547 14.418 10.6285C13.9442 11.1023 13.3016 11.3684 12.6316 11.3684Z" fill="white"/>
</svg>
