<svg width="507" height="419" viewBox="0 0 507 419" fill="none" xmlns="http://www.w3.org/2000/svg">
<path opacity="0.25" d="M500.505 175.237C471.261 91.8143 368.419 124.476 306.027 118.683C238.837 112.438 272.229 69.4524 184.566 36.2805C104.191 5.8661 -19.5753 99.8552 3.06456 243.898C30.9994 421.703 299.839 448.271 411 378.219C488.895 329.139 505.614 250.884 506.472 214.955C506.796 201.468 504.966 187.97 500.505 175.237Z" fill="url(#paint0_linear_4340_23318)"/>
<path opacity="0.25" d="M437.198 29.9311C427.488 20.5576 416.319 12.76 403.933 7.41863C322.747 -27.5608 277.131 70.2171 230.612 112.195C180.512 157.405 169.262 125.508 83.4177 163.14C-2.44933 200.773 -20.7791 374.326 128.06 408.946C331.46 456.254 450.835 321.527 480.346 205.083C503.322 114.443 463.036 54.8882 437.198 29.9311Z" fill="url(#paint1_linear_4340_23318)"/>
<path d="M205.08 281.728C206.922 270.616 203.631 258.682 195.173 250.977C190.133 246.389 180.968 244.025 179.393 236.598C178.037 230.203 181.756 223.876 182.648 217.631C184.236 206.59 180.134 194.957 172.093 187.263C166.624 182.026 158.757 179.477 154.377 173.093C150.334 167.196 149.743 159.757 148.364 152.944C146.383 143.131 139.593 129.042 127.207 131.95C116.722 134.418 113.211 147.267 113.037 156.571C112.979 159.896 113.257 163.222 113.906 166.489C114.648 170.254 116.27 173.846 116.803 177.647C117.37 181.667 117.579 186.36 116.455 190.276C115.447 193.821 113.721 197.135 112.724 200.704C109.063 213.808 112.574 227.804 119.004 239.483C123.279 247.258 126.385 253.619 125.4 262.737C124.635 269.817 122.665 276.803 123.198 283.975C124.253 298.111 134.623 308.979 147.09 314.494C147.426 314.645 147.796 314.621 148.121 314.494C172.197 321.909 199.866 306.812 205.08 281.716V281.728Z" fill="url(#paint2_linear_4340_23318)"/>
<path style="mix-blend-mode:multiply" opacity="0.7" d="M205.08 281.728C206.922 270.616 203.631 258.682 195.173 250.977C190.133 246.389 180.968 244.025 179.393 236.598C178.037 230.203 181.756 223.876 182.648 217.631C184.236 206.59 180.134 194.957 172.093 187.263C166.624 182.026 158.757 179.477 154.377 173.093C150.334 167.196 149.743 159.757 148.364 152.944C146.383 143.131 139.593 129.042 127.207 131.95C116.722 134.418 113.211 147.267 113.037 156.571C112.979 159.896 113.257 163.222 113.906 166.489C114.648 170.254 116.27 173.846 116.803 177.647C117.37 181.667 117.579 186.36 116.455 190.276C115.447 193.821 113.721 197.135 112.724 200.704C109.063 213.808 112.574 227.804 119.004 239.483C123.279 247.258 126.385 253.619 125.4 262.737C124.635 269.817 122.665 276.803 123.198 283.975C124.253 298.111 134.623 308.979 147.09 314.494C147.426 314.645 147.796 314.621 148.121 314.494C172.197 321.909 199.866 306.812 205.08 281.716V281.728Z" fill="url(#paint3_linear_4340_23318)"/>
<path style="mix-blend-mode:multiply" d="M175.531 330.414C171.835 316.417 168.162 302.409 164.512 288.401C164.512 288.39 164.535 288.378 164.535 288.355C170.792 276.803 175.334 264.533 178.161 251.707C178.532 250.039 175.89 249.679 175.519 251.348C172.959 262.946 168.915 274.034 163.504 284.578C160.411 272.713 157.329 260.837 154.258 248.961C154.351 248.868 154.432 248.764 154.501 248.637C160.909 236.679 165.74 224.073 169.042 210.923C169.46 209.266 166.818 208.907 166.401 210.564C163.377 222.613 158.962 234.177 153.285 245.195C150.4 234.072 147.538 222.938 144.688 211.803C148.72 203.16 152.034 194.262 154.629 185.085C155.092 183.463 152.648 182.385 152.184 184.042C149.89 192.141 147.051 200.02 143.645 207.702C140.795 196.614 137.968 185.514 135.141 174.426C135.268 174.31 135.384 174.171 135.477 173.997C138.257 168.424 140.772 162.735 143.043 156.93C143.668 155.331 141.212 154.277 140.598 155.887C138.651 160.881 136.508 165.77 134.179 170.59C132.29 163.152 130.39 155.725 128.502 148.287C128.084 146.641 125.431 146.954 125.86 148.623C128.455 158.888 131.085 169.154 133.692 179.419C129.788 175.318 125.767 171.344 121.596 167.508C120.333 166.35 118.676 168.435 119.939 169.594C125.199 174.414 130.228 179.466 135.048 184.714C137.354 193.752 139.671 202.789 141.988 211.815C142 211.919 142.023 212.012 142.058 212.105C143.355 217.156 144.653 222.208 145.951 227.26C136.276 220.655 127.424 213.043 119.464 204.411C118.305 203.16 116.22 204.817 117.379 206.08C126.196 215.638 136.067 224.027 146.947 231.153C150.272 244.025 153.609 256.898 156.958 269.759C149.183 264.695 141.409 259.644 133.634 254.58C132.209 253.654 130.529 255.728 131.977 256.666C140.633 262.297 149.288 267.94 157.954 273.571C162.971 292.862 168.023 312.142 173.098 331.422C173.538 333.079 176.006 332.07 175.577 330.425L175.531 330.414Z" fill="url(#paint4_linear_4340_23318)"/>
<path d="M202.214 299.698C198.842 285.945 189.144 273.779 175.554 269.063C167.466 266.259 155.694 268.067 150.202 260.246C145.475 253.526 146.634 244.373 144.583 236.714C140.956 223.17 130.459 211.745 117.355 206.833C108.445 203.484 98.0866 204.434 89.8719 199.22C82.2943 194.4 77.9263 186.105 72.9673 178.909C65.8184 168.54 50.9994 155.621 38.1269 165.11C27.2356 173.139 29.5182 189.731 33.921 200.576C35.4968 204.457 37.478 208.154 39.8301 211.618C42.5529 215.604 46.2026 218.952 48.7053 223.077C51.347 227.445 53.9192 232.763 54.5564 237.85C55.1358 242.449 54.7882 247.142 55.3907 251.753C57.6384 268.716 68.6224 283.153 81.8193 293.476C90.6018 300.335 97.3451 306.163 100.717 317.182C103.335 325.744 104.517 334.793 108.688 342.823C116.891 358.638 134.259 366.077 151.396 366.285C151.871 366.285 152.288 366.088 152.589 365.775C184.093 362.438 208.61 331.306 202.214 299.721V299.698Z" fill="url(#paint5_linear_4340_23318)"/>
<path style="mix-blend-mode:multiply" d="M192.132 370.584C180.939 356.228 169.77 341.861 158.612 327.471C158.612 327.447 158.612 327.436 158.624 327.413C160.141 310.96 159.33 294.542 156.248 278.309C155.843 276.189 152.622 277.093 153.016 279.202C155.796 293.87 156.608 308.689 155.553 323.554C146.099 311.366 136.667 299.165 127.248 286.964C127.305 286.814 127.352 286.652 127.363 286.478C128.846 269.492 128.209 252.53 125.51 235.695C125.174 233.574 121.941 234.478 122.277 236.587C124.745 252.008 125.359 267.546 124.247 283.106C115.418 271.67 106.6 260.211 97.7948 248.764C98.1772 236.784 97.6094 224.85 96.0684 212.962C95.7904 210.853 92.4419 210.83 92.72 212.962C94.0756 223.448 94.6896 233.98 94.5506 244.535C85.7797 233.122 77.0203 221.71 68.261 210.274C68.3537 210.077 68.4116 209.857 68.4348 209.613C68.8867 201.793 68.9909 193.983 68.736 186.151C68.6665 183.996 65.318 183.996 65.3876 186.151C65.6077 192.883 65.5382 199.603 65.2369 206.323C59.3742 198.664 53.4999 191.017 47.6487 183.359C46.3626 181.667 43.4429 183.335 44.7521 185.05C52.8395 195.629 60.9384 206.195 69.0373 216.774C62.5025 213.97 55.8867 211.351 49.1666 208.988C47.1273 208.269 46.2468 211.502 48.2744 212.22C56.7325 215.198 65.04 218.535 73.22 222.231C80.3572 231.535 87.5061 240.827 94.6549 250.12C94.7244 250.224 94.7939 250.328 94.8866 250.409C98.8839 255.612 102.881 260.802 106.879 265.993C92.4303 263.143 78.4223 258.728 64.9589 252.692C63.0008 251.811 61.4018 254.766 63.3715 255.646C78.2833 262.332 93.8554 267.152 109.949 270.002C120.157 283.245 130.376 296.465 140.607 309.685C129.125 307.681 117.631 305.677 106.149 303.672C104.04 303.301 103.136 306.534 105.256 306.905C118.048 309.141 130.839 311.366 143.631 313.602C158.971 333.414 174.335 353.204 189.745 372.971C191.066 374.674 193.429 372.287 192.108 370.607L192.132 370.584Z" fill="url(#paint6_linear_4340_23318)"/>
<path d="M311.183 281.728C309.341 270.616 312.631 258.682 321.09 250.977C326.13 246.389 335.295 244.025 336.87 236.598C338.226 230.203 334.507 223.876 333.615 217.631C332.027 206.59 336.129 194.957 344.17 187.263C349.639 182.026 357.506 179.477 361.885 173.093C365.929 167.196 366.52 159.757 367.899 152.944C369.88 143.131 376.67 129.042 389.056 131.95C399.541 134.418 403.052 147.267 403.226 156.571C403.284 159.896 403.006 163.222 402.357 166.489C401.615 170.254 399.993 173.846 399.46 177.647C398.892 181.667 398.684 186.36 399.808 190.276C400.816 193.821 402.542 197.135 403.539 200.704C407.2 213.808 403.689 227.804 397.259 239.483C392.983 247.258 389.878 253.619 390.863 262.737C391.628 269.817 393.598 276.803 393.065 283.975C392.01 298.111 381.64 308.979 369.173 314.494C368.837 314.645 368.467 314.621 368.142 314.494C344.066 321.909 316.397 306.812 311.183 281.716V281.728Z" fill="url(#paint7_linear_4340_23318)"/>
<path style="mix-blend-mode:multiply" opacity="0.7" d="M311.183 281.728C309.341 270.616 312.631 258.682 321.09 250.977C326.13 246.389 335.295 244.025 336.87 236.598C338.226 230.203 334.507 223.876 333.615 217.631C332.027 206.59 336.129 194.957 344.17 187.263C349.639 182.026 357.506 179.477 361.885 173.093C365.929 167.196 366.52 159.757 367.899 152.944C369.88 143.131 376.67 129.042 389.056 131.95C399.541 134.418 403.052 147.267 403.226 156.571C403.284 159.896 403.006 163.222 402.357 166.489C401.615 170.254 399.993 173.846 399.46 177.647C398.892 181.667 398.684 186.36 399.808 190.276C400.816 193.821 402.542 197.135 403.539 200.704C407.2 213.808 403.689 227.804 397.259 239.483C392.983 247.258 389.878 253.619 390.863 262.737C391.628 269.817 393.598 276.803 393.065 283.975C392.01 298.111 381.64 308.979 369.173 314.494C368.837 314.645 368.467 314.621 368.142 314.494C344.066 321.909 316.397 306.812 311.183 281.716V281.728Z" fill="url(#paint8_linear_4340_23318)"/>
<path style="mix-blend-mode:multiply" d="M340.736 330.414C344.432 316.417 348.105 302.409 351.755 288.401C351.755 288.39 351.732 288.378 351.732 288.355C345.475 276.803 340.933 264.533 338.106 251.707C337.735 250.039 340.377 249.679 340.748 251.348C343.308 262.946 347.352 274.034 352.763 284.578C355.856 272.713 358.938 260.837 362.009 248.961C361.916 248.868 361.835 248.764 361.765 248.637C355.358 236.679 350.527 224.073 347.224 210.923C346.807 209.266 349.449 208.907 349.866 210.564C352.89 222.613 357.305 234.177 362.982 245.195C365.867 234.072 368.729 222.938 371.579 211.803C367.547 203.16 364.233 194.262 361.638 185.085C361.174 183.463 363.619 182.385 364.083 184.042C366.377 192.141 369.215 200.02 372.622 207.702C375.472 196.614 378.299 185.514 381.126 174.426C380.999 174.31 380.883 174.171 380.79 173.997C378.01 168.424 375.495 162.735 373.224 156.93C372.599 155.331 375.055 154.277 375.669 155.887C377.616 160.881 379.759 165.77 382.088 170.59C383.977 163.152 385.877 155.725 387.765 148.287C388.182 146.641 390.836 146.954 390.407 148.623C387.812 158.888 385.182 169.154 382.575 179.419C386.479 175.318 390.5 171.344 394.671 167.508C395.934 166.35 397.591 168.435 396.328 169.594C391.067 174.414 386.039 179.466 381.219 184.714C378.913 193.752 376.596 202.789 374.279 211.815C374.267 211.919 374.244 212.012 374.209 212.105C372.912 217.156 371.614 222.208 370.316 227.26C379.991 220.655 388.843 213.043 396.803 204.411C397.961 203.16 400.047 204.817 398.888 206.08C390.071 215.638 380.199 224.027 369.32 231.153C365.994 244.025 362.658 256.898 359.321 269.759C367.095 264.695 374.87 259.644 382.644 254.58C384.069 253.654 385.749 255.728 384.301 256.666C375.646 262.297 366.991 267.94 358.324 273.571C353.307 292.862 348.256 312.142 343.181 331.422C342.74 333.079 340.273 332.07 340.701 330.425L340.736 330.414Z" fill="url(#paint9_linear_4340_23318)"/>
<path d="M314.052 299.698C317.424 285.945 327.121 273.779 340.712 269.063C348.8 266.259 360.571 268.067 366.063 260.246C370.791 253.526 369.632 244.373 371.683 236.714C375.309 223.17 385.807 211.745 398.911 206.833C407.821 203.484 418.179 204.434 426.394 199.22C433.971 194.4 438.34 186.105 443.299 178.909C450.447 168.54 465.266 155.621 478.139 165.11C489.03 173.139 486.748 189.731 482.345 200.576C480.769 204.457 478.788 208.154 476.436 211.618C473.713 215.604 470.063 218.952 467.561 223.077C464.919 227.445 462.347 232.763 461.709 237.85C461.13 242.449 461.478 247.142 460.875 251.753C458.627 268.716 447.643 283.153 434.447 293.476C425.664 300.335 418.921 306.163 415.549 317.182C412.931 325.744 411.749 334.793 407.578 342.823C399.374 358.638 382.006 366.077 364.87 366.285C364.395 366.285 363.978 366.088 363.677 365.775C332.173 362.438 307.656 331.306 314.052 299.721V299.698Z" fill="url(#paint10_linear_4340_23318)"/>
<path style="mix-blend-mode:multiply" d="M324.135 370.584C335.328 356.228 346.497 341.861 357.655 327.471C357.655 327.447 357.655 327.436 357.643 327.413C356.125 310.96 356.936 294.542 360.018 278.309C360.424 276.189 363.645 277.093 363.251 279.202C360.47 293.87 359.659 308.689 360.713 323.554C370.168 311.366 379.599 299.165 389.019 286.964C388.961 286.814 388.915 286.652 388.903 286.478C387.42 269.492 388.057 252.53 390.757 235.695C391.093 233.574 394.326 234.478 393.99 236.587C391.522 252.008 390.908 267.546 392.02 283.106C400.849 271.67 409.666 260.211 418.472 248.764C418.089 236.784 418.657 224.85 420.198 212.962C420.476 210.853 423.825 210.83 423.547 212.962C422.191 223.448 421.577 233.98 421.716 244.535C430.487 233.122 439.246 221.71 448.006 210.274C447.913 210.077 447.855 209.857 447.832 209.613C447.38 201.793 447.276 193.983 447.531 186.151C447.6 183.996 450.949 183.996 450.879 186.151C450.659 192.883 450.728 199.603 451.03 206.323C456.892 198.664 462.767 191.017 468.618 183.359C469.904 181.667 472.824 183.335 471.514 185.05C463.427 195.629 455.328 206.195 447.229 216.774C453.764 213.97 460.38 211.351 467.1 208.988C469.139 208.269 470.02 211.502 467.992 212.22C459.534 215.198 451.227 218.535 443.047 222.231C435.909 231.535 428.76 240.827 421.612 250.12C421.542 250.224 421.473 250.328 421.392 250.409C417.394 255.612 413.397 260.802 409.4 265.993C423.848 263.143 437.856 258.728 451.319 252.692C453.277 251.811 454.876 254.766 452.907 255.646C437.995 262.332 422.423 267.152 406.329 270.002C396.122 283.245 385.902 296.465 375.671 309.685C387.154 307.681 398.647 305.677 410.13 303.672C412.238 303.301 413.142 306.534 411.022 306.905C398.23 309.141 385.439 311.366 372.647 313.602C357.307 333.414 341.943 353.204 326.533 372.971C325.213 374.674 322.849 372.287 324.17 370.607L324.135 370.584Z" fill="url(#paint11_linear_4340_23318)"/>
<path d="M138.21 308.817H42.993C39.4415 308.817 36.5625 311.696 36.5625 315.247V366.077C36.5625 369.628 39.4415 372.507 42.993 372.507H138.21C141.762 372.507 144.641 369.628 144.641 366.077V315.247C144.641 311.696 141.762 308.817 138.21 308.817Z" fill="#0098D6"/>
<path d="M56.0709 323.995H46.1877C44.8759 323.995 43.8125 325.058 43.8125 326.37V336.253C43.8125 337.565 44.8759 338.628 46.1877 338.628H56.0709C57.3827 338.628 58.4462 337.565 58.4462 336.253V326.37C58.4462 325.058 57.3827 323.995 56.0709 323.995Z" fill="url(#paint12_linear_4340_23318)"/>
<g style="mix-blend-mode:multiply">
<path d="M139.701 320.264H77.25V323.995H139.701V320.264Z" fill="#003AA5"/>
</g>
<path d="M64.7608 347.457H43.8125V353.702H64.7608V347.457Z" fill="#C2E1FE"/>
<path d="M89.4639 347.457H68.5156V353.702H89.4639V347.457Z" fill="#C2E1FE"/>
<path d="M114.167 347.457H93.2188V353.702H114.167V347.457Z" fill="#C2E1FE"/>
<path d="M138.87 347.457H117.922V353.702H138.87V347.457Z" fill="#C2E1FE"/>
<path d="M51.1401 272.725C51.1401 280.117 45.15 286.107 37.7578 286.107C45.15 286.107 51.1401 292.097 51.1401 299.489C51.1401 292.097 57.1303 286.107 64.5225 286.107C57.1303 286.107 51.1401 280.117 51.1401 272.725Z" fill="#FFBE00"/>
<path d="M339.542 90.6208H165.514C160.311 90.6208 156.094 94.8382 156.094 100.041V364.246C156.094 369.448 160.311 373.666 165.514 373.666H339.542C344.744 373.666 348.961 369.448 348.961 364.246V100.041C348.961 94.8382 344.744 90.6208 339.542 90.6208Z" fill="#003AA5"/>
<path d="M337.065 104.756H167.984V352.891H337.065V104.756Z" fill="#C2E1FE"/>
<g style="mix-blend-mode:multiply">
<path d="M270.22 95.3828H234.823C234.023 95.3828 233.375 96.0312 233.375 96.8311V97.1787C233.375 97.9786 234.023 98.627 234.823 98.627H270.22C271.02 98.627 271.668 97.9786 271.668 97.1787V96.8311C271.668 96.0312 271.02 95.3828 270.22 95.3828Z" fill="#003AA5"/>
</g>
<g style="mix-blend-mode:multiply">
<path d="M266.586 357.074H238.477C235.297 357.074 232.719 359.652 232.719 362.832V364.234C232.719 367.415 235.297 369.993 238.477 369.993H266.586C269.766 369.993 272.344 367.415 272.344 364.234V362.832C272.344 359.652 269.766 357.074 266.586 357.074Z" fill="#003AA5"/>
</g>
<path d="M176.051 175.746L186.641 149.619H159.054L144.641 175.746H176.051Z" fill="#003AA5"/>
<path d="M207.118 175.746L213.34 149.619H186.645L176.055 175.746H207.118Z" fill="url(#paint13_linear_4340_23318)"/>
<path d="M238.177 175.746L240.923 149.619H213.335L207.125 175.746H238.177Z" fill="#003AA5"/>
<path d="M362.478 175.746L348.806 149.619H320.836L331.391 175.746H362.478Z" fill="#003AA5"/>
<path d="M331.395 175.746L320.909 149.619H294.469L300.343 175.758L331.395 175.746Z" fill="url(#paint14_linear_4340_23318)"/>
<path d="M300.343 175.758L294.468 149.619H265.016L269.279 175.746L300.343 175.758Z" fill="#003AA5"/>
<path d="M176.051 175.746L186.641 149.619H159.054L144.641 175.746H176.051Z" fill="#0098D6"/>
<path d="M238.177 175.746L240.923 149.619H213.335L207.125 175.746H238.177Z" fill="#0098D6"/>
<path d="M362.478 175.746L348.806 149.619H320.836L331.391 175.746H362.478Z" fill="#0098D6"/>
<path d="M300.343 175.758L294.468 149.619H265.016L269.279 175.746L300.343 175.758Z" fill="#0098D6"/>
<path d="M269.278 175.746L265.014 149.619H240.891L238.18 175.746H269.278Z" fill="url(#paint15_linear_4340_23318)"/>
<path d="M144.641 175.746H176.028V199.348C176.028 207.076 169.748 213.356 162.02 213.356H158.649C150.92 213.356 144.641 207.076 144.641 199.348V175.746Z" fill="#003AA5"/>
<path d="M191.581 213.367C183.007 213.367 176.055 206.416 176.055 197.842V176.221C176.055 175.966 176.263 175.758 176.518 175.758H206.654C206.909 175.758 207.118 175.966 207.118 176.221V197.842C207.118 206.416 200.166 213.367 191.592 213.367H191.581Z" fill="url(#paint16_linear_4340_23318)"/>
<path d="M253.737 213.367C245.163 213.367 238.211 206.416 238.211 197.842V176.221C238.211 175.966 238.419 175.758 238.674 175.758H268.811C269.066 175.758 269.274 175.966 269.274 176.221V197.842C269.274 206.416 262.322 213.367 253.748 213.367H253.737Z" fill="url(#paint17_linear_4340_23318)"/>
<path d="M269.273 175.758H300.337V199.51C300.337 207.157 294.126 213.367 286.479 213.367H283.142C275.495 213.367 269.285 207.157 269.285 199.51V175.758H269.273Z" fill="#003AA5"/>
<path d="M315.87 213.379C307.296 213.379 300.344 206.427 300.344 197.853V176.233C300.344 175.978 300.552 175.77 300.807 175.77H330.943C331.198 175.77 331.407 175.978 331.407 176.233V197.853C331.407 206.427 324.455 213.379 315.881 213.379H315.87Z" fill="url(#paint18_linear_4340_23318)"/>
<path d="M346.94 213.379C338.366 213.379 331.414 206.427 331.414 197.853V175.77H362.477V197.853C362.477 206.427 355.525 213.379 346.951 213.379H346.94Z" fill="#003AA5"/>
<path d="M222.643 213.367C214.069 213.367 207.117 206.416 207.117 197.842V175.758H238.18V197.842C238.18 206.416 231.229 213.367 222.655 213.367H222.643Z" fill="#003AA5"/>
<path d="M144.641 175.746H176.028V199.348C176.028 207.076 169.748 213.356 162.02 213.356H158.649C150.92 213.356 144.641 207.076 144.641 199.348V175.746Z" fill="#003AA5"/>
<path d="M269.273 175.758H300.337V199.51C300.337 207.157 294.126 213.367 286.479 213.367H283.142C275.495 213.367 269.285 207.157 269.285 199.51V175.758H269.273Z" fill="#003AA5"/>
<path d="M346.94 213.379C338.366 213.379 331.414 206.427 331.414 197.853V175.769H362.477V197.853C362.477 206.427 355.525 213.379 346.951 213.379H346.94Z" fill="#003AA5"/>
<path d="M144.641 175.746H176.028V199.348C176.028 207.076 169.748 213.356 162.02 213.356H158.649C150.92 213.356 144.641 207.076 144.641 199.348V175.746Z" fill="#009FDD"/>
<path d="M269.273 175.758H300.337V199.51C300.337 207.157 294.126 213.367 286.479 213.367H283.142C275.495 213.367 269.285 207.157 269.285 199.51V175.758H269.273Z" fill="#009FDD"/>
<path d="M346.94 213.379C338.366 213.379 331.414 206.427 331.414 197.853V175.769H362.477V197.853C362.477 206.427 355.525 213.379 346.951 213.379H346.94Z" fill="#009FDD"/>
<path d="M222.643 213.367C214.069 213.367 207.117 206.416 207.117 197.842V175.758" fill="#003AA5"/>
<path d="M222.643 213.367C214.069 213.367 207.117 206.416 207.117 197.842V175.758H238.18V197.842C238.18 206.416 231.229 213.367 222.655 213.367H222.643Z" fill="#009FDD"/>
<path d="M330.745 222.695H174.305V248.463H330.745V222.695Z" fill="#E3F1FE"/>
<path d="M330.742 255.589H224.031V263.757H330.742V255.589Z" fill="#E3F1FE"/>
<path d="M330.742 268.473H224.031V276.641H330.742V268.473Z" fill="#E3F1FE"/>
<path d="M330.742 281.357H224.031V289.525H330.742V281.357Z" fill="#E3F1FE"/>
<path d="M330.742 294.229H224.031V302.398H330.742V294.229Z" fill="#E3F1FE"/>
<g style="mix-blend-mode:multiply">
<path d="M337.057 104.756H167.977V141.462H337.057V104.756Z" fill="#C2E1FE"/>
</g>
<g style="mix-blend-mode:multiply">
<path d="M283.138 112.577H221.916C219.913 112.577 218.289 114.201 218.289 116.204V130.015C218.289 132.018 219.913 133.641 221.916 133.641H283.138C285.141 133.641 286.765 132.018 286.765 130.015V116.204C286.765 114.201 285.141 112.577 283.138 112.577Z" fill="#C2E1FE"/>
</g>
<path d="M283.138 112.577H221.916C219.913 112.577 218.289 114.201 218.289 116.204V130.015C218.289 132.018 219.913 133.641 221.916 133.641H283.138C285.141 133.641 286.765 132.018 286.765 130.015V116.204C286.765 114.201 285.141 112.577 283.138 112.577Z" fill="#0098D6"/>
<path d="M135.736 257.941V302.143L133.141 302.398L135.736 304.761H218.081V257.941L215.485 255.589L135.736 257.941Z" fill="#C2E1FE"/>
<g style="mix-blend-mode:multiply">
<path d="M135.736 257.941V302.143L133.141 302.398L135.736 304.761H218.081V257.941L215.485 255.589L135.736 257.941Z" fill="#259AFF"/>
</g>
<g style="mix-blend-mode:multiply" opacity="0.5">
<path d="M215.484 255.589L218.08 257.941V304.761L215.484 302.398V255.589Z" fill="#259AFF"/>
</g>
<path d="M215.485 255.589H133.141V302.409H215.485V255.589Z" fill="#0098D6"/>
<g style="mix-blend-mode:multiply">
<path d="M169.159 283.57H184.546C185.067 283.57 185.531 283.222 185.682 282.712L189.076 270.836C189.181 270.477 189.111 270.095 188.879 269.805C188.659 269.515 188.3 269.33 187.941 269.33H167.468L166.923 266.862C166.796 266.318 166.332 265.935 165.776 265.935H160.69C160.041 265.935 159.508 266.468 159.508 267.117C159.508 267.766 160.041 268.299 160.69 268.299H164.838L167.792 281.577C166.877 282.075 166.309 283.037 166.309 284.091C166.309 285.644 167.549 286.907 169.078 286.953C168.429 287.486 168.001 288.274 168.001 289.178C168.001 290.765 169.287 292.051 170.874 292.051C172.461 292.051 173.748 290.765 173.748 289.178C173.748 288.285 173.33 287.486 172.682 286.965H181.047C180.398 287.498 179.981 288.285 179.981 289.178C179.981 290.765 181.267 292.051 182.854 292.051C184.442 292.051 185.728 290.765 185.728 289.178C185.728 288.274 185.299 287.474 184.639 286.941C185.241 286.895 185.728 286.397 185.728 285.783C185.728 285.134 185.195 284.601 184.546 284.601H169.159C168.87 284.601 168.638 284.369 168.638 284.08C168.638 283.79 168.87 283.558 169.159 283.558V283.57ZM182.854 289.699C182.565 289.699 182.333 289.467 182.333 289.178C182.333 288.888 182.565 288.656 182.854 288.656C183.144 288.656 183.376 288.888 183.376 289.178C183.376 289.467 183.144 289.699 182.854 289.699ZM170.863 288.668C171.152 288.668 171.384 288.899 171.384 289.189C171.384 289.479 171.152 289.711 170.863 289.711C170.573 289.711 170.341 289.479 170.341 289.189C170.341 288.899 170.573 288.668 170.863 288.668ZM168.001 271.694H186.388L183.666 281.218H170.109L167.989 271.694H168.001Z" fill="#259AFF"/>
</g>
<path d="M366.754 336.126H197.523L195.414 334.341L197.523 312.524L364.645 310.74L366.754 312.524V336.126Z" fill="#259AFF"/>
<path d="M364.645 310.74H195.414V334.341H364.645V310.74Z" fill="#0098D6"/>
<g style="mix-blend-mode:multiply">
<path d="M364.648 310.74L366.757 312.524V336.126L364.648 334.341V310.74Z" fill="#259AFF"/>
</g>
<g style="mix-blend-mode:multiply" opacity="0.5">
<path d="M195.414 334.341H364.645L366.754 336.126H197.523L195.414 334.341Z" fill="#259AFF"/>
</g>
<path d="M360.66 53.301C360.66 67.2974 349.317 78.6406 335.32 78.6406C349.317 78.6406 360.66 89.9837 360.66 103.98C360.66 89.9837 372.003 78.6406 385.999 78.6406C372.003 78.6406 360.66 67.2974 360.66 53.301Z" fill="#FFBE00"/>
<path d="M333.827 50.7867C333.827 56.6958 329.042 61.481 323.133 61.481C329.042 61.481 333.827 66.2662 333.827 72.1753C333.827 66.2662 338.612 61.481 344.521 61.481C338.612 61.481 333.827 56.6958 333.827 50.7867Z" fill="#FFBE00"/>
<path d="M425.96 289.653L474.021 286.107L462.457 273.223H382.048L370.484 286.107L418.545 289.653V290.197L422.253 289.919L425.96 290.197V289.653Z" fill="#007599"/>
<path d="M468.285 308.272H376.219V372.044H468.285V308.272Z" fill="url(#paint19_linear_4340_23318)"/>
<path d="M430.304 308.272H414.188V372.044H430.304V308.272Z" fill="#0098D6"/>
<g style="mix-blend-mode:multiply" opacity="0.5">
<path d="M468.285 308.272H376.219V310.96H468.285V308.272Z" fill="#003AA5"/>
</g>
<path d="M474.021 286.107H370.484V308.26H474.021V286.107Z" fill="url(#paint20_linear_4340_23318)"/>
<path d="M432.1 286.107H415.844V308.26H432.1V286.107Z" fill="#259AFF"/>
<g style="mix-blend-mode:multiply" opacity="0.2">
<path d="M432.1 286.107H415.844V308.26H432.1V286.107Z" fill="#E5F3FF"/>
</g>
<path d="M423.963 275.517C420.094 276.062 416.235 276.78 412.412 277.591C405.935 278.947 399.25 280.488 393.236 283.338C391.232 284.288 388.891 285.493 387.675 287.428C386.783 288.842 387.037 290.603 387.026 292.19C387.014 295.087 386.84 298.053 387.072 300.949C387.107 301.413 387.2 301.853 387.385 302.282C388.521 304.866 391.498 306.441 394.105 307.079C397.57 307.924 401.266 307.542 404.66 306.557C413.918 303.892 421.635 296.547 423.963 287.115C424.079 286.64 423.998 285.852 424.01 285.424C424.021 284.056 424.033 282.689 424.021 281.322C424.01 279.955 424.021 278.588 424.01 277.22C424.01 276.722 423.848 275.992 423.963 275.529C421.947 283.686 415.957 290.244 408.345 293.627C402.737 296.118 394.638 297.543 389.482 293.256C388.59 292.514 387.686 291.553 387.292 290.44C387.223 290.255 387.188 290.07 387.142 289.873C386.029 285.98 385.96 304.24 387.142 300.301C387.269 299.883 387.385 299.501 387.605 299.13C388.706 297.276 390.873 296.095 392.75 295.168C398.462 292.341 404.869 290.823 411.056 289.467C415.332 288.54 419.63 287.718 423.963 287.104C424.149 287.08 424.021 281.762 424.021 281.31C424.021 280.858 423.882 275.529 423.963 275.517Z" fill="#259AFF"/>
<path d="M423.967 287.104C427.513 287.602 431.046 288.251 434.545 288.969C440.86 290.267 447.279 291.75 453.223 294.264C455.447 295.202 457.846 296.326 459.537 298.111C460.152 298.771 460.522 299.443 460.789 300.301C461.994 304.228 461.878 286.061 460.812 289.815C460.754 290.023 460.719 290.232 460.65 290.44C460.476 290.916 460.209 291.333 459.908 291.738C455.934 297.033 447.87 296.512 442.285 294.67C433.456 291.773 426.226 284.636 423.967 275.529C424.071 275.934 423.932 276.896 423.921 277.22C423.909 278.588 423.898 279.955 423.909 281.322C423.921 282.689 423.909 284.056 423.921 285.424C423.921 285.957 423.84 286.605 423.967 287.115C426.087 295.678 432.587 302.479 440.721 305.688C446.468 307.959 455.03 309.037 459.561 303.753C460.244 302.954 460.742 302.108 460.858 301.054C461.148 298.145 460.928 295.121 460.905 292.19C460.905 291.043 461.044 289.734 460.766 288.598C460.291 286.617 458.217 285.261 456.571 284.311C450.882 281.044 444.104 279.491 437.755 278.066C433.201 277.047 428.59 276.166 423.967 275.506C424.013 275.506 423.909 280.858 423.909 281.299C423.909 281.739 423.747 287.057 423.967 287.092V287.104Z" fill="#259AFF"/>
<path d="M423.966 275.633C420.421 275.135 416.887 274.486 413.388 273.768C407.073 272.47 400.655 270.987 394.711 268.473C392.486 267.534 390.088 266.41 388.396 264.626C387.782 263.965 387.411 263.293 387.145 262.436C385.94 258.508 386.056 276.676 387.122 272.922C387.18 272.713 387.214 272.505 387.284 272.296C387.458 271.821 387.724 271.404 388.025 270.998C392 265.703 400.064 266.225 405.648 268.067C414.477 270.964 421.707 278.101 423.966 287.208C423.862 286.802 424.001 285.841 424.013 285.516C424.024 284.149 424.036 282.782 424.024 281.415C424.013 280.047 424.024 278.68 424.013 277.313C424.013 276.78 424.094 276.131 423.966 275.621C421.846 267.059 415.346 260.258 407.212 257.048C401.466 254.777 392.903 253.7 388.373 258.983C387.689 259.783 387.191 260.629 387.075 261.683C386.786 264.591 387.006 267.615 387.029 270.547C387.029 271.694 386.89 273.003 387.168 274.138C387.643 276.12 389.717 277.475 391.362 278.425C397.051 281.693 403.829 283.245 410.179 284.67C414.732 285.69 419.343 286.571 423.966 287.231C423.92 287.231 424.024 281.878 424.024 281.438C424.024 280.998 424.187 275.679 423.966 275.645V275.633Z" fill="#259AFF"/>
<path d="M423.968 287.219C427.838 286.675 431.696 285.957 435.52 285.145C441.996 283.79 448.682 282.249 454.695 279.399C456.7 278.448 459.04 277.244 460.257 275.309C461.149 273.895 460.894 272.134 460.905 270.547C460.917 267.65 461.091 264.684 460.859 261.787C460.824 261.324 460.732 260.883 460.546 260.455C459.411 257.871 456.433 256.295 453.826 255.658C450.362 254.812 446.666 255.195 443.271 256.179C434.013 258.844 426.297 266.19 423.968 275.621C423.852 276.096 423.933 276.884 423.921 277.313C423.91 278.68 423.898 280.047 423.91 281.415C423.922 282.782 423.91 284.149 423.921 285.516C423.921 286.014 424.084 286.744 423.968 287.208C425.984 279.051 431.974 272.493 439.586 269.11C445.194 266.619 453.293 265.194 458.449 269.481C459.341 270.222 460.245 271.184 460.639 272.296C460.708 272.481 460.743 272.667 460.79 272.864C461.902 276.757 461.971 258.497 460.79 262.436C460.662 262.853 460.546 263.236 460.326 263.606C459.225 265.46 457.059 266.642 455.182 267.569C449.47 270.396 443.062 271.914 436.875 273.269C432.6 274.196 428.301 275.019 423.968 275.633C423.782 275.656 423.91 280.974 423.91 281.426C423.91 281.878 424.049 287.208 423.968 287.219Z" fill="#259AFF"/>
<path d="M376.219 364.976C376.219 364.976 446.004 370.931 468.285 343.066V372.032H376.219V364.976Z" fill="white" fill-opacity="0.34"/>
<g style="mix-blend-mode:multiply" opacity="0.3">
<path d="M387.087 368.336C396.27 368.336 403.714 360.892 403.714 351.71C403.714 342.527 396.27 335.083 387.087 335.083C377.905 335.083 370.461 342.527 370.461 351.71C370.461 360.892 377.905 368.336 387.087 368.336Z" stroke="#FFBE00" stroke-width="0.5" stroke-miterlimit="10"/>
</g>
<path d="M408.511 158.401L382.291 130.27C381.746 129.679 380.993 129.331 380.205 129.273L365.525 128.219C363.718 128.091 362.165 129.505 362.13 131.324L361.875 146.34C361.864 147.163 362.165 147.951 362.721 148.553L388.918 176.662C390.111 177.936 392.116 178.017 393.39 176.824L408.349 162.885C409.623 161.692 409.704 159.688 408.511 158.413V158.401ZM364.946 134.974C364.007 133.966 364.054 132.378 365.073 131.428C366.081 130.49 367.669 130.536 368.619 131.556C369.557 132.564 369.511 134.151 368.491 135.101C367.483 136.04 365.896 135.993 364.946 134.974Z" fill="#0098D6"/>
<g style="mix-blend-mode:multiply">
<path d="M381.586 142.725C383.938 140.535 386.742 140.686 388.608 142.69C390.496 144.718 390.45 147.51 388.098 149.712C385.723 151.925 382.942 151.751 381.065 149.723C379.2 147.719 379.223 144.938 381.598 142.725H381.586ZM396.51 151.519C397.379 152.446 396.846 153.964 395.594 154.161L377.091 156.976C376.569 157.057 376.048 156.872 375.7 156.49C374.832 155.563 375.364 154.045 376.616 153.848L395.119 151.033C395.641 150.951 396.162 151.137 396.51 151.519ZM385.908 147.36C387.287 146.074 387.38 145.077 386.766 144.417C386.186 143.791 385.155 143.779 383.765 145.066C382.386 146.352 382.328 147.383 382.907 148.008C383.521 148.669 384.518 148.646 385.908 147.36ZM384.135 158.32C386.487 156.131 389.268 156.258 391.157 158.286C393.045 160.313 392.999 163.117 390.647 165.307C388.272 167.52 385.491 167.346 383.614 165.319C381.725 163.291 381.772 160.533 384.147 158.32H384.135ZM388.446 162.955C389.824 161.669 389.905 160.649 389.303 160.012C388.7 159.375 387.692 159.375 386.302 160.661C384.923 161.947 384.842 162.967 385.445 163.604C386.047 164.241 387.055 164.241 388.446 162.955Z" fill="#003AA5"/>
</g>
<path d="M343.038 98.7661C341.185 103.968 341.799 109.623 345.472 113.921C347.789 116.632 350.929 117.849 353.999 119.517C359.526 122.53 363.315 126.933 365.655 132.784C366.038 133.746 367.602 133.328 367.219 132.355C365.284 127.5 362.457 123.353 358.205 120.224C355.204 118.023 351.555 116.91 348.658 114.57C343.884 110.712 342.563 104.919 344.591 99.1948C344.939 98.21 343.375 97.7813 343.027 98.7661H343.038Z" fill="#0098D6"/>
<path d="M242.045 119.924C244.097 120.488 244.901 121.088 244.901 122.504C244.901 124.016 243.797 125.336 241.517 125.336C239.933 125.336 238.265 124.772 237.917 123.092L240.149 122.396C240.197 122.828 240.749 123.152 241.385 123.152C241.853 123.152 242.201 122.972 242.201 122.648C242.201 122.228 241.685 122.204 240.845 122C239.309 121.628 238.181 121.088 238.181 119.36C238.181 117.716 239.633 116.636 241.481 116.636C242.957 116.636 244.301 117.368 244.601 118.844L242.381 119.384C242.285 119.048 241.961 118.82 241.505 118.82C241.025 118.82 240.773 119.012 240.773 119.3C240.773 119.708 241.397 119.744 242.045 119.924ZM248.316 122.924H251.532V125.18H245.616V116.78H251.424V119.036H248.316V119.972H251.04V121.916H248.316V122.924ZM255.195 122.708H258.327V125.18H252.495V116.78H255.195V122.708ZM261.863 122.708H264.995V125.18H259.163V116.78H261.863V122.708Z" fill="white"/>
<defs>
<linearGradient id="paint0_linear_4340_23318" x1="253.424" y1="411.449" x2="253.424" y2="7.54614" gradientUnits="userSpaceOnUse">
<stop stop-color="#C2E1FE"/>
<stop offset="1" stop-color="#259AFF" stop-opacity="0"/>
</linearGradient>
<linearGradient id="paint1_linear_4340_23318" x1="252.302" y1="415.84" x2="252.302" y2="-25.1161" gradientUnits="userSpaceOnUse">
<stop stop-color="#C2E1FE"/>
<stop offset="1" stop-color="#259AFF" stop-opacity="0"/>
</linearGradient>
<linearGradient id="paint2_linear_4340_23318" x1="130.338" y1="130.699" x2="175.219" y2="323.84" gradientUnits="userSpaceOnUse">
<stop stop-color="#FDDA42"/>
<stop offset="1" stop-color="#E5A003"/>
</linearGradient>
<linearGradient id="paint3_linear_4340_23318" x1="130.338" y1="130.699" x2="175.219" y2="323.84" gradientUnits="userSpaceOnUse">
<stop stop-color="#FDDA42"/>
<stop offset="1" stop-color="#E5A003"/>
</linearGradient>
<linearGradient id="paint4_linear_4340_23318" x1="124.552" y1="301.136" x2="177.188" y2="178.15" gradientUnits="userSpaceOnUse">
<stop stop-color="#FDDA42"/>
<stop offset="1" stop-color="#E5A003"/>
</linearGradient>
<linearGradient id="paint5_linear_4340_23318" x1="40.8497" y1="162.399" x2="188.275" y2="363.435" gradientUnits="userSpaceOnUse">
<stop stop-color="#F3BF2B"/>
<stop offset="1" stop-color="#E5A003"/>
</linearGradient>
<linearGradient id="paint6_linear_4340_23318" x1="118.477" y1="362.253" x2="118.477" y2="194.064" gradientUnits="userSpaceOnUse">
<stop stop-color="#FDDA42"/>
<stop offset="1" stop-color="#E5A003"/>
</linearGradient>
<linearGradient id="paint7_linear_4340_23318" x1="385.595" y1="129.805" x2="340.704" y2="322.952" gradientUnits="userSpaceOnUse">
<stop stop-color="#FDDA42"/>
<stop offset="1" stop-color="#E5A003"/>
</linearGradient>
<linearGradient id="paint8_linear_4340_23318" x1="385.595" y1="129.805" x2="340.704" y2="322.952" gradientUnits="userSpaceOnUse">
<stop stop-color="#FDDA42"/>
<stop offset="1" stop-color="#E5A003"/>
</linearGradient>
<linearGradient id="paint9_linear_4340_23318" x1="391.374" y1="300.243" x2="338.738" y2="177.256" gradientUnits="userSpaceOnUse">
<stop stop-color="#FDDA42"/>
<stop offset="1" stop-color="#E5A003"/>
</linearGradient>
<linearGradient id="paint10_linear_4340_23318" x1="475.416" y1="162.399" x2="328.002" y2="363.435" gradientUnits="userSpaceOnUse">
<stop stop-color="#FDDA42"/>
<stop offset="1" stop-color="#E5A003"/>
</linearGradient>
<linearGradient id="paint11_linear_4340_23318" x1="397.802" y1="362.253" x2="397.802" y2="194.064" gradientUnits="userSpaceOnUse">
<stop stop-color="#FDDA42"/>
<stop offset="1" stop-color="#E5A003"/>
</linearGradient>
<linearGradient id="paint12_linear_4340_23318" x1="43.8125" y1="331.317" x2="58.4577" y2="331.317" gradientUnits="userSpaceOnUse">
<stop stop-color="#FDDA42"/>
<stop offset="1" stop-color="#E5A003"/>
</linearGradient>
<linearGradient id="paint13_linear_4340_23318" x1="201.429" y1="145.332" x2="191.905" y2="174.761" gradientUnits="userSpaceOnUse">
<stop stop-color="#FDDA42"/>
<stop offset="1" stop-color="#E5A003"/>
</linearGradient>
<linearGradient id="paint14_linear_4340_23318" x1="308.5" y1="149.561" x2="316.286" y2="177.253" gradientUnits="userSpaceOnUse">
<stop stop-color="#FDDA42"/>
<stop offset="1" stop-color="#E5A003"/>
</linearGradient>
<linearGradient id="paint15_linear_4340_23318" x1="254.134" y1="148.646" x2="253.694" y2="177.635" gradientUnits="userSpaceOnUse">
<stop stop-color="#FDDA42"/>
<stop offset="1" stop-color="#E5A003"/>
</linearGradient>
<linearGradient id="paint16_linear_4340_23318" x1="191.581" y1="176.302" x2="191.581" y2="213.53" gradientUnits="userSpaceOnUse">
<stop stop-color="#FDDA42"/>
<stop offset="1" stop-color="#E5A003"/>
</linearGradient>
<linearGradient id="paint17_linear_4340_23318" x1="253.737" y1="176.302" x2="253.737" y2="213.53" gradientUnits="userSpaceOnUse">
<stop stop-color="#FDDA42"/>
<stop offset="1" stop-color="#E5A003"/>
</linearGradient>
<linearGradient id="paint18_linear_4340_23318" x1="315.87" y1="176.303" x2="315.87" y2="213.53" gradientUnits="userSpaceOnUse">
<stop stop-color="#FDDA42"/>
<stop offset="1" stop-color="#E5A003"/>
</linearGradient>
<linearGradient id="paint19_linear_4340_23318" x1="422.252" y1="284.045" x2="422.252" y2="524.811" gradientUnits="userSpaceOnUse">
<stop stop-color="#0098D6"/>
<stop offset="1"/>
</linearGradient>
<linearGradient id="paint20_linear_4340_23318" x1="422.253" y1="0.00346124" x2="422.253" y2="524.811" gradientUnits="userSpaceOnUse">
<stop stop-color="#0098D6"/>
<stop offset="1"/>
</linearGradient>
</defs>
</svg>
