<svg width="16" height="12" viewBox="0 0 16 12" fill="none" xmlns="http://www.w3.org/2000/svg">
<path d="M0.4 0C0.293913 0 0.192172 0.0421427 0.117157 0.117157C0.0421427 0.192172 0 0.293913 0 0.4L0 11.6C0 11.7061 0.0421427 11.8078 0.117157 11.8828C0.192172 11.9579 0.293913 12 0.4 12H15.6C15.7061 12 15.8078 11.9579 15.8828 11.8828C15.9579 11.8078 16 11.7061 16 11.6V0.4C16 0.293913 15.9579 0.192172 15.8828 0.117157C15.8078 0.0421427 15.7061 0 15.6 0H0.4ZM15.2781 0.7184V0.72H6.36064C6.55088 0.77936 6.61344 0.8656 6.7368 0.95216C6.78608 0.98544 6.796 1.02704 6.7592 1.04256C6.7464 1.04784 6.75472 1.05296 6.77744 1.05376C6.81232 1.05504 6.81904 1.06576 6.81904 1.12192C6.81904 1.16848 6.81104 1.1888 6.79152 1.1888C6.77232 1.1888 6.76368 1.2088 6.76368 1.25408C6.76368 1.28992 6.75328 1.32352 6.74064 1.3288C6.72224 1.33648 6.72224 1.33872 6.74064 1.34C6.7744 1.34224 6.77024 1.46864 6.73584 1.48224C6.6968 1.49776 6.70176 1.52608 6.74544 1.53776C6.78384 1.54816 6.79536 1.59808 6.764 1.61808C6.75408 1.62448 6.72992 1.62064 6.71008 1.60976C6.68448 1.59568 6.67008 1.59568 6.6616 1.61008C6.65488 1.62128 6.66672 1.6352 6.68816 1.64096C6.71312 1.64768 6.72688 1.66688 6.72688 1.69504C6.72688 1.752 6.64448 1.77696 6.5984 1.73376C6.5696 1.70656 6.56352 1.70752 6.5328 1.74256C6.49968 1.78032 6.50032 1.78096 6.55312 1.77024C6.62736 1.75536 6.67856 1.79584 6.65776 1.85376L6.64224 1.89744L6.59024 1.84784C6.50816 1.76912 6.51024 1.8096 6.5928 1.89504C6.6336 1.93728 6.66544 1.97152 6.6632 1.97152C6.6608 1.97152 6.6648 2.0112 6.67184 2.05968L6.68464 2.14768L6.61344 2.13776C6.57312 2.13216 6.54672 2.13552 6.55264 2.14528C6.55824 2.15488 6.58336 2.16288 6.60816 2.16288C6.63296 2.16288 6.65264 2.17344 6.65216 2.18656C6.65056 2.23232 6.47776 2.36608 6.376 2.40032C6.2304 2.44944 6.2224 2.45488 6.18752 2.52992C6.14816 2.61472 6.0776 2.6736 5.996 2.68944C5.96032 2.69632 5.93312 2.71312 5.93312 2.72816C5.93312 2.74272 5.92672 2.75472 5.91904 2.75472C5.91152 2.75472 5.9032 2.78624 5.90064 2.82464C5.89792 2.86304 5.88736 2.90464 5.87744 2.91712C5.86752 2.9296 5.8648 2.94496 5.87152 2.95184C5.87824 2.95888 5.86992 2.96464 5.85344 2.96464C5.83424 2.96464 5.82736 2.97504 5.83408 2.99312C5.83984 3.0088 5.83456 3.06448 5.82224 3.11712C5.80208 3.20416 5.79536 3.2128 5.74784 3.2128C5.7112 3.2128 5.69184 3.20128 5.68336 3.17376C5.6752 3.14656 5.65824 3.13616 5.62976 3.14C5.61749 3.14119 5.6051 3.13972 5.59345 3.13569C5.5818 3.13165 5.57115 3.12516 5.56224 3.11664C5.52512 3.07536 5.43712 2.88944 5.42256 2.8216C5.41441 2.78629 5.4012 2.75234 5.38336 2.7208C5.31968 2.61888 5.34272 2.36784 5.41776 2.34752C5.43696 2.34224 5.4512 2.31392 5.456 2.27152C5.4624 2.21408 5.4576 2.20272 5.424 2.196C5.39328 2.18992 5.38608 2.19568 5.3928 2.22224C5.40544 2.27216 5.31696 2.29184 5.27504 2.24848C5.24544 2.21776 5.2456 2.212 5.2784 2.14912C5.31056 2.08736 5.3184 2.08352 5.38192 2.09216L5.45088 2.10128L5.40608 2.05872C5.38128 2.0352 5.36512 2.01008 5.37008 2.0032C5.37488 1.99616 5.36912 1.99904 5.3568 2.0096C5.32608 2.0368 5.2688 2.03392 5.26624 2.00528C5.26192 1.9568 5.27264 1.90416 5.29152 1.88032C5.30512 1.8632 5.30528 1.84304 5.29152 1.81344C5.2664 1.75904 5.21312 1.57984 5.21312 1.54944C5.21312 1.53648 5.20032 1.51152 5.18464 1.49376C5.16703 1.47159 5.15466 1.44571 5.14848 1.41808C5.13888 1.36608 5.14784 1.37472 5.05024 1.32368L4.97056 1.28208L4.90752 1.32048C4.85552 1.35248 4.83504 1.35552 4.7888 1.33872C4.73008 1.3176 4.68672 1.25904 4.70592 1.22688C4.71216 1.21664 4.69568 1.19968 4.66976 1.18944C4.61056 1.16608 4.60944 1.12592 4.66688 1.07904L4.71168 1.0432L4.64928 1.00848C4.54592 0.95088 4.504 0.80864 4.82032 0.72H0.72V0.71904L15.2781 0.7184ZM4.28848 0.8464C4.36848 0.84096 4.4384 0.92896 4.43312 0.94528C4.42896 0.9584 4.40688 0.97184 4.384 0.97536C4.3568 0.97952 4.3464 0.9912 4.35312 1.00944C4.35872 1.02448 4.3488 1.05264 4.3312 1.07152C4.292 1.11424 4.28272 1.15232 4.31312 1.14592C4.3256 1.14336 4.33824 1.15952 4.3416 1.18192C4.34592 1.2112 4.32992 1.23392 4.28432 1.2632C4.212 1.30944 4.17632 1.31488 4.18992 1.27776C4.19696 1.2592 4.1816 1.25264 4.13392 1.25408C4.09808 1.25504 4.0688 1.2624 4.0688 1.27056C4.0688 1.27888 4.02768 1.28016 3.9776 1.27312C3.908 1.26352 3.8792 1.26768 3.85776 1.28976C3.83264 1.31568 3.83664 1.32208 3.89456 1.35056C3.9552 1.38032 3.96544 1.38032 4.05184 1.35056C4.12736 1.32464 4.15424 1.32304 4.19744 1.3416C4.2592 1.368 4.28144 1.41152 4.25152 1.4488C4.24544 1.45805 4.24129 1.46842 4.23931 1.47931C4.23733 1.49019 4.23757 1.50137 4.24 1.51216C4.24512 1.53248 4.23904 1.55312 4.22656 1.55808C4.19664 1.57008 3.84848 1.56896 3.80128 1.5568H3.80096C3.73712 1.54048 3.71808 1.51136 3.71776 1.42992C3.71744 1.30112 3.70176 1.26368 3.65344 1.27632C3.62144 1.28448 3.6024 1.27376 3.57248 1.23024C3.51392 1.14512 3.52096 1.11248 3.59776 1.11248C3.64192 1.11248 3.6696 1.12432 3.68496 1.15008C3.70016 1.17504 3.72016 1.184 3.74624 1.17728C3.75774 1.17437 3.76982 1.17478 3.78109 1.17847C3.79236 1.18215 3.80236 1.18895 3.80992 1.19808C3.83232 1.22576 3.8376 1.2232 3.85872 1.17088C3.87184 1.13888 3.89456 1.11248 3.90976 1.11248C3.93376 1.11248 3.93408 1.10576 3.91088 1.05968C3.89648 1.03088 3.88448 1.00208 3.88432 0.99536C3.88432 0.98864 3.92512 0.91408 3.97536 0.89712C4.0328 0.87776 4.15424 0.87056 4.25376 0.85472C4.26476 0.849911 4.2765 0.847042 4.28848 0.84624M2.90096 0.88928C2.98096 0.888 3.03488 0.92848 3.02368 0.93328C3.01248 0.93808 3.00752 0.96288 3.01216 0.98864C3.01904 1.02576 3.01056 1.03904 2.9712 1.05456C2.90816 1.07936 2.91168 1.08016 2.88336 1.03952C2.86888 1.01934 2.84957 1.00311 2.8272 0.99232C2.80944 0.98544 2.79504 0.96816 2.79504 0.95392C2.79504 0.93488 2.82096 0.8904 2.90096 0.88928ZM3.38432 0.89984C3.47104 0.89552 3.50112 0.94208 3.45472 0.97232C3.41664 0.99712 3.33248 0.99504 3.3112 0.96864C3.28592 0.93696 3.29776 0.90416 3.38432 0.89984ZM3.56368 0.9008C3.6304 0.9008 3.64592 0.9272 3.63744 0.94976C3.6304 0.9688 3.63808 0.97856 3.66 0.97856C3.7032 0.97856 3.7176 0.99488 3.70528 1.02816C3.69168 1.06496 3.62416 1.06096 3.57936 1.0208C3.55693 1.00036 3.53612 0.978217 3.51712 0.95456C3.49392 0.92416 3.49712 0.9008 3.56368 0.9008ZM8.18368 0.92144C8.2584 0.92144 8.3144 0.92944 8.3144 0.94048C8.31436 0.945462 8.31238 0.950234 8.30889 0.953787C8.3054 0.95734 8.30066 0.959396 8.29568 0.95952C8.28544 0.95952 8.27744 0.972 8.27744 0.98736C8.27744 1.00272 8.2632 1.06288 8.24592 1.12112C8.21232 1.2336 8.17472 1.25744 8.15568 1.17888C8.14928 1.15264 8.1336 1.13136 8.12048 1.13136C8.09024 1.13136 8.0696 1.05088 8.09568 1.03424C8.10784 1.0264 8.10848 1.01856 8.09728 1.01424C8.0872 1.01024 8.07328 0.98816 8.06624 0.96464C8.05376 0.92304 8.05696 0.92144 8.18368 0.92144ZM8.43056 0.92144C8.45904 0.92144 8.49952 0.93824 8.52128 0.9592L8.56096 0.99728L8.51744 1.04528C8.47584 1.09104 8.41072 1.11392 8.43424 1.07408C8.44064 1.06368 8.43008 1.0552 8.41088 1.0552C8.3832 1.0552 8.37648 1.04144 8.37744 0.98832C8.37872 0.92832 8.38432 0.92144 8.43056 0.92144ZM11.6566 0.92144C11.6774 0.92144 11.6894 0.92992 11.6832 0.94048C11.6683 0.96528 11.6184 0.96528 11.6184 0.94048C11.6184 0.92992 11.6357 0.92128 11.6566 0.92128M3.16688 0.96928C3.18288 0.95296 3.23776 1.0152 3.24208 1.05472C3.25008 1.12672 3.20624 1.11968 3.18256 1.04528C3.1704 1.00736 3.16336 0.97296 3.16688 0.96928ZM11.8075 0.9896C11.857 0.98224 11.9194 1.03008 11.9078 1.07584C11.9019 1.09936 11.9078 1.11232 11.925 1.11232C11.9397 1.11232 11.9563 1.12528 11.9622 1.14112C11.9688 1.15904 11.9979 1.17024 12.0403 1.1704C12.1416 1.17136 12.2125 1.24448 12.2232 1.35888C12.2318 1.45264 12.2216 1.46976 12.0856 1.58992C12.0552 1.6168 12.055 1.61872 12.0894 1.62544C12.1093 1.62944 12.132 1.64224 12.1397 1.65424C12.1494 1.6696 12.159 1.66768 12.1722 1.64736C12.1877 1.62336 12.1923 1.62544 12.2016 1.66048C12.2107 1.69488 12.2202 1.69904 12.2547 1.68544C12.3117 1.66304 12.4496 1.69968 12.4368 1.73392C12.4304 1.75104 12.449 1.76352 12.4925 1.772C12.5717 1.78736 12.5965 1.77344 12.5965 1.71392C12.5965 1.65152 12.6227 1.64032 12.6875 1.6752C12.7178 1.6912 12.7582 1.70448 12.7774 1.70448C12.8451 1.70448 12.875 1.76592 12.8701 1.89488C12.8662 1.9944 12.8717 2.01856 12.9019 2.04144C12.9354 2.06672 12.9392 2.06384 12.9534 2.00576C12.9744 1.92032 12.9955 1.90288 13.02 1.95008C13.036 1.98112 13.052 1.98736 13.0931 1.97888C13.1243 1.97248 13.1515 1.97696 13.1594 1.99008C13.1691 2.00656 13.1808 2.0048 13.2032 1.98384C13.2198 1.96816 13.2419 1.95696 13.2518 1.95888C13.2619 1.9608 13.2726 1.94736 13.2758 1.92896C13.2794 1.91056 13.2734 1.8952 13.2626 1.8952C13.2515 1.8952 13.2429 1.8824 13.2429 1.86672C13.2429 1.85088 13.2587 1.83824 13.2781 1.83824C13.2976 1.83824 13.3165 1.82864 13.3203 1.81664C13.331 1.7832 13.6824 1.87264 13.704 1.91456C13.7136 1.9328 13.7165 1.9528 13.7106 1.95888C13.7046 1.96496 13.7216 1.97552 13.7482 1.9824C13.7909 1.99344 13.804 2.01056 13.7997 2.04992C13.799 2.05616 13.8589 2.0576 13.9331 2.05264C14.0586 2.04432 14.0702 2.04656 14.0984 2.08832C14.115 2.11296 14.1288 2.15184 14.1288 2.17472C14.1288 2.22432 14.1624 2.24096 14.2056 2.21328C14.2272 2.19952 14.2581 2.20048 14.3075 2.21616C14.3718 2.23664 14.3805 2.23536 14.4078 2.19792C14.4266 2.17232 14.449 2.16112 14.4678 2.16864C14.5032 2.18272 14.508 2.23216 14.475 2.2448C14.4579 2.25136 14.4598 2.26208 14.4826 2.28672C14.5168 2.324 14.5674 2.30832 14.5366 2.26992C14.5264 2.25712 14.5227 2.22752 14.5286 2.20352C14.5379 2.16704 14.5475 2.16192 14.5882 2.17424C14.6147 2.18224 14.6698 2.19024 14.7102 2.19184C14.7986 2.19504 14.8464 2.21904 14.9688 2.32304C15.0195 2.36608 15.0718 2.40992 15.0853 2.42048C15.0987 2.43104 15.1261 2.45488 15.1461 2.4736C15.1658 2.49232 15.2062 2.5128 15.236 2.51888C15.2512 2.52289 15.2655 2.52955 15.2784 2.53856V2.7136C15.2707 2.72736 15.2669 2.74992 15.2682 2.78768C15.2685 2.80048 15.2534 2.81584 15.2346 2.82208C15.1958 2.83488 15.0888 2.76192 15.0888 2.72272C15.0888 2.70688 15.0661 2.69808 15.0285 2.69872C14.9848 2.69936 14.957 2.71472 14.9256 2.75584C14.8872 2.80624 14.8851 2.8192 14.9043 2.87984C14.9323 2.96752 14.9168 3.01024 14.8622 2.99616C14.8394 2.99008 14.7998 2.99744 14.7747 3.01232C14.7494 3.0272 14.7162 3.04592 14.701 3.0536C14.6858 3.06128 14.6413 3.1008 14.6022 3.14144C14.5354 3.21088 14.529 3.21376 14.4974 3.18416C14.4715 3.16 14.4557 3.15744 14.427 3.17328C14.4069 3.18448 14.3861 3.20448 14.381 3.2176C14.3738 3.236 14.3667 3.23472 14.3518 3.21296C14.3386 3.1936 14.3323 3.19216 14.3322 3.20816C14.3322 3.22144 14.3154 3.23232 14.295 3.23232C14.2747 3.23232 14.2578 3.24064 14.2578 3.25072C14.2578 3.26096 14.2706 3.26432 14.2856 3.25824C14.328 3.24144 14.3195 3.30368 14.2763 3.32768C14.2488 3.34272 14.2395 3.34208 14.2395 3.32512C14.2395 3.31264 14.2341 3.30784 14.2275 3.31456C14.2211 3.32128 14.2235 3.33776 14.2331 3.35104C14.2562 3.38336 14.2539 3.5184 14.2302 3.5176C14.2202 3.51728 14.2075 3.54528 14.2026 3.57984C14.1968 3.61872 14.1827 3.64272 14.1658 3.64272C14.1491 3.64272 14.1357 3.66384 14.1322 3.6952C14.1288 3.7256 14.115 3.748 14.0994 3.748C14.0846 3.748 14.0642 3.7712 14.0538 3.80016C14.0301 3.86624 13.9208 3.9704 13.9101 3.93696C13.9058 3.924 13.9165 3.90256 13.9338 3.8896C13.9613 3.8688 13.9626 3.85216 13.9453 3.75552C13.917 3.59696 13.92 3.4704 13.9531 3.44192C13.9683 3.42896 13.9813 3.41168 13.9813 3.40352C13.9813 3.39552 14.008 3.35952 14.041 3.32352C14.2218 3.1272 14.2602 3.07952 14.2381 3.07952C14.2246 3.07952 14.1912 3.1016 14.1637 3.12896C14.1147 3.1776 14.1136 3.17776 14.1016 3.13856C14.0947 3.11664 14.0946 3.09008 14.101 3.07952C14.1074 3.06896 14.1014 3.05968 14.0882 3.05824C14.0398 3.05376 14.0086 3.06448 13.9941 3.09072C13.9758 3.11872 13.9552 3.14516 13.9325 3.16976C13.9069 3.1984 13.8947 3.2248 13.9056 3.22864C13.9424 3.24144 13.9259 3.28944 13.884 3.29104C13.8531 3.29275 13.8224 3.29611 13.7918 3.30112C13.7538 3.30752 13.7413 3.30192 13.7413 3.27824C13.7413 3.25232 13.7293 3.24944 13.6718 3.26064C13.6338 3.26832 13.5598 3.27376 13.5082 3.27264C13.4146 3.27072 13.4134 3.27152 13.3162 3.38992C13.2624 3.45552 13.1926 3.53232 13.1613 3.5608C13.1192 3.5992 13.1125 3.61328 13.1354 3.6136C13.1523 3.61392 13.1794 3.62736 13.1954 3.644C13.2114 3.66048 13.2243 3.6648 13.2243 3.6536C13.2243 3.6232 13.2902 3.6288 13.3166 3.6616C13.3469 3.69952 13.3978 3.69952 13.3838 3.6616C13.3774 3.64496 13.3835 3.63328 13.3982 3.63328C13.4274 3.63328 13.4451 3.69136 13.4456 3.78832C13.4456 3.8264 13.4584 3.89424 13.4738 3.9392C13.505 4.03072 13.4987 4.05232 13.4525 4.01296C13.4237 3.98848 13.4222 3.99392 13.4328 4.08704C13.4392 4.14416 13.4371 4.18352 13.4278 4.1776C13.4189 4.17184 13.4056 4.17648 13.3987 4.188C13.3786 4.22176 13.4653 4.30384 13.5069 4.29008C13.5322 4.28192 13.5386 4.28496 13.5288 4.30128C13.521 4.3144 13.5259 4.332 13.5397 4.3408C13.5582 4.35264 13.5523 4.36128 13.5163 4.37552C13.4896 4.38592 13.4622 4.40432 13.455 4.41648C13.4475 4.42896 13.4222 4.43328 13.3958 4.4264C13.3547 4.41568 13.3518 4.41888 13.3654 4.4584C13.3862 4.5192 13.3814 4.60032 13.3506 4.7104C13.3288 4.78784 13.3144 4.808 13.2698 4.82176C13.2355 4.83256 13.2018 4.84516 13.1688 4.85952C13.148 4.86942 13.1265 4.87755 13.1043 4.88384C13.0451 4.89408 12.9659 4.94496 12.9488 4.98384C12.9264 5.03456 12.8918 5.0256 12.8918 4.96896C12.8918 4.94848 12.8838 4.93168 12.8738 4.93168C12.837 4.93168 12.8563 4.89008 12.924 4.82576C12.9734 4.77888 13.011 4.75984 13.0541 4.75984C13.1005 4.75984 13.1192 4.74864 13.1354 4.712C13.149 4.68128 13.1714 4.66448 13.1987 4.66448C13.256 4.66448 13.2822 4.60688 13.2822 4.48112C13.2822 4.4016 13.2909 4.36832 13.3187 4.34144C13.3502 4.31104 13.3571 4.27312 13.3653 4.07456C13.372 3.91472 13.3688 3.84304 13.355 3.84304C13.3438 3.84304 13.335 3.87376 13.335 3.91072C13.335 4.00624 13.287 4.1072 13.16 4.27952C13.0885 4.37648 13.0302 4.412 12.9768 4.39072C12.9496 4.38 12.892 4.43264 12.892 4.46864C12.892 4.48016 12.8707 4.50704 12.8446 4.52832L12.7971 4.56672L12.8366 4.6224C12.863 4.6592 12.8744 4.69856 12.8702 4.7408C12.8653 4.79456 12.8539 4.80752 12.795 4.82864L12.7259 4.85328L12.7237 4.78272C12.7224 4.75126 12.7227 4.71976 12.7243 4.68832C12.7259 4.6752 12.7155 4.6696 12.7006 4.67552C12.6632 4.6904 12.6467 4.65312 12.6702 4.60736C12.6874 4.5744 12.6846 4.56896 12.6518 4.56896C12.6309 4.56896 12.5931 4.58304 12.5678 4.60016C12.5107 4.63888 12.4976 4.62736 12.5222 4.56048L12.5413 4.50896L12.4688 4.56272C12.4016 4.61232 12.3987 4.61904 12.4256 4.64976C12.444 4.67104 12.4618 4.67696 12.4747 4.66608C12.499 4.64528 12.5966 4.6616 12.5966 4.6864C12.5966 4.696 12.5818 4.70944 12.564 4.71648C12.5464 4.72336 12.517 4.74368 12.4987 4.76112C12.4669 4.79168 12.4675 4.79696 12.5195 4.888C12.5586 4.9568 12.5691 4.99152 12.5566 5.0144C12.5456 5.03472 12.5464 5.04608 12.5582 5.04608C12.6048 5.04608 12.459 5.28928 12.3712 5.3576C12.3379 5.38368 12.2603 5.41952 12.199 5.43696C12.1018 5.46496 12.0869 5.47536 12.0834 5.51824C12.0763 5.60784 12.0002 5.65616 11.9746 5.58736C11.9672 5.56704 11.9779 5.54304 12.0053 5.52016C12.0288 5.50048 12.0432 5.47952 12.0373 5.47328C12.0165 5.452 11.9413 5.484 11.9173 5.52448C11.8954 5.56096 11.9003 5.57312 11.9678 5.64896C12.0325 5.72144 12.0429 5.74464 12.0429 5.81952C12.0429 5.89584 12.0365 5.90912 11.9918 5.9296C11.964 5.9424 11.9304 5.968 11.9171 5.9864C11.8848 6.03184 11.8397 6.02896 11.8397 5.9816C11.8397 5.96016 11.8275 5.94352 11.8115 5.94352C11.803 5.94292 11.7948 5.93995 11.7879 5.93494C11.781 5.92994 11.7757 5.9231 11.7725 5.9152C11.7667 5.89936 11.7504 5.8864 11.7363 5.8864C11.7221 5.8864 11.7107 5.87344 11.7107 5.8576C11.7107 5.84192 11.7021 5.8288 11.6918 5.8288C11.6707 5.8288 11.667 6.00064 11.6875 6.03008C11.6949 6.04096 11.7234 6.06384 11.7499 6.08128C11.7766 6.09888 11.8027 6.1376 11.8082 6.16704C11.8134 6.19648 11.8237 6.24 11.8309 6.26352C11.8414 6.29824 11.8371 6.3064 11.8078 6.3064C11.7528 6.3064 11.6789 6.22448 11.6566 6.13888C11.6456 6.09696 11.6242 6.05216 11.6091 6.0392C11.5904 6.0232 11.5822 5.98288 11.5837 5.91392C11.5853 5.84464 11.577 5.80272 11.5571 5.7824C11.5393 5.76268 11.5256 5.73962 11.5168 5.71456C11.5043 5.67344 11.4795 5.66496 11.4613 5.69536C11.4549 5.70592 11.4338 5.71456 11.4141 5.71456C11.3861 5.71456 11.3781 5.70112 11.3781 5.65424C11.3781 5.6208 11.359 5.56752 11.3354 5.53488C11.3135 5.50541 11.295 5.47365 11.28 5.44016C11.2704 5.41344 11.2608 5.40992 11.2429 5.42544C11.2296 5.4368 11.1923 5.44816 11.16 5.45072C11.1274 5.45328 11.1016 5.46592 11.1016 5.4792C11.1016 5.49248 11.0763 5.51696 11.0459 5.53328C11.0155 5.5496 10.9906 5.57008 10.9906 5.57888C10.9906 5.58784 10.9499 5.62416 10.9003 5.65952C10.8126 5.72224 10.8106 5.72608 10.8118 5.81824C10.8128 5.88256 10.8238 5.92384 10.8466 5.94736C10.9098 6.0128 10.8838 6.13456 10.8066 6.13456C10.7802 6.13456 10.7677 6.03968 10.7888 5.99888C10.8208 5.9368 10.7939 5.93376 10.7434 5.99392C10.703 6.04192 10.6946 6.04512 10.6718 6.01984C10.6259 5.96864 10.4904 5.61984 10.4875 5.54544C10.485 5.48064 10.4805 5.47408 10.4419 5.48176C10.3981 5.4904 10.3267 5.4408 10.3259 5.40144C10.3256 5.38992 10.3038 5.3592 10.2774 5.33328C10.2346 5.2912 10.2126 5.28592 10.0656 5.28304C9.96688 5.28096 9.89024 5.27024 9.8736 5.25616C9.8512 5.23696 9.84592 5.2384 9.84592 5.26384C9.84592 5.28112 9.87536 5.30912 9.91088 5.32672C9.98624 5.36384 9.9968 5.42512 9.9384 5.48544C9.91808 5.5064 9.9016 5.52976 9.9016 5.53728C9.9016 5.56288 9.7816 5.65696 9.74912 5.65696C9.7312 5.65696 9.7024 5.67408 9.68512 5.6952C9.66752 5.71616 9.6448 5.7336 9.6344 5.7336C9.624 5.7336 9.59408 5.74544 9.56784 5.75952C9.51883 5.78268 9.46832 5.80251 9.41664 5.81888C9.32656 5.84816 9.31552 5.85696 9.3328 5.88544C9.3504 5.91456 9.3632 5.91568 9.4472 5.89552C9.49904 5.88304 9.55984 5.86704 9.58192 5.85984C9.69776 5.82176 9.57184 6.13632 9.4144 6.27904L9.32096 6.36384L9.29056 6.38272L9.24496 6.43552C9.16608 6.52624 9.14496 6.58256 9.1544 6.67872C9.1592 6.72784 9.16928 6.77792 9.1768 6.79008C9.18448 6.8024 9.19216 6.86608 9.19376 6.93168C9.19648 7.03888 9.19168 7.05488 9.14976 7.08928C9.12384 7.11008 9.09376 7.12768 9.08256 7.128C9.0712 7.12832 9.03872 7.15296 9.01056 7.18272C8.97072 7.22464 8.96256 7.24592 8.9744 7.27872C9.00016 7.35072 8.97968 7.4456 8.93344 7.46736C8.90864 7.47904 8.8872 7.51088 8.88064 7.54512C8.86784 7.61152 8.73504 7.80944 8.66944 7.8608C8.62976 7.89168 8.42 7.93504 8.32384 7.93232C8.27824 7.93104 8.23568 7.87392 8.24688 7.82928C8.25568 7.79408 8.1992 7.65536 8.15472 7.60304C8.14032 7.58608 8.11776 7.51328 8.10432 7.4408C8.08032 7.31056 8.03632 7.19824 8.00032 7.1752C7.95984 7.14928 7.99312 6.96384 8.05056 6.89488C8.05885 6.88476 8.06451 6.87274 8.06702 6.85989C8.06954 6.84705 8.06883 6.83378 8.06496 6.82128C8.05699 6.79427 8.05095 6.76674 8.04688 6.73888C8.03728 6.66352 7.99936 6.58672 7.93488 6.51296C7.89984 6.4728 7.87088 6.42704 7.87088 6.41136C7.87088 6.41008 7.86896 6.40928 7.86816 6.40816L7.87216 6.408L7.8856 6.36384L7.89808 6.29424C7.9128 6.21312 7.88832 6.18592 7.8128 6.20016C7.7752 6.2072 7.75648 6.19824 7.73376 6.1624C7.69872 6.10704 7.64624 6.10272 7.5456 6.14672C7.50624 6.164 7.42432 6.18064 7.36336 6.18352C7.30256 6.18672 7.23664 6.18992 7.21712 6.19152C7.17056 6.19456 6.9856 6.06192 6.96656 6.01168C6.9584 5.99008 6.92176 5.94256 6.88528 5.9064C6.8488 5.87024 6.81904 5.8256 6.81904 5.8072C6.81904 5.78896 6.80992 5.76832 6.79904 5.76144C6.78592 5.75296 6.78832 5.73856 6.80624 5.71728C6.84992 5.66576 6.85824 5.6088 6.836 5.51696C6.816 5.43536 6.81824 5.42416 6.8728 5.32544C6.92624 5.22896 6.97808 5.16624 7.07632 5.07952C7.09892 5.05742 7.11249 5.02771 7.1144 4.99616C7.1144 4.96384 7.13648 4.924 7.17632 4.88512C7.28912 4.77504 7.30048 4.70272 7.20512 4.70272C7.1448 4.70272 7.14592 4.70672 7.14336 4.48272C7.1424 4.3896 7.14992 4.34272 7.16784 4.32832C7.18352 4.31552 7.24592 4.31088 7.32944 4.31648L7.46496 4.32544V4.25552C7.46496 4.17136 7.41872 4.09136 7.37008 4.09136C7.32576 4.09136 7.3032 4.03632 7.33776 4.01296C7.352 4.00336 7.38336 4.00016 7.40752 4.00608C7.44528 4.01536 7.44976 4.0112 7.44096 3.97616C7.43232 3.94176 7.43712 3.93664 7.47088 3.94512C7.50928 3.95472 7.59216 3.9112 7.57312 3.89136C7.56384 3.88176 7.39792 3.90784 7.31872 3.93136C7.2752 3.94432 7.27488 3.94352 7.30432 3.89984C7.3272 3.86624 7.3296 3.84896 7.31392 3.82944C7.29824 3.80992 7.30176 3.79744 7.32832 3.77648C7.35552 3.75504 7.35712 3.7488 7.33568 3.74768C7.31616 3.74672 7.32128 3.73504 7.3528 3.708C7.39248 3.67376 7.3944 3.6664 7.36976 3.6408C7.34496 3.6152 7.33936 3.61552 7.31632 3.64416C7.30192 3.66192 7.28912 3.68592 7.28816 3.6976C7.28688 3.70928 7.28496 3.73632 7.28336 3.75728C7.28144 3.78432 7.25856 3.80256 7.20688 3.8192C7.10976 3.85056 7.10192 3.8496 7.09056 3.8048C7.08528 3.78384 7.08944 3.76672 7.09968 3.76672C7.11024 3.76672 7.1136 3.74656 7.1072 3.72032C7.09184 3.65696 7.112 3.6088 7.14848 3.6232C7.16448 3.6296 7.17168 3.62864 7.16448 3.62112C7.14256 3.5984 7.20608 3.54112 7.24224 3.55072C7.26464 3.5568 7.27856 3.54672 7.28544 3.51984C7.29088 3.49792 7.28832 3.48016 7.27936 3.48016C7.26128 3.48016 7.27648 3.37456 7.30224 3.32272C7.31152 3.30384 7.33952 3.28912 7.36624 3.28912C7.40464 3.28912 7.41216 3.29648 7.40432 3.32736C7.39728 3.35568 7.40352 3.36576 7.42976 3.36576C7.46944 3.36576 7.47408 3.3888 7.44528 3.44448C7.43088 3.4728 7.43168 3.49056 7.44912 3.51232C7.47728 3.54752 7.51184 3.6072 7.53776 3.66672C7.54832 3.69072 7.56944 3.7152 7.58496 3.72144C7.6064 3.72992 7.61072 3.74912 7.60192 3.79824C7.5904 3.86144 7.59152 3.86256 7.63376 3.8424C7.65776 3.83088 7.68976 3.79424 7.70496 3.7608C7.7256 3.71568 7.75056 3.69552 7.80192 3.6824C7.86144 3.66704 7.87088 3.6568 7.87088 3.6104C7.87088 3.5808 7.86288 3.55648 7.8528 3.55648C7.81216 3.55648 7.8344 3.44448 7.88288 3.40512C7.9096 3.38336 7.9376 3.36576 7.94528 3.36576C7.97248 3.36576 7.97808 3.48928 7.95216 3.51984C7.90128 3.57968 7.93328 3.62432 8.02192 3.61744C8.04944 3.6152 8.0768 3.62208 8.0832 3.63264C8.09056 3.64512 8.11216 3.64288 8.14432 3.62624C8.2224 3.58544 8.29568 3.57152 8.29568 3.59744C8.29568 3.64928 8.36672 3.54896 8.376 3.48384C8.3952 3.34912 8.41088 3.28928 8.4272 3.28928C8.43616 3.28928 8.46 3.27216 8.48032 3.25104C8.504 3.22656 8.54224 3.2128 8.58656 3.21264C8.62464 3.21264 8.66784 3.20432 8.68288 3.19456C8.7376 3.15872 8.64416 3.14816 8.55936 3.1808C8.48448 3.2096 8.47424 3.2096 8.43312 3.18176C8.40848 3.16496 8.38768 3.14592 8.3872 3.1392L8.37808 3.0336C8.37088 2.9496 8.37648 2.93248 8.43008 2.86928C8.55328 2.72352 8.55776 2.71552 8.5344 2.6864C8.52086 2.67065 8.50166 2.66088 8.48096 2.6592C8.44624 2.6592 8.39904 2.74608 8.41712 2.77648C8.42352 2.78688 8.39024 2.83168 8.34352 2.87616C8.23712 2.97696 8.21008 3.05856 8.26032 3.12448C8.30944 3.18912 8.3032 3.28928 8.24992 3.28928C8.23616 3.28928 8.2176 3.33632 8.20464 3.40384C8.18704 3.49712 8.17616 3.51824 8.14688 3.51824C8.12704 3.51824 8.1112 3.5272 8.1112 3.5376C8.1112 3.54816 8.09472 3.55648 8.0744 3.55648C8.05408 3.55648 8.03712 3.56528 8.03712 3.57568C8.03712 3.60736 7.9816 3.59744 7.96912 3.56352C7.96208 3.5448 7.97024 3.52256 7.98912 3.50832C8.01872 3.48592 8.0184 3.47792 7.98528 3.37648L7.95008 3.26832L7.89408 3.31696C7.7984 3.40016 7.7512 3.37504 7.73184 3.23072C7.72147 3.15643 7.71804 3.08133 7.7216 3.0064C7.72256 2.9928 7.732 2.98672 7.74224 2.99328C7.75232 2.99968 7.76064 2.99392 7.76096 2.98016C7.76128 2.9664 7.79504 2.92944 7.83616 2.89792C7.9 2.84928 8.0272 2.68032 8.02848 2.6424C8.02944 2.61472 8.11888 2.4488 8.1328 2.4488C8.14112 2.4488 8.14816 2.43792 8.14816 2.42416C8.14816 2.4104 8.16256 2.3824 8.18032 2.36208C8.20209 2.3356 8.22102 2.30691 8.2368 2.27648C8.25024 2.2496 8.28976 2.21136 8.3248 2.192C8.35952 2.17264 8.38816 2.14928 8.38816 2.14016C8.38816 2.13104 8.40736 2.12896 8.43088 2.1352C8.47088 2.1456 8.5344 2.09936 8.5216 2.06928C8.51888 2.06288 8.53552 2.05536 8.5584 2.05296C8.69504 2.03792 8.72096 2.04208 8.76592 2.08576C8.81072 2.12912 8.8112 2.13248 8.78032 2.16832C8.7488 2.20464 8.7496 2.20544 8.80944 2.192C8.86192 2.18032 8.87184 2.18368 8.88064 2.21792C8.8872 2.24432 8.9056 2.25824 8.93408 2.25824C8.95792 2.25824 9.0048 2.28208 9.03808 2.31136C9.07152 2.3408 9.12224 2.38016 9.15056 2.39856C9.24272 2.45856 9.25184 2.55968 9.16992 2.6152C9.13216 2.6408 9.11376 2.64144 9.0384 2.62048C8.9904 2.60704 8.93872 2.58688 8.92336 2.57552C8.904 2.56112 8.90496 2.56624 8.92688 2.59296C8.944 2.61392 8.9576 2.65888 8.95664 2.69296C8.95472 2.76032 9.00352 2.83136 9.05104 2.83056C9.07616 2.82992 9.07536 2.82672 9.04784 2.81008C9.03008 2.79952 9.01568 2.77008 9.01568 2.74416C9.01568 2.69072 9.02848 2.6872 9.07904 2.72672C9.1304 2.76688 9.16176 2.76192 9.15008 2.71584C9.136 2.66016 9.232 2.56224 9.2872 2.57616C9.32656 2.58608 9.32752 2.58272 9.3168 2.48448C9.31072 2.42848 9.29776 2.37168 9.28784 2.35856C9.27456 2.34128 9.27904 2.33456 9.304 2.33488C9.4128 2.33568 9.47648 2.40832 9.41152 2.45728C9.39392 2.47072 9.38528 2.49152 9.39248 2.50368C9.4128 2.5376 9.45488 2.52928 9.4672 2.48928C9.47792 2.4544 9.60688 2.3536 9.64064 2.3536C9.64976 2.3536 9.66768 2.34064 9.68032 2.3248C9.69452 2.30834 9.71465 2.29816 9.73632 2.29648C9.76112 2.29648 9.76624 2.30688 9.75872 2.3392C9.75056 2.3744 9.7536 2.37808 9.77376 2.35856C9.79248 2.3435 9.81566 2.33506 9.83968 2.33456C9.8624 2.33456 9.88672 2.32528 9.89344 2.31376C9.90016 2.30256 9.92448 2.29792 9.9472 2.30384C9.96992 2.30976 9.9936 2.30944 9.99968 2.30304C10.0173 2.2848 9.97728 2.21984 9.94848 2.21984C9.91856 2.21984 9.89328 2.15376 9.91168 2.1232C9.91968 2.1096 9.93728 2.1152 9.96336 2.13952C9.98528 2.15984 10.0448 2.19088 10.0954 2.20832C10.1459 2.2256 10.2194 2.2664 10.2587 2.2992C10.3278 2.35664 10.3299 2.35712 10.3171 2.31328C10.3094 2.28734 10.2953 2.26378 10.276 2.2448C10.2573 2.2296 10.2518 2.20592 10.2597 2.1736C10.2661 2.14688 10.2616 2.10832 10.2494 2.088C10.2306 2.05696 10.2347 2.03936 10.2766 1.97696C10.3038 1.93632 10.3262 1.88432 10.3262 1.86208C10.3262 1.83968 10.3374 1.81024 10.3506 1.79648C10.3659 1.77907 10.378 1.75915 10.3866 1.7376C10.3933 1.7192 10.4109 1.70416 10.4253 1.70416C10.4654 1.70416 10.4765 1.75808 10.441 1.77952C10.4144 1.79552 10.4178 1.79904 10.4603 1.79952C10.5045 1.8 10.5109 1.80736 10.5109 1.85824C10.5109 1.8904 10.5027 1.93296 10.4925 1.95264C10.4797 1.97776 10.4803 1.99248 10.4954 2.00208C10.5077 2.01008 10.5118 2.0072 10.505 1.99568C10.4986 1.98496 10.5114 1.952 10.5341 1.9224C10.5566 1.89264 10.573 1.8536 10.5701 1.83584C10.5672 1.81792 10.5726 1.79792 10.5829 1.79136C10.6034 1.77824 10.6344 1.83232 10.6315 1.87648C10.629 1.91744 10.6622 1.93536 10.6853 1.90544C10.7243 1.85488 10.7797 1.8544 10.8318 1.90448C10.8594 1.93088 10.891 1.95264 10.9022 1.95264C10.9134 1.95264 10.9011 1.93232 10.875 1.90736C10.844 1.8776 10.823 1.832 10.815 1.77616C10.8006 1.6776 10.8026 1.6768 10.9603 1.65648C11.0597 1.64368 11.0869 1.62544 11.0462 1.59952C11.017 1.5808 11.0242 1.49424 11.055 1.49424C11.0715 1.49424 11.0781 1.48304 11.0715 1.46544C11.0643 1.44592 11.0726 1.43696 11.0978 1.43696C11.1181 1.43696 11.1389 1.42512 11.1443 1.4104C11.1498 1.39584 11.1862 1.3728 11.225 1.35952C11.2638 1.34624 11.3037 1.3248 11.3138 1.312C11.3418 1.27648 11.4338 1.26048 11.4632 1.28576C11.4714 1.29199 11.4811 1.29595 11.4913 1.29721C11.5015 1.29848 11.5118 1.29701 11.5213 1.29296C11.5392 1.28496 11.5746 1.28048 11.6 1.28304C11.6373 1.28656 11.6418 1.28288 11.6232 1.26304C11.588 1.2256 11.5954 1.208 11.6456 1.208C11.6781 1.208 11.688 1.19968 11.6806 1.17952C11.6677 1.14448 11.7382 1.02336 11.7875 0.99616C11.7937 0.992787 11.8005 0.990564 11.8075 0.9896ZM2.74432 1.00768C2.752 1.00992 2.76 1.01984 2.77248 1.03824C2.7904 1.06464 2.79424 1.08384 2.78256 1.08784C2.77184 1.09168 2.76736 1.11488 2.77184 1.13952C2.77648 1.16416 2.77088 1.19024 2.75968 1.19728C2.74848 1.20448 2.73968 1.22448 2.74 1.2424C2.74048 1.272 2.74208 1.272 2.75936 1.24144C2.77936 1.20592 2.85024 1.19472 2.85024 1.22704C2.85024 1.23744 2.86304 1.24624 2.87872 1.24624C2.8944 1.24624 2.92144 1.27184 2.93872 1.3032C2.95728 1.33712 2.98544 1.36016 3.0072 1.36016C3.03536 1.36016 3.03824 1.356 3.01872 1.3432C3.0048 1.33408 2.9984 1.3176 3.00496 1.30672C3.01152 1.29568 3.0088 1.28144 2.99856 1.27472C2.96912 1.25616 2.976 1.21904 3.01744 1.17296C3.0568 1.12944 3.10032 1.13424 3.08304 1.18048C3.07776 1.19488 3.08176 1.212 3.09216 1.21856C3.10256 1.22528 3.10656 1.24304 3.10128 1.2576C3.0944 1.276 3.1056 1.28416 3.13648 1.28416C3.19008 1.28416 3.2216 1.33664 3.20688 1.40048C3.1968 1.44464 3.1976 1.44528 3.224 1.40976C3.2512 1.3736 3.252 1.37376 3.27312 1.41456C3.28496 1.43744 3.29008 1.45696 3.28464 1.45824C3.26463 1.46191 3.24452 1.46495 3.22432 1.46736C3.08608 1.4848 3.02128 1.50256 2.97664 1.5352C2.91456 1.58032 2.85936 1.58064 2.82848 1.53616C2.8152 1.51696 2.77712 1.48496 2.744 1.46512C2.69856 1.4376 2.68672 1.41968 2.69472 1.39008C2.70176 1.36384 2.69952 1.3592 2.68832 1.37568C2.67216 1.4 2.61024 1.38848 2.61024 1.36128C2.61024 1.33856 2.67568 1.28416 2.70304 1.28416C2.72256 1.28416 2.72336 1.27904 2.70688 1.26208C2.6904 1.24496 2.676 1.25184 2.6456 1.29168C2.61856 1.3272 2.59648 1.33952 2.576 1.3304C2.5566 1.32267 2.53592 1.31866 2.51504 1.31856C2.4648 1.32064 2.46096 1.26896 2.50752 1.21696C2.53152 1.1904 2.5704 1.13856 2.5944 1.10176C2.62 1.06256 2.64976 1.03776 2.6664 1.04208C2.68176 1.04608 2.70528 1.03696 2.71872 1.02208C2.72928 1.0104 2.73664 1.00544 2.74432 1.00768ZM4.81712 1.01696C4.80128 1.01696 4.7888 1.0256 4.7888 1.03616C4.7888 1.04656 4.79632 1.0552 4.80592 1.0552C4.81552 1.0552 4.82832 1.04656 4.83472 1.036C4.84096 1.0256 4.83312 1.01696 4.81712 1.01696ZM10.3006 1.13264C10.3275 1.12992 10.3474 1.14464 10.3554 1.17744C10.3726 1.24896 10.3373 1.29296 10.2181 1.34832C10.1536 1.37824 10.084 1.42896 10.0501 1.47072C10.0181 1.50992 9.97552 1.56256 9.95536 1.58752C9.9352 1.61264 9.89328 1.68928 9.86224 1.75792C9.79824 1.89936 9.79936 1.98528 9.8656 2.05824C9.88704 2.08192 9.89744 2.10592 9.88848 2.11168C9.86736 2.12528 9.76144 2.12208 9.73968 2.10736C9.7304 2.10096 9.71744 2.07216 9.71056 2.04336C9.70224 2.008 9.68608 1.99072 9.6616 1.99072C9.63456 1.99072 9.6248 1.97792 9.6248 1.94208C9.6248 1.9144 9.63296 1.89808 9.64336 1.9048C9.66144 1.91648 9.66928 1.89104 9.66288 1.84144C9.66096 1.82736 9.6744 1.7928 9.69248 1.7648C9.71056 1.7368 9.72336 1.70384 9.72096 1.69168C9.71856 1.67952 9.73392 1.63888 9.75568 1.6008C9.77776 1.56192 9.79088 1.51488 9.78528 1.49296C9.77888 1.46736 9.78592 1.44976 9.80624 1.44208C9.8232 1.43568 9.87552 1.38992 9.92224 1.34016C9.99424 1.26336 10.0173 1.25008 10.0742 1.25168C10.1266 1.25328 10.1555 1.23968 10.2029 1.19248C10.2397 1.1552 10.2738 1.13536 10.3006 1.13264ZM2.83008 1.13664C2.8496 1.13632 2.86848 1.15088 2.86848 1.17072C2.86848 1.19312 2.8488 1.1936 2.81568 1.172C2.79824 1.16064 2.79712 1.15152 2.81136 1.1424C2.81694 1.13876 2.82342 1.13677 2.83008 1.13664ZM3.47648 1.1704C3.48224 1.17072 3.49088 1.17632 3.5032 1.18704C3.52784 1.20784 3.53408 1.24192 3.53136 1.34448L3.528 1.4752H3.4544C3.38464 1.4752 3.3816 1.4728 3.3888 1.42144C3.39584 1.37296 3.392 1.36832 3.35136 1.37648C3.31024 1.38448 3.30736 1.3808 3.31888 1.33328C3.3272 1.29888 3.3248 1.28512 3.312 1.29328C3.276 1.31632 3.22848 1.28528 3.22576 1.23664C3.22272 1.18176 3.25744 1.17376 3.30096 1.21904C3.31696 1.23552 3.33008 1.24176 3.33008 1.23296C3.33008 1.19984 3.40592 1.16672 3.43136 1.18864C3.44944 1.20416 3.45792 1.20304 3.46384 1.1848C3.46704 1.1752 3.47072 1.1704 3.47648 1.1704ZM6.71648 1.17728C6.71008 1.17296 6.70096 1.18048 6.68176 1.1952C6.65072 1.21856 6.6504 1.22192 6.67952 1.252C6.72544 1.29952 6.74736 1.29136 6.7336 1.23168C6.72576 1.19808 6.72256 1.18176 6.71648 1.17728ZM13.2237 1.27616C13.2321 1.27393 13.2409 1.27393 13.2493 1.27616C13.2592 1.27872 13.2694 1.28416 13.2795 1.2936C13.3098 1.32192 13.3149 1.32224 13.3291 1.29584C13.3429 1.2704 13.3571 1.27408 13.428 1.32272C13.4734 1.35376 13.5314 1.38032 13.5566 1.38112C13.6067 1.38272 13.6882 1.41312 13.6579 1.41888C13.6478 1.4208 13.6643 1.42784 13.6947 1.43456C13.756 1.448 13.7674 1.48848 13.7189 1.52016C13.6795 1.54576 13.5566 1.4904 13.5566 1.44704C13.5566 1.40544 13.5286 1.4112 13.4726 1.4648C13.4458 1.49056 13.4018 1.51152 13.3749 1.51136C13.3478 1.51136 13.2997 1.51696 13.2677 1.52384C13.2181 1.53456 13.2043 1.52864 13.1776 1.48672C13.127 1.40688 13.1662 1.29152 13.2237 1.27616ZM13.1134 1.32256C13.1235 1.32256 13.1318 1.34816 13.1318 1.37952C13.1318 1.41104 13.1235 1.43712 13.1134 1.43712C13.1034 1.43712 13.095 1.41104 13.095 1.37952C13.095 1.348 13.1034 1.32256 13.1134 1.32256ZM3.6128 1.36096C3.6824 1.36096 3.73184 1.51568 3.66992 1.54032C3.63152 1.55568 3.63776 1.5584 3.5888 1.50432C3.55168 1.46352 3.54848 1.44992 3.56656 1.4088C3.57824 1.3824 3.59888 1.3608 3.6128 1.3608M2.54624 1.53728C2.56308 1.54016 2.57859 1.54828 2.59056 1.56048C2.60976 1.57824 2.6424 1.59024 2.66336 1.58672C2.6896 1.5824 2.72528 1.60672 2.776 1.66384C2.81664 1.70992 2.84992 1.75536 2.84992 1.76512C2.84992 1.77504 2.85792 1.77792 2.86784 1.77168C2.8776 1.76528 2.90688 1.7744 2.93248 1.79168C2.97616 1.82128 2.97904 1.82144 2.97904 1.7904C2.97904 1.75952 2.98224 1.75936 3.02544 1.78864C3.07024 1.81904 3.0712 1.81872 3.0712 1.77168C3.0712 1.7432 3.08192 1.72368 3.09712 1.72368C3.11136 1.72368 3.12752 1.71056 3.13344 1.69488C3.14448 1.66528 3.22864 1.65488 3.24432 1.68112C3.24912 1.68912 3.24384 1.73168 3.23248 1.7752C3.21744 1.83376 3.21776 1.87328 3.23344 1.9272C3.24512 1.96752 3.25984 2.01968 3.26592 2.0432C3.272 2.06688 3.28672 2.08672 3.29872 2.08704C3.33312 2.088 3.40368 2.15616 3.40368 2.18864C3.40368 2.20464 3.38928 2.2264 3.37168 2.23664C3.35376 2.24688 3.34528 2.26144 3.3528 2.26928C3.37616 2.29328 3.32768 2.33456 3.276 2.33456C3.2568 2.32912 3.20128 2.31216 3.19568 2.31216C3.1952 2.31216 3.03872 2.35744 3.01056 2.36416C2.99052 2.36091 2.97021 2.35968 2.94992 2.36048C2.91584 2.34944 2.86992 2.37808 2.84992 2.3208C2.84992 2.30896 2.82144 2.28976 2.78688 2.27792C2.73008 2.25872 2.70208 2.22672 2.70208 2.18176C2.70208 2.17296 2.72512 2.15728 2.75312 2.14672L2.80368 2.12752L2.74608 2.12592C2.68704 2.12432 2.66528 2.09792 2.66528 2.02736C2.66528 2.0072 2.65728 1.99072 2.6472 1.99072C2.62112 1.99072 2.624 1.92688 2.65152 1.89664C2.67072 1.87584 2.66752 1.87536 2.63312 1.89344C2.61024 1.90576 2.59152 1.93296 2.59152 1.95392C2.59152 1.97472 2.57712 1.99744 2.55936 2.00384C2.5416 2.0104 2.51296 2.02816 2.496 2.0432C2.46832 2.06784 2.46192 2.06448 2.43648 2.01392C2.42096 1.98272 2.39456 1.95184 2.37776 1.94512C2.35632 1.93664 2.35088 1.92064 2.35936 1.8904C2.36608 1.86704 2.37488 1.82432 2.37904 1.79584C2.3832 1.7672 2.39504 1.72736 2.40528 1.70736C2.41712 1.68464 2.41808 1.64912 2.40784 1.61232C2.39168 1.55392 2.39216 1.55344 2.47376 1.5408C2.50576 1.53568 2.52832 1.5344 2.54624 1.53728ZM13.3178 1.57792C13.3366 1.58464 13.3528 1.61312 13.3416 1.632C13.3365 1.64048 13.348 1.64736 13.3669 1.64736C13.4104 1.64736 13.4456 1.68288 13.4456 1.72736C13.4456 1.75392 13.4318 1.76096 13.3856 1.75936C13.3546 1.75833 13.3238 1.75458 13.2934 1.74816C13.2582 1.73872 13.2486 1.70416 13.281 1.70416C13.2933 1.70416 13.2965 1.68336 13.289 1.64896C13.2818 1.61472 13.2854 1.58816 13.2987 1.57952C13.3016 1.57779 13.3048 1.57674 13.3081 1.57646C13.3115 1.57618 13.3147 1.57668 13.3178 1.57792ZM3.67008 1.59952C3.69408 1.59696 3.72352 1.60128 3.7592 1.61232C3.83232 1.63504 3.83872 1.64592 3.812 1.69984C3.80304 1.71808 3.7864 1.75664 3.77552 1.78544C3.76432 1.81424 3.74384 1.83792 3.7296 1.83792C3.69504 1.83792 3.67504 1.92464 3.69888 1.97072C3.70928 1.99088 3.71808 2.02192 3.71808 2.0392C3.71808 2.05664 3.73456 2.0928 3.75488 2.11952C3.78304 2.15664 3.78688 2.17408 3.77104 2.19392C3.75504 2.21392 3.75696 2.21984 3.78016 2.21984C3.7984 2.21984 3.81008 2.23584 3.81008 2.26048C3.81008 2.29488 3.81424 2.29728 3.83856 2.27648C3.88016 2.2408 3.92448 2.2928 3.92448 2.37696C3.92448 2.41344 3.93184 2.45536 3.9408 2.47008C3.95008 2.48528 3.95712 2.48768 3.95728 2.47552C3.95744 2.46368 3.97168 2.42048 3.98864 2.37984C4.03552 2.26752 4.00928 2.16272 3.93424 2.16272C3.87184 2.16272 3.80464 2.01648 3.81744 1.9096C3.83712 1.74464 3.89232 1.66608 3.98832 1.66608C4.03472 1.66608 4.0464 1.6728 4.03824 1.69456C4.02896 1.71984 4.0336 1.71984 4.08016 1.69488C4.1624 1.65072 4.3248 1.67536 4.37776 1.73984C4.40048 1.76768 4.41952 1.79904 4.41984 1.8096C4.42096 1.84544 4.52064 1.96544 4.54304 1.9576C4.5552 1.95344 4.58 1.96896 4.59824 1.992C4.61648 2.01504 4.64272 2.0432 4.65648 2.0552C4.74032 2.12784 4.78752 2.19328 4.77808 2.22416C4.77168 2.24496 4.77728 2.25824 4.792 2.25856C4.80832 2.25904 4.8056 2.26784 4.784 2.2848C4.74128 2.3184 4.74304 2.34832 4.78864 2.3632C4.80896 2.36992 4.82544 2.38288 4.82544 2.39232C4.82544 2.40192 4.83984 2.40432 4.8576 2.3976C4.87552 2.3912 4.884 2.3928 4.87648 2.40144C4.8688 2.41008 4.89568 2.44864 4.93616 2.48736C5.0192 2.56672 5.02448 2.5912 4.97296 2.6592C4.95312 2.68544 4.93664 2.7176 4.93648 2.73072C4.93616 2.74384 4.92736 2.75472 4.91664 2.75472C4.89216 2.75472 4.8072 2.66032 4.8064 2.63232C4.80608 2.6208 4.79744 2.62592 4.78768 2.6432C4.76592 2.68192 4.78288 2.73552 4.81696 2.73552C4.87696 2.73552 4.92256 2.95952 4.8664 2.97888C4.85392 2.9832 4.84352 2.97744 4.84352 2.96608C4.84352 2.95472 4.83664 2.94544 4.828 2.94544C4.8192 2.94544 4.81632 2.968 4.82144 2.99552C4.83104 3.04832 4.83632 3.04752 4.7192 3.01264C4.69632 3.00592 4.6776 2.99312 4.6776 2.98448C4.6776 2.97584 4.65712 2.96368 4.632 2.95696C4.60364 2.94789 4.5796 2.92869 4.56448 2.90304C4.51712 2.81136 4.4656 2.784 4.39888 2.81552C4.3488 2.83904 4.30096 2.788 4.31568 2.72672C4.32688 2.68112 4.33584 2.6752 4.37952 2.68416C4.43792 2.69632 4.48544 2.67344 4.46672 2.64208C4.45968 2.63024 4.47104 2.59808 4.492 2.5704C4.51296 2.54288 4.52976 2.5016 4.52976 2.47856C4.52976 2.42144 4.43488 2.32944 4.39296 2.34608C4.36688 2.35648 4.36144 2.34992 4.36608 2.31296C4.37248 2.26272 4.31888 2.16736 4.30112 2.19728C4.29504 2.20752 4.26048 2.21616 4.22432 2.21616C4.14496 2.21616 4.1224 2.23408 4.16304 2.2648C4.18544 2.28176 4.19232 2.3168 4.19072 2.4056C4.188 2.54848 4.1304 2.63856 4.0504 2.62544C4.00752 2.6184 4.0096 2.6232 4.07728 2.68624C4.11792 2.72368 4.15728 2.75488 4.16528 2.75488C4.17296 2.75488 4.1792 2.76528 4.1792 2.77856C4.1792 2.79184 4.196 2.81376 4.21664 2.82704C4.23744 2.84032 4.24928 2.85968 4.2432 2.86976C4.22832 2.89488 4.1472 2.89328 4.132 2.86768C4.124 2.8544 4.10544 2.86128 4.0792 2.88672C4.04368 2.92128 4.03248 2.92352 3.98928 2.90272C3.94064 2.87936 3.92688 2.8504 3.952 2.82432C3.95904 2.81696 3.9672 2.79168 3.97008 2.76832L3.97552 2.72576L3.95168 2.76992C3.93856 2.79392 3.90128 2.83008 3.86896 2.8504C3.83648 2.87088 3.81008 2.89872 3.81008 2.912C3.81008 2.92528 3.784 2.96176 3.752 2.99296C3.64928 3.09328 3.6072 3.26384 3.68048 3.28352C3.70336 3.28992 3.7208 3.31552 3.72768 3.35328C3.73664 3.40288 3.74768 3.4136 3.79072 3.4152C3.81952 3.41616 3.87056 3.43776 3.90448 3.46304C4 3.53376 4.04976 3.55648 4.10768 3.55648C4.1584 3.55648 4.1608 3.56064 4.1608 3.64128C4.1608 3.70464 4.17232 3.73984 4.2064 3.77984C4.26592 3.84944 4.29056 3.81664 4.2688 3.69648C4.2544 3.61536 4.25696 3.6064 4.30864 3.55648C4.33904 3.52704 4.36368 3.49568 4.36352 3.48672C4.36336 3.43536 4.32224 3.32976 4.29888 3.32032C4.2632 3.30624 4.26336 3.25104 4.2992 3.25104C4.32192 3.25104 4.32608 3.22384 4.3224 3.10304C4.3184 2.9792 4.3224 2.95648 4.34544 2.96304C4.36064 2.9672 4.40672 2.9712 4.44784 2.97232C4.50544 2.97376 4.53472 2.98672 4.57168 3.028C4.5984 3.05776 4.63408 3.08432 4.65136 3.08704C4.67392 3.0904 4.68352 3.11328 4.68672 3.16896C4.68944 3.216 4.7056 3.26112 4.72832 3.28448C4.7632 3.32064 4.76704 3.32064 4.79264 3.28976C4.81089 3.2647 4.82424 3.23642 4.832 3.2064C4.844 3.1568 4.8992 3.13344 4.8992 3.17792C4.8992 3.19024 4.91104 3.21392 4.92544 3.2304C4.93984 3.24704 4.96912 3.31536 4.99072 3.3824C5.03376 3.51472 5.05472 3.54432 5.11824 3.56512C5.14128 3.57264 5.16896 3.59984 5.18016 3.62512C5.19136 3.65056 5.21088 3.67152 5.22336 3.67152C5.25216 3.67152 5.268 3.7784 5.24304 3.80432C5.23024 3.8176 5.23152 3.82384 5.24704 3.82384C5.26416 3.82384 5.2648 3.83328 5.24976 3.86224C5.22688 3.90672 5.2616 3.95728 5.3152 3.95728C5.33504 3.95728 5.3424 3.968 5.33552 3.9864C5.3296 4.00208 5.33216 4.01488 5.3408 4.01488C5.3664 4.01488 5.37872 4.09456 5.35888 4.13264C5.34432 4.16096 5.33344 4.16416 5.30416 4.148C5.28416 4.1368 5.26 4.13264 5.25072 4.13856C5.2416 4.14448 5.2288 4.14048 5.2224 4.12992C5.216 4.1192 5.18192 4.11008 5.14672 4.11008C5.0904 4.11008 5.08336 4.10528 5.08912 4.06768C5.0928 4.044 5.11136 3.99216 5.13008 3.95296C5.16832 3.87344 5.15664 3.83984 5.10704 3.88608C5.08242 3.90629 5.05387 3.92117 5.0232 3.92976C4.98224 3.94048 4.97632 3.948 4.99328 3.96928C5.0104 3.99056 5.00608 3.99568 4.97088 3.9952C4.94214 3.9933 4.91449 3.98344 4.89104 3.96672C4.85024 3.93472 4.78864 3.92896 4.78864 3.95728C4.78864 3.96784 4.81424 3.97664 4.84624 3.97664C4.90064 3.97664 4.90336 3.97984 4.89264 4.03552C4.88016 4.10016 4.90208 4.13472 4.96704 4.15232C4.99232 4.1592 5.0112 4.1536 5.01728 4.13696C5.03168 4.09856 5.06096 4.10432 5.07456 4.14864C5.08864 4.19472 5.05984 4.22704 4.97296 4.26224C4.93744 4.27664 4.89552 4.29984 4.87952 4.31392C4.83392 4.35392 4.80704 4.34432 4.80544 4.28704C4.80464 4.25824 4.8 4.2448 4.7952 4.25728C4.79024 4.26992 4.75792 4.2896 4.72352 4.30144C4.6608 4.32288 4.61568 4.39776 4.65696 4.412C4.68528 4.42176 4.68336 4.45408 4.65456 4.45424C4.61184 4.4544 4.48976 4.4952 4.49984 4.50576C4.50544 4.51152 4.48896 4.55824 4.46352 4.61008C4.43744 4.66336 4.4224 4.72016 4.42864 4.74016C4.43664 4.76592 4.42032 4.79008 4.36944 4.8296C4.24816 4.92368 4.1976 4.9752 4.1976 5.00448C4.1976 5.02032 4.21168 5.07872 4.22864 5.13408C4.25392 5.21712 4.25504 5.24048 4.23552 5.2648C4.2224 5.28112 4.2056 5.29424 4.19872 5.29424C4.18016 5.29424 4.10512 5.15152 4.10512 5.11648C4.10512 5.07552 4.08944 5.068 3.9664 5.05296C3.87136 5.04144 3.8608 5.04368 3.87104 5.07168C3.88384 5.10624 3.83632 5.11104 3.72704 5.0864C3.68736 5.07744 3.6552 5.08496 3.61344 5.11264C3.56112 5.14752 3.55424 5.1632 3.54304 5.2752C3.5296 5.40832 3.54608 5.47936 3.60384 5.5392C3.65136 5.58832 3.77872 5.57056 3.78832 5.5136C3.79363 5.48979 3.80628 5.46825 3.82448 5.452C3.85536 5.4272 3.97648 5.4184 3.97648 5.44112C3.97648 5.45568 3.94256 5.56832 3.91888 5.63328C3.90432 5.67328 3.90784 5.67616 3.97488 5.67616C4.09328 5.67616 4.10512 5.68752 4.10512 5.79952C4.10512 5.9304 4.1552 5.9992 4.22544 5.96608C4.24013 5.95853 4.25632 5.95438 4.27283 5.95393C4.28934 5.95349 4.30573 5.95677 4.3208 5.96352C4.3632 5.98032 4.37584 5.9768 4.40864 5.93696C4.44784 5.88944 4.60352 5.83616 4.60352 5.8704C4.60352 5.88064 4.62016 5.88352 4.64016 5.87696C4.66 5.87056 4.69488 5.87552 4.71792 5.88816C4.74096 5.90096 4.80816 5.91056 4.86704 5.91008C4.95776 5.90928 4.98224 5.91696 5.02736 5.95984C5.15552 6.08112 5.20592 6.11552 5.25616 6.11552C5.29963 6.11512 5.34223 6.12766 5.37855 6.15153C5.41488 6.17541 5.44328 6.20954 5.46016 6.2496C5.47776 6.2912 5.4872 6.3336 5.4808 6.34416C5.48048 6.3448 5.49168 6.34496 5.49264 6.34544L5.48928 6.34864L5.60992 6.38304L5.67136 6.42176C5.70512 6.44304 5.77136 6.46544 5.81888 6.472C5.8664 6.47856 5.93008 6.50352 5.96048 6.52704C5.99088 6.55056 6.03264 6.57296 6.05296 6.57664C6.0816 6.58208 6.0912 6.60096 6.09552 6.66112C6.10032 6.72912 6.09024 6.75184 6.01664 6.84416C5.948 6.93056 5.93296 6.96368 5.93296 7.02608C5.93296 7.1168 5.90496 7.20704 5.848 7.30128C5.81488 7.35616 5.7912 7.37296 5.7328 7.38272C5.6336 7.39904 5.54512 7.47712 5.54512 7.54832C5.54512 7.60272 5.48768 7.71312 5.42112 7.7864C5.40192 7.80736 5.36688 7.85312 5.3432 7.88832C5.30688 7.9424 5.2912 7.95104 5.24048 7.9448C5.1808 7.9376 5.17104 7.95184 5.20176 8.00272C5.23936 8.06512 5.1408 8.15856 5.03696 8.15856C5.00256 8.15856 4.98896 8.17248 4.97648 8.2208C4.96304 8.27264 4.95248 8.28224 4.91136 8.2792C4.88432 8.27728 4.8624 8.28336 4.8624 8.29328C4.8624 8.3032 4.87376 8.31104 4.888 8.31104C4.93056 8.31104 4.93824 8.36608 4.89856 8.38784C4.87872 8.39904 4.8624 8.42256 4.8624 8.44016C4.8624 8.45776 4.83936 8.49184 4.81136 8.51584L4.7608 8.55952L4.804 8.59696C4.85216 8.63936 4.84688 8.68624 4.788 8.74144C4.76784 8.76016 4.75168 8.78416 4.75168 8.79456C4.75168 8.8048 4.73728 8.82384 4.71984 8.83696C4.69312 8.85728 4.69184 8.86864 4.71072 8.91168C4.72304 8.93968 4.73296 8.97776 4.73296 8.99648C4.73296 9.03488 4.8064 9.11328 4.84208 9.11328C4.85488 9.11328 4.86192 9.12416 4.8576 9.13728C4.85008 9.16064 4.71952 9.17088 4.62608 9.15552C4.59792 9.15072 4.58512 9.13792 4.58928 9.11664C4.59248 9.09904 4.57936 9.076 4.55984 9.06544C4.53945 9.05419 4.52235 9.03781 4.51024 9.01792C4.48176 8.96016 4.452 8.7736 4.45904 8.69856C4.46416 8.64208 4.45984 8.624 4.44272 8.63072C4.42832 8.63648 4.4192 8.624 4.4192 8.59792C4.4192 8.572 4.43328 8.552 4.456 8.54576C4.47648 8.54032 4.49296 8.52064 4.49296 8.50176C4.49296 8.48272 4.4984 8.45376 4.50448 8.43696C4.512 8.41664 4.50496 8.40672 4.48368 8.40672C4.45936 8.40672 4.45472 8.39648 4.46352 8.36384C4.46992 8.34032 4.48 8.26496 4.48592 8.19664C4.49152 8.12848 4.512 8.03216 4.53136 7.98304C4.55088 7.93376 4.56672 7.85664 4.56672 7.81136C4.56672 7.76608 4.57952 7.66192 4.59488 7.57952C4.61115 7.48578 4.62035 7.39096 4.6224 7.29584C4.6224 7.18048 4.61664 7.15728 4.5808 7.1264C4.55792 7.10672 4.53216 7.09008 4.52352 7.08992C4.47152 7.08768 4.39328 6.99312 4.3264 6.85152C4.28496 6.76384 4.23488 6.67744 4.2152 6.65888C4.17904 6.62512 4.1672 6.55424 4.19296 6.52736C4.20064 6.51936 4.20704 6.48576 4.20704 6.45264V6.39232L4.23456 6.34896C4.23456 6.34096 4.25728 6.30928 4.28512 6.27824C4.31296 6.2472 4.33344 6.20432 4.33072 6.18304C4.31472 6.05344 4.30464 6.01984 4.28016 6.01984C4.26544 6.01984 4.25328 6.0328 4.25328 6.04864C4.25328 6.08064 4.20624 6.08752 4.18864 6.05792C4.18433 6.05218 4.17879 6.04749 4.17242 6.04419C4.16604 6.0409 4.15901 6.03908 4.15184 6.03888C4.1176 6.03888 3.99664 5.95792 3.99488 5.93392C3.99168 5.89152 3.92544 5.83616 3.84704 5.8104C3.80128 5.79552 3.74016 5.76336 3.71104 5.73888C3.67072 5.7048 3.6448 5.69712 3.59984 5.70576C3.55568 5.7144 3.50512 5.70032 3.39488 5.64816C3.2184 5.56496 3.17952 5.53216 3.19296 5.47696C3.20032 5.44688 3.18208 5.41328 3.12352 5.34928C2.99904 5.2128 2.90784 5.09232 2.888 5.03824C2.87792 5.01104 2.86112 4.98864 2.85072 4.98864C2.8208 4.98864 2.82832 5.01712 2.87328 5.07104C2.89616 5.09856 2.93536 5.16208 2.9608 5.21232C2.98608 5.26256 3.01776 5.31088 3.0304 5.3192C3.0432 5.32768 3.05328 5.34672 3.05328 5.36208C3.05328 5.37728 3.0432 5.38944 3.0304 5.38928C2.99632 5.38832 2.90176 5.2968 2.91392 5.27648C2.91968 5.26672 2.89728 5.23952 2.86432 5.21568C2.84114 5.19938 2.81821 5.18273 2.79552 5.16576C2.79072 5.16176 2.79888 5.15088 2.8136 5.14144C2.83632 5.12688 2.83552 5.11904 2.8072 5.08992C2.78928 5.07088 2.75488 5.01712 2.73136 4.96992C2.7072 4.92112 2.66576 4.872 2.63584 4.85664C2.57184 4.82416 2.55648 4.80368 2.48016 4.64992C2.42336 4.53536 2.42096 4.52112 2.41856 4.2904C2.41648 4.0776 2.41232 4.04688 2.38112 4.0232C2.27344 3.94192 2.23872 3.89776 2.26048 3.8704C2.2776 3.84912 2.2752 3.832 2.2496 3.79072C2.23152 3.76192 2.2056 3.73152 2.192 3.72304C2.1784 3.71456 2.16736 3.68624 2.16736 3.66048C2.16521 3.63023 2.15193 3.60184 2.13008 3.5808C2.10992 3.56272 2.09328 3.53712 2.09328 3.52384C2.09328 3.49104 2.03488 3.42256 2.01664 3.43424C2.00864 3.43936 1.99696 3.42144 1.9904 3.39488C1.98304 3.36448 1.96576 3.34672 1.944 3.34672C1.9248 3.34672 1.87104 3.31632 1.82448 3.27952C1.7656 3.23312 1.72048 3.21296 1.67648 3.21296C1.64032 3.21296 1.58096 3.19216 1.5392 3.16496C1.49888 3.1384 1.46576 3.1248 1.46576 3.13456C1.46576 3.14416 1.47616 3.156 1.48896 3.16048C1.50704 3.16688 1.50688 3.17488 1.48768 3.19888C1.47424 3.21568 1.45136 3.22512 1.43728 3.21952C1.42336 3.21392 1.39312 3.2232 1.37008 3.23984C1.30208 3.28928 1.27456 3.2792 1.288 3.21008L1.29952 3.1504L1.26272 3.19888C1.24224 3.2256 1.23024 3.26048 1.23616 3.27616C1.24192 3.29168 1.23776 3.31008 1.22704 3.31696C1.22132 3.32105 1.21661 3.32639 1.21325 3.33257C1.2099 3.33875 1.20799 3.34561 1.20768 3.35264C1.20784 3.36512 1.21664 3.36016 1.22688 3.34176C1.23744 3.32336 1.2576 3.30864 1.27168 3.30864C1.31792 3.30864 1.29248 3.39632 1.23104 3.44992L1.17184 3.50144L1.17664 3.43424C1.1824 3.35904 1.18784 3.35728 1.05488 3.48304C1.01328 3.5224 0.97216 3.55024 0.96384 3.5448C0.95568 3.53952 0.94896 3.54912 0.94896 3.56608C0.94896 3.58304 0.9408 3.592 0.93104 3.58576C0.92144 3.57952 0.88384 3.58736 0.84768 3.60304C0.76928 3.6368 0.7552 3.63856 0.7552 3.6152C0.7552 3.59664 0.8848 3.49952 0.90928 3.49952C0.9344 3.49952 1.03664 3.38592 1.0464 3.34704C1.0544 3.31552 1.0504 3.312 1.02272 3.32736C0.99824 3.3408 0.98688 3.33808 0.9792 3.31776C0.97184 3.29776 0.9528 3.29328 0.9136 3.30144C0.86304 3.31184 0.8592 3.30864 0.8664 3.26672C0.87328 3.2272 0.8672 3.22112 0.82384 3.22176C0.78432 3.22224 0.77344 3.21344 0.77296 3.18048C0.77264 3.15744 0.7528 3.12096 0.72864 3.0992C0.72368 3.09472 0.72352 3.0928 0.72016 3.08928V2.99856C0.75664 2.94896 0.86016 2.86928 0.89296 2.86928C0.91664 2.86928 0.91808 2.81808 0.89488 2.8032C0.88528 2.79728 0.87232 2.8008 0.86576 2.81168C0.85936 2.82256 0.84432 2.82512 0.83232 2.81696C0.817183 2.80792 0.800256 2.8023 0.78272 2.80048C0.763713 2.79907 0.744725 2.79741 0.72576 2.79552C0.72416 2.79536 0.72192 2.79312 0.72016 2.79232V2.58992C0.74432 2.57504 0.77024 2.56352 0.79008 2.56352C0.8064 2.56352 0.81952 2.57664 0.81952 2.59232C0.81952 2.60816 0.83216 2.62112 0.84736 2.62112C0.86272 2.62112 0.8752 2.60384 0.8752 2.58272C0.8752 2.5616 0.8672 2.54448 0.85728 2.54448C0.84768 2.54448 0.80224 2.5072 0.75664 2.46128C0.7384 2.44304 0.73104 2.43152 0.72016 2.41808V2.3024C0.72768 2.3 0.73392 2.29648 0.74448 2.29648C0.78448 2.29648 0.80032 2.28176 0.82608 2.22128C0.8568 2.1496 0.96928 2.0552 1.01488 2.06352C1.02592 2.0656 1.04992 2.05056 1.068 2.02992C1.09712 1.99648 1.1064 1.9952 1.1496 2.0176C1.17616 2.03152 1.22096 2.04848 1.2488 2.05552C1.2768 2.0624 1.29952 2.07632 1.29952 2.08672C1.29952 2.09696 1.32512 2.10544 1.35584 2.10544C1.38656 2.10544 1.44128 2.11824 1.4776 2.13392C1.51408 2.1496 1.57568 2.16272 1.61456 2.16272C1.65328 2.16272 1.6896 2.17024 1.6952 2.17952C1.70064 2.1888 1.73344 2.20192 1.76768 2.20864C1.80192 2.2152 1.8448 2.23776 1.86304 2.25856C1.91056 2.31296 1.9456 2.30608 2.07232 2.21856C2.15168 2.16384 2.19616 2.14464 2.22272 2.15328C2.2472 2.16128 2.25872 2.1576 2.25552 2.14272C2.25264 2.12992 2.2608 2.116 2.2736 2.11104C2.2872 2.10592 2.30944 2.13216 2.32736 2.17504L2.35792 2.24864L2.37712 2.19616C2.39904 2.13472 2.41776 2.12896 2.4304 2.17952C2.43712 2.20576 2.45152 2.21312 2.48352 2.20672C2.50912 2.2016 2.56768 2.21856 2.6224 2.24704C2.6744 2.27408 2.73696 2.29648 2.76144 2.29648C2.78496 2.29648 2.8128 2.30624 2.82576 2.31824L2.86048 2.372C2.86272 2.37696 2.85248 2.39056 2.83584 2.40352C2.80752 2.42592 2.812 2.42912 2.87424 2.4296C2.91296 2.42992 2.96064 2.42128 2.97952 2.41072C3.00272 2.39792 3.01792 2.39792 3.02544 2.41072C3.03184 2.42128 3.04912 2.43008 3.06384 2.43008C3.1048 2.39904 3.15568 2.33232 3.27584 2.39168C3.2944 2.39168 3.31424 2.39952 3.31984 2.40896C3.32544 2.4184 3.35856 2.4256 3.39328 2.42448C3.44384 2.42304 3.45776 2.41376 3.46416 2.37856C3.46944 2.35008 3.464 2.33456 3.44768 2.33456C3.41472 2.33456 3.41536 2.32992 3.46272 2.24704L3.50304 2.17648L3.56352 2.24528C3.60208 2.28848 3.62896 2.30592 3.63712 2.29232C3.644 2.28064 3.62816 2.25168 3.60176 2.22832C3.56336 2.19408 3.55408 2.16912 3.55488 2.1032C3.55552 2.05792 3.56816 2.00128 3.58304 1.97792C3.60288 1.94656 3.60656 1.90816 3.59744 1.83136C3.57888 1.67824 3.59872 1.60704 3.67008 1.59952ZM3.5536 1.64832L3.5432 1.71584C3.53632 1.76048 3.5416 1.79232 3.55856 1.80976C3.59472 1.8472 3.58288 1.94736 3.53664 1.99168C3.48272 2.04368 3.45408 2.0384 3.42544 1.97168C3.412 1.94016 3.39216 1.91456 3.38144 1.91456C3.35424 1.91456 3.3128 1.85456 3.312 1.81424C3.31136 1.77584 3.34928 1.76992 3.38176 1.80352C3.41008 1.83296 3.41024 1.80896 3.38176 1.75552C3.33456 1.66688 3.34912 1.65152 3.48352 1.64928L3.5536 1.64832ZM12.0352 1.69104C12.0368 1.68672 12.031 1.68704 12.0182 1.69168C12.0019 1.69805 11.9848 1.70225 11.9674 1.70416C11.9581 1.70416 11.9507 1.71728 11.9507 1.73296C11.9507 1.77024 11.955 1.76976 12.0077 1.7208C12.0243 1.70528 12.0336 1.69552 12.0352 1.69104ZM14.9608 1.9752C15.0173 1.98384 15.052 2.04288 15.0149 2.06736C14.9739 2.0944 14.8669 2.09072 14.8677 2.0624C14.8688 2.016 14.9195 1.9688 14.9608 1.9752ZM10.5211 2.04416C10.5146 2.05104 10.5109 2.09008 10.5107 2.16352C10.5106 2.30688 10.5373 2.3824 10.5693 2.3296C10.5782 2.31472 10.5725 2.30336 10.5539 2.2992C10.5293 2.29376 10.5261 2.27408 10.5352 2.18448C10.5411 2.12512 10.5384 2.06368 10.5288 2.048C10.5259 2.0432 10.5232 2.04208 10.5211 2.04416ZM10.9232 2.05824C10.9205 2.06112 10.9176 2.07264 10.9136 2.09264C10.9067 2.12736 10.9093 2.14 10.9208 2.12784C10.9306 2.11776 10.9357 2.09344 10.9317 2.07392C10.929 2.0608 10.9261 2.05536 10.9232 2.05824ZM9.5376 2.22784C9.5464 2.22816 9.55568 2.23584 9.57168 2.25072C9.60432 2.28128 9.60448 2.28592 9.57584 2.31856C9.54416 2.35472 9.51088 2.3632 9.48928 2.3408C9.46832 2.3192 9.47584 2.28128 9.50688 2.24896C9.5208 2.23456 9.52896 2.22752 9.5376 2.22784ZM4.412 2.376C4.4368 2.3808 4.44704 2.39936 4.44704 2.44C4.44704 2.488 4.43888 2.49808 4.39616 2.5032C4.3536 2.50816 4.34528 2.50208 4.34544 2.46496C4.34592 2.40256 4.37152 2.36784 4.412 2.376ZM10.5477 2.392C10.5374 2.392 10.5293 2.40864 10.5293 2.42912C10.5293 2.44944 10.521 2.47168 10.5107 2.47808C10.4923 2.48992 10.4845 2.54464 10.5011 2.54464C10.5059 2.54464 10.5226 2.51936 10.5379 2.48848C10.5707 2.4232 10.5738 2.39184 10.5475 2.39184M10.4627 2.55616C10.454 2.55497 10.4452 2.55568 10.4368 2.55824C10.4165 2.56384 10.3997 2.57152 10.3997 2.57552C10.3997 2.57952 10.4166 2.58272 10.4368 2.58272C10.4571 2.58272 10.4736 2.57504 10.4736 2.56544C10.4736 2.56064 10.4693 2.55744 10.4627 2.55616ZM6.59456 2.56608C6.60992 2.56608 6.62416 2.57936 6.6424 2.60608C6.65808 2.62928 6.67136 2.63968 6.67136 2.62848C6.67136 2.61744 6.70608 2.6064 6.74864 2.6048C6.7912 2.6032 6.83104 2.5936 6.83696 2.58352C6.85776 2.5488 6.92048 2.5856 6.95264 2.65168C6.98208 2.71216 6.98256 2.72192 6.95648 2.7632C6.94048 2.78816 6.89904 2.8224 6.86448 2.8392C6.83008 2.85616 6.7968 2.87872 6.79088 2.8888C6.77568 2.9144 6.74464 2.9112 6.68976 2.87888C6.66448 2.864 6.62832 2.85648 6.6096 2.8624C6.57968 2.87152 6.57664 2.86512 6.58768 2.8136C6.59808 2.76448 6.5952 2.75648 6.57104 2.76608C6.53408 2.7808 6.53392 2.7576 6.5704 2.71584C6.59648 2.68592 6.59472 2.68416 6.55168 2.69264C6.49488 2.70384 6.49088 2.66864 6.54112 2.6064C6.56288 2.57936 6.5792 2.56624 6.59456 2.56608ZM2.56864 2.59168C2.56571 2.59098 2.56268 2.59088 2.55971 2.59137C2.55674 2.59187 2.5539 2.59295 2.55136 2.59456C2.53904 2.60256 2.54112 2.61248 2.55728 2.62336C2.57328 2.63392 2.576 2.64512 2.56416 2.65424C2.52848 2.68192 2.49504 2.73552 2.5136 2.73552C2.52384 2.73552 2.5368 2.72368 2.5424 2.70896C2.54784 2.69408 2.57792 2.676 2.60896 2.66896C2.68032 2.65264 2.7008 2.62096 2.63984 2.62096C2.6144 2.62096 2.58864 2.612 2.58224 2.60144C2.58074 2.599 2.57876 2.59689 2.57643 2.59524C2.57409 2.59359 2.57144 2.59228 2.56864 2.59168ZM15.2782 2.85584V2.90864C15.2523 2.88768 15.2526 2.86512 15.2782 2.85584ZM4.31552 2.86944H4.31584C4.32992 2.86944 4.34624 2.88224 4.352 2.89824C4.36272 2.92688 4.32608 2.93856 4.3024 2.91408C4.2816 2.89264 4.28832 2.86944 4.31552 2.86944ZM4.14864 2.92928C4.17776 2.93552 4.17808 2.93936 4.15104 2.97888C4.12304 3.02016 4.06832 3.0384 4.06832 3.0064C4.06832 2.97152 4.1192 2.92288 4.14864 2.92928ZM4.25136 2.98384C4.27744 2.98384 4.28432 2.99376 4.27696 3.02224C4.26608 3.06592 4.24544 3.08416 4.228 3.06608C4.2016 3.03888 4.21728 2.98384 4.25136 2.98384ZM2.87616 3.03696C2.86688 3.03152 2.83872 3.04736 2.8136 3.07232C2.75984 3.1256 2.78992 3.1336 2.85104 3.0824C2.87424 3.06304 2.88544 3.04256 2.87616 3.03696ZM8.78304 3.0792C8.76592 3.0792 8.76544 3.09008 8.78144 3.1248C8.79952 3.1648 8.8496 3.1744 8.8496 3.13824C8.8496 3.1168 8.80704 3.0792 8.78304 3.0792ZM0.72016 3.15984C0.73648 3.16352 0.74576 3.17088 0.74256 3.18768C0.73936 3.20528 0.73136 3.21648 0.72016 3.22176V3.15984ZM8.4624 3.33664C8.45072 3.34416 8.45232 3.36192 8.46672 3.38576C8.49104 3.42608 8.50928 3.40288 8.49136 3.35456C8.48544 3.33856 8.47232 3.33024 8.4624 3.33664ZM8.2864 3.34672C8.31968 3.34672 8.32288 3.38736 8.292 3.4192C8.26048 3.45184 8.2344 3.44736 8.24768 3.41168C8.25376 3.39504 8.25856 3.3736 8.25856 3.36384C8.25856 3.35424 8.2712 3.34672 8.2864 3.34672ZM14.3595 3.55632V3.55664C14.3747 3.55664 14.3874 3.56016 14.3874 3.56464C14.3874 3.56896 14.3925 3.58608 14.3986 3.60272C14.4118 3.63824 14.3854 3.64272 14.3538 3.61008C14.3238 3.57904 14.3261 3.55664 14.3595 3.55664M2.09136 3.63344C2.11904 3.63344 2.1304 3.64544 2.13136 3.676C2.13216 3.69952 2.13648 3.73824 2.1408 3.76192C2.15008 3.8136 2.1448 3.8152 2.10672 3.77152C2.08725 3.74595 2.07311 3.71673 2.06512 3.6856C2.0544 3.6408 2.05824 3.63344 2.09136 3.63344ZM0.72048 3.64224C0.72368 3.64288 0.7272 3.64288 0.72992 3.64464C0.73824 3.65008 0.73296 3.66272 0.72032 3.67536L0.72048 3.64224ZM3.49232 3.70992C3.47584 3.71024 3.4768 3.71584 3.49616 3.7288C3.51136 3.73888 3.51696 3.74736 3.50896 3.74752C3.50064 3.74752 3.49936 3.75696 3.50608 3.76816C3.52352 3.79712 3.53968 3.77424 3.52672 3.73904C3.52064 3.72288 3.50528 3.70976 3.49232 3.70992ZM14.6467 3.72896C14.6675 3.72896 14.6798 3.73744 14.6736 3.748C14.6672 3.7584 14.6498 3.76704 14.6352 3.76704C14.6205 3.76704 14.6086 3.75856 14.6086 3.74784C14.6086 3.73744 14.6258 3.72896 14.6467 3.72896ZM15.1627 3.76704C15.1728 3.76704 15.1808 3.77552 15.1808 3.78624C15.1808 3.79664 15.1728 3.80512 15.1627 3.80512C15.1581 3.80452 15.1538 3.80226 15.1508 3.79875C15.1477 3.79525 15.146 3.79074 15.146 3.78608C15.146 3.78142 15.1477 3.77691 15.1508 3.77341C15.1538 3.7699 15.1581 3.76764 15.1627 3.76704ZM15.2363 3.76704C15.2466 3.76704 15.2549 3.77552 15.2549 3.78624C15.2549 3.79118 15.253 3.79593 15.2496 3.79947C15.2461 3.803 15.2414 3.80504 15.2365 3.80512C15.2319 3.80452 15.2276 3.80226 15.2245 3.79875C15.2215 3.79525 15.2198 3.79074 15.2198 3.78608C15.2198 3.78142 15.2215 3.77691 15.2245 3.77341C15.2276 3.7699 15.2317 3.76764 15.2363 3.76704ZM14.8422 3.78992C14.8462 3.79152 14.8486 3.79552 14.8486 3.80176C14.8486 3.812 14.8358 3.82528 14.8197 3.83168C14.8018 3.83888 14.7933 3.83488 14.7978 3.8208C14.8046 3.79936 14.8299 3.78496 14.8422 3.78992ZM15.0653 3.80384C15.0726 3.80304 15.0818 3.81136 15.0853 3.82272C15.089 3.83392 15.0706 3.84336 15.0443 3.84336C15.0181 3.84336 14.9966 3.83504 14.9966 3.82448C14.9966 3.81408 15.0091 3.80528 15.0243 3.80528C15.0395 3.80528 15.0579 3.8048 15.0653 3.80384ZM3.92768 4.04336C3.90736 4.04416 3.88784 4.05248 3.86192 4.06832C3.80528 4.10288 3.79056 4.14224 3.84256 4.12016C3.90608 4.09312 3.9408 4.08672 3.93776 4.10336C3.93136 4.14032 3.94096 4.15248 3.9688 4.14144C3.9848 4.13504 4.00528 4.12992 4.01472 4.12992C4.04464 4.12992 4.0328 4.07728 3.99936 4.0624C3.96944 4.04896 3.94816 4.0424 3.92784 4.0432M9.62864 4.14192C9.57232 4.14448 9.48624 4.1968 9.46992 4.2384C9.45424 4.27792 9.49152 4.37632 9.55168 4.45504C9.58368 4.49664 9.60128 4.53056 9.5904 4.53056C9.57984 4.53056 9.56144 4.5488 9.54992 4.5712C9.53168 4.6064 9.536 4.6184 9.58144 4.6568C9.61024 4.68144 9.64512 4.69712 9.65856 4.69216C9.67195 4.6873 9.68595 4.68434 9.70016 4.68336C9.72544 4.68336 9.7208 4.60176 9.69296 4.55872C9.67968 4.53792 9.66736 4.4936 9.66512 4.46C9.66288 4.42256 9.64016 4.3744 9.60608 4.336C9.56976 4.29472 9.5584 4.27024 9.5736 4.26496C9.5864 4.26064 9.60848 4.24496 9.62304 4.23008C9.63744 4.21504 9.6688 4.20656 9.69296 4.2112C9.73408 4.21936 9.73568 4.2176 9.71072 4.17968C9.69264 4.15216 9.66656 4.14 9.62864 4.14192ZM9.04176 4.156C9.03112 4.15446 9.02027 4.15534 9.01002 4.15858C8.99977 4.16183 8.99038 4.16734 8.98256 4.17472C8.95472 4.20384 8.95632 4.20592 9.00176 4.20592C9.02864 4.20592 9.05568 4.19744 9.06208 4.18688C9.07216 4.16992 9.06032 4.15888 9.04208 4.156H9.04176ZM13.7349 4.17152C13.7389 4.17312 13.7413 4.17712 13.7413 4.18336C13.7413 4.19376 13.7285 4.20704 13.7125 4.21344C13.6944 4.22064 13.6859 4.21648 13.6904 4.20256C13.6974 4.18112 13.7226 4.16672 13.7349 4.17152ZM8.83104 4.18192C8.81136 4.17904 8.78688 4.1832 8.77616 4.19664C8.76528 4.21008 8.73664 4.26064 8.71264 4.30976C8.67456 4.38752 8.6728 4.40224 8.69648 4.42656C8.73056 4.46176 8.79344 4.46112 8.83952 4.42496C8.88592 4.3888 8.96864 4.38912 9.00384 4.4256C9.0352 4.45792 9.1584 4.46368 9.20048 4.43472C9.22352 4.41872 9.21744 4.40592 9.16368 4.3584C9.06048 4.26736 9.00272 4.24272 8.95136 4.26688C8.91648 4.28336 8.90112 4.28128 8.87728 4.25664C8.8608 4.23952 8.852 4.21776 8.8576 4.20848C8.86592 4.19456 8.85088 4.1848 8.83104 4.18192ZM9.99232 4.19568C9.98087 4.19555 9.96961 4.19865 9.95984 4.20464C9.91248 4.23088 9.90768 4.29584 9.95264 4.30624C9.99168 4.3152 9.98528 4.31904 10.009 4.27184C10.0304 4.22912 10.02 4.19728 9.99232 4.19568ZM4.10016 4.2C4.09728 4.20448 4.1048 4.22288 4.12144 4.264C4.13824 4.30544 4.15376 4.3392 4.15648 4.33936C4.15904 4.33936 4.16112 4.31584 4.16112 4.28688C4.16112 4.25568 4.14672 4.22496 4.12608 4.21168C4.1199 4.20736 4.11343 4.20346 4.10672 4.2C4.10352 4.19872 4.10112 4.19872 4.10016 4.2ZM4.19584 4.20592C4.1856 4.20592 4.18224 4.21472 4.18864 4.22528C4.19488 4.23584 4.20848 4.244 4.21856 4.244C4.2288 4.244 4.23168 4.23584 4.22544 4.22528C4.21904 4.21488 4.20592 4.20592 4.19584 4.20592ZM13.652 4.20608C13.6813 4.20608 13.6605 4.248 13.6158 4.27856C13.5923 4.29472 13.5752 4.29808 13.5752 4.28656C13.5752 4.26096 13.6275 4.20608 13.652 4.20608ZM8.0608 4.20672C8.05776 4.20688 8.05392 4.21568 8.04672 4.23296C8.03664 4.25696 8.04032 4.27616 8.05792 4.29024C8.07232 4.30176 8.09888 4.33504 8.11712 4.36416C8.13504 4.39344 8.15792 4.41232 8.16768 4.40608C8.17744 4.39984 8.1904 4.40784 8.19648 4.42384C8.2024 4.43984 8.2224 4.45808 8.2408 4.46416C8.2744 4.47536 8.3048 4.52816 8.28768 4.54576C8.28256 4.55104 8.26464 4.54352 8.24768 4.52896C8.22016 4.50528 8.21808 4.50688 8.2296 4.54416C8.23856 4.5736 8.2312 4.59792 8.20448 4.62544C8.18368 4.64704 8.16672 4.6728 8.16672 4.68272C8.16672 4.71872 8.12976 4.72256 8.07392 4.69264C8.00704 4.6568 8.01072 4.61712 8.0808 4.61584C8.16448 4.61424 8.18256 4.57584 8.1256 4.52112C8.0984 4.49504 8.068 4.4736 8.05856 4.4736C8.03856 4.4736 7.93552 4.35584 7.92208 4.3176C7.91488 4.29744 7.89744 4.30096 7.8408 4.33328C7.78848 4.3632 7.75968 4.36944 7.7368 4.35616C7.69728 4.33328 7.66864 4.35024 7.66864 4.39616C7.66864 4.41536 7.6392 4.45376 7.60352 4.48176C7.56272 4.51392 7.5392 4.54896 7.5392 4.5768C7.5392 4.6416 7.46176 4.71792 7.3888 4.72512C7.35472 4.72848 7.32704 4.74 7.32704 4.7504C7.32704 4.78464 7.44864 4.77696 7.51136 4.73856C7.57152 4.70176 7.90528 4.65712 7.95936 4.67856C7.9872 4.68976 7.99008 4.80976 7.96256 4.82736C7.93296 4.8464 8.00128 4.89216 8.06048 4.89296C8.09375 4.89562 8.1251 4.90963 8.14928 4.93264C8.21072 4.99632 8.31456 5.02976 8.31456 4.98576C8.31456 4.92096 8.42608 4.86736 8.47232 4.90992C8.48192 4.91872 8.53696 4.9408 8.59456 4.95888C8.67376 4.98384 8.71488 4.9872 8.76352 4.97328C8.79952 4.96304 8.83472 4.96208 8.84352 4.97136C8.87088 4.99968 8.94384 4.96704 8.96176 4.91856C8.97104 4.89296 8.97888 4.83776 8.97888 4.79584C8.97888 4.72496 8.97568 4.72032 8.93728 4.7336C8.91456 4.7416 8.8792 4.7464 8.85888 4.74448C8.83029 4.74231 8.80163 4.74119 8.77296 4.74112C8.70064 4.74112 8.62832 4.70784 8.62832 4.67456C8.62832 4.65856 8.61904 4.64544 8.60752 4.64544C8.596 4.64544 8.59136 4.62832 8.5968 4.60704C8.60208 4.58608 8.59936 4.56896 8.59104 4.56896C8.58288 4.56896 8.5808 4.55184 8.58624 4.53072C8.5936 4.50128 8.58688 4.49264 8.55584 4.49264C8.53344 4.49264 8.52064 4.50112 8.52704 4.51184C8.53344 4.52224 8.52544 4.53632 8.50944 4.54272C8.47536 4.55616 8.47104 4.6008 8.50304 4.61168C8.53296 4.62208 8.48144 4.732 8.44672 4.73168C8.4168 4.73136 8.36992 4.66816 8.3696 4.62736C8.36928 4.61104 8.3528 4.57616 8.33296 4.54992C8.31312 4.52352 8.29664 4.48336 8.29648 4.46016C8.29616 4.432 8.26848 4.3984 8.21296 4.35888C8.16736 4.3264 8.12976 4.28752 8.12976 4.27264C8.12976 4.25712 8.11888 4.24992 8.10384 4.25584C8.08848 4.26192 8.07456 4.252 8.06992 4.23136C8.06608 4.21488 8.06384 4.20656 8.0608 4.20672ZM3.9992 4.21456C3.99521 4.21496 3.99131 4.21605 3.98768 4.21776C3.9584 4.22928 3.94016 4.28528 3.93984 4.36496C3.93984 4.396 3.94752 4.4136 3.95824 4.40672C3.96848 4.40032 3.97168 4.37392 3.96544 4.34832H3.96512C3.95903 4.31572 3.96573 4.28203 3.98384 4.25424C4.00144 4.22656 4.00624 4.21536 3.99888 4.21488L3.9992 4.21456ZM7.89488 4.36272C7.93552 4.35424 7.93856 4.57936 7.89808 4.59552C7.88256 4.6016 7.86592 4.5952 7.8608 4.58144C7.84128 4.52896 7.86624 4.36864 7.89488 4.36272ZM9.70448 4.4424C9.70128 4.444 9.69888 4.44768 9.69888 4.45328C9.69888 4.46448 9.7072 4.4736 9.71728 4.4736C9.72752 4.4736 9.73584 4.46976 9.73584 4.46512C9.73584 4.46048 9.72752 4.45136 9.71728 4.4448C9.71232 4.4416 9.70784 4.4408 9.70448 4.4424ZM7.66128 4.52112C7.66768 4.52144 7.67312 4.52352 7.67568 4.528C7.68944 4.55072 7.66144 4.58336 7.63616 4.57424C7.62336 4.5696 7.61296 4.55904 7.61296 4.5504C7.61296 4.5344 7.64208 4.52 7.66128 4.52112ZM9.54144 5.06832C9.53574 5.06693 9.52975 5.06738 9.52432 5.0696C9.51824 5.07248 9.5144 5.0792 9.5144 5.08928C9.5144 5.10368 9.53088 5.13408 9.5512 5.1568C9.57152 5.1792 9.588 5.20608 9.588 5.2168C9.588 5.22736 9.6008 5.2312 9.616 5.22512C9.63616 5.21712 9.64368 5.22752 9.64368 5.26384C9.64368 5.33328 9.71344 5.33072 9.78 5.25904L9.83088 5.20384L9.78064 5.21392C9.71888 5.22608 9.62144 5.17488 9.59696 5.11728C9.59204 5.10546 9.58451 5.09491 9.57492 5.08642C9.56533 5.07794 9.55377 5.07175 9.54144 5.06832ZM6.94864 5.10352C6.95872 5.10352 6.96736 5.11184 6.96736 5.12176C6.96736 5.13168 6.95872 5.14496 6.94864 5.15136C6.9384 5.15776 6.9304 5.14992 6.9304 5.1336C6.9304 5.11728 6.9384 5.10352 6.94864 5.10352ZM6.84944 5.11072C6.8616 5.10752 6.87648 5.11136 6.89328 5.1224C6.9152 5.1368 6.91632 5.14512 6.89808 5.164C6.88128 5.18128 6.87488 5.18176 6.87488 5.1656C6.87488 5.15264 6.86192 5.14832 6.84448 5.1552C6.82416 5.1632 6.81712 5.1584 6.82272 5.14112C6.82816 5.124 6.8376 5.11392 6.8496 5.11072M8.93872 5.16448C8.93552 5.164 8.9328 5.16448 8.93088 5.1664C8.91888 5.17888 8.96224 5.27776 9.04848 5.43456C9.06096 5.45728 9.07136 5.49488 9.07152 5.51792C9.07168 5.54096 9.08 5.56512 9.0904 5.57168C9.10064 5.57824 9.1208 5.61232 9.13504 5.64736C9.14912 5.6824 9.17728 5.71664 9.19744 5.72336C9.21776 5.72992 9.23904 5.748 9.24464 5.76336C9.26384 5.8152 9.27776 5.79168 9.26464 5.72928C9.24832 5.65056 9.17104 5.51136 9.13568 5.49728C9.1208 5.49152 9.1088 5.4648 9.1088 5.43824C9.1088 5.41168 9.0928 5.3736 9.0736 5.3536C9.05377 5.33289 9.03803 5.30863 9.0272 5.28208C9.01136 5.2328 8.96128 5.16896 8.93872 5.16448ZM4.30688 5.188C4.33296 5.18512 4.36464 5.20368 4.36464 5.22992C4.36464 5.24448 4.36048 5.25648 4.35536 5.25648C4.35024 5.25648 4.34592 5.24784 4.34592 5.23728C4.34592 5.22688 4.328 5.21824 4.3056 5.21824C4.27776 5.21824 4.27072 5.21216 4.28384 5.19856C4.29003 5.19242 4.29819 5.18868 4.30688 5.188ZM12.5373 5.2616C12.5437 5.26128 12.5475 5.268 12.5525 5.28176C12.5653 5.31648 12.5285 5.44736 12.5056 5.44736C12.4974 5.44736 12.4859 5.43392 12.4797 5.41728C12.4597 5.3632 12.4675 5.32032 12.5046 5.28544C12.5211 5.27008 12.5306 5.26224 12.5373 5.26176M4.31328 5.26464C4.31591 5.26374 4.31872 5.26347 4.32147 5.26386C4.32422 5.26425 4.32684 5.26528 4.32912 5.26688C4.35152 5.28128 4.35136 5.33312 4.3288 5.33312C4.3192 5.33312 4.3064 5.32432 4.3 5.31376C4.2888 5.29488 4.29856 5.27008 4.31328 5.26464ZM4.14864 5.35424C4.17024 5.35424 4.19776 5.35968 4.24208 5.37056C4.29904 5.3848 4.34576 5.40192 4.34576 5.40848C4.34576 5.41504 4.39184 5.44112 4.44768 5.46656C4.53248 5.50512 4.54896 5.52096 4.54896 5.56128C4.54896 5.60272 4.54064 5.61008 4.492 5.61008C4.4608 5.61008 4.43152 5.60624 4.42736 5.60192C4.40992 5.58384 4.42176 5.56224 4.44864 5.56224C4.46432 5.56224 4.47232 5.55328 4.46624 5.54288C4.45984 5.53232 4.4264 5.524 4.392 5.524C4.352 5.524 4.32096 5.51104 4.3056 5.48816C4.27328 5.44064 4.16272 5.4152 4.1408 5.4504C4.12768 5.4712 4.1216 5.47136 4.10928 5.45152C4.10016 5.43712 4.08016 5.43248 4.06048 5.44032C4.0096 5.46048 4.03456 5.40528 4.09136 5.37216C4.10836 5.36089 4.12824 5.35456 4.14864 5.35424ZM4.48464 5.37136C4.49984 5.37136 4.512 5.37936 4.512 5.38928C4.512 5.41328 4.48336 5.43088 4.46864 5.41552C4.44784 5.39392 4.456 5.37136 4.48464 5.37136ZM0.9864 5.4096C0.99648 5.4096 1.0048 5.41808 1.0048 5.42864C1.00484 5.43359 1.00294 5.43836 0.999497 5.44193C0.996055 5.44549 0.991351 5.44755 0.9864 5.44768C0.983928 5.44764 0.981488 5.44711 0.979222 5.44612C0.976956 5.44513 0.974909 5.4437 0.973198 5.44192C0.971487 5.44013 0.970147 5.43802 0.969255 5.43572C0.968363 5.43341 0.967936 5.43095 0.968 5.42848C0.968 5.41808 0.97632 5.4096 0.9864 5.4096ZM1.0336 5.42864C1.0664 5.42864 1.1896 5.5208 1.1896 5.54544C1.1896 5.55248 1.1768 5.56336 1.16112 5.56944C1.1424 5.57696 1.1272 5.56496 1.11616 5.53488C1.10688 5.50976 1.08224 5.48368 1.06144 5.4768C1.02784 5.4656 1.0064 5.42864 1.0336 5.42864ZM4.51728 5.44624C4.53936 5.44848 4.53488 5.47472 4.51104 5.48304C4.49904 5.4872 4.49232 5.48032 4.49648 5.46768C4.50048 5.45504 4.51008 5.44528 4.51728 5.44608M4.6096 5.50464C4.65552 5.50464 4.7336 5.55344 4.7336 5.58224C4.7336 5.59216 4.7104 5.60032 4.68208 5.60032C4.6536 5.60032 4.62176 5.60896 4.61136 5.61968C4.60112 5.6304 4.58704 5.63312 4.58016 5.62608C4.57328 5.61872 4.56736 5.5888 4.56736 5.55904C4.56736 5.51552 4.57568 5.50464 4.6096 5.50464ZM4.34448 5.56432C4.35441 5.5639 4.36433 5.56554 4.3736 5.56912C4.3888 5.57504 4.40144 5.5888 4.40144 5.59968C4.40144 5.62528 4.31504 5.62528 4.29984 5.6C4.28896 5.58192 4.31504 5.56544 4.34448 5.56432ZM4.79376 5.5656C4.81664 5.56896 4.83536 5.58 4.83536 5.59056C4.83536 5.60112 4.81664 5.61264 4.79376 5.616C4.76512 5.62016 4.75248 5.61216 4.75248 5.59056C4.75248 5.56912 4.76528 5.56144 4.79376 5.5656ZM12.5062 5.56752C12.5138 5.56847 12.5213 5.57024 12.5285 5.5728C12.5784 5.5888 12.5717 5.5824 12.5862 5.63088C12.5938 5.65632 12.5878 5.68016 12.5701 5.69536C12.5285 5.73104 12.5357 5.7488 12.5974 5.76288C12.64 5.77248 12.6528 5.78576 12.6528 5.82032C12.6528 5.8632 12.6502 5.86384 12.6029 5.8384C12.5754 5.82368 12.5486 5.81712 12.5432 5.82352C12.5376 5.82976 12.5435 5.83872 12.5563 5.84352C12.6059 5.86176 12.6342 5.90912 12.6232 5.95504C12.6104 6.00736 12.636 6.01584 12.6773 5.97312C12.7208 5.928 12.7579 5.99424 12.7482 6.09968C12.745 6.13536 12.7138 6.15056 12.6666 6.13968C12.6488 6.13568 12.6344 6.11888 12.6344 6.10288C12.6344 6.08112 12.6224 6.0768 12.588 6.0856C12.5538 6.09456 12.5419 6.08992 12.5419 6.06784C12.5419 6.05152 12.5547 6.03344 12.5698 6.02752C12.5939 6.01792 12.5939 6.01184 12.5698 5.976C12.5546 5.9536 12.5419 5.92032 12.5419 5.9016C12.5419 5.88288 12.5349 5.86752 12.5256 5.86752C12.5005 5.86752 12.4451 5.68784 12.4678 5.68C12.4782 5.67648 12.487 5.648 12.487 5.61664C12.487 5.57888 12.4894 5.5664 12.5062 5.56752ZM12.4574 5.88688C12.4859 5.88688 12.4634 5.95408 12.4213 5.9944C12.365 6.04832 12.3291 6.05488 12.3566 6.00624C12.3827 5.95984 12.4443 5.88688 12.4574 5.88688ZM14.3984 5.88688C14.4142 5.88688 14.4219 5.89536 14.4157 5.90608C14.4093 5.91648 14.3965 5.92496 14.3869 5.92496C14.3773 5.92496 14.3698 5.91648 14.3698 5.90592C14.3698 5.89552 14.3824 5.88688 14.3984 5.88688ZM14.4077 5.9656C14.4234 5.96768 14.4437 5.9856 14.4437 6.0024C14.4437 6.02688 14.4117 6.02512 14.3968 6C14.3901 5.9888 14.3888 5.97536 14.3942 5.9696C14.3974 5.96624 14.4024 5.96512 14.4077 5.9656ZM14.5726 5.99184C14.5829 5.99824 14.5914 6.01168 14.5914 6.0216C14.5912 6.02645 14.5891 6.03105 14.5857 6.03442C14.5822 6.0378 14.5775 6.03968 14.5726 6.03968C14.5626 6.03968 14.5546 6.02608 14.5546 6.00976C14.5546 5.99344 14.5626 5.98544 14.5726 5.99184ZM12.3405 6.05808L12.4029 6.10976L12.4658 6.1616L12.4258 6.19744C12.3874 6.23184 12.3872 6.2352 12.4171 6.28912C12.4363 6.324 12.4406 6.34512 12.4277 6.34512C12.4202 6.34512 12.4174 6.34832 12.4174 6.35184C12.4048 6.36421 12.392 6.37643 12.379 6.38848C12.3763 6.39056 12.3654 6.43184 12.3634 6.45008C12.3602 6.45536 12.357 6.45888 12.3539 6.46448C12.3086 6.54864 12.309 6.54848 12.1731 6.52944C12.147 6.52573 12.1208 6.52258 12.0946 6.52C12.0856 6.51889 12.0774 6.51461 12.0714 6.50794C12.0654 6.50127 12.062 6.49266 12.0618 6.48368C12.0474 6.4336 12.0282 6.38864 12.0182 6.32368H12.0179C12.0192 6.32128 12.0205 6.31968 12.0218 6.31696C12.0341 6.28896 12.0531 6.27344 12.068 6.27936C12.0819 6.28496 12.1037 6.27616 12.1168 6.26C12.1298 6.24384 12.152 6.23056 12.1654 6.23056C12.179 6.23056 12.199 6.21312 12.2099 6.19216C12.2208 6.1712 12.2408 6.15408 12.2546 6.15408C12.2683 6.15408 12.2931 6.13232 12.3099 6.10608L12.3405 6.05808ZM12.5229 6.116C12.5338 6.116 12.5421 6.12448 12.5421 6.13504C12.5421 6.14544 12.5387 6.15408 12.5342 6.15408C12.5298 6.15408 12.5208 6.1456 12.5146 6.13488C12.5082 6.12448 12.512 6.116 12.5229 6.116ZM11.4938 6.14432C11.5256 6.14992 11.5723 6.1728 11.619 6.20912C11.6862 6.26128 11.7357 6.2952 11.7784 6.31952C11.8136 6.37232 11.8184 6.40848 11.8718 6.41344C11.9005 6.40224 11.9518 6.44288 11.9518 6.47696C11.9518 6.48784 11.9642 6.492 11.9794 6.48592C11.9946 6.47984 12.0069 6.48496 12.0069 6.49776C12.0069 6.51312 11.9912 6.51696 11.961 6.50896C11.9197 6.4984 11.915 6.50304 11.915 6.5528C11.915 6.61552 11.9534 6.63424 12.0984 6.64128C12.1437 6.64352 12.184 6.65488 12.1878 6.66688C12.1917 6.67888 12.2106 6.6888 12.2301 6.6888C12.2525 6.6888 12.2656 6.70224 12.2656 6.72528C12.2656 6.75696 12.2555 6.76032 12.1872 6.7512C12.144 6.7456 12.0946 6.7336 12.0776 6.72432C12.0524 6.71353 12.0252 6.70792 11.9978 6.70784C11.971 6.70784 11.9309 6.69824 11.9088 6.68592C11.8506 6.65392 11.6851 6.48656 11.6563 6.43088L11.6315 6.3832L11.6075 6.3384C11.6075 6.33824 11.6083 6.33776 11.6082 6.33744C11.6078 6.33648 11.6054 6.33488 11.605 6.33376L11.6043 6.33248H11.6038C11.595 6.31792 11.5707 6.29856 11.5435 6.28688C11.4869 6.26256 11.4534 6.21712 11.4534 6.16464C11.4534 6.15408 11.4586 6.14752 11.4675 6.14464C11.4761 6.14244 11.4851 6.14233 11.4938 6.14432ZM12.7944 6.276C12.807 6.27472 12.8221 6.28784 12.8344 6.316L12.8552 6.36432C12.8424 6.3792 12.8293 6.39152 12.8194 6.40624C12.8174 6.40432 12.7714 6.40304 12.7578 6.34688C12.7629 6.33967 12.7662 6.33132 12.7674 6.32256C12.7715 6.2928 12.7818 6.27728 12.7944 6.276ZM12.6778 6.2984C12.7013 6.2952 12.7091 6.31216 12.6878 6.33872C12.6844 6.34264 12.6817 6.3472 12.68 6.35216L12.6285 6.36128C12.585 6.3704 12.5322 6.3696 12.5053 6.40064C12.5053 6.41024 12.5222 6.41344 12.5426 6.40784C12.5486 6.40624 12.5483 6.40464 12.5534 6.40288L12.5718 6.40064L12.6294 6.40864L12.6259 6.41344C12.6198 6.41728 12.6126 6.42 12.6075 6.42464C12.5803 6.44896 12.5675 6.47472 12.5763 6.48688C12.5843 6.49824 12.5907 6.52448 12.5901 6.54528C12.5885 6.59408 12.5299 6.60688 12.5184 6.56096C12.513 6.53904 12.5091 6.54592 12.5078 6.58032C12.5062 6.6208 12.4974 6.6328 12.4731 6.62784C12.4555 6.62416 12.441 6.60432 12.441 6.58352C12.441 6.56272 12.4346 6.53568 12.4269 6.52352C12.4192 6.5112 12.4213 6.4784 12.4317 6.45056C12.4397 6.42896 12.4405 6.42176 12.4429 6.41184C12.4477 6.39808 12.469 6.33968 12.4698 6.33632C12.4698 6.336 12.4674 6.33696 12.4672 6.33696C12.493 6.3128 12.5184 6.30688 12.5584 6.316C12.589 6.32288 12.6301 6.31952 12.6496 6.3088C12.6583 6.30366 12.6678 6.30014 12.6778 6.2984ZM8.88032 6.3832C8.85264 6.3832 8.82784 6.4296 8.8456 6.44816C8.85872 6.4616 8.90592 6.42384 8.90592 6.4C8.90592 6.39072 8.89456 6.3832 8.88032 6.3832ZM12.9806 6.39504C12.9989 6.39254 13.0174 6.39346 13.0354 6.39776H13.0366L13.037 6.39808C13.0498 6.40096 13.0683 6.42448 13.0781 6.4512L13.0963 6.50032L13.1478 6.46256L13.1994 6.42432L13.3462 6.4728C13.4312 6.5008 13.5112 6.54112 13.5363 6.56816C13.5709 6.6056 13.5906 6.612 13.6354 6.60176C13.6661 6.59488 13.7016 6.58784 13.7141 6.58592C13.7266 6.584 13.7514 6.56768 13.7688 6.54976C13.8077 6.50944 13.8323 6.50816 13.8462 6.5456C13.8642 6.59392 13.7797 6.652 13.701 6.6456C13.605 6.63792 13.6 6.676 13.6872 6.74848C13.7272 6.7816 13.7555 6.816 13.7504 6.82464C13.733 6.8536 13.6229 6.81744 13.5616 6.76256C13.4896 6.69808 13.4731 6.69536 13.4469 6.74592C13.4237 6.79072 13.3504 6.7968 13.3181 6.75664C13.3034 6.73808 13.2778 6.73232 13.2422 6.73968C13.1827 6.752 13.1781 6.74416 13.2112 6.68912C13.2288 6.66 13.2286 6.6464 13.2115 6.6288C13.1878 6.60416 13.0654 6.55584 13.0256 6.5552C12.9978 6.55504 12.9686 6.5256 12.9331 6.46128C12.9123 6.42384 12.9123 6.4136 12.9331 6.4C12.9438 6.39984 12.9616 6.39664 12.9806 6.39504ZM13.5862 6.44064C13.6021 6.44064 13.6102 6.44912 13.6042 6.45984C13.5978 6.47024 13.5846 6.47872 13.575 6.47872C13.5654 6.47872 13.5578 6.47024 13.5578 6.45968C13.5578 6.44928 13.5706 6.44064 13.5862 6.44064ZM13.7238 6.45984C13.7339 6.45984 13.7422 6.46832 13.7422 6.47872C13.7422 6.48928 13.7339 6.49792 13.7238 6.49792C13.7214 6.4979 13.7189 6.49738 13.7166 6.4964C13.7143 6.49542 13.7123 6.494 13.7105 6.49221C13.7088 6.49042 13.7075 6.48831 13.7065 6.48599C13.7056 6.48368 13.7052 6.4812 13.7053 6.47872C13.7053 6.46832 13.7136 6.45984 13.7238 6.45984ZM12.8472 6.48448C12.8992 6.48416 12.9301 6.49792 12.9301 6.52352C12.9301 6.544 12.7349 6.55664 12.7163 6.53728C12.6947 6.51488 12.7163 6.5008 12.7883 6.4896C12.8078 6.48643 12.8275 6.48472 12.8472 6.48448ZM13.9006 6.59728C13.9083 6.59376 13.923 6.6008 13.9422 6.61888C13.9608 6.63648 13.985 6.6504 13.9957 6.6504C14.0064 6.6504 14.02 6.6696 14.0262 6.69328C14.0344 6.72416 14.0419 6.7296 14.0528 6.71248C14.0648 6.69328 14.0803 6.69456 14.1275 6.71888C14.1931 6.7528 14.1957 6.7904 14.1331 6.79984C14.1029 6.80448 14.0931 6.79584 14.0931 6.76576C14.0931 6.73344 14.0848 6.72816 14.0494 6.73728C14.0157 6.74608 14.0034 6.73984 13.9957 6.70928C13.9898 6.68592 13.9707 6.6696 13.9491 6.6696C13.929 6.6696 13.9074 6.6552 13.901 6.63792C13.8923 6.61488 13.893 6.60096 13.9006 6.59728ZM12.7509 6.69648C12.7693 6.6976 12.7824 6.70928 12.7819 6.73104C12.7816 6.74448 12.7499 6.77056 12.7112 6.78896C12.6258 6.8296 12.6163 6.83008 12.6163 6.7936C12.6163 6.77776 12.623 6.76512 12.6312 6.76512C12.6395 6.76512 12.6648 6.74704 12.6875 6.72512C12.7088 6.70464 12.7326 6.69536 12.751 6.69632M12.4845 6.71664C12.6602 6.716 12.6477 6.75344 12.4699 6.76096C12.3664 6.76528 12.3378 6.76096 12.344 6.74176C12.3494 6.7248 12.393 6.7168 12.4845 6.71664ZM13.413 6.81424C13.4216 6.81888 13.4286 6.84016 13.4418 6.88656C13.4562 6.93792 13.4773 6.97456 13.4926 6.97456C13.5162 6.97456 13.5574 7.08016 13.5578 7.14096C13.5578 7.15344 13.5826 7.17888 13.613 7.19744C13.6434 7.21616 13.6686 7.23696 13.6686 7.244C13.6686 7.2512 13.6891 7.27744 13.7142 7.30224C13.7395 7.32688 13.7603 7.35536 13.7606 7.36528C13.7606 7.3752 13.7822 7.40656 13.8086 7.43504C13.8502 7.47984 13.8566 7.50368 13.8578 7.61744C13.8587 7.73168 13.8502 7.7656 13.7914 7.88496C13.7544 7.96016 13.724 8.04016 13.724 8.06192C13.724 8.08784 13.7122 8.1016 13.6896 8.1016C13.6706 8.1016 13.6341 8.11872 13.6083 8.13968C13.5558 8.1824 13.5514 8.18368 13.5317 8.16336C13.5242 8.15552 13.481 8.14816 13.4357 8.14688C13.3456 8.14432 13.2864 8.10352 13.2773 8.03744C13.2731 8.00704 13.2523 7.99152 13.1949 7.97712C13.1197 7.9584 13.0874 7.93952 13.087 7.91376C13.0867 7.88176 13.0266 7.82256 12.9765 7.80496C12.9029 7.7792 12.6533 7.83056 12.6533 7.87152C12.6533 7.87952 12.6155 7.89184 12.569 7.8984C12.5224 7.90496 12.4611 7.924 12.433 7.94128C12.3885 7.96848 12.3749 7.96944 12.329 7.94656C12.2798 7.92208 12.2762 7.912 12.2742 7.80576C12.2731 7.7328 12.2589 7.66256 12.2352 7.6128C12.2082 7.556 12.1992 7.50448 12.203 7.42624C12.209 7.30464 12.2194 7.27808 12.2542 7.29184C12.2675 7.29712 12.289 7.28816 12.3021 7.27184C12.315 7.25568 12.3382 7.24224 12.3536 7.24224C12.369 7.24224 12.4134 7.23248 12.4528 7.22032C12.5086 7.20304 12.5306 7.18208 12.5549 7.12528C12.5718 7.08544 12.5922 7.05744 12.6002 7.06256C12.6082 7.06768 12.6374 7.0456 12.6648 7.01376C12.7141 6.95664 12.7875 6.93696 12.8102 6.97472C12.8288 7.00592 12.8454 6.99696 12.8786 6.93664C12.8958 6.90512 12.9235 6.87936 12.9398 6.87936C12.9574 6.87936 12.9638 6.8704 12.9562 6.85744C12.9469 6.84192 12.9586 6.83984 12.9968 6.84976C13.0262 6.85744 13.0765 6.86496 13.1086 6.86656C13.187 6.87072 13.1963 6.88512 13.1637 6.95024C13.136 7.00544 13.1365 7.00592 13.2186 7.05712C13.264 7.08544 13.308 7.1088 13.3165 7.1088C13.3349 7.1088 13.3549 7.01376 13.3549 6.9264C13.3549 6.89152 13.369 6.84864 13.3861 6.83088C13.3913 6.82498 13.3972 6.81977 13.4037 6.81536C13.4072 6.81344 13.4101 6.81264 13.413 6.81424ZM9.2936 6.8512C9.304 6.84448 9.31232 6.85248 9.31232 6.8688C9.31232 6.9024 9.30112 6.90752 9.28512 6.88112C9.27936 6.87136 9.28336 6.85792 9.2936 6.8512ZM9.5248 6.88032C9.54032 6.88192 9.55856 6.8944 9.56992 6.91632C9.5936 6.96192 9.59472 7.03552 9.57232 7.09344C9.56304 7.11744 9.53632 7.20912 9.51312 7.2968C9.47872 7.42544 9.46192 7.45968 9.42704 7.47344C9.36304 7.49872 9.33392 7.49456 9.31552 7.45712C9.27936 7.38432 9.27488 7.3176 9.3024 7.26256C9.31776 7.23168 9.32528 7.19296 9.3192 7.17664C9.29728 7.11728 9.32992 7.05216 9.39584 7.02368C9.43104 7.00848 9.45984 6.98256 9.45984 6.96624C9.45984 6.94992 9.46816 6.93664 9.47824 6.93664C9.48848 6.93664 9.4968 6.92384 9.4968 6.90816C9.4968 6.88752 9.50944 6.87872 9.5248 6.88032ZM9.352 6.8832C9.35937 6.88513 9.36603 6.88913 9.3712 6.89472C9.39904 6.92352 9.38368 6.93984 9.34928 6.91776C9.33456 6.90848 9.32848 6.8944 9.33616 6.88656C9.33984 6.88256 9.3456 6.88176 9.352 6.8832ZM14.2715 7.2232C14.2934 7.2232 14.4072 7.32016 14.4072 7.33872C14.4072 7.37184 14.3613 7.3576 14.3101 7.30832C14.2624 7.26272 14.2443 7.2232 14.2715 7.2232ZM9.79232 7.26128C9.79736 7.26136 9.80216 7.26342 9.80569 7.26701C9.80922 7.27061 9.8112 7.27544 9.8112 7.28048C9.8112 7.28552 9.80922 7.29035 9.80569 7.29394C9.80216 7.29754 9.79736 7.2996 9.79232 7.29968C9.78987 7.29962 9.78745 7.29907 9.78521 7.29807C9.78298 7.29707 9.78096 7.29564 9.77928 7.29385C9.7776 7.29206 9.77629 7.28996 9.77542 7.28767C9.77456 7.28537 9.77415 7.28293 9.77424 7.28048C9.77424 7.27008 9.78224 7.26128 9.79232 7.26128ZM13.1715 7.91056C13.169 7.91052 13.1664 7.91098 13.1641 7.91193C13.1617 7.91287 13.1596 7.91428 13.1577 7.91607C13.1559 7.91786 13.1545 7.91999 13.1535 7.92234C13.1525 7.92469 13.152 7.92721 13.152 7.92976C13.152 7.94016 13.1557 7.9488 13.1602 7.9488C13.1646 7.9488 13.1736 7.94016 13.1798 7.9296C13.1862 7.9192 13.1822 7.91056 13.1715 7.91056ZM14.6454 7.91712C14.6805 7.92992 14.7754 8.02992 14.7762 8.06064C14.7765 8.07856 14.7904 8.08304 14.8214 8.07504C14.8462 8.06864 14.871 8.07024 14.8762 8.07904C14.8928 8.10704 14.8656 8.17824 14.8381 8.17824C14.8234 8.17824 14.8158 8.18544 14.8214 8.19472C14.8355 8.21824 14.7587 8.3152 14.733 8.30624C14.7134 8.29952 14.6626 8.39312 14.6712 8.41968C14.6733 8.42608 14.656 8.43872 14.633 8.44752C14.6074 8.45728 14.587 8.48496 14.5805 8.51872C14.573 8.55808 14.5485 8.5856 14.4957 8.61472C14.4051 8.6648 14.4006 8.6648 14.4126 8.61712C14.419 8.59232 14.4134 8.57904 14.3965 8.57904C14.3365 8.57904 14.3829 8.48288 14.4736 8.41904C14.5137 8.38937 14.5474 8.352 14.5728 8.30912C14.6013 8.2544 14.6147 8.24592 14.6637 8.25088C14.727 8.2576 14.7373 8.24208 14.6915 8.20752C14.6658 8.188 14.665 8.17904 14.6864 8.14352C14.7083 8.10704 14.7056 8.09184 14.6661 8.0168C14.6413 7.96992 14.6272 7.92512 14.6346 7.9176C14.6366 7.91536 14.6405 7.91536 14.6454 7.91712ZM13.5674 8.244C13.6477 8.24448 13.6506 8.24688 13.6506 8.304C13.6506 8.36288 13.6035 8.42624 13.5602 8.42624C13.5478 8.42624 13.5259 8.39648 13.5112 8.36C13.469 8.25552 13.4747 8.24352 13.5674 8.244ZM5.18464 9.83936C5.22384 9.83936 5.22368 9.892 5.18432 9.9C5.15552 9.90576 5.1064 10.0238 5.06752 10.181C5.04 10.2909 5.06752 10.9147 5.10272 10.9829C5.11872 11.0141 5.11552 11.0229 5.08352 11.0334C5.05104 11.0442 5.04688 11.0563 5.0568 11.1102C5.06224 11.141 5.07168 11.2306 5.06896 11.28H6.46864C6.50704 11.2171 6.62544 11.1133 6.64944 11.1187C6.65792 11.1206 6.68944 11.0675 6.71952 11.0051C6.75824 10.9243 6.78496 10.8909 6.8112 10.8899C6.83136 10.8893 6.8688 10.8718 6.8944 10.8512C6.91968 10.8307 6.95376 10.8139 6.96992 10.8138C6.98592 10.8134 7.0104 10.791 7.02464 10.7637C7.06208 10.6912 7.15312 10.6178 7.19264 10.6285C7.21136 10.6334 7.23104 10.6298 7.2368 10.6203C7.2424 10.6107 7.2736 10.6032 7.30608 10.6032C7.33856 10.6032 7.39408 10.588 7.4296 10.5696C7.48288 10.5421 7.49328 10.527 7.4888 10.4837C7.48464 10.4419 7.49136 10.4312 7.52144 10.4312C7.54224 10.4312 7.55856 10.4424 7.55856 10.4563C7.55856 10.4699 7.57024 10.4976 7.58464 10.5174C7.6072 10.5496 7.63584 10.5539 7.8336 10.5547C7.95664 10.5552 8.05712 10.5491 8.05712 10.5416C8.05712 10.5339 8.07904 10.5128 8.10544 10.495C8.15056 10.4645 8.15488 10.4646 8.17104 10.4947C8.1824 10.5155 8.21264 10.5274 8.2568 10.5278C8.29424 10.5283 8.35408 10.539 8.3896 10.5522C8.47392 10.5832 8.58656 10.5906 8.60144 10.5656C8.60784 10.5549 8.63184 10.5459 8.65488 10.5459C8.67792 10.5459 8.71728 10.5235 8.74176 10.4966C8.77584 10.4592 8.7984 10.4502 8.83712 10.4582C8.86496 10.4638 8.88672 10.4622 8.88576 10.4547C8.87456 10.377 8.9144 10.3749 8.98896 10.4498C9.06176 10.5227 9.13456 10.5344 9.14304 10.4741C9.14624 10.4502 9.17184 10.4187 9.19984 10.4037C9.22784 10.3888 9.26224 10.3624 9.27616 10.345C9.30976 10.303 9.45376 10.2341 9.4768 10.2488C9.48672 10.2552 9.50256 10.2461 9.512 10.2285C9.52272 10.2086 9.54128 10.201 9.56016 10.2085C9.58224 10.2171 9.58928 10.2114 9.58544 10.1882C9.57872 10.1474 9.66992 10.099 9.74896 10.1013C9.81776 10.103 9.90848 10.16 9.89616 10.1934C9.88384 10.2267 10.0608 10.2738 10.2568 10.2898C10.4013 10.3014 10.4184 10.3069 10.4365 10.3482C10.4541 10.3882 10.461 10.391 10.4941 10.3698C10.5274 10.3482 10.5389 10.3531 10.5971 10.4168C10.652 10.4771 10.6682 10.4856 10.6986 10.4688C10.7186 10.4576 10.7298 10.4395 10.7234 10.4288C10.707 10.4016 10.7829 10.3224 10.8392 10.3078C10.8648 10.3011 10.8808 10.2904 10.8746 10.284C10.8683 10.2776 10.873 10.2606 10.8846 10.2462C10.9005 10.2264 10.8998 10.2088 10.8818 10.1738C10.8624 10.1365 10.8621 10.1213 10.8808 10.0981C10.9013 10.0725 10.9074 10.0733 10.9342 10.1056C10.9736 10.1531 11.0238 10.16 11.0995 10.1275C11.1558 10.1032 11.1624 10.104 11.1875 10.141C11.2109 10.1758 11.2272 10.1794 11.3112 10.1698C11.4282 10.156 11.4539 10.1374 11.4539 10.0659C11.4539 10.0198 11.4613 10.0112 11.5005 10.0112C11.5261 10.0112 11.5518 10.0232 11.5574 10.0381C11.5736 10.0819 11.6227 10.0909 11.6592 10.0566C11.6859 10.0315 11.6986 10.0298 11.7195 10.0478C11.7405 10.0658 11.7496 10.0645 11.7621 10.0414C11.783 10.0027 11.8491 10.0216 11.8773 10.0747C11.8894 10.0974 11.9274 10.1296 11.9614 10.1462C12.0216 10.1757 12.0254 10.175 12.1011 10.1226C12.1942 10.0578 12.2128 10.056 12.2443 10.1082C12.2576 10.1302 12.2798 10.1435 12.2942 10.1378C12.3086 10.1322 12.331 10.1382 12.3438 10.1515C12.3739 10.1826 12.4464 10.2027 12.4802 10.1894C12.4946 10.1837 12.5058 10.1542 12.5058 10.1238C12.5058 10.0582 12.5283 10.0525 12.565 10.1094C12.5858 10.1419 12.5982 10.1467 12.6248 10.1312C12.6653 10.1078 12.7821 10.1392 12.796 10.1771C12.8125 10.2211 12.8536 10.2035 12.8654 10.1475C12.8766 10.0954 12.8806 10.0934 12.9654 10.1019C13.0501 10.1102 13.0547 10.1085 13.0774 10.0518C13.0909 10.0182 13.107 10.0029 13.1181 10.0054C13.1291 10.0077 13.1349 10.0272 13.1283 10.0626C13.1214 10.0997 13.1299 10.1133 13.1683 10.1285C13.2232 10.1501 13.3475 10.1784 13.4558 10.1941C13.547 10.2072 13.5635 10.2176 13.5502 10.2534C13.543 10.2726 13.5579 10.2888 13.595 10.3034C13.6256 10.3154 13.6506 10.3318 13.6506 10.34C13.6506 10.3482 13.6998 10.355 13.7602 10.355C13.845 10.355 13.8754 10.3629 13.8939 10.3898C13.9216 10.4294 13.9827 10.4579 13.9827 10.4314C13.9827 10.3995 14.1146 10.4928 14.1349 10.5387C14.1456 10.5632 14.1699 10.5883 14.1886 10.5944C14.2074 10.6005 14.2227 10.6147 14.2227 10.6259C14.2227 10.6386 14.2531 10.6427 14.3037 10.6368C14.3739 10.6288 14.3917 10.6344 14.4411 10.6822C14.4723 10.7125 14.5077 10.735 14.5192 10.7322C14.5464 10.7258 14.5781 10.808 14.5544 10.8232C14.5445 10.8293 14.5365 10.8598 14.5365 10.8906C14.5365 10.928 14.5147 10.9717 14.4717 11.021C14.4362 11.0616 14.4074 11.1046 14.4074 11.117C14.4074 11.1291 14.3947 11.144 14.3795 11.1501C14.3643 11.156 14.3517 11.1763 14.3517 11.1949C14.3517 11.213 14.3277 11.2685 14.3053 11.28C9.77792 11.2814 5.25056 11.2821 0.72336 11.2816V11.28H1.8296C1.8488 11.2664 1.9168 11.2144 1.95488 11.2144C1.99744 11.2142 2.0584 11.1952 2.10336 11.168C2.14512 11.1427 2.21008 11.1158 2.248 11.1085C2.28832 11.1005 2.332 11.0755 2.35296 11.0477L2.38928 11.0003L2.56368 11.061C2.69376 11.1058 2.75504 11.1176 2.80432 11.1082C2.844 11.1005 2.87024 11.1029 2.87024 11.1144C2.87024 11.1248 2.90624 11.1389 2.94992 11.1456C2.9976 11.153 3.04368 11.1749 3.06512 11.2003L3.10112 11.2429L3.10672 11.2016C3.11024 11.1763 3.13008 11.1558 3.15824 11.1485C3.21664 11.1333 3.24496 11.1514 3.2336 11.1963C3.2288 11.2149 3.25248 11.2718 3.26464 11.28H3.3448C3.34932 11.2411 3.34878 11.2017 3.3432 11.1629C3.33456 11.1005 3.3384 11.0688 3.35456 11.0581C3.37008 11.0478 3.36416 11.043 3.33648 11.0429C3.3136 11.0427 3.29376 11.036 3.29264 11.0282C3.27472 10.8939 3.28208 10.8685 3.3464 10.8406C3.38176 10.8253 3.4408 10.8163 3.47744 10.8206C3.51408 10.825 3.55312 10.8206 3.56464 10.811C3.57856 10.7992 3.59328 10.8126 3.60928 10.8528C3.63216 10.9099 3.636 10.9115 3.71776 10.8997C3.85664 10.8797 3.928 10.8834 4.02048 10.916C4.148 10.9608 4.34656 10.9544 4.31808 10.9066C4.31232 10.8971 4.32944 10.8894 4.35584 10.8894C4.38208 10.8894 4.40768 10.9006 4.41264 10.9141C4.41776 10.9275 4.44 10.94 4.46224 10.9419C4.48464 10.9435 4.51248 10.9584 4.524 10.9747C4.55648 11.0208 4.56352 11.0099 4.55152 10.9325C4.54352 10.8813 4.52992 10.8594 4.50352 10.8547C4.46416 10.8475 4.4208 10.8005 4.4208 10.7646C4.4208 10.7525 4.43952 10.7336 4.4624 10.7226L4.504 10.7026L4.4576 10.6832C4.41776 10.6666 4.41584 10.6624 4.44368 10.6506C4.46656 10.641 4.4728 10.6242 4.4648 10.5915C4.4568 10.5579 4.46272 10.5426 4.488 10.5328C4.50688 10.5256 4.53472 10.5056 4.54992 10.488C4.56512 10.4707 4.59472 10.447 4.61552 10.4357C4.6464 10.4187 4.65776 10.4214 4.67616 10.4518C4.6984 10.4886 4.69856 10.4888 4.73744 10.4515C4.77104 10.4192 4.77472 10.4006 4.76432 10.3184C4.7536 10.2349 4.7568 10.2206 4.7896 10.2026C4.81024 10.191 4.82704 10.1706 4.82704 10.1571C4.82704 10.1438 4.84368 10.1144 4.86384 10.0918C4.88432 10.0694 4.9008 10.0462 4.9008 10.0406C4.9008 10.0234 4.97328 9.95376 4.99152 9.95376C4.99639 9.95351 5.0011 9.95196 5.00516 9.94925C5.00921 9.94655 5.01246 9.9428 5.01456 9.9384C5.02464 9.91344 5.15216 9.83936 5.18464 9.83936Z" fill="#009FDD"/>
</svg>
