<svg width="15" height="12" viewBox="0 0 15 12" fill="none" xmlns="http://www.w3.org/2000/svg">
<path d="M13.4446 5.12241e-05H11.6668V1.33338C11.6668 1.46179 11.6415 1.58893 11.5924 1.70756C11.5432 1.82619 11.4712 1.93398 11.3804 2.02478C11.2896 2.11557 11.1818 2.1876 11.0632 2.23673C10.9446 2.28587 10.8174 2.31116 10.689 2.31116C10.5606 2.31116 10.4335 2.28587 10.3148 2.23673C10.1962 2.1876 10.0884 2.11557 9.99761 2.02478C9.90682 1.93398 9.83479 1.82619 9.78566 1.70756C9.73652 1.58893 9.71123 1.46179 9.71123 1.33338V5.12241e-05H4.53345V1.33338C4.53345 1.59271 4.43043 1.84141 4.24706 2.02478C4.06369 2.20815 3.81499 2.31116 3.55567 2.31116C3.29635 2.31116 3.04765 2.20815 2.86428 2.02478C2.68091 1.84141 2.57789 1.59271 2.57789 1.33338V5.12241e-05H0.800114C0.694347 -0.00115239 0.589412 0.0188662 0.491516 0.0589232C0.39362 0.0989803 0.304751 0.158262 0.230165 0.233263C0.155578 0.308263 0.0967898 0.39746 0.0572758 0.495576C0.0177617 0.593692 -0.00167532 0.698737 0.000114245 0.804496V10.7512C-0.00165154 10.8551 0.0170672 10.9583 0.0552012 11.0549C0.0933353 11.1516 0.150138 11.2398 0.222364 11.3145C0.29459 11.3892 0.380825 11.4489 0.476144 11.4903C0.571463 11.5317 0.673997 11.5539 0.777892 11.5556H13.4446C13.5485 11.5539 13.651 11.5317 13.7463 11.4903C13.8416 11.4489 13.9279 11.3892 14.0001 11.3145C14.0723 11.2398 14.1291 11.1516 14.1672 11.0549C14.2054 10.9583 14.2241 10.8551 14.2223 10.7512V0.804496C14.2241 0.700602 14.2054 0.597377 14.1672 0.500719C14.1291 0.40406 14.0723 0.315861 14.0001 0.241158C13.9279 0.166456 13.8416 0.106713 13.7463 0.0653436C13.651 0.023974 13.5485 0.0017875 13.4446 5.12241e-05ZM3.55567 8.88894H2.66678V8.00005H3.55567V8.88894ZM3.55567 6.66672H2.66678V5.77783H3.55567V6.66672ZM3.55567 4.4445H2.66678V3.55561H3.55567V4.4445ZM6.22234 8.88894H5.33345V8.00005H6.22234V8.88894ZM6.22234 6.66672H5.33345V5.77783H6.22234V6.66672ZM6.22234 4.4445H5.33345V3.55561H6.22234V4.4445ZM8.889 8.88894H8.00011V8.00005H8.889V8.88894ZM8.889 6.66672H8.00011V5.77783H8.889V6.66672ZM8.889 4.4445H8.00011V3.55561H8.889V4.4445ZM11.5557 8.88894H10.6668V8.00005H11.5557V8.88894ZM11.5557 6.66672H10.6668V5.77783H11.5557V6.66672ZM11.5557 4.4445H10.6668V3.55561H11.5557V4.4445Z" fill="#009FDD"/>
</svg>
