<svg width="616" height="448" viewBox="0 0 616 448" fill="none" xmlns="http://www.w3.org/2000/svg">
<g clip-path="url(#clip0_4340_24213)">
<g opacity="0.25">
<path d="M363.18 349.29C372.77 329.81 388.24 313.69 405.35 300.59C419.15 290.03 434.75 279.76 451.08 273.69C465.57 268.31 468.78 280.96 480.48 285.29C487.95 288.06 496.25 283.83 502.13 278.44C507.8 273.24 512.49 266.73 519.26 262.85C524.25 259.98 531.7 258.55 536.94 261.63C543.44 265.45 542.34 274.84 551.12 275.91C555.21 276.41 559.29 274.94 562.99 273.12C571.7 268.85 580.33 264.9 589.68 262.15C598.13 259.67 609.07 258.85 613.94 266.18C618.62 273.21 614.18 282.75 608.54 289.04C594.98 304.19 574.94 312.37 554.79 315.05C549.29 315.78 543.64 316.17 538.56 318.41C533.49 320.65 529 325.26 528.8 330.8C528.69 333.78 529.81 336.69 529.85 339.68C529.95 347.96 521.78 354.15 513.7 356C492.92 360.76 479.38 342.5 459.83 339.7C437.67 336.53 403.56 339.98 388.17 358.64" fill="url(#paint0_linear_4340_24213)"/>
</g>
<path opacity="0.5" d="M399.703 340.18C421.113 320.21 449.543 306.96 479.263 303.11C497.783 300.71 516.553 301.86 535.153 300.18C553.743 298.5 573.023 293.48 586.423 281.08" stroke="white" stroke-width="1.74" stroke-linecap="round" stroke-linejoin="round"/>
<path opacity="0.25" d="M496.747 257.76C507.817 251.36 519.707 242.46 516.567 228.88C515.537 224.43 512.257 220.37 512.817 215.83C513.187 212.84 515.177 210.35 516.637 207.71C520.097 201.43 520.577 193.59 517.917 186.93C515.057 179.78 509.007 174.4 505.227 167.69C502.137 162.21 500.637 155.85 500.937 149.56C489.247 150.79 479.147 158.16 467.827 161.35C459.167 163.79 449.927 163.74 441.387 166.55C425.807 171.67 414.077 186.87 413.087 203.24C405.587 202.65 397.887 206.04 393.257 211.97C388.337 218.28 386.017 226.81 387.247 234.71C392.347 267.63 409.287 293.81 430.967 318.23C426.247 312.92 440.727 296.41 443.527 293.2C455.697 279.22 472.397 271.17 488.347 262.41C490.887 261.01 493.797 259.48 496.767 257.76H496.747Z" fill="url(#paint1_linear_4340_24213)"/>
<g opacity="0.5">
<path d="M433.575 274.03C430.815 259.91 434.505 245.37 439.025 231.72C443.425 218.41 448.695 205.28 456.295 193.5C463.895 181.72 473.975 171.3 486.405 164.82" stroke="white" stroke-width="1.74" stroke-linecap="round" stroke-linejoin="round"/>
<path d="M437.314 178.13C437.014 190.97 439.444 206.18 443.884 218.22" stroke="white" stroke-width="1.74" stroke-linecap="round" stroke-linejoin="round"/>
<path d="M445.844 213.46C459.494 202.83 481.294 195.13 498.594 194.54" stroke="white" stroke-width="1.74" stroke-linecap="round" stroke-linejoin="round"/>
<path d="M410.586 219.09C428.726 224.85 431.796 250.47 432.936 257.72" stroke="white" stroke-width="1.74" stroke-linecap="round" stroke-linejoin="round"/>
<path d="M436.195 240.96C448.685 230.15 470.165 218.61 484.705 220.88" stroke="white" stroke-width="1.74" stroke-linecap="round" stroke-linejoin="round"/>
<path d="M433.555 272.71C443.485 259.48 470.585 243.31 485.115 245.58" stroke="white" stroke-width="1.74" stroke-linecap="round" stroke-linejoin="round"/>
<path d="M466.35 168.82C462.79 174.15 462.33 180.13 463.1 184.17" stroke="white" stroke-width="1.74" stroke-linecap="round" stroke-linejoin="round"/>
<path d="M466.578 180.21C472.448 176.49 480.618 175.01 489.628 176.41" stroke="white" stroke-width="1.74" stroke-linecap="round" stroke-linejoin="round"/>
</g>
<g opacity="0.25">
<path d="M271.909 373.03C256.929 332 218.529 293.71 180.699 271.86C171.479 266.53 158.019 262.5 153.789 275.22C151.069 283.4 141.539 281.27 136.099 277.49C129.349 272.8 125.409 265.2 119.679 259.47C115.069 254.87 109.209 251.34 102.779 250.3C96.3489 249.26 89.3489 250.94 84.6289 255.44C81.0489 258.85 78.9089 263.65 74.9489 266.6C68.3089 271.56 58.6489 269.71 51.5789 265.38C44.5089 261.05 38.9489 254.63 32.0989 249.97C25.2489 245.3 16.0289 242.54 8.73891 246.49C-0.921085 251.72 -1.80108 265.67 2.29891 275.86C4.82891 282.15 8.82891 291.28 13.6389 296.2C20.4689 303.2 30.3989 307.85 39.8889 309.72C46.8889 311.09 54.1189 311.05 61.0589 312.7C63.5589 313.3 66.4489 314.35 66.9489 317.24C67.6689 321.41 62.5089 323.97 59.4989 325.48C54.2889 328.11 49.1289 333.83 51.5589 339.14C53.0889 342.47 56.9889 343.95 60.5989 344.57C71.4389 346.41 82.1889 343.28 92.4689 340.12C98.7189 338.19 104.209 334.28 110.629 332.62C113.969 331.76 122.509 331.38 121.579 337.02C121.289 338.78 120.039 340.23 118.679 341.39C117.319 342.55 115.799 343.55 114.669 344.93C109.739 350.93 114.629 357.98 121.099 359.54C126.069 360.74 131.259 359.46 136.249 358.3C168.819 350.69 202.959 347.75 235.749 354.39C242.729 355.81 250.369 358.19 253.869 364.4" fill="url(#paint2_linear_4340_24213)"/>
</g>
<path opacity="0.5" d="M236.792 347.17C212.832 325.01 181.092 310.37 147.952 306.22C127.302 303.63 106.382 305 85.6519 303.21C64.9219 301.42 43.4119 295.92 28.4219 282.16" stroke="white" stroke-width="1.74" stroke-linecap="round" stroke-linejoin="round"/>
<g style="mix-blend-mode:multiply" opacity="0.25">
<path d="M244.243 350.35C244.243 350.35 187.293 312.47 171.203 274.03C182.073 276.97 189.093 280.5 196.723 286.71C204.953 298.34 224.543 316.17 237.833 327.75C239.723 334.1 241.853 341.55 244.253 350.35H244.243Z" fill="#FACAAF"/>
</g>
<path opacity="0.25" d="M242.092 337.34C239.952 323.96 234.062 310.68 231.742 297.07C228.032 275.26 227.462 253.34 231.482 231.67C234.912 213.2 240.632 193.87 234.372 175.19C232.712 170.23 229.652 164.86 223.212 164.92C220.632 164.94 218.182 166.02 216.322 167.67C211.632 171.83 210.762 177.81 210.002 183.52L207.452 202.62C206.622 208.83 197.162 209.58 195.262 203.53C195.242 203.48 195.232 203.43 195.212 203.38C193.662 198.3 193.942 192.94 194.352 187.7C195.242 176.31 196.702 164.83 194.952 153.48C192.842 139.75 185.312 125.82 170.642 120.67C165.442 118.84 159.692 118.61 154.432 120.11C139.742 124.31 136.762 138.16 139.712 149.76C141.782 157.92 146.392 165.32 150.602 172.76C160.882 190.93 155.332 208.2 157.912 228.51C163.372 271.55 205.482 313.14 242.092 337.34Z" fill="url(#paint3_linear_4340_24213)"/>
<path opacity="0.25" d="M161.641 145.02C192.411 182.26 181.291 270.17 234.921 317.62L161.641 145.02Z" fill="url(#paint4_linear_4340_24213)"/>
<path opacity="0.5" d="M221.705 188.74C225.225 207.56 213.125 228.69 210.315 240.4C207.505 252.11 206.025 272.05 209.035 283.82" stroke="white" stroke-width="1.74" stroke-linecap="round" stroke-linejoin="round"/>
<path d="M133.32 372.65C131.99 365.12 110.98 318.21 86.6504 330.77C72.2004 338.23 74.8004 365.71 97.3704 386.47C92.9404 382.19 87.8204 377.33 81.7804 376.13C78.5104 375.48 74.5204 376.99 72.0704 379.24C69.8904 381.25 69.2504 384.42 69.1504 387.38C68.7804 398.15 74.4004 408.93 83.4304 414.8C78.4404 412.01 74.1104 408.52 68.4204 408.03C66.5704 407.87 63.4304 408.93 62.5704 410.58C61.6404 412.37 61.7004 419.1 72.6904 424.12C27.9004 415.62 25.2904 434.72 41.3904 434.72H173.44" fill="#E7F7FF"/>
<path d="M217.257 335.39C215.127 323.34 192.937 247.6 153.997 267.72C130.867 279.67 135.027 323.66 171.157 356.89C164.067 350.03 155.877 342.25 146.197 340.33C140.967 339.29 134.567 341.7 130.657 345.31C127.177 348.53 126.147 353.61 125.987 358.35C125.407 375.59 134.387 392.84 148.847 402.25C140.857 397.79 133.927 392.19 124.807 391.41C121.847 391.16 116.817 392.85 115.447 395.49C113.957 398.36 114.057 409.13 131.647 417.17C59.9373 403.57 55.7573 434.14 81.5273 434.14H251.887" fill="#D6F4FF"/>
<path d="M510.495 372.65C511.825 365.12 532.835 318.21 557.165 330.77C571.615 338.23 569.015 365.71 546.445 386.47C550.875 382.19 555.995 377.33 562.035 376.13C565.305 375.48 569.295 376.99 571.745 379.24C573.925 381.25 574.565 384.42 574.665 387.38C575.035 398.15 569.415 408.93 560.385 414.8C565.375 412.01 569.705 408.52 575.395 408.03C577.245 407.87 580.385 408.93 581.245 410.58C582.175 412.37 582.115 419.1 571.125 424.12C615.915 415.62 618.525 434.72 602.425 434.72H470.375" fill="#E7F7FF"/>
<path d="M426.557 335.39C428.687 323.34 450.878 247.6 489.818 267.72C512.948 279.67 508.788 323.66 472.658 356.89C479.747 350.03 487.937 342.25 497.617 340.33C502.847 339.29 509.247 341.7 513.157 345.31C516.637 348.53 517.668 353.61 517.828 358.35C518.408 375.59 509.427 392.84 494.967 402.25C502.957 397.79 509.888 392.19 519.008 391.41C521.968 391.16 526.997 392.85 528.367 395.49C529.857 398.36 529.757 409.13 512.167 417.17C583.877 403.57 588.057 434.14 562.287 434.14H391.938" fill="#D6F4FF"/>
<path d="M254.797 86.1701L265.357 91.8101L260.077 78.0701" fill="#009FDD"/>
<path d="M244.346 90.94C256.678 90.94 266.676 80.9426 266.676 68.61C266.676 56.2775 256.678 46.28 244.346 46.28C232.013 46.28 222.016 56.2775 222.016 68.61C222.016 80.9426 232.013 90.94 244.346 90.94Z" fill="#009FDD"/>
<path d="M243.032 55.97C247.542 55.57 251.532 58.91 251.932 63.42C252.052 64.72 251.822 66.04 251.272 67.34L250.492 69.27L247.762 76.34L244.862 76.6L241.962 76.86L238.082 70.38L236.932 68.62C236.162 67.44 235.702 66.18 235.592 64.88C235.192 60.37 238.532 56.38 243.042 55.98M242.932 54.73C237.732 55.19 233.882 59.79 234.342 64.99C234.482 66.6 235.062 68.05 235.882 69.31L241.312 78.18L244.982 77.85L248.652 77.52L252.432 67.84C253.022 66.45 253.332 64.92 253.192 63.31C252.732 58.11 248.132 54.26 242.932 54.72V54.73Z" fill="#66C0ED"/>
<path d="M245.594 84.85C243.564 85.03 241.764 83.53 241.584 81.49L241.344 78.8L248.704 78.15L248.944 80.84C249.124 82.87 247.624 84.67 245.584 84.85H245.594Z" fill="#66C0ED"/>
<path d="M239.851 66.27C239.531 66.27 239.251 66.02 239.221 65.7C239.191 65.35 239.441 65.05 239.791 65.02L247.791 64.31C248.141 64.29 248.441 64.53 248.471 64.88C248.501 65.23 248.251 65.53 247.901 65.56L239.901 66.27C239.901 66.27 239.861 66.27 239.841 66.27H239.851Z" fill="#66C0ED"/>
<path d="M244.911 77.8201C244.591 77.8201 244.311 77.5701 244.281 77.2501L243.221 65.3501C243.191 65.0001 243.441 64.7001 243.791 64.6701C244.141 64.6301 244.441 64.8901 244.471 65.2401L245.531 77.1401C245.561 77.4901 245.311 77.7901 244.961 77.8201C244.941 77.8201 244.921 77.8201 244.901 77.8201H244.911Z" fill="#66C0ED"/>
<path d="M370.32 107.3L360.68 112.44L365.5 99.91" fill="#DBA51D"/>
<path d="M379.847 111.65C391.097 111.65 400.217 102.53 400.217 91.28C400.217 80.03 391.097 70.91 379.847 70.91C368.597 70.91 359.477 80.03 359.477 91.28C359.477 102.53 368.597 111.65 379.847 111.65Z" fill="#FCC82B"/>
<path d="M391.147 93.3701C391.377 92.5301 391.497 91.6401 391.497 90.7301C391.497 89.8801 391.397 89.0601 391.197 88.2701L389.327 88.4801C389.097 87.5201 388.727 86.6201 388.237 85.8001L389.727 84.6101C389.287 83.8601 388.747 83.1401 388.107 82.5001C387.857 82.2501 387.597 82.0101 387.327 81.7901C387.257 81.7301 387.187 81.6701 387.117 81.6201C386.807 81.3801 386.487 81.1601 386.157 80.9701L384.967 82.4601C384.877 82.4001 384.777 82.3501 384.687 82.2901C384.577 82.2301 384.467 82.1701 384.357 82.1101C383.717 81.7701 383.027 81.5001 382.317 81.3201L382.527 79.4301C381.687 79.2001 380.797 79.0901 379.887 79.0901C379.037 79.0901 378.217 79.1901 377.427 79.3901L377.637 81.2701C376.677 81.5001 375.777 81.8601 374.947 82.3501L373.767 80.8701C373.007 81.3101 372.297 81.8501 371.657 82.4901C371.057 83.0901 370.547 83.7501 370.127 84.4401L371.597 85.6201C371.087 86.4401 370.697 87.3301 370.457 88.2901L368.577 88.0801C368.347 88.9201 368.227 89.8101 368.227 90.7201C368.227 91.5701 368.327 92.4001 368.527 93.1801L370.397 92.9701C370.627 93.9301 370.997 94.8301 371.477 95.6601L370.007 96.8401C370.447 97.6001 370.987 98.3101 371.627 98.9501C372.227 99.5501 372.887 100.06 373.577 100.48L374.747 99.0101C375.567 99.5201 376.457 99.9101 377.417 100.16L377.207 102.02C378.047 102.25 378.937 102.37 379.847 102.37C380.697 102.37 381.517 102.27 382.307 102.07L382.097 100.22C383.057 99.9901 383.967 99.6201 384.797 99.1301L385.967 100.59C386.717 100.15 387.437 99.6101 388.077 98.9701C388.677 98.3701 389.187 97.7101 389.607 97.0201L388.147 95.8501C388.657 95.0301 389.037 94.1301 389.287 93.1801L391.157 93.3901L391.147 93.3701ZM385.827 90.9201C385.727 94.0501 383.177 96.6101 380.037 96.7101C376.577 96.8201 373.747 93.9901 373.857 90.5301C373.957 87.4001 376.507 84.8401 379.647 84.7401C383.107 84.6301 385.937 87.4601 385.827 90.9201Z" fill="#DBA51D"/>
<path d="M440.801 368.08H253.641V424.46H440.801V368.08Z" fill="white"/>
<path d="M136.491 424.46H253.641V368.08H136.491V424.46Z" fill="#EDEDED"/>
<path d="M239.273 358.27V372.44H423.813C430.773 372.44 436.423 378.08 436.423 385.05V407.48C436.423 414.44 430.783 420.09 423.813 420.09H239.273V434.26H430.533C442.593 434.26 452.363 424.49 452.363 412.43V380.09C452.363 368.03 442.593 358.26 430.533 358.26H239.273V358.27Z" fill="#3F87CA"/>
<path d="M239.272 358.27H125.742V372.44H239.272V358.27Z" fill="#2661B3"/>
<path d="M239.272 420.1H125.742V434.27H239.272V420.1Z" fill="#2661B3"/>
<path d="M136.492 383.88H253.642" stroke="#CCCCCC" stroke-width="4.35" stroke-miterlimit="10"/>
<path d="M136.492 399.47H253.642" stroke="#CCCCCC" stroke-width="4.35" stroke-miterlimit="10"/>
<path d="M136.492 412.4H253.642" stroke="#CCCCCC" stroke-width="4.35" stroke-miterlimit="10"/>
<path d="M401.481 383.88L253.641 386.05V381.7L401.481 383.88Z" fill="#E2E2E2"/>
<path d="M416.751 399.47L253.641 401.64V397.29L416.751 399.47Z" fill="#E2E2E2"/>
<path d="M401.481 412.4L253.641 414.58V410.23L401.481 412.4Z" fill="#E2E2E2"/>
<path d="M168.385 262.75H320.195V358.28H168.385C160.555 358.28 154.195 351.92 154.195 344.09V276.95C154.195 269.12 160.555 262.76 168.385 262.76V262.75Z" fill="#DBA51D"/>
<path d="M266.783 348.47H424.953V272.55H266.783V348.47Z" fill="white"/>
<path d="M439.324 262.75V276.92H283.774C276.814 276.92 271.164 282.56 271.164 289.53V331.5C271.164 338.46 276.804 344.11 283.774 344.11H439.324V358.28H277.064C265.004 358.28 255.234 348.51 255.234 336.45V284.58C255.234 272.52 265.004 262.75 277.064 262.75H439.324Z" fill="#FCC82B"/>
<path d="M306.102 288.35L424.952 286.17V290.53L306.102 288.35Z" fill="#E5E5E5"/>
<path d="M281.492 298.59L424.952 296.41V300.76L281.492 298.59Z" fill="#E5E5E5"/>
<path d="M290.836 323.47L424.956 321.3V325.65L290.836 323.47Z" fill="#E5E5E5"/>
<path d="M306.102 336.41L424.952 334.23V338.58L306.102 336.41Z" fill="#E5E5E5"/>
<path d="M420.938 244.58H208.578V264.16H420.938V244.58Z" fill="white"/>
<path d="M420.938 178.76H208.578V198.34H420.938V178.76Z" fill="#5B8EB1"/>
<path d="M427.899 159.18H197.469V178.76H427.899V159.18Z" fill="#F0B651"/>
<path d="M420.942 198.33H213.852V217.91H420.942V198.33Z" fill="#E96305"/>
<path d="M418.857 217.91H223.727V244.58H418.857V217.91Z" fill="#726865"/>
<path d="M245.852 231.25H269.202" stroke="#A8A4A4" stroke-width="7.81" stroke-miterlimit="10"/>
<path d="M282 231.25H396.27" stroke="#A8A4A4" stroke-width="7.81" stroke-miterlimit="10"/>
<path d="M230.508 208.12H396.268" stroke="#E69074" stroke-width="7.81" stroke-miterlimit="10"/>
<path d="M313.391 188.55H412.651" stroke="#F0EEE0" stroke-width="7.81" stroke-miterlimit="10"/>
<path d="M208.578 168.97H412.648" stroke="#F0EEE0" stroke-width="7.81" stroke-miterlimit="10"/>
<path opacity="0.2" d="M170.26 339.01C162.89 336.98 157.28 330.73 156.84 323.1C156.82 322.73 156.81 322.36 156.81 322C156.81 321.9 156.81 321.78 156.83 321.67C156.81 321.57 156.81 321.45 156.81 321.34C156.81 320.98 156.83 320.61 156.84 320.24C157.28 312.61 162.89 306.36 170.26 304.33C198.02 296.65 218.41 271.2 218.41 241C218.41 236.94 218.05 232.96 217.33 229.11C217.21 228.45 217.08 227.8 216.94 227.16C216.84 226.69 216.74 226.21 216.62 225.74C216.62 225.71 216.62 225.68 216.6 225.66C216.54 225.41 216.48 225.17 216.41 224.92C216.3 224.45 216.18 223.99 216.05 223.52C215.86 222.81 215.65 222.11 215.43 221.41H213.19C213.27 221.64 213.34 221.87 213.4 222.1C213.42 222.14 213.43 222.18 213.44 222.22C213.57 222.62 213.69 223.02 213.8 223.41C213.88 223.67 213.95 223.93 214.01 224.19C214.13 224.6 214.24 225.01 214.34 225.43C214.41 225.69 214.48 225.95 214.53 226.21C214.64 226.63 214.73 227.05 214.82 227.47C214.85 227.61 214.89 227.76 214.91 227.9C214.91 227.95 214.94 228.01 214.94 228.07C215.04 228.55 215.13 229.03 215.22 229.52C215.91 233.26 216.27 237.13 216.27 241.03C216.27 269.51 197.11 294.71 169.69 302.29C161.2 304.63 155.18 311.8 154.71 320.15C154.68 320.56 154.68 320.96 154.68 321.37C154.68 321.48 154.68 321.6 154.68 321.7C154.68 321.81 154.68 321.93 154.68 322.03C154.68 322.44 154.68 322.84 154.71 323.25C155.18 331.6 161.21 338.77 169.69 341.11C197.11 348.7 216.27 373.9 216.27 402.37C216.27 406.27 215.91 410.14 215.22 413.88C214.26 419.21 212.61 424.4 210.29 429.32H95.13C92.81 424.4 91.15 419.21 90.19 413.87C89.5 410.14 89.15 406.26 89.15 402.36C89.15 373.88 108.31 348.68 135.73 341.1C144.22 338.77 150.23 331.59 150.71 323.24C150.74 322.83 150.74 322.43 150.74 322.02C150.74 321.92 150.74 321.8 150.74 321.69C150.74 321.59 150.74 321.47 150.74 321.36C150.74 320.95 150.74 320.55 150.71 320.14C150.23 311.79 144.21 304.63 135.73 302.28C108.31 294.69 89.15 269.5 89.15 241.02C89.15 237.12 89.5 233.25 90.19 229.51C90.31 228.84 90.44 228.18 90.59 227.51C90.59 227.49 90.59 227.48 90.59 227.46C90.73 226.82 90.88 226.17 91.04 225.53C91.04 225.5 91.06 225.46 91.07 225.42C91.2 224.93 91.32 224.43 91.47 223.95C91.47 223.91 91.5 223.87 91.5 223.83C91.54 223.64 91.6 223.45 91.66 223.26C91.75 222.9 91.86 222.56 91.97 222.21C91.97 222.17 92 222.13 92.01 222.09C92.07 221.86 92.15 221.63 92.22 221.4H89.98C89.76 222.1 89.56 222.8 89.36 223.51C89.22 223.98 89.11 224.43 89 224.91C88.93 225.16 88.87 225.4 88.81 225.65C88.81 225.68 88.79 225.71 88.79 225.73C88.67 226.2 88.57 226.68 88.47 227.15C88.33 227.79 88.2 228.44 88.08 229.1C87.36 232.96 87 236.93 87 240.99C87 271.19 107.39 296.64 135.15 304.32C142.51 306.35 148.13 312.6 148.56 320.23C148.59 320.6 148.59 320.97 148.59 321.33C148.59 321.44 148.59 321.56 148.59 321.66C148.59 321.77 148.59 321.89 148.59 321.99C148.59 322.35 148.59 322.72 148.56 323.09C148.13 330.72 142.51 336.97 135.15 339C107.39 346.69 87 372.13 87 402.33C87 406.39 87.36 410.37 88.08 414.22C89.18 420.29 91.13 426.06 93.77 431.42H211.62C214.27 426.07 216.21 420.3 217.31 414.22C218.03 410.36 218.39 406.39 218.39 402.33C218.39 372.13 197.99 346.69 170.24 339L170.26 339.01Z" fill="#399DE3"/>
<path d="M216.276 402.34C216.276 406.24 215.916 410.11 215.226 413.85C214.266 419.18 212.616 424.37 210.296 429.29H95.1362C92.8162 424.37 91.1563 419.18 90.1963 413.84C89.5063 410.11 89.1562 406.23 89.1562 402.33C89.1562 373.85 108.316 348.65 135.736 341.07C144.226 338.74 150.236 331.56 150.716 323.21C150.746 322.8 150.746 322.4 150.746 321.99C150.746 321.89 150.746 321.77 150.746 321.66C150.746 321.56 150.746 321.44 150.746 321.33C150.746 320.92 150.746 320.52 150.716 320.11C150.236 311.76 144.216 304.6 135.736 302.25C108.316 294.66 89.1562 269.47 89.1562 240.99C89.1562 237.09 89.5063 233.22 90.1963 229.48C90.3163 228.81 90.4462 228.15 90.5962 227.48C90.5962 227.46 90.5962 227.45 90.5962 227.43C90.7362 226.79 90.8862 226.14 91.0462 225.5C91.0462 225.47 91.0662 225.43 91.0762 225.39C91.2162 224.86 91.3462 224.33 91.5062 223.8C91.6462 223.26 91.8062 222.72 91.9762 222.18C92.0562 221.91 92.1462 221.64 92.2262 221.38H213.186C213.266 221.64 213.356 221.91 213.436 222.18C213.566 222.58 213.686 222.98 213.796 223.37C213.876 223.63 213.946 223.89 214.006 224.15C214.126 224.56 214.236 224.97 214.336 225.39C214.406 225.65 214.476 225.91 214.526 226.17C214.636 226.59 214.726 227.01 214.816 227.43C214.856 227.62 214.896 227.83 214.946 228.03C215.046 228.51 215.136 228.99 215.226 229.48C215.916 233.22 216.276 237.09 216.276 240.99C216.276 269.47 197.116 294.67 169.696 302.25C161.206 304.59 155.186 311.76 154.716 320.11C154.686 320.52 154.686 320.92 154.686 321.33C154.686 321.44 154.686 321.56 154.686 321.66C154.686 321.77 154.686 321.89 154.686 321.99C154.686 322.4 154.686 322.8 154.716 323.21C155.186 331.56 161.216 338.73 169.696 341.07C197.116 348.66 216.276 373.86 216.276 402.33V402.34Z" fill="white"/>
<path opacity="0.5" d="M216.276 402.34C216.276 406.24 215.916 410.11 215.226 413.85C214.266 419.18 212.616 424.37 210.296 429.29H95.1362C92.8162 424.37 91.1563 419.18 90.1963 413.84C89.5063 410.11 89.1562 406.23 89.1562 402.33C89.1562 373.85 108.316 348.65 135.736 341.07C144.226 338.74 150.236 331.56 150.716 323.21C150.746 322.8 150.746 322.4 150.746 321.99C150.746 321.89 150.746 321.77 150.746 321.66C150.746 321.56 150.746 321.44 150.746 321.33C150.746 320.92 150.746 320.52 150.716 320.11C150.236 311.76 144.216 304.6 135.736 302.25C108.316 294.66 89.1562 269.47 89.1562 240.99C89.1562 237.09 89.5063 233.22 90.1963 229.48C90.3163 228.81 90.4462 228.15 90.5962 227.48C90.5962 227.46 90.5962 227.45 90.5962 227.43C90.7362 226.79 90.8862 226.14 91.0462 225.5C91.0462 225.47 91.0662 225.43 91.0762 225.39C91.2162 224.86 91.3462 224.33 91.5062 223.8C91.6462 223.26 91.8062 222.72 91.9762 222.18C92.0562 221.91 92.1462 221.64 92.2262 221.38H213.186C213.266 221.64 213.356 221.91 213.436 222.18C213.566 222.58 213.686 222.98 213.796 223.37C213.876 223.63 213.946 223.89 214.006 224.15C214.126 224.56 214.236 224.97 214.336 225.39C214.406 225.65 214.476 225.91 214.526 226.17C214.636 226.59 214.726 227.01 214.816 227.43C214.856 227.62 214.896 227.83 214.946 228.03C215.046 228.51 215.136 228.99 215.226 229.48C215.916 233.22 216.276 237.09 216.276 240.99C216.276 269.47 197.116 294.67 169.696 302.25C161.206 304.59 155.186 311.76 154.716 320.11C154.686 320.52 154.686 320.92 154.686 321.33C154.686 321.44 154.686 321.56 154.686 321.66C154.686 321.77 154.686 321.89 154.686 321.99C154.686 322.4 154.686 322.8 154.716 323.21C155.186 331.56 161.216 338.73 169.696 341.07C197.116 348.66 216.276 373.86 216.276 402.33V402.34Z" fill="#D5EAF8"/>
<path d="M100.281 278.43C100.281 278.43 110.301 294.86 134.341 302.41C140.501 304.22 142.571 305.55 146.111 308.82C149.651 312.09 150.861 317.83 150.731 322.37C150.681 325.89 152.701 377.36 152.701 383.77C152.701 389.82 153.481 385.34 153.311 384.04C153.931 347.62 154.681 320.82 154.681 320.82C154.681 320.82 156.861 309.37 160.231 307.79C163.601 306.21 175.831 300.53 180.831 299.13C185.841 297.73 197.931 286.71 197.931 286.71C197.931 286.71 213.291 264.8 214.231 262C215.171 259.19 207.281 258.93 207.281 258.93L100.281 278.43Z" fill="#DBA51D"/>
<path d="M158.23 279.569C190.427 274.521 215.683 265.037 214.64 258.386C213.597 251.735 186.651 250.435 154.454 255.483C122.257 260.531 97.0015 270.015 98.0443 276.666C99.087 283.317 126.033 284.617 158.23 279.569Z" fill="#FBCD34"/>
<g style="mix-blend-mode:screen" opacity="0.5">
<path d="M135.411 294.2C134.721 294.2 134.021 294.09 133.331 293.85C128.731 292.27 124.481 290.26 120.681 287.87C117.681 285.99 116.781 282.03 118.661 279.03C120.541 276.03 124.501 275.13 127.501 277.01C130.471 278.87 133.831 280.46 137.501 281.72C140.851 282.87 142.631 286.52 141.481 289.87C140.571 292.53 138.081 294.2 135.421 294.2H135.411Z" fill="white"/>
<path d="M110.345 275.28C108.225 275.28 106.155 274.23 104.925 272.31C93.7445 254.74 96.6245 235.01 96.7545 234.18C97.2945 230.68 100.575 228.28 104.065 228.82C107.555 229.36 109.955 232.62 109.435 236.11C109.395 236.37 107.255 252.07 115.755 265.43C117.655 268.42 116.775 272.38 113.785 274.28C112.715 274.96 111.525 275.28 110.345 275.28Z" fill="white"/>
</g>
<g style="mix-blend-mode:screen" opacity="0.5">
<path d="M135.411 348.43C134.721 348.43 134.021 348.54 133.331 348.78C128.731 350.36 124.481 352.37 120.681 354.76C117.681 356.64 116.781 360.6 118.661 363.6C120.541 366.6 124.501 367.5 127.501 365.62C130.471 363.76 133.831 362.17 137.501 360.91C140.851 359.76 142.631 356.11 141.481 352.76C140.571 350.1 138.081 348.43 135.421 348.43H135.411Z" fill="white"/>
<path d="M110.345 367.34C108.225 367.34 106.155 368.39 104.925 370.31C93.7445 387.88 96.6245 407.61 96.7545 408.44C97.2945 411.94 100.575 414.34 104.065 413.8C107.555 413.26 109.955 410 109.435 406.51C109.395 406.25 107.255 390.55 115.755 377.19C117.655 374.2 116.775 370.24 113.785 368.34C112.715 367.66 111.525 367.34 110.345 367.34Z" fill="white"/>
</g>
<path d="M170.26 339.01C162.89 336.98 157.28 330.73 156.84 323.1C156.82 322.73 156.81 322.36 156.81 322C156.81 321.9 156.81 321.78 156.83 321.67C156.81 321.57 156.81 321.45 156.81 321.34C156.81 320.98 156.83 320.61 156.84 320.24C157.28 312.61 162.89 306.36 170.26 304.33C198.02 296.65 218.41 271.2 218.41 241C218.41 236.94 218.05 232.96 217.33 229.11C217.21 228.45 217.08 227.8 216.94 227.16C216.84 226.69 216.74 226.21 216.62 225.74C216.62 225.71 216.62 225.68 216.6 225.66C216.54 225.41 216.48 225.17 216.41 224.92C216.3 224.45 216.18 223.99 216.05 223.52C215.86 222.81 215.65 222.11 215.43 221.41H213.19C213.27 221.63 213.33 221.87 213.4 222.1C213.42 222.14 213.43 222.18 213.44 222.22C213.57 222.62 213.69 223.02 213.8 223.41C213.88 223.67 213.95 223.93 214.01 224.19C214.13 224.6 214.24 225.01 214.34 225.43C214.41 225.69 214.48 225.95 214.53 226.21C214.64 226.63 214.73 227.05 214.82 227.47C214.85 227.61 214.88 227.76 214.91 227.9C214.91 227.95 214.94 228.01 214.94 228.07C215.04 228.55 215.13 229.03 215.22 229.52C215.91 233.26 216.27 237.13 216.27 241.03C216.27 269.51 197.11 294.71 169.69 302.29C161.2 304.63 155.18 311.8 154.71 320.15C154.68 320.56 154.68 320.96 154.68 321.37C154.68 321.48 154.68 321.6 154.68 321.7C154.68 321.81 154.68 321.93 154.68 322.03C154.68 322.44 154.68 322.84 154.71 323.25C155.18 331.6 161.21 338.77 169.69 341.11C197.11 348.7 216.27 373.9 216.27 402.37C216.27 406.27 215.91 410.14 215.22 413.88C214.26 419.21 212.61 424.4 210.29 429.32H95.13C92.81 424.4 91.15 419.21 90.19 413.87C89.5 410.14 89.15 406.26 89.15 402.36C89.15 373.88 108.31 348.68 135.73 341.1C144.22 338.77 150.23 331.59 150.71 323.24C150.74 322.83 150.74 322.43 150.74 322.02C150.74 321.92 150.74 321.8 150.74 321.69C150.74 321.59 150.74 321.47 150.74 321.36C150.74 320.95 150.74 320.55 150.71 320.14C150.23 311.79 144.21 304.63 135.73 302.28C108.31 294.69 89.15 269.5 89.15 241.02C89.15 237.12 89.5 233.25 90.19 229.51C90.31 228.84 90.44 228.17 90.59 227.51C90.59 227.49 90.59 227.48 90.59 227.46C90.73 226.82 90.88 226.17 91.04 225.53C91.04 225.5 91.06 225.46 91.07 225.42C91.2 224.93 91.32 224.43 91.47 223.95C91.47 223.91 91.5 223.87 91.5 223.83C91.55 223.64 91.6 223.45 91.66 223.26C91.75 222.9 91.86 222.56 91.97 222.21C91.97 222.17 92 222.13 92.01 222.09C92.08 221.86 92.15 221.62 92.22 221.4H89.98C89.76 222.1 89.56 222.8 89.36 223.51C89.22 223.98 89.11 224.43 89 224.91C88.93 225.16 88.87 225.4 88.81 225.65C88.81 225.68 88.79 225.71 88.79 225.73C88.67 226.2 88.57 226.68 88.47 227.15C88.33 227.79 88.2 228.44 88.08 229.1C87.36 232.96 87 236.93 87 240.99C87 271.19 107.39 296.64 135.15 304.32C142.51 306.35 148.13 312.6 148.56 320.23C148.59 320.6 148.59 320.97 148.59 321.33C148.59 321.44 148.59 321.56 148.59 321.66C148.59 321.77 148.59 321.89 148.59 321.99C148.59 322.35 148.59 322.72 148.56 323.09C148.13 330.72 142.51 336.97 135.15 339C107.39 346.69 87 372.13 87 402.33C87 406.39 87.36 410.37 88.08 414.22C89.18 420.29 91.13 426.06 93.77 431.42H211.62C214.27 426.07 216.21 420.3 217.31 414.22C218.03 410.36 218.39 406.39 218.39 402.33C218.39 372.13 197.99 346.69 170.24 339L170.26 339.01Z" fill="#B4DBF4"/>
<path d="M234.6 427.94C234.6 431.37 231.82 434.15 228.39 434.15H77.0303C73.6003 434.15 70.8203 431.37 70.8203 427.94C70.8203 424.51 73.6003 421.73 77.0303 421.73H228.38C231.81 421.73 234.59 424.51 234.59 427.94H234.6Z" fill="#175277"/>
<path d="M203.018 260.87C203.118 261.34 201.848 262 200.188 262.36C198.528 262.71 197.098 262.62 196.998 262.15C196.898 261.68 198.168 261.02 199.828 260.66C201.488 260.31 202.918 260.4 203.018 260.87Z" fill="#FD9830"/>
<path d="M199.185 266.27C199.285 266.74 198.505 267.3 197.445 267.53C196.385 267.75 195.445 267.56 195.345 267.09C195.245 266.62 196.025 266.06 197.085 265.83C198.145 265.61 199.085 265.8 199.185 266.27Z" fill="#FD9830"/>
<path d="M194.333 264.85C194.433 265.32 193.653 265.88 192.593 266.11C191.533 266.33 190.593 266.14 190.493 265.67C190.393 265.2 191.173 264.64 192.233 264.41C193.293 264.19 194.233 264.38 194.333 264.85Z" fill="#FD9830"/>
<path d="M160.824 269.16C160.874 269.41 160.454 269.72 159.884 269.84C159.314 269.96 158.804 269.85 158.754 269.6C158.704 269.35 159.124 269.04 159.694 268.92C160.264 268.8 160.774 268.91 160.824 269.16Z" fill="#FD9830"/>
<path d="M186.715 261.29C186.765 261.54 186.345 261.85 185.775 261.97C185.205 262.09 184.695 261.98 184.645 261.73C184.595 261.48 185.015 261.17 185.585 261.05C186.155 260.93 186.665 261.04 186.715 261.29Z" fill="#FD9830"/>
<path d="M177.332 270.33C177.382 270.58 176.962 270.89 176.392 271.01C175.822 271.13 175.312 271.02 175.262 270.77C175.212 270.52 175.632 270.21 176.202 270.09C176.772 269.97 177.282 270.08 177.332 270.33Z" fill="#FD9830"/>
<path d="M164.801 276.32C164.851 276.57 164.431 276.88 163.861 277C163.291 277.12 162.781 277.01 162.731 276.76C162.681 276.51 163.101 276.2 163.671 276.08C164.241 275.96 164.751 276.07 164.801 276.32Z" fill="#FD9830"/>
<path d="M153.434 377.26L152.994 377.09L152.554 377.26C152.554 377.26 148.774 406.85 108.164 421.72H197.824C157.214 406.85 153.434 377.26 153.434 377.26Z" fill="#DBA51D"/>
<path d="M215.633 222.07C215.633 225.37 187.463 228.05 152.703 228.05C117.943 228.05 89.7734 225.37 89.7734 222.07C89.7734 218.77 117.943 216.09 152.703 216.09C187.463 216.09 215.633 218.77 215.633 222.07Z" fill="#B7D9ED"/>
<path d="M228.383 212.86H77.0325C75.3125 212.86 73.7625 213.55 72.6325 214.68C71.5025 215.81 70.8125 217.36 70.8125 219.08C70.8125 222.51 73.5925 225.29 77.0325 225.29H228.383C231.812 225.29 234.603 222.51 234.603 219.08C234.603 215.65 231.823 212.86 228.383 212.86Z" fill="#175277"/>
<path d="M526.547 359.002L590.969 423.852C592.956 425.853 592.953 429.099 590.945 431.093L589.81 432.221C587.809 434.208 584.563 434.205 582.569 432.197L518.147 367.346L526.547 359.002Z" fill="#175277"/>
<path d="M524.484 359.346L588.97 424.261C589.674 424.97 589.671 426.13 588.961 426.834L588.557 427.236C587.847 427.941 586.688 427.937 585.983 427.228L521.498 362.313L524.484 359.346Z" fill="#3F87CA"/>
<path d="M545.169 340.501L505.117 300.183L458.187 346.803L498.239 387.12L545.169 340.501Z" fill="#F5B643"/>
<path d="M519.373 314.663L511 306.235L464.07 352.855L472.443 361.283L519.373 314.663Z" fill="#FDC061"/>
<path d="M500.689 384.296L461.018 344.362C459.244 342.575 456.356 342.565 454.57 344.34L453.222 345.679C451.435 347.454 451.425 350.341 453.2 352.128L492.871 392.063C494.646 393.85 497.533 393.859 499.32 392.084L500.668 390.745C502.455 388.97 502.464 386.083 500.689 384.296Z" fill="#175277"/>
<path d="M492.008 395.92L449.328 352.95L453.528 351.4L493.588 391.72L492.008 395.92Z" fill="#023851"/>
<path d="M493.302 397.195L448.078 351.67C447.081 350.667 445.46 350.661 444.457 351.658L443.45 352.658C442.447 353.655 442.441 355.276 443.438 356.279L488.662 401.804C489.659 402.807 491.279 402.812 492.282 401.816L493.29 400.815C494.293 399.819 494.298 398.198 493.302 397.195Z" fill="#175277"/>
<path d="M550.111 335.208L510.44 295.273C508.665 293.486 505.778 293.477 503.991 295.252L502.644 296.591C500.857 298.366 500.847 301.253 502.622 303.039L542.293 342.974C544.068 344.761 546.955 344.771 548.742 342.996L550.09 341.657C551.876 339.882 551.886 336.995 550.111 335.208Z" fill="#175277"/>
<path d="M553.93 334.41L511.25 291.44L509.68 295.64L549.73 335.96L553.93 334.41Z" fill="#023851"/>
<path d="M559.864 331.074L514.64 285.549C513.644 284.546 512.023 284.541 511.02 285.537L510.012 286.538C509.009 287.534 509.004 289.155 510 290.158L555.225 335.683C556.221 336.686 557.842 336.692 558.845 335.695L559.852 334.695C560.855 333.698 560.861 332.077 559.864 331.074Z" fill="#175277"/>
<path d="M429.645 402.59H511.145C520.845 402.59 528.725 410.47 528.725 420.17V422.93H412.055V420.17C412.055 410.47 419.935 402.59 429.635 402.59H429.645Z" fill="#F5B643"/>
<path d="M528.747 421.53H412.037C411.076 421.53 410.297 422.309 410.297 423.27V423.83C410.297 424.791 411.076 425.57 412.037 425.57H528.747C529.708 425.57 530.487 424.791 530.487 423.83V423.27C530.487 422.309 529.708 421.53 528.747 421.53Z" fill="#D49229"/>
<path d="M530.988 422.93H409.798C407.092 422.93 404.898 425.124 404.898 427.83V429.37C404.898 432.076 407.092 434.27 409.798 434.27H530.988C533.695 434.27 535.888 432.076 535.888 429.37V427.83C535.888 425.124 533.695 422.93 530.988 422.93Z" fill="#175277"/>
<path d="M463.971 405.44H513.141C514.391 405.44 515.411 406.45 515.411 407.71V408.18C515.411 408.6 515.071 408.94 514.651 408.94H463.971C463.141 408.94 462.461 408.26 462.461 407.43V406.96C462.461 406.13 463.141 405.45 463.971 405.45V405.44Z" fill="#FBCD34"/>
<path d="M48.1562 345.91C48.1562 345.91 89.4762 377.75 128.426 345.91" stroke="#1A2E35" stroke-width="0.55" stroke-miterlimit="10"/>
<path d="M128.156 345.91C128.156 345.91 169.476 377.75 208.426 345.91" stroke="#1A2E35" stroke-width="0.55" stroke-miterlimit="10"/>
<path d="M207.812 345.91C207.812 345.91 249.132 377.75 288.082 345.91" stroke="#1A2E35" stroke-width="0.55" stroke-miterlimit="10"/>
<path d="M49.5831 346.17H46.9531V350.42H49.5831V346.17Z" fill="#007CFF"/>
<path opacity="0.2" d="M49.5831 346.17H46.9531V350.42H49.5831V346.17Z" fill="black"/>
<path d="M49.6897 347.03C49.7997 346.82 49.8597 346.58 49.8597 346.32C49.8597 345.44 49.1497 344.73 48.2697 344.73C47.3897 344.73 46.6797 345.44 46.6797 346.32C46.6797 346.58 46.7497 346.81 46.8497 347.03H49.6697H49.6897Z" fill="#3F87CA"/>
<path d="M49.7325 363.43H46.8125V447.2H49.7325V363.43Z" fill="#225C87"/>
<g opacity="0.17">
<path d="M49.7325 357.41H46.8125V366.74H49.7325V357.41Z" fill="black"/>
</g>
<path d="M52.3431 352.7C52.3431 354.95 50.5231 356.77 48.2731 356.77C46.0231 356.77 44.2031 354.95 44.2031 352.7C44.2031 350.45 46.0231 348.63 48.2731 348.63C50.5231 348.63 52.3431 350.45 52.3431 352.7Z" fill="#3F87CA"/>
<path opacity="0.29" d="M44.5412 353.13C44.5412 353.2 44.5612 353.27 44.5612 353.35C45.0712 353.58 45.6412 353.72 46.2412 353.72C48.4912 353.72 50.3112 351.9 50.3112 349.65C50.3112 349.58 50.2912 349.51 50.2912 349.43C49.7812 349.2 49.2112 349.06 48.6012 349.06C46.3512 349.06 44.5312 350.88 44.5312 353.13H44.5412Z" fill="#69B2EC"/>
<path d="M50.1956 364.3H46.3556L45.5156 355.68H51.0356L50.1956 364.3Z" fill="#3F87CA"/>
<path d="M46.6772 441.62H49.8772C50.5972 443.15 51.6172 444.21 52.7672 444.59L53.9272 444.97H42.6172L43.7772 444.59C44.9272 444.21 45.9572 443.16 46.6672 441.62H46.6772Z" fill="#175277"/>
<path d="M41.6738 444.88H54.8738C55.3338 444.88 55.7038 445.25 55.7038 445.71V446.64H40.8438V445.71C40.8438 445.25 41.2138 444.88 41.6738 444.88Z" fill="#225C87"/>
<path d="M56.6463 447.44H39.9062V446.4C39.9062 446.1 40.1562 445.85 40.4562 445.85H56.0962C56.3962 445.85 56.6463 446.1 56.6463 446.4V447.44Z" fill="#175277"/>
<path d="M129.646 346.17H127.016V350.42H129.646V346.17Z" fill="#007CFF"/>
<path opacity="0.2" d="M129.646 346.17H127.016V350.42H129.646V346.17Z" fill="black"/>
<path d="M129.752 347.03C129.862 346.82 129.922 346.58 129.922 346.32C129.922 345.44 129.212 344.73 128.332 344.73C127.452 344.73 126.742 345.44 126.742 346.32C126.742 346.58 126.812 346.81 126.912 347.03H129.732H129.752Z" fill="#3F87CA"/>
<path d="M129.795 363.43H126.875V447.2H129.795V363.43Z" fill="#225C87"/>
<g opacity="0.17">
<path d="M129.795 357.41H126.875V366.74H129.795V357.41Z" fill="black"/>
</g>
<path d="M132.406 352.7C132.406 354.95 130.586 356.77 128.336 356.77C126.086 356.77 124.266 354.95 124.266 352.7C124.266 350.45 126.086 348.63 128.336 348.63C130.586 348.63 132.406 350.45 132.406 352.7Z" fill="#3F87CA"/>
<path opacity="0.29" d="M124.604 353.13C124.604 353.2 124.624 353.27 124.624 353.35C125.134 353.58 125.704 353.72 126.304 353.72C128.554 353.72 130.374 351.9 130.374 349.65C130.374 349.58 130.354 349.51 130.354 349.43C129.844 349.2 129.274 349.06 128.664 349.06C126.414 349.06 124.594 350.88 124.594 353.13H124.604Z" fill="#69B2EC"/>
<path d="M130.258 364.3H126.418L125.578 355.68H131.098L130.258 364.3Z" fill="#3F87CA"/>
<path d="M126.74 441.62H129.94C130.66 443.15 131.68 444.21 132.83 444.59L133.99 444.97H122.68L123.84 444.59C124.99 444.21 126.02 443.16 126.73 441.62H126.74Z" fill="#175277"/>
<path d="M121.736 444.88H134.936C135.396 444.88 135.766 445.25 135.766 445.71V446.64H120.906V445.71C120.906 445.25 121.276 444.88 121.736 444.88Z" fill="#225C87"/>
<path d="M136.709 447.44H119.969V446.4C119.969 446.1 120.219 445.85 120.519 445.85H136.159C136.459 445.85 136.709 446.1 136.709 446.4V447.44Z" fill="#175277"/>
<path d="M209.7 346.17H207.07V350.42H209.7V346.17Z" fill="#007CFF"/>
<path opacity="0.2" d="M209.7 346.17H207.07V350.42H209.7V346.17Z" fill="black"/>
<path d="M209.807 347.03C209.917 346.82 209.977 346.58 209.977 346.32C209.977 345.44 209.267 344.73 208.387 344.73C207.507 344.73 206.797 345.44 206.797 346.32C206.797 346.58 206.867 346.81 206.967 347.03H209.787H209.807Z" fill="#3F87CA"/>
<path d="M209.85 363.43H206.93V447.2H209.85V363.43Z" fill="#225C87"/>
<g opacity="0.17">
<path d="M209.85 357.41H206.93V366.74H209.85V357.41Z" fill="black"/>
</g>
<path d="M212.46 352.7C212.46 354.95 210.64 356.77 208.39 356.77C206.14 356.77 204.32 354.95 204.32 352.7C204.32 350.45 206.14 348.63 208.39 348.63C210.64 348.63 212.46 350.45 212.46 352.7Z" fill="#3F87CA"/>
<path opacity="0.29" d="M204.658 353.13C204.658 353.2 204.678 353.27 204.678 353.35C205.188 353.58 205.758 353.72 206.358 353.72C208.608 353.72 210.428 351.9 210.428 349.65C210.428 349.58 210.408 349.51 210.408 349.43C209.898 349.2 209.328 349.06 208.718 349.06C206.468 349.06 204.648 350.88 204.648 353.13H204.658Z" fill="#69B2EC"/>
<path d="M210.313 364.3H206.473L205.633 355.68H211.153L210.313 364.3Z" fill="#3F87CA"/>
<path d="M206.794 441.62H209.994C210.714 443.15 211.734 444.21 212.884 444.59L214.044 444.97H202.734L203.894 444.59C205.044 444.21 206.074 443.16 206.784 441.62H206.794Z" fill="#175277"/>
<path d="M201.791 444.88H214.991C215.451 444.88 215.821 445.25 215.821 445.71V446.64H200.961V445.71C200.961 445.25 201.331 444.88 201.791 444.88Z" fill="#225C87"/>
<path d="M216.763 447.44H200.023V446.4C200.023 446.1 200.273 445.85 200.573 445.85H216.213C216.513 445.85 216.763 446.1 216.763 446.4V447.44Z" fill="#175277"/>
<path d="M289.763 346.17H287.133V350.42H289.763V346.17Z" fill="#007CFF"/>
<path opacity="0.2" d="M289.763 346.17H287.133V350.42H289.763V346.17Z" fill="black"/>
<path d="M289.869 347.03C289.979 346.82 290.039 346.58 290.039 346.32C290.039 345.44 289.329 344.73 288.449 344.73C287.569 344.73 286.859 345.44 286.859 346.32C286.859 346.58 286.929 346.81 287.029 347.03H289.849H289.869Z" fill="#3F87CA"/>
<path d="M289.912 363.43H286.992V447.2H289.912V363.43Z" fill="#225C87"/>
<g opacity="0.17">
<path d="M289.912 357.41H286.992V366.74H289.912V357.41Z" fill="black"/>
</g>
<path d="M292.523 352.7C292.523 354.95 290.703 356.77 288.453 356.77C286.203 356.77 284.383 354.95 284.383 352.7C284.383 350.45 286.203 348.63 288.453 348.63C290.703 348.63 292.523 350.45 292.523 352.7Z" fill="#3F87CA"/>
<path opacity="0.29" d="M284.721 353.13C284.721 353.2 284.741 353.27 284.741 353.35C285.251 353.58 285.821 353.72 286.421 353.72C288.671 353.72 290.491 351.9 290.491 349.65C290.491 349.58 290.471 349.51 290.471 349.43C289.961 349.2 289.391 349.06 288.781 349.06C286.531 349.06 284.711 350.88 284.711 353.13H284.721Z" fill="#69B2EC"/>
<path d="M290.375 364.3H286.535L285.695 355.68H291.215L290.375 364.3Z" fill="#3F87CA"/>
<path d="M286.857 441.62H290.057C290.777 443.15 291.797 444.21 292.947 444.59L294.107 444.97H282.797L283.957 444.59C285.107 444.21 286.137 443.16 286.847 441.62H286.857Z" fill="#175277"/>
<path d="M281.853 444.88H295.053C295.513 444.88 295.883 445.25 295.883 445.71V446.64H281.023V445.71C281.023 445.25 281.393 444.88 281.853 444.88Z" fill="#225C87"/>
<path d="M296.826 447.44H280.086V446.4C280.086 446.1 280.336 445.85 280.636 445.85H296.276C296.576 445.85 296.826 446.1 296.826 446.4V447.44Z" fill="#175277"/>
<path d="M289.275 101.06C290.735 102.61 292.675 103.71 294.785 103.87C297.335 104.07 300.565 102.58 301.275 99.93C299.665 99.83 299.775 97.68 299.725 96.45C299.675 95.23 299.725 93.98 299.775 93.08C299.825 92.32 299.875 91.82 299.875 91.82L290.325 85.74C290.795 88.63 291.055 91.56 290.985 94.49C290.935 96.49 291.005 99.72 288.125 99.6C288.465 100.12 288.845 100.61 289.275 101.07V101.06Z" fill="#F9A997"/>
<path d="M293.992 90.9299C293.992 90.9299 296.612 94.6999 299.722 96.4499C299.672 95.2299 299.722 93.9799 299.772 93.0799L293.992 90.9399V90.9299Z" fill="#ED9789"/>
<path d="M307.331 78.74C307.331 78.74 308.671 92.66 303.591 95.74C301.301 97.13 293.821 90.79 293.821 90.79C293.821 90.79 288.921 86.56 289.761 81.66C291.351 72.4 305.891 69.53 307.331 78.74Z" fill="#F9A997"/>
<path d="M309.789 73.45C309.649 73.35 308.469 74.25 304.529 71.15C302.929 69.89 300.059 69.26 296.799 70.06C293.909 70.77 293.049 73.11 293.049 73.11C293.049 73.11 290.779 72.63 288.979 74.92C284.989 79.99 290.219 91.59 290.899 91.77C291.579 91.94 290.039 84.17 293.299 84.27C295.229 84.32 295.839 87.67 296.149 87.36C296.459 87.05 296.119 83.18 296.429 82.33C296.509 82.11 297.069 81.7 297.669 81.77C299.179 81.97 298.869 79.43 300.119 79.05C300.899 78.81 303.309 78.87 304.929 79.3C311.289 80.98 311.989 74.99 309.789 73.46V73.45Z" fill="#233B6C"/>
<path d="M293.019 85.47C293.289 85.35 293.739 85.31 294.069 86C294.409 86.7 294.129 86.65 294.049 87.08C293.979 87.51 294.389 87.49 294.509 87.86C294.629 88.23 294.489 89.1 293.719 88.94C292.959 88.78 292.779 87.61 292.689 87.26C292.599 86.91 292.449 85.72 293.019 85.47Z" fill="#ED9789"/>
<path d="M282.17 145.13C282.17 145.13 297.58 146.88 301.13 146.95C304.68 147.02 304.5 145.17 304.5 145.17C304.68 141.26 305.34 132.06 306.08 128.94C306.77 126.03 307.07 124.95 307.67 122.19C309 116.04 308.94 114.87 310.34 107.28L301.13 99.88C301.13 99.88 300.18 102.71 296.32 102.76C291.16 102.83 289.56 99.21 289.56 99.21L277 107.55L275.82 127.83L280.54 143.36" fill="#0592BA"/>
<path d="M324.715 197.06C324.715 197.06 324.225 200.02 323.825 201.03C323.435 202.04 320.105 201.11 319.885 200.45C319.665 199.8 320.935 194.98 320.935 194.98" fill="#EB9A80"/>
<path d="M318.736 201.29C318.446 202.38 318.086 204.48 318.086 204.48L321.406 205.93L321.946 205.42C321.946 205.42 322.766 206.42 323.786 206.89C324.546 207.24 326.176 207.69 326.996 207.78C329.896 208.09 332.026 207.55 332.196 207.15C332.916 205.47 329.066 205.02 328.306 204.82C326.116 204.24 324.896 202.38 324.666 201.17C324.496 200.29 324.716 200.14 324.226 200.16C324.226 200.16 323.796 200.14 323.396 200.55C322.786 201.18 321.856 201.47 321.036 201.1C320.566 200.89 320.116 200.58 319.856 200.12C319.856 200.12 319.016 200.21 318.726 201.3L318.736 201.29Z" fill="#3B3B3B"/>
<path d="M310.039 158.35C315.229 159.37 321.519 160.13 326.759 159.43C326.029 161.53 324.459 163.54 323.779 166.51C321.519 176.29 320.729 189.42 320.159 197.55C320.159 197.55 321.249 199.64 324.729 198.05C329.929 185.21 339.009 159.18 338.919 153.53C338.809 146.34 320.869 144.61 307.719 142.84" fill="#233B6C"/>
<g style="mix-blend-mode:multiply" opacity="0.5">
<path d="M287.116 143.95C282.986 146.97 310.037 158.34 310.037 158.34C313.037 158.93 315.957 159.19 318.907 159.19C319.187 158.65 319.447 158.1 319.567 157.51C319.727 156.72 319.637 155.91 319.777 155.12C320.047 153.58 321.147 152.29 322.477 151.48C323.807 150.67 325.356 150.3 326.896 150.05C330.556 149.46 336.937 149.87 336.937 149.87C328.807 143.88 312.987 145.23 305.247 144.74C303.767 147.18 287.706 143.52 287.116 143.96V143.95Z" fill="#40536D"/>
</g>
<g style="mix-blend-mode:multiply" opacity="0.2">
<path d="M322.417 199.8C322.297 200.42 322.137 201.21 321.977 201.85C322.057 201.84 322.127 201.84 322.127 201.84C322.627 201.82 322.407 201.97 322.567 202.85C322.807 204.06 324.027 205.93 326.207 206.51C326.967 206.71 330.827 207.16 330.107 208.84C329.937 209.24 327.797 209.79 324.897 209.48C324.067 209.39 322.437 208.94 321.677 208.59C320.657 208.12 319.837 207.12 319.837 207.12L319.277 207.63L315.957 206.18C315.957 206.18 316.327 204.09 316.617 203C316.897 201.9 317.747 201.81 317.747 201.81C317.767 201.29 317.947 200.35 318.147 199.43C318.067 199.33 318.017 199.24 318.017 199.24C318.597 191.12 319.387 177.99 321.637 168.2C322.027 166.51 322.717 165.12 323.357 163.86C323.847 162.91 324.307 162.03 324.617 161.13C322.197 161.44 319.547 161.44 316.887 161.27C316.867 162.09 316.827 162.96 316.797 163.86C316.277 175.39 314.357 192.69 314.637 206.38C314.637 206.38 314.417 206.57 313.997 206.75C313.987 207.37 313.967 208.13 313.917 208.76C313.997 208.73 314.067 208.71 314.067 208.71C314.537 208.59 314.357 208.79 314.677 209.62C315.117 210.78 316.637 212.4 318.897 212.58C319.687 212.65 323.547 212.43 323.127 214.2C323.027 214.63 321.017 215.53 318.107 215.73C317.277 215.79 315.597 215.63 314.787 215.42C313.697 215.13 312.717 214.29 312.717 214.29L312.267 214.89L308.747 214.03C308.747 214.03 308.747 211.91 308.837 210.78C308.927 209.66 309.737 209.43 309.737 209.43H309.747C309.677 208.89 309.687 207.86 309.737 206.85C309.417 206.75 309.087 206.63 308.747 206.48C307.877 197.06 302.667 175.8 305.217 163.85C305.417 162.91 305.657 162.05 305.957 161.24C296.197 162.54 287.787 163.75 278.907 160.81C277.957 160.5 277.337 160.05 276.797 159.43H336.117C335.837 160.73 335.457 162.22 334.997 163.85C332.117 174.23 326.337 190.43 322.557 199.72C322.487 199.75 322.427 199.78 322.357 199.8H322.417Z" fill="#595959"/>
</g>
<path d="M316.142 203.89C316.142 203.89 316.172 206.89 315.952 207.96C315.742 209.03 312.302 208.68 311.972 208.08C311.642 207.47 312.052 202.51 312.052 202.51" fill="#EB9A80"/>
<path d="M310.988 209.1C310.898 210.23 310.898 212.35 310.898 212.35L314.418 213.2L314.868 212.6C314.868 212.6 315.848 213.44 316.938 213.73C317.748 213.94 319.428 214.11 320.258 214.05C323.168 213.86 325.178 212.95 325.278 212.52C325.698 210.74 321.828 210.96 321.038 210.9C318.778 210.71 317.258 209.09 316.818 207.94C316.498 207.1 316.688 206.91 316.208 207.02C316.208 207.02 315.778 207.07 315.458 207.55C314.968 208.28 314.108 208.72 313.228 208.5C312.728 208.37 312.238 208.14 311.898 207.74C311.898 207.74 311.078 207.98 310.988 209.1Z" fill="#3B3B3B"/>
<path d="M278.098 143.36C277.258 145.32 276.788 147.47 276.588 149.58C276.418 151.41 276.618 153.3 277.318 155.01C278.108 156.96 279.668 158.64 281.698 159.33C284.238 160.2 286.938 160.6 289.608 160.81C294.988 161.22 300.378 160.57 305.698 159.87C306.498 159.76 307.298 159.66 308.098 159.55C303.968 170.72 309.958 194.65 310.888 204.79C314.638 206.46 316.768 204.68 316.768 204.68C316.338 184.03 320.948 155.19 318.158 150.26C316.468 147.26 296.258 143.3 295.848 143.35" fill="#233B6C"/>
<path d="M320.595 138.12C315.215 130.36 312.335 124.25 307.655 116.05L301.125 99.88C301.125 99.88 303.325 100 303.755 100.04C305.595 100.19 307.465 100.43 309.195 101.07C311.695 101.99 314.265 103.69 315.485 106.13C316.565 108.31 317.235 110.67 318.145 112.92C319.175 115.43 320.255 117.91 321.355 120.39C323.525 125.31 325.755 130.22 327.585 135.28" fill="#0592BA"/>
<g style="mix-blend-mode:multiply" opacity="0.2">
<path d="M308.57 117.65L309.44 112.4L315.89 126.52L313.75 127.04L308.57 117.65Z" fill="#070707"/>
</g>
<path d="M276.989 107.28C276.269 117.36 276.519 127.5 277.699 137.53C278.029 140.3 278.339 143.11 278.989 145.83C279.059 146.13 279.569 146.07 279.539 145.76C279.289 143.25 278.859 140.76 278.549 138.26C278.239 135.76 277.999 133.32 277.799 130.84C277.399 125.84 277.229 120.83 277.289 115.82C277.319 112.97 277.389 110.12 277.549 107.27C277.569 106.9 277.009 106.91 276.979 107.27L276.989 107.28Z" fill="black"/>
<path d="M335.478 144.78H285.688V146.57H335.478V144.78Z" fill="#A8BBE0"/>
<path d="M344.35 146.57H304.5L311.65 123.27C312.04 121.98 313.23 121.11 314.58 121.11H349.48C350.82 121.11 351.77 122.4 351.38 123.68L344.36 146.57H344.35Z" fill="#A8BBE0"/>
<path d="M344.844 146.57H305.594L312.744 123.27C313.134 121.98 314.324 121.11 315.674 121.11H350.574C351.914 121.11 352.864 122.4 352.474 123.68L345.624 146C345.524 146.34 345.204 146.57 344.844 146.57Z" fill="#DFE6F7"/>
<g style="mix-blend-mode:multiply" opacity="0.2">
<path d="M282.777 111.5C284.827 120.78 285.687 131.49 286.267 138.13C293.967 138.7 296.127 141.65 303.177 144.79C303.177 144.79 308.747 143.87 309.327 145.97C309.667 147.18 302.807 148.15 302.807 148.15C296.267 148.18 280.437 145.12 279.267 144.8C278.097 144.48 273.307 120.85 273.167 108.96C273.147 107.27 273.207 105.44 274.267 104.12C274.827 103.43 275.607 102.95 276.397 102.55C280.997 100.2 284.407 99.56 289.557 99.23" fill="#070707"/>
</g>
<path d="M302.198 146.22C302.968 145.24 304.388 145.1 305.628 145.13C306.548 145.15 307.468 145.23 308.388 145.35C308.808 145.41 309.288 145.5 309.328 145.96C309.368 146.41 307.308 145.96 306.228 146.27C308.348 146.45 310.478 146.51 312.608 146.44C312.858 146.44 313.108 146.42 313.338 146.52C313.568 146.61 313.768 146.83 313.748 147.08C313.738 147.27 313.598 147.44 313.458 147.57C312.868 148.1 312.048 148.32 311.268 148.45C308.018 149.02 304.598 148.92 301.578 147.59" fill="#EB9A80"/>
<path d="M282.987 111.5C283.157 121.42 284.577 130.43 284.377 140.35C292.077 140.92 295.987 142.41 303.037 145.55C303.037 145.55 303.457 146.95 302.807 148.13C302.267 148.33 279.777 147.38 277.927 145.67C276.267 144.14 273.307 120.83 273.167 108.94C273.147 107.25 273.207 105.42 274.267 104.1C274.827 103.41 275.607 102.93 276.397 102.53C280.997 100.18 284.407 99.54 289.557 99.21" fill="#0592BA"/>
<path d="M326.758 133.24C326.758 135.54 328.618 137.4 330.918 137.4C333.218 137.4 335.078 135.54 335.078 133.24C335.078 130.94 333.218 129.08 330.918 129.08C328.618 129.08 326.758 130.94 326.758 133.24Z" fill="white"/>
<g opacity="0.7">
<path d="M317.524 19.4999L318.824 19.3999C319.084 19.3799 319.314 19.5799 319.334 19.8399C319.354 20.0999 319.154 20.3299 318.894 20.3499H318.864L317.614 20.4499H317.584C317.324 20.4699 317.084 20.2799 317.064 20.0099C317.044 19.7399 317.244 19.5099 317.504 19.4899L317.524 19.4999Z" fill="#FCC82B"/>
<path d="M320.762 19.39C321.622 19.41 322.482 19.47 323.342 19.57C323.592 19.6 323.782 19.83 323.752 20.08C323.722 20.33 323.492 20.52 323.242 20.49C322.412 20.4 321.582 20.35 320.742 20.33C320.482 20.33 320.272 20.11 320.282 19.85C320.292 19.59 320.502 19.38 320.762 19.39Z" fill="#FCC82B"/>
<path d="M325.255 19.8301C326.105 19.9701 326.945 20.1501 327.775 20.3501C328.015 20.4101 328.165 20.6501 328.105 20.9001C328.045 21.1401 327.805 21.2901 327.565 21.2301C326.755 21.0401 325.925 20.8701 325.105 20.7401C324.855 20.7001 324.685 20.46 324.725 20.21C324.765 19.96 325.005 19.7901 325.255 19.8301Z" fill="#FCC82B"/>
<path d="M329.647 20.86C330.467 21.11 331.287 21.38 332.087 21.69C332.317 21.78 332.427 22.03 332.337 22.26C332.247 22.49 331.997 22.6 331.777 22.51C330.997 22.22 330.197 21.95 329.397 21.72C329.157 21.65 329.027 21.4 329.097 21.17C329.167 20.94 329.417 20.8 329.647 20.87V20.86Z" fill="#FCC82B"/>
<path d="M333.867 22.43C334.647 22.78 335.417 23.17 336.177 23.58C336.387 23.69 336.457 23.95 336.347 24.16C336.237 24.36 335.977 24.44 335.767 24.33C335.037 23.93 334.287 23.56 333.517 23.22C333.297 23.12 333.197 22.87 333.297 22.65C333.397 22.43 333.647 22.33 333.867 22.43Z" fill="#FCC82B"/>
<path d="M337.834 24.5801C338.554 25.0501 339.254 25.5601 339.924 26.1001C340.104 26.2401 340.124 26.5001 339.984 26.6801C339.844 26.8601 339.584 26.8801 339.404 26.7401C338.754 26.2201 338.074 25.7301 337.374 25.2801C337.174 25.1501 337.124 24.8901 337.244 24.7001C337.374 24.5001 337.634 24.4501 337.824 24.5701L337.834 24.5801Z" fill="#FCC82B"/>
<path d="M341.373 27.39C341.993 28 342.573 28.65 343.093 29.34C343.223 29.52 343.193 29.77 343.013 29.9C342.833 30.03 342.583 30 342.453 29.82C341.953 29.16 341.393 28.55 340.803 27.97C340.643 27.81 340.633 27.56 340.803 27.39C340.963 27.23 341.213 27.23 341.383 27.39H341.373Z" fill="#FCC82B"/>
<path d="M344.17 30.98C344.6 31.74 344.97 32.54 345.24 33.36C345.31 33.56 345.2 33.78 345 33.85C344.8 33.92 344.58 33.81 344.51 33.61C344.24 32.83 343.9 32.08 343.49 31.37C343.38 31.18 343.45 30.94 343.63 30.83C343.82 30.72 344.06 30.79 344.17 30.97V30.98Z" fill="#FCC82B"/>
<path d="M345.733 35.2699C345.883 36.1299 345.933 37.0099 345.903 37.8799C345.903 38.0899 345.723 38.2499 345.513 38.2399C345.303 38.2399 345.143 38.0599 345.153 37.8499C345.183 37.0299 345.123 36.1999 344.983 35.3899C344.943 35.1799 345.083 34.9899 345.293 34.9499C345.503 34.9099 345.703 35.0499 345.733 35.2599V35.2699Z" fill="#FCC82B"/>
<path d="M345.685 39.83C345.535 40.69 345.305 41.53 345.015 42.34C344.945 42.53 344.745 42.63 344.555 42.56C344.365 42.49 344.265 42.29 344.335 42.1C344.605 41.32 344.825 40.51 344.965 39.7C344.995 39.5 345.195 39.37 345.395 39.4C345.595 39.43 345.725 39.63 345.695 39.83H345.685Z" fill="#FCC82B"/>
<path d="M344.274 44.13C343.904 44.91 343.494 45.67 343.024 46.4C342.924 46.56 342.704 46.61 342.544 46.51C342.384 46.41 342.334 46.19 342.434 46.03C342.874 45.32 343.274 44.59 343.624 43.83C343.704 43.65 343.914 43.57 344.094 43.66C344.274 43.74 344.354 43.95 344.264 44.13H344.274Z" fill="#FCC82B"/>
<path d="M341.91 47.99C341.38 48.67 340.81 49.32 340.2 49.93C340.07 50.06 339.86 50.06 339.73 49.93C339.6 49.8 339.6 49.59 339.73 49.46C340.31 48.87 340.86 48.23 341.37 47.57C341.48 47.42 341.7 47.39 341.85 47.51C342 47.62 342.03 47.84 341.91 47.99Z" fill="#FCC82B"/>
<path d="M338.773 51.24C338.113 51.79 337.413 52.3 336.683 52.76C336.533 52.85 336.333 52.81 336.243 52.66C336.153 52.51 336.193 52.31 336.343 52.22C337.043 51.77 337.713 51.27 338.353 50.73C338.493 50.61 338.703 50.63 338.813 50.77C338.923 50.91 338.913 51.12 338.773 51.23V51.24Z" fill="#FCC82B"/>
<path d="M335.005 53.72C334.235 54.11 333.445 54.45 332.635 54.74C332.475 54.8 332.305 54.71 332.245 54.55C332.185 54.39 332.275 54.22 332.435 54.16C333.225 53.88 333.985 53.54 334.725 53.16C334.875 53.08 335.065 53.14 335.145 53.3C335.225 53.46 335.165 53.64 335.005 53.72Z" fill="#FCC82B"/>
<path d="M330.777 55.29C329.937 55.49 329.087 55.64 328.227 55.71C328.067 55.72 327.927 55.6 327.907 55.44C327.897 55.28 328.017 55.14 328.177 55.12C329.007 55.05 329.827 54.9 330.637 54.7C330.797 54.66 330.957 54.76 330.997 54.92C331.037 55.08 330.937 55.24 330.777 55.28V55.29Z" fill="#FCC82B"/>
<path d="M326.275 55.72C325.405 55.65 324.535 55.48 323.715 55.16C323.575 55.1 323.505 54.94 323.555 54.8C323.615 54.66 323.775 54.59 323.915 54.64C324.675 54.93 325.485 55.09 326.315 55.15C326.475 55.16 326.595 55.3 326.585 55.46C326.575 55.62 326.435 55.74 326.275 55.73V55.72Z" fill="#FCC82B"/>
<path d="M321.998 54.1799C321.298 53.6299 320.728 52.9299 320.308 52.1599C320.238 52.0299 320.278 51.8699 320.408 51.7999C320.538 51.7299 320.698 51.7799 320.768 51.8999C321.168 52.6099 321.698 53.2499 322.338 53.7499C322.458 53.8399 322.478 54.0199 322.388 54.1399C322.298 54.2599 322.118 54.2799 321.998 54.1899V54.1799Z" fill="#FCC82B"/>
<path d="M319.551 50.34C319.301 49.51 319.181 48.61 319.291 47.73C319.311 47.59 319.431 47.49 319.571 47.51C319.711 47.53 319.811 47.65 319.791 47.79C319.701 48.6 319.801 49.41 320.051 50.2C320.091 50.34 320.011 50.48 319.881 50.53C319.741 50.57 319.601 50.5 319.551 50.36V50.34Z" fill="#FCC82B"/>
<path d="M319.836 45.82C320.206 45.02 320.726 44.3 321.336 43.68C321.426 43.58 321.576 43.58 321.676 43.68C321.776 43.77 321.776 43.92 321.676 44.02C321.106 44.62 320.626 45.29 320.286 46.04C320.226 46.16 320.086 46.22 319.956 46.16C319.836 46.1 319.776 45.96 319.836 45.83V45.82Z" fill="#FCC82B"/>
<path d="M322.803 42.41C323.503 41.9 324.253 41.47 325.023 41.1C325.133 41.05 325.273 41.1 325.323 41.21C325.373 41.32 325.323 41.46 325.213 41.51C324.463 41.88 323.743 42.3 323.063 42.79C322.963 42.87 322.813 42.84 322.733 42.74C322.653 42.64 322.683 42.49 322.783 42.41H322.803Z" fill="#FCC82B"/>
<path d="M326.812 40.36C327.622 40.07 328.442 39.84 329.282 39.65C329.402 39.62 329.512 39.7 329.542 39.81C329.572 39.93 329.492 40.04 329.382 40.07C328.562 40.26 327.752 40.49 326.972 40.78C326.852 40.82 326.732 40.76 326.692 40.65C326.652 40.53 326.712 40.41 326.822 40.37L326.812 40.36Z" fill="#FCC82B"/>
<path d="M331.175 39.31C332.025 39.19 332.875 39.12 333.725 39.1C333.835 39.1 333.925 39.18 333.935 39.29C333.935 39.4 333.855 39.49 333.745 39.5C332.905 39.53 332.065 39.61 331.235 39.73C331.125 39.75 331.015 39.67 330.995 39.55C330.975 39.44 331.055 39.33 331.175 39.31Z" fill="#FCC82B"/>
<path d="M335.653 39.11C336.503 39.15 337.363 39.23 338.203 39.36C338.303 39.38 338.373 39.47 338.363 39.57C338.343 39.67 338.253 39.74 338.153 39.73C337.323 39.61 336.483 39.53 335.643 39.5C335.533 39.5 335.453 39.4 335.453 39.3C335.453 39.2 335.553 39.11 335.653 39.11Z" fill="#FCC82B"/>
<path d="M340.081 39.72C340.911 39.92 341.731 40.16 342.541 40.44C342.631 40.47 342.681 40.57 342.651 40.66C342.621 40.75 342.521 40.8 342.431 40.77C341.641 40.49 340.831 40.26 340.011 40.07C339.911 40.05 339.851 39.95 339.871 39.85C339.891 39.75 339.991 39.69 340.091 39.71L340.081 39.72Z" fill="#FCC82B"/>
<path d="M344.322 41.17C345.102 41.53 345.852 41.93 346.582 42.38C346.662 42.43 346.682 42.53 346.632 42.6C346.582 42.68 346.482 42.7 346.412 42.65C345.692 42.21 344.952 41.82 344.182 41.47C344.102 41.43 344.062 41.33 344.102 41.25C344.142 41.16 344.242 41.13 344.322 41.17Z" fill="#FCC82B"/>
<path d="M348.165 43.47C348.845 43.99 349.495 44.55 350.095 45.15C350.155 45.21 350.155 45.3 350.095 45.36C350.035 45.42 349.945 45.42 349.885 45.36C349.285 44.77 348.645 44.22 347.975 43.72C347.905 43.67 347.895 43.57 347.945 43.5C347.995 43.43 348.095 43.42 348.165 43.47Z" fill="#FCC82B"/>
<path d="M351.395 46.57C351.935 47.23 352.445 47.92 352.895 48.64C352.935 48.7 352.915 48.79 352.855 48.83C352.795 48.87 352.705 48.85 352.665 48.79C352.205 48.08 351.705 47.4 351.165 46.76C351.115 46.7 351.125 46.61 351.185 46.56C351.245 46.51 351.335 46.52 351.385 46.58L351.395 46.57Z" fill="#FCC82B"/>
<path d="M353.851 50.31C354.241 51.07 354.591 51.85 354.891 52.64C354.911 52.7 354.891 52.77 354.821 52.8C354.751 52.83 354.691 52.8 354.661 52.73C354.351 51.94 354.011 51.17 353.621 50.43C353.591 50.37 353.621 50.29 353.671 50.25C353.721 50.21 353.811 50.25 353.841 50.3L353.851 50.31Z" fill="#FCC82B"/>
<path d="M355.514 54.45C355.764 55.27 355.934 56.1 356.124 56.9299C356.134 56.9899 356.104 57.05 356.044 57.06C355.984 57.07 355.924 57.0399 355.914 56.9799L355.624 55.74C355.534 55.33 355.404 54.93 355.294 54.52C355.274 54.46 355.314 54.3899 355.374 54.3699C355.434 54.3499 355.504 54.39 355.524 54.45H355.514Z" fill="#FCC82B"/>
<path d="M356.413 58.83C356.503 59.68 356.543 60.53 356.513 61.38C356.513 61.44 356.463 61.48 356.413 61.48C356.363 61.48 356.313 61.43 356.313 61.38C356.333 60.54 356.293 59.69 356.203 58.85C356.203 58.79 356.243 58.74 356.293 58.73C356.353 58.73 356.403 58.77 356.413 58.82V58.83Z" fill="#FCC82B"/>
<path d="M356.354 63.29C356.234 64.13 356.034 64.97 355.774 65.78C355.754 65.83 355.704 65.85 355.664 65.84C355.614 65.82 355.594 65.77 355.604 65.73C355.864 64.93 356.044 64.1 356.164 63.27C356.164 63.22 356.224 63.18 356.274 63.19C356.324 63.19 356.364 63.25 356.354 63.3V63.29Z" fill="#FCC82B"/>
<path d="M355.066 67.57C354.696 68.34 354.266 69.08 353.776 69.78C353.746 69.82 353.706 69.82 353.666 69.8C353.626 69.77 353.626 69.73 353.646 69.69C354.126 69 354.556 68.27 354.916 67.5C354.936 67.46 354.986 67.44 355.026 67.46C355.066 67.48 355.086 67.53 355.066 67.57Z" fill="#FCC82B"/>
<path d="M352.57 71.27C352 71.91 351.39 72.5 350.74 73.05C350.71 73.07 350.67 73.07 350.64 73.05C350.62 73.02 350.62 72.98 350.64 72.95C351.28 72.4 351.89 71.81 352.44 71.17C352.47 71.14 352.51 71.14 352.55 71.17C352.58 71.2 352.58 71.24 352.55 71.28L352.57 71.27Z" fill="#FCC82B"/>
<path d="M349.246 74.23C348.556 74.72 347.836 75.18 347.096 75.61C347.066 75.63 347.036 75.61 347.016 75.59C346.996 75.56 347.016 75.53 347.036 75.51C347.766 75.08 348.476 74.63 349.166 74.13C349.196 74.11 349.236 74.12 349.256 74.14C349.276 74.17 349.266 74.21 349.246 74.23Z" fill="#FCC82B"/>
<path d="M345.415 76.5101C344.655 76.8901 343.885 77.24 343.095 77.56C343.075 77.57 343.045 77.56 343.035 77.53C343.025 77.5 343.035 77.48 343.065 77.47C343.845 77.14 344.615 76.7901 345.375 76.4101C345.405 76.4001 345.435 76.41 345.445 76.43C345.455 76.46 345.445 76.49 345.425 76.5L345.415 76.5101Z" fill="#FCC82B"/>
<path d="M341.306 78.24L338.886 79.03C338.886 79.03 338.846 79.03 338.836 79.01C338.836 78.99 338.836 78.97 338.866 78.96L341.276 78.16C341.276 78.16 341.326 78.16 341.336 78.18C341.336 78.2 341.336 78.23 341.316 78.24H341.306Z" fill="#FCC82B"/>
<path d="M337.057 79.55L334.577 80.14C334.577 80.14 334.547 80.14 334.547 80.12C334.547 80.1 334.547 80.09 334.567 80.09L337.037 79.49C337.037 79.49 337.077 79.49 337.077 79.51C337.077 79.53 337.077 79.55 337.057 79.55Z" fill="#FCC82B"/>
<path d="M332.702 80.51L330.192 80.93C330.192 80.93 330.172 80.93 330.172 80.92C330.172 80.91 330.172 80.9 330.192 80.9L332.702 80.47C332.702 80.47 332.732 80.47 332.732 80.49C332.732 80.5 332.732 80.52 332.712 80.52L332.702 80.51Z" fill="#FCC82B"/>
<path d="M328.303 81.18L325.773 81.44L328.303 81.17C328.303 81.17 328.313 81.17 328.313 81.18C328.313 81.18 328.313 81.19 328.303 81.19V81.18Z" fill="#FCC82B"/>
<path d="M323.866 81.5799L322.586 81.6299L323.866 81.5699V81.5799Z" fill="#FCC82B"/>
</g>
<path d="M300.412 8.67999C300.272 8.58999 309.782 7.85999 309.782 7.85999L316.142 20.13L306.902 14.23L297.262 18.8L276.922 16.28L300.412 8.67999Z" fill="#EFB73A"/>
<path d="M276.922 16.29L316.142 20.13L306.902 14.23L276.922 16.29Z" fill="#DBA51D"/>
<path d="M276.922 16.29L313.172 0L309.782 7.86L276.922 16.29L306.902 14.23L301.342 27.91L276.922 16.29Z" fill="#FCC82B"/>
</g>
<defs>
<linearGradient id="paint0_linear_4340_24213" x1="363.18" y1="309.27" x2="615.91" y2="309.27" gradientUnits="userSpaceOnUse">
<stop stop-color="#259AFF" stop-opacity="0"/>
<stop offset="1" stop-color="#C2E1FE"/>
</linearGradient>
<linearGradient id="paint1_linear_4340_24213" x1="386.917" y1="233.9" x2="519.617" y2="233.9" gradientUnits="userSpaceOnUse">
<stop stop-color="#259AFF" stop-opacity="0"/>
<stop offset="1" stop-color="#C2E1FE"/>
</linearGradient>
<linearGradient id="paint2_linear_4340_24213" x1="-0.00108505" y1="308.81" x2="271.909" y2="308.81" gradientUnits="userSpaceOnUse">
<stop stop-color="#C2E1FE"/>
<stop offset="1" stop-color="#259AFF" stop-opacity="0"/>
</linearGradient>
<linearGradient id="paint3_linear_4340_24213" x1="138.692" y1="228.23" x2="242.092" y2="228.23" gradientUnits="userSpaceOnUse">
<stop stop-color="#C2E1FE"/>
<stop offset="1" stop-color="#259AFF" stop-opacity="0"/>
</linearGradient>
<linearGradient id="paint4_linear_4340_24213" x1="161.641" y1="231.32" x2="234.921" y2="231.32" gradientUnits="userSpaceOnUse">
<stop stop-color="#C2E1FE"/>
<stop offset="1" stop-color="#259AFF" stop-opacity="0"/>
</linearGradient>
<clipPath id="clip0_4340_24213">
<rect width="615.91" height="447.44" fill="white"/>
</clipPath>
</defs>
</svg>
