<svg width="493" height="483" viewBox="0 0 493 483" fill="none" xmlns="http://www.w3.org/2000/svg">
<g clip-path="url(#clip0_3588_7412)">
<path d="M251.21 29.04C251.21 30.45 250.63 31.74 249.69 32.68C248.76 33.62 247.47 34.2 246.06 34.2H135.92C133.09 34.2 130.77 31.88 130.77 29.05C130.77 27.64 131.35 26.35 132.29 25.41C133.22 24.47 134.51 23.89 135.92 23.89H141.13C143.19 19.11 147.93 15.77 153.46 15.77C157.18 15.77 160.54 17.29 162.98 19.73C166.22 14.23 172.21 10.53 179.06 10.53C180.94 10.53 182.76 10.82 184.47 11.33C188.05 4.59 195.14 0 203.3 0C213.11 0 221.35 6.62 223.84 15.63C225.65 14.73 227.68 14.21 229.85 14.21C235.97 14.21 241.12 18.29 242.75 23.88H246.07C248.9 23.88 251.22 26.2 251.22 29.03L251.21 29.04Z" fill="#C5E1F9"/>
<path d="M381.501 50.94C381.501 51.98 381.081 52.93 380.391 53.61C379.711 54.3 378.761 54.72 377.721 54.72H296.721C294.641 54.72 292.941 53.02 292.941 50.93C292.941 49.89 293.361 48.94 294.051 48.26C294.731 47.57 295.681 47.15 296.721 47.15H300.551C302.061 43.64 305.551 41.18 309.621 41.18C312.361 41.18 314.831 42.29 316.621 44.09C319.011 40.04 323.411 37.32 328.451 37.32C329.841 37.32 331.171 37.53 332.431 37.91C335.071 32.95 340.271 29.58 346.281 29.58C353.491 29.58 359.561 34.45 361.391 41.07C362.721 40.41 364.221 40.03 365.811 40.03C370.311 40.03 374.101 43.03 375.291 47.14H377.731C379.811 47.14 381.511 48.84 381.511 50.93L381.501 50.94Z" fill="#C5E1F9"/>
<path d="M437.23 205.64C435.87 205.91 434.54 206.37 433.27 207.01L429.07 202.34L423.96 206.95L427.99 211.42C427.06 212.64 426.33 213.98 425.81 215.38L418.79 215.02L418.43 221.89L424.91 222.23C425.09 224.16 425.62 226.05 426.52 227.82L421.85 232.03L426.46 237.14L430.93 233.11C432.39 234.22 434 235.03 435.69 235.56L435.39 241.39L442.26 241.75L442.55 236.12C444.57 235.83 446.55 235.13 448.36 234.02L452.38 238.49L457.49 233.88L453.28 229.21C454.05 228.02 454.64 226.74 455.06 225.42L461.7 225.77L462.06 218.9L455.62 218.57C455.33 216.55 454.63 214.57 453.52 212.76L457.99 208.74L453.38 203.63L448.71 207.83C447.28 206.9 445.73 206.22 444.12 205.81L444.46 199.37L437.59 199.01L437.25 205.65L437.23 205.64ZM444.98 216.58C447.31 219.16 447.1 223.16 444.52 225.49C441.94 227.82 437.94 227.61 435.61 225.03C433.28 222.45 433.49 218.45 436.07 216.12C438.65 213.79 442.65 214 444.98 216.58Z" fill="#C5E1F9"/>
<path d="M46.6711 91.9401C45.3111 92.2101 43.9811 92.6701 42.7111 93.3101L38.5111 88.6401L33.4011 93.2501L37.4311 97.7201C36.5011 98.9401 35.7711 100.28 35.2511 101.68L28.2311 101.32L27.8711 108.19L34.3511 108.53C34.5311 110.46 35.0611 112.35 35.9611 114.12L31.2911 118.33L35.9011 123.44L40.3711 119.41C41.8311 120.52 43.4411 121.33 45.1311 121.86L44.8311 127.69L51.7011 128.05L51.9911 122.42C54.0111 122.13 55.9911 121.43 57.8011 120.32L61.8211 124.79L66.9311 120.18L62.7211 115.51C63.4911 114.32 64.0811 113.04 64.5011 111.72L71.1411 112.07L71.5011 105.2L65.0611 104.87C64.7711 102.85 64.0711 100.87 62.9611 99.0601L67.4311 95.0401L62.8211 89.9301L58.1511 94.1301C56.7211 93.2001 55.1711 92.5201 53.5611 92.1101L53.9011 85.6701L47.0311 85.3101L46.6911 91.9501L46.6711 91.9401ZM54.4211 102.88C56.7511 105.46 56.5411 109.46 53.9611 111.79C51.3811 114.12 47.3811 113.91 45.0511 111.33C42.7211 108.75 42.9311 104.75 45.5111 102.42C48.0911 100.09 52.0911 100.3 54.4211 102.88Z" fill="#C5E1F9"/>
<path d="M429.831 169.46C429.091 169.61 428.361 169.86 427.671 170.21L425.371 167.66L422.581 170.18L424.781 172.62C424.271 173.29 423.871 174.02 423.591 174.78L419.751 174.58L419.551 178.34L423.091 178.52C423.191 179.57 423.481 180.61 423.971 181.58L421.421 183.88L423.941 186.67L426.381 184.47C427.181 185.08 428.061 185.52 428.981 185.81L428.811 188.99L432.571 189.18L432.731 186.1C433.841 185.94 434.921 185.56 435.901 184.95L438.101 187.39L440.891 184.87L438.591 182.32C439.011 181.67 439.341 180.97 439.561 180.25L443.191 180.44L443.391 176.68L439.871 176.5C439.711 175.39 439.331 174.31 438.721 173.33L441.161 171.13L438.641 168.34L436.091 170.64C435.311 170.13 434.461 169.76 433.581 169.54L433.761 166.02L430.001 165.82L429.811 169.45L429.831 169.46ZM434.061 175.44C435.331 176.85 435.221 179.04 433.811 180.31C432.401 181.58 430.211 181.47 428.941 180.06C427.671 178.65 427.781 176.46 429.191 175.19C430.601 173.92 432.791 174.03 434.061 175.44Z" fill="#C5E1F9"/>
<path d="M20.5495 137.15C19.8095 137.3 19.0795 137.55 18.3895 137.9L16.0895 135.35L13.2995 137.87L15.4995 140.31C14.9895 140.98 14.5895 141.71 14.3095 142.47L10.4695 142.27L10.2695 146.03L13.8095 146.21C13.9095 147.26 14.1995 148.3 14.6895 149.27L12.1395 151.57L14.6595 154.36L17.0995 152.16C17.8995 152.77 18.7795 153.21 19.6995 153.5L19.5295 156.68L23.2895 156.87L23.4495 153.79C24.5595 153.63 25.6395 153.25 26.6195 152.64L28.8195 155.08L31.6095 152.56L29.3095 150.01C29.7295 149.36 30.0595 148.66 30.2795 147.94L33.9095 148.13L34.1095 144.37L30.5895 144.19C30.4295 143.08 30.0495 142 29.4395 141.02L31.8795 138.82L29.3595 136.03L26.8095 138.33C26.0295 137.82 25.1795 137.45 24.2995 137.23L24.4795 133.71L20.7195 133.51L20.5295 137.14L20.5495 137.15ZM24.7795 143.13C26.0495 144.54 25.9395 146.73 24.5295 148C23.1195 149.27 20.9295 149.16 19.6595 147.75C18.3895 146.34 18.4995 144.15 19.9095 142.88C21.3195 141.61 23.5095 141.72 24.7795 143.13Z" fill="#C5E1F9"/>
<path d="M219.38 460.28C340.54 460.28 438.76 453 438.76 444.02C438.76 435.04 340.54 427.76 219.38 427.76C98.2198 427.76 0 435.04 0 444.02C0 453 98.2198 460.28 219.38 460.28Z" fill="#C5E1F9"/>
<path d="M421.962 448.54C424.412 437.35 436.532 445.51 445.192 439.08C456.152 430.95 450.532 419.12 459.302 413.95C471.502 406.76 476.542 388.49 460.962 388.13C445.382 387.77 441.242 402.11 429.802 398.09C418.362 394.06 407.262 398.49 406.152 409.14C405.052 419.79 404.842 427.69 391.892 428.54C379.982 429.31 370.212 440.08 374.342 448.54H421.962Z" fill="#A6CEED"/>
<path d="M396.701 448.54L450.391 406.44C450.921 406.03 451.011 405.27 450.601 404.74C450.191 404.21 449.431 404.12 448.901 404.53L392.781 448.54H396.701Z" fill="#8BBEEA"/>
<path d="M406.971 448.54C407.161 448.19 407.351 447.84 407.521 447.48C409.641 443.12 410.321 438.31 407.741 433.58C399.651 418.77 416.801 421.01 421.491 410.13C426.891 397.59 416.091 390.18 421.081 381.31C428.021 368.97 423.211 350.64 409.551 358.15C395.901 365.66 399.521 380.14 387.601 382.41C375.681 384.67 368.301 394.07 372.701 403.84C377.101 413.61 380.881 420.55 370.111 427.78C362.671 432.77 359.101 442.02 361.091 448.55H406.981L406.971 448.54Z" fill="#C5E1F9"/>
<path d="M381.94 448.54L409.57 379.29C409.82 378.67 409.52 377.96 408.9 377.72C408.28 377.48 407.57 377.77 407.33 378.4L379.34 448.55H381.95L381.94 448.54Z" fill="#A6CEED"/>
<path d="M267.43 70.65L315.54 68.62C324.27 68.25 331.6 75.12 331.8 83.85L333.5 158.17C333.69 166.29 327.6 173.2 319.52 174.04C316.8 174.32 314.77 176.67 314.88 179.4L320.92 336.36C321.33 347.06 313.02 356.09 302.33 356.56L118.53 364.72C115.64 364.85 113.2 362.59 113.12 359.7L104.99 87.23C104.91 84.45 107.03 82.1 109.8 81.9L267.43 70.65Z" fill="#009AD8"/>
<g opacity="0.3">
<path d="M112.961 354.55L113.111 359.7L310.971 341.51L307.191 68.98C307.191 68.98 259.161 76.26 258.291 76.26C257.421 76.26 112.961 354.55 112.961 354.55Z" fill="black"/>
</g>
<path d="M242.379 56.03L299.799 52.52L305.729 335L103.629 355.5L73.8594 74.5L242.379 56.03Z" fill="#ECECEC"/>
<path d="M242.379 56.03C242.379 56.03 241.369 56.16 239.399 56.39C237.429 56.61 234.499 56.94 230.659 57.38C222.979 58.23 211.659 59.49 197.089 61.11C167.949 64.33 125.829 68.97 73.8689 74.71L74.0389 74.5C82.0289 149.79 92.4089 247.58 103.869 355.48L103.589 355.25C118.019 353.79 133.369 352.23 148.889 350.65C203.869 345.08 256.759 339.72 305.689 334.76L305.469 335.01C302.929 211.5 300.849 110.21 299.669 52.53L299.799 52.65C281.109 53.76 266.759 54.62 257.069 55.2C252.229 55.48 248.559 55.7 246.089 55.84C243.629 55.98 242.369 56.03 242.369 56.03C242.369 56.03 243.619 55.93 246.079 55.77C248.549 55.61 252.219 55.38 257.049 55.07C266.739 54.47 281.089 53.57 299.779 52.41H299.899V52.53C301.139 110.2 303.309 211.5 305.959 335V335.23L305.739 335.25C256.799 340.22 203.919 345.59 148.939 351.17C133.419 352.74 118.069 354.3 103.639 355.76L103.379 355.79L103.349 355.53C91.9489 247.62 81.6089 149.82 73.6489 74.53L73.6289 74.34L73.8189 74.32C125.779 68.66 167.909 64.07 197.059 60.89C211.629 59.32 222.949 58.09 230.639 57.26C234.479 56.85 237.409 56.54 239.379 56.33C241.349 56.12 242.359 56.03 242.359 56.03H242.379Z" fill="#1A2E35"/>
<path d="M63.8203 65.12L91.1803 349.41L302.85 329.47L272.32 45.4L63.8203 65.12Z" fill="white"/>
<path d="M226.149 280.73C226.189 263.53 240.219 249.56 257.419 249.61C274.619 249.65 288.589 263.68 288.539 280.88C288.499 298.08 274.469 312.05 257.269 312C240.069 311.96 226.099 297.93 226.149 280.73ZM287.969 280.88C288.009 263.99 274.299 250.22 257.419 250.18C240.529 250.14 226.759 263.85 226.719 280.73C226.679 297.62 240.389 311.39 257.269 311.43C274.159 311.47 287.929 297.76 287.969 280.88Z" fill="#E1E1E1"/>
<path d="M229.707 280.74C229.747 265.74 241.977 253.56 256.977 253.59C271.977 253.62 284.157 265.86 284.127 280.86C284.087 295.86 271.857 308.04 256.857 308.01C241.857 307.97 229.677 295.74 229.707 280.74ZM280.117 280.86C280.147 268.07 269.767 257.64 256.977 257.61C244.187 257.58 233.757 267.96 233.727 280.75C233.697 293.54 244.077 303.97 256.867 304C269.657 304.03 280.087 293.65 280.117 280.86Z" fill="#E1E1E1"/>
<path d="M236.399 281.14C236.399 277.97 237.129 274.93 238.559 272.11L242.139 273.92C240.999 276.17 240.419 278.6 240.419 281.14C240.399 290.03 247.609 297.27 256.499 297.29C259.489 297.29 262.399 296.48 264.929 294.93L267.019 298.35C263.849 300.29 260.209 301.31 256.479 301.3C245.379 301.27 236.369 292.22 236.399 281.12V281.14Z" fill="#E1E1E1"/>
<path d="M247.238 263.32C250.098 261.83 253.328 261.04 256.578 261.05C267.678 261.08 276.688 270.13 276.658 281.23C276.658 285.02 275.578 288.71 273.568 291.91L270.168 289.77C271.778 287.22 272.638 284.26 272.638 281.22C272.658 272.33 265.448 265.09 256.558 265.07C253.918 265.07 251.408 265.67 249.088 266.88L247.238 263.32Z" fill="#E1E1E1"/>
<path d="M267.312 118.53C267.322 118.67 227.382 122.56 178.112 127.21C128.822 131.86 88.8616 135.52 88.8516 135.38C88.8416 135.24 128.772 131.35 178.062 126.7C227.332 122.05 267.302 118.39 267.312 118.53Z" fill="#1A2E35"/>
<path d="M170.468 116.3C170.478 116.44 152.048 118.3 129.298 120.45C106.548 122.6 88.0981 124.22 88.0781 124.08C88.0681 123.94 106.498 122.08 129.248 119.93C151.998 117.78 170.448 116.16 170.458 116.3H170.468Z" fill="#1A2E35"/>
<path d="M268.089 130.11C268.099 130.25 228.159 134.14 178.889 138.79C129.599 143.44 89.6389 147.1 89.6289 146.96C89.6189 146.82 129.549 142.93 178.839 138.28C228.109 133.63 268.079 129.97 268.089 130.11Z" fill="#1A2E35"/>
<path d="M268.858 141.7C268.868 141.84 228.928 145.73 179.658 150.38C130.368 155.03 90.4084 158.69 90.3984 158.55C90.3884 158.41 130.318 154.52 179.608 149.87C228.878 145.22 268.848 141.56 268.858 141.7Z" fill="#1A2E35"/>
<path d="M269.64 153.28C269.65 153.42 229.71 157.31 180.44 161.96C131.15 166.61 91.1897 170.27 91.1797 170.13C91.1697 169.99 131.1 166.1 180.39 161.45C229.66 156.8 269.63 153.14 269.64 153.28Z" fill="#1A2E35"/>
<path d="M270.421 164.86C270.431 165 230.491 168.89 181.221 173.54C131.931 178.19 91.9709 181.85 91.9609 181.71C91.9509 181.57 131.881 177.68 181.171 173.03C230.441 168.38 270.411 164.72 270.421 164.86Z" fill="#1A2E35"/>
<path d="M271.198 176.45C271.208 176.59 231.268 180.48 181.998 185.13C132.708 189.78 92.7483 193.44 92.7383 193.3C92.7283 193.16 132.658 189.27 181.948 184.62C231.218 179.97 271.188 176.31 271.198 176.45Z" fill="#1A2E35"/>
<path d="M271.98 188.03C271.99 188.17 232.57 192.01 183.94 196.6C135.29 201.19 95.8598 204.8 95.8398 204.66C95.8298 204.52 135.24 200.68 183.89 196.09C232.52 191.5 271.96 187.89 271.98 188.03Z" fill="#1A2E35"/>
<path d="M203.209 210.31C203.219 210.45 179.429 212.71 150.059 215.36C120.689 218 96.8794 220.03 96.8594 219.89C96.8494 219.75 120.639 217.49 150.009 214.84C179.369 212.2 203.189 210.17 203.199 210.31H203.209Z" fill="#1A2E35"/>
<path d="M174.308 306.05C174.318 306.19 159.838 307.54 141.968 309.06C124.088 310.58 109.588 311.69 109.578 311.55C109.568 311.41 124.048 310.06 141.928 308.54C159.798 307.02 174.308 305.91 174.318 306.05H174.308Z" fill="black"/>
<path d="M146.5 317.11C146.51 317.25 138.39 318.06 128.35 318.91C118.31 319.76 110.17 320.34 110.16 320.19C110.15 320.05 118.27 319.24 128.31 318.39C138.34 317.54 146.49 316.96 146.5 317.11Z" fill="black"/>
<path d="M144.27 235.59C144.28 235.73 134.72 236.79 122.92 237.96C111.11 239.12 101.53 239.95 101.52 239.81C101.51 239.67 111.06 238.61 122.87 237.44C134.67 236.28 144.26 235.45 144.27 235.59Z" fill="#009AD8"/>
<g opacity="0.3">
<path d="M86.8184 301.31L106.248 297.55L117.108 281.17L86.1484 291.34L86.8184 301.31Z" fill="black"/>
</g>
<path d="M52.7383 280.37L104.618 275.46L117.108 281.17L107.138 292.39L54.4483 298.07L52.7383 280.37Z" fill="#009AD8"/>
<path d="M76.0375 283.64L76.7075 290.29L75.1675 290.44L74.8975 287.71L71.8775 288.01L72.1475 290.74L70.6075 290.89L69.9375 284.24L71.4775 284.09L71.7375 286.71L74.7575 286.41L74.4975 283.79L76.0375 283.64Z" fill="white"/>
<path d="M82.936 287.5L79.066 287.89C79.276 288.51 79.856 288.85 80.636 288.77C81.176 288.72 81.546 288.51 81.866 288.15L82.736 288.93C82.316 289.52 81.626 289.88 80.706 289.97C78.936 290.15 77.676 289.15 77.526 287.63C77.376 286.1 78.426 284.88 79.986 284.72C81.486 284.57 82.746 285.46 82.916 287.1C82.926 287.21 82.916 287.38 82.926 287.5H82.936ZM78.966 287.02L81.486 286.77C81.316 286.13 80.786 285.77 80.126 285.83C79.456 285.9 79.006 286.35 78.966 287.02Z" fill="white"/>
<path d="M86.828 284.03L86.968 285.4C86.848 285.4 86.748 285.4 86.638 285.41C85.818 285.49 85.328 285.99 85.418 286.97L85.658 289.38L84.178 289.53L83.668 284.42L85.088 284.28L85.158 284.95C85.468 284.42 86.048 284.1 86.838 284.02L86.828 284.03Z" fill="white"/>
<path d="M92.9477 286.5L89.0777 286.89C89.2877 287.51 89.8677 287.85 90.6477 287.77C91.1877 287.72 91.5677 287.51 91.8777 287.15L92.7477 287.93C92.3277 288.52 91.6377 288.88 90.7177 288.97C88.9477 289.15 87.6877 288.15 87.5377 286.63C87.3877 285.1 88.4377 283.88 89.9977 283.72C91.4977 283.57 92.7577 284.46 92.9277 286.1C92.9377 286.21 92.9277 286.38 92.9377 286.5H92.9477ZM88.9777 286.02L91.4977 285.77C91.3277 285.14 90.7977 284.77 90.1377 284.83C89.4677 284.9 89.0177 285.35 88.9777 286.02Z" fill="white"/>
<path d="M226.031 94.4201C226.031 94.4201 226.001 94.2501 225.961 93.9301C225.921 93.5901 225.871 93.1201 225.801 92.5101C225.661 91.2501 225.451 89.4001 225.191 87.0101C224.671 82.2101 223.911 75.2201 222.951 66.3801L223.121 66.5201C198.641 69.1 159.351 73.2401 115.131 77.9001L115.361 77.6101C116.361 87.2401 117.341 96.6301 118.281 105.66L118.001 105.43C148.811 102.26 175.781 99.4801 195.061 97.5001C204.711 96.5201 212.431 95.7401 217.761 95.2001C220.411 94.9401 222.471 94.73 223.881 94.59C224.571 94.5301 225.101 94.4801 225.471 94.4401C225.831 94.4101 226.021 94.4001 226.021 94.4001C226.021 94.4001 225.851 94.4301 225.501 94.4701C225.131 94.5101 224.621 94.5701 223.941 94.6501C222.541 94.8001 220.511 95.0301 217.881 95.3201C212.571 95.8901 204.871 96.7201 195.251 97.7601C175.931 99.8101 148.911 102.67 118.031 105.94L117.781 105.97L117.751 105.72C116.801 96.6901 115.821 87.2901 114.811 77.6701L114.781 77.4101L115.041 77.3801C159.271 72.8001 198.571 68.7301 223.051 66.2001L223.211 66.1801L223.231 66.34C224.121 75.2301 224.831 82.2501 225.311 87.0801C225.541 89.4601 225.721 91.2901 225.841 92.5501C225.901 93.1501 225.941 93.6201 225.971 93.9501C226.001 94.26 226.001 94.4101 226.001 94.4101L226.031 94.4201Z" fill="#375A64"/>
<path d="M344.581 140.25C344.701 139.65 345.041 139.12 345.521 138.74C346.641 137.85 348.111 137.79 349.491 137.76C350.321 136.11 350.871 134.32 351.121 132.48C350.461 132.5 349.811 132.3 349.251 131.95C349.151 131.92 349.041 131.9 348.941 131.86C347.611 131.25 347.471 129.25 348.311 128.05C349.151 126.85 350.601 126.25 351.961 125.7C350.951 125.76 350.101 126.43 349.131 126.73C348.171 127.03 346.811 126.7 346.701 125.7C346.671 125.39 346.761 125.09 346.851 124.8C347.041 124.21 347.231 123.62 347.411 123.02C347.561 122.54 347.751 122.02 348.191 121.78C348.501 121.61 348.871 121.63 349.211 121.53C350.341 121.23 350.921 119.86 352.041 119.55C352.871 119.32 353.721 119.72 354.551 119.92C355.381 120.12 356.491 119.95 356.751 119.14C355.671 118.49 354.551 117.8 353.891 116.72C353.231 115.65 353.201 114.07 354.161 113.26C354.921 112.63 356.001 112.64 356.991 112.68C358.091 112.73 359.461 112.98 359.751 114.04C361.261 113.58 363.041 114.72 363.261 116.28C364.201 116.18 365.151 116.09 366.091 115.99C365.301 115.14 364.171 114.62 363.491 113.68C362.811 112.74 362.931 111.05 364.071 110.8C364.491 110.71 364.941 110.84 365.331 110.69C365.611 110.58 365.851 110.32 366.161 110.31C366.381 110.31 366.591 110.43 366.771 110.55C368.761 111.85 370.761 113.15 372.751 114.45C372.211 113.2 371.671 111.94 371.131 110.69C370.631 109.53 370.251 107.94 371.281 107.22C372.281 106.53 373.741 107.53 373.961 108.73C375.061 108.42 376.331 109.37 376.331 110.52C377.121 110.2 378.111 110.47 378.631 111.15C379.151 111.83 379.161 112.85 378.651 113.53C379.651 113.55 380.651 113.85 381.501 114.38C381.471 113.09 383.361 112.29 384.271 113.2C384.301 112.6 384.351 111.97 384.711 111.49C385.071 111.02 385.881 110.85 386.251 111.32C386.071 110.51 386.461 109.61 387.171 109.18C387.881 108.75 388.861 108.83 389.491 109.36C389.821 108.96 390.151 108.56 390.481 108.17C391.491 108.13 392.611 108.57 393.021 109.49C393.441 110.41 392.741 111.74 391.731 111.65C392.441 111.64 392.281 112.77 391.861 113.35C391.281 114.15 390.711 114.95 390.131 115.76C390.851 115.08 392.071 114.91 392.881 115.52C393.501 114.82 394.751 114.83 395.361 115.54C395.851 114.52 397.731 114.84 397.861 115.96C398.041 115.5 398.671 115.47 399.161 115.52C399.871 115.6 400.631 115.7 401.141 116.2C401.651 116.7 401.641 117.74 400.981 117.98C401.591 117.64 402.371 118.31 402.381 119C402.381 119.69 401.901 120.29 401.391 120.76C400.871 121.22 400.281 121.64 399.961 122.26C400.501 121.81 401.261 121.82 401.961 121.84C403.201 121.88 404.511 121.94 405.581 122.56C405.791 122.07 406.471 122.05 407.001 122.16C408.631 122.49 410.151 123.32 411.321 124.51C411.871 125.07 412.361 125.91 411.991 126.6C411.821 126.91 411.501 127.12 411.201 127.3C409.921 128.09 408.641 128.88 407.361 129.68C409.441 130.33 411.311 131.65 412.611 133.4C413.381 133.85 414.351 133.89 415.051 134.45C415.741 135 415.691 136.47 414.811 136.47C415.361 136.9 415.571 137.72 415.281 138.36C415.161 138.64 414.941 138.86 414.681 139.02C414.561 139.2 414.431 139.36 414.261 139.5C413.951 139.76 413.601 139.93 413.231 140.04C412.831 140.56 412.161 140.89 411.511 140.83C412.221 141.47 412.891 142.15 413.341 142.99C413.921 144.08 414.051 145.51 413.341 146.51C413.301 146.57 413.251 146.61 413.201 146.66C413.101 147.1 412.841 147.5 412.461 147.73C412.601 148.02 412.661 148.34 412.601 148.67C413.871 149.15 414.831 150.36 415.001 151.7C415.171 153.04 414.551 154.46 413.441 155.24C412.561 155.86 410.921 155.75 410.841 154.67C410.431 155.53 409.571 156.16 408.621 156.28C409.401 157.66 408.641 159.66 407.141 160.17C408.721 161.47 408.141 164.48 406.191 165.1C406.591 166.24 405.911 167.64 404.771 168.04C403.631 168.44 402.231 167.76 401.831 166.61C401.401 167.44 400.921 168.31 400.101 168.77C399.281 169.23 398.031 169.03 397.711 168.15C397.121 169.96 394.591 170.78 393.051 169.66C393.081 170.69 392.211 171.66 391.181 171.75C390.151 171.84 389.131 171.03 388.971 170.02C387.211 170 385.441 169.99 383.681 169.97C382.511 169.96 381.331 169.95 380.181 169.72C378.711 169.43 377.321 168.78 376.151 167.85C375.771 167.55 375.401 167.21 374.931 167.11C374.391 166.99 373.841 167.2 373.311 167.36C370.511 168.19 367.301 167.43 365.181 165.44C364.841 165.13 364.531 164.78 364.111 164.58C363.631 164.36 363.081 164.37 362.551 164.36C361.251 164.34 359.961 164.15 358.701 163.81C357.631 163.51 356.491 163.02 355.991 162.03C355.481 161.04 356.081 159.5 357.191 159.52C357.281 158.8 357.121 158.01 356.601 157.51C356.081 157.01 355.151 156.91 354.651 157.43C354.141 157.95 354.411 159.02 355.131 159.12C353.931 159.95 352.071 158.79 352.041 157.33C352.011 155.88 353.451 154.67 354.911 154.66C354.621 153.62 354.591 152.51 354.831 151.46C354.091 152.4 352.561 152.58 351.621 151.82C351.011 152.75 350.091 153.53 348.991 153.71C347.891 153.88 346.651 153.3 346.311 152.24C345.971 151.18 346.871 149.86 347.971 149.99C347.191 148.75 348.371 146.83 349.831 146.97C349.601 145.55 350.471 144.03 351.821 143.52C350.961 144.05 349.661 143.55 349.381 142.58C348.711 143.64 347.071 143.38 345.981 142.75C345.131 142.25 344.311 141.54 344.561 140.26L344.581 140.25Z" fill="#1A2E35"/>
<path d="M344.581 140.25C344.581 140.25 344.531 140.39 344.521 140.68C344.511 140.96 344.571 141.43 344.921 141.9C345.281 142.36 345.881 142.8 346.681 143.11C347.081 143.26 347.551 143.37 348.051 143.34C348.551 143.32 349.121 143.11 349.451 142.6L349.331 142.58C349.561 143.47 350.821 144.16 351.871 143.57L351.801 143.43C350.591 143.88 349.521 145.33 349.751 146.97L349.851 146.87C349.131 146.8 348.431 147.23 348.031 147.85C347.631 148.45 347.461 149.33 347.901 150.04L348.001 149.88C347.191 149.78 346.461 150.44 346.231 151.21C345.941 152.01 346.391 152.96 347.121 153.4C347.841 153.88 348.831 153.98 349.671 153.64C350.521 153.31 351.221 152.66 351.741 151.88L351.561 151.91C352.451 152.65 354.081 152.6 354.951 151.53L354.721 151.42C354.501 152.39 354.481 153.56 354.801 154.69L354.931 154.51C354.221 154.51 353.521 154.78 352.961 155.24C352.401 155.69 351.971 156.37 351.921 157.15C351.861 157.93 352.321 158.69 352.961 159.11C353.581 159.55 354.521 159.72 355.231 159.23L355.571 159L355.171 158.96C354.771 158.92 354.511 158.41 354.581 157.97C354.631 157.52 355.101 157.22 355.581 157.24C356.071 157.24 356.541 157.53 356.791 157.97C357.051 158.41 357.121 158.96 357.061 159.49L357.221 159.35C356.821 159.35 356.421 159.54 356.171 159.84C355.911 160.14 355.761 160.5 355.701 160.89C355.641 161.27 355.681 161.68 355.851 162.04C356.011 162.4 356.271 162.7 356.561 162.95C357.151 163.45 357.871 163.73 358.601 163.94C359.321 164.15 360.071 164.3 360.831 164.4C362.321 164.71 364.051 164.1 365.031 165.49C366.181 166.6 367.691 167.36 369.301 167.69C370.111 167.85 370.941 167.91 371.781 167.84C372.611 167.79 373.461 167.51 374.211 167.31C374.601 167.22 374.961 167.24 375.301 167.43C375.641 167.61 375.941 167.9 376.291 168.16C376.981 168.68 377.741 169.1 378.551 169.42C380.171 170.09 381.981 170.16 383.721 170.16C385.471 170.18 387.241 170.2 389.031 170.22L388.831 170.05C388.991 171.09 389.991 171.99 391.151 171.96C392.311 171.92 393.321 170.86 393.311 169.66L392.991 169.83C394.511 170.97 397.241 170.3 397.971 168.22H397.581C397.751 168.72 398.221 169.06 398.711 169.17C399.201 169.28 399.731 169.24 400.201 169C401.131 168.51 401.631 167.57 402.081 166.72L401.691 166.69C402.101 167.86 403.491 168.64 404.791 168.28C406.091 167.89 406.901 166.37 406.451 165.04L406.311 165.32C407.301 165.01 408.021 164.07 408.231 163.03C408.461 162.01 408.231 160.76 407.331 160.02L407.261 160.39C408.791 159.88 409.741 157.8 408.861 156.18L408.701 156.51C409.651 156.39 410.631 155.75 411.091 154.77L410.671 154.69C410.691 154.96 410.811 155.23 411.011 155.42C411.211 155.61 411.461 155.72 411.701 155.78C412.201 155.9 412.701 155.84 413.171 155.66C414.111 155.23 414.721 154.39 415.071 153.46C415.411 152.52 415.371 151.43 414.921 150.51C414.481 149.59 413.701 148.83 412.731 148.46L412.871 148.72C412.951 148.38 412.891 147.97 412.711 147.64L412.631 147.93C413.051 147.68 413.361 147.22 413.471 146.72L413.421 146.82C414.221 145.93 414.251 144.58 413.851 143.48C413.441 142.34 412.581 141.45 411.721 140.67L411.551 141.06C412.251 141.12 413.011 140.78 413.471 140.18L413.361 140.26C413.921 140.09 414.561 139.74 414.931 139.15L414.861 139.21C415.311 138.95 415.681 138.41 415.691 137.83C415.721 137.26 415.481 136.66 415.011 136.29L414.871 136.7C415.131 136.71 415.431 136.57 415.591 136.34C415.751 136.12 415.811 135.86 415.821 135.62C415.831 135.14 415.681 134.62 415.261 134.28C414.481 133.67 413.511 133.64 412.801 133.22L412.871 133.28C411.611 131.58 409.701 130.16 407.501 129.48L407.551 129.89C408.101 129.55 408.711 129.17 409.311 128.8L410.641 127.97C411.081 127.68 411.531 127.47 411.981 127.08C412.201 126.88 412.371 126.58 412.411 126.27C412.451 125.96 412.381 125.65 412.271 125.39C412.051 124.86 411.661 124.44 411.271 124.09C410.491 123.37 409.571 122.79 408.591 122.4C408.101 122.2 407.591 122.05 407.071 121.95C406.801 121.9 406.511 121.88 406.221 121.94C405.941 121.99 405.591 122.17 405.451 122.5L405.771 122.39C404.871 121.87 403.831 121.73 402.861 121.67C402.371 121.65 401.891 121.62 401.381 121.63C400.881 121.65 400.321 121.74 399.891 122.11L400.241 122.39C400.671 121.54 401.721 121.09 402.331 120.14C402.631 119.69 402.841 119.03 402.531 118.45C402.391 118.18 402.181 117.95 401.901 117.81C401.631 117.66 401.251 117.64 400.951 117.81L401.141 118.22C401.441 118.11 401.661 117.85 401.741 117.57C401.831 117.29 401.821 117 401.761 116.74C401.691 116.48 401.551 116.21 401.341 116.02C401.141 115.84 400.911 115.7 400.671 115.61C400.181 115.42 399.701 115.37 399.221 115.32C398.971 115.3 398.711 115.29 398.441 115.36C398.181 115.41 397.861 115.59 397.741 115.91L398.171 115.96C398.091 115.26 397.451 114.84 396.871 114.75C396.291 114.64 395.551 114.84 395.251 115.47L395.621 115.42C394.891 114.6 393.531 114.6 392.801 115.4L393.101 115.37C392.161 114.69 390.861 114.9 390.071 115.63L390.401 115.92C390.891 115.24 391.381 114.56 391.871 113.88C392.111 113.57 392.401 113.16 392.481 112.7C392.521 112.47 392.561 112.24 392.481 111.98C392.451 111.85 392.371 111.71 392.241 111.61C392.111 111.5 391.951 111.48 391.811 111.47L391.791 111.91C392.421 111.97 392.971 111.53 393.211 111.04C393.471 110.55 393.531 109.92 393.281 109.4C392.761 108.36 391.581 107.97 390.551 108H390.451L390.391 108.08C390.061 108.48 389.731 108.88 389.401 109.27L389.711 109.24C388.981 108.64 387.911 108.57 387.121 109.05C386.331 109.54 385.921 110.51 386.111 111.41L386.491 111.23C386.241 110.91 385.801 110.82 385.471 110.89C385.131 110.96 384.811 111.14 384.591 111.43C384.181 111.99 384.161 112.66 384.121 113.23L384.481 113.09C383.941 112.55 383.101 112.55 382.491 112.82C381.871 113.08 381.321 113.69 381.341 114.43L381.661 114.25C380.761 113.69 379.731 113.39 378.701 113.37L378.861 113.7C379.441 112.91 379.411 111.79 378.821 111.04C378.221 110.3 377.171 110.02 376.301 110.37L376.581 110.56C376.551 109.22 375.181 108.24 373.951 108.57L374.211 108.73C374.111 108.19 373.811 107.72 373.411 107.38C373.021 107.04 372.491 106.8 371.931 106.84C371.371 106.9 370.871 107.28 370.661 107.78C370.441 108.28 370.461 108.82 370.541 109.3C370.711 110.29 371.171 111.14 371.521 112C371.891 112.86 372.261 113.71 372.621 114.56L372.901 114.32C371.651 113.51 370.421 112.7 369.201 111.91C368.591 111.51 367.991 111.12 367.391 110.73C367.071 110.55 366.841 110.31 366.411 110.17C366.191 110.1 365.931 110.17 365.771 110.27C365.601 110.36 365.461 110.47 365.331 110.53C365.071 110.65 364.731 110.6 364.361 110.61C363.981 110.61 363.561 110.8 363.311 111.12C362.831 111.77 362.851 112.59 363.101 113.27C363.371 113.99 363.951 114.45 364.471 114.87C365.011 115.29 365.561 115.66 366.001 116.13L366.111 115.83C365.111 115.93 364.191 116.03 363.281 116.12L363.471 116.27C363.161 114.47 361.281 113.43 359.741 113.89L359.951 114.01C359.761 113.31 359.101 112.91 358.511 112.75C357.901 112.57 357.281 112.53 356.691 112.52C356.091 112.51 355.471 112.52 354.881 112.72C354.291 112.91 353.761 113.35 353.521 113.92C353.031 115.07 353.381 116.38 354.111 117.25C354.841 118.15 355.811 118.72 356.711 119.28L356.641 119.11C356.511 119.52 356.091 119.76 355.651 119.83C355.201 119.91 354.751 119.85 354.311 119.72C353.861 119.6 353.421 119.44 352.941 119.38C352.471 119.31 351.941 119.4 351.531 119.65C350.711 120.15 350.231 120.96 349.491 121.31C349.141 121.51 348.701 121.45 348.261 121.63C347.801 121.82 347.561 122.27 347.421 122.66C347.171 123.46 346.921 124.23 346.681 125C346.561 125.38 346.521 125.87 346.771 126.24C347.011 126.61 347.411 126.81 347.791 126.9C348.181 126.99 348.581 127 348.961 126.92C349.341 126.83 349.681 126.68 350.021 126.52C350.681 126.21 351.311 125.88 351.981 125.83L351.931 125.61C351.111 125.94 350.311 126.27 349.611 126.72C348.921 127.17 348.311 127.74 347.981 128.46C347.661 129.17 347.621 129.96 347.821 130.64C348.021 131.33 348.561 131.91 349.231 132.04H349.211C349.971 132.49 350.581 132.58 351.131 132.57L351.051 132.48C350.711 134.9 350.051 136.48 349.451 137.74L349.501 137.71C348.471 137.74 347.571 137.8 346.851 138.03C346.121 138.25 345.581 138.61 345.241 138.97C344.901 139.33 344.751 139.68 344.671 139.91C344.601 140.14 344.591 140.26 344.591 140.26C344.621 140.28 344.611 139.74 345.281 139.02C345.621 138.68 346.151 138.33 346.871 138.12C347.591 137.9 348.481 137.85 349.501 137.83H349.531L349.551 137.8C350.171 136.54 350.851 134.95 351.201 132.51V132.42H351.121C350.591 132.42 350.021 132.33 349.291 131.89H349.281V131.88C348.671 131.75 348.191 131.23 348.001 130.59C347.811 129.95 347.861 129.2 348.161 128.54C348.471 127.88 349.051 127.33 349.721 126.9C350.401 126.46 351.191 126.14 352.011 125.82L352.661 125.56L351.961 125.6C351.231 125.64 350.571 126 349.921 126.3C349.591 126.45 349.261 126.6 348.911 126.68C348.561 126.75 348.191 126.75 347.841 126.66C347.491 126.57 347.161 126.39 346.971 126.1C346.771 125.81 346.801 125.43 346.911 125.06C347.151 124.31 347.401 123.53 347.651 122.75C347.791 122.38 347.991 122.01 348.341 121.87C348.681 121.73 349.161 121.77 349.591 121.55C350.431 121.14 350.921 120.32 351.661 119.89C352.401 119.41 353.331 119.73 354.221 120C354.671 120.14 355.191 120.21 355.691 120.12C356.181 120.05 356.741 119.75 356.911 119.2L356.951 119.09L356.851 119.03C355.941 118.48 355.011 117.91 354.331 117.07C353.651 116.26 353.361 115.06 353.791 114.06C354.001 113.57 354.441 113.2 354.961 113.03C355.481 112.85 356.071 112.84 356.651 112.85C357.241 112.87 357.831 112.91 358.391 113.07C358.941 113.23 359.461 113.56 359.601 114.1L359.641 114.27L359.811 114.22C361.141 113.81 362.851 114.78 363.101 116.33L363.131 116.5L363.291 116.48C364.201 116.39 365.121 116.3 366.121 116.2L366.481 116.16L366.231 115.9C365.761 115.39 365.191 115.01 364.661 114.6C364.151 114.19 363.621 113.74 363.411 113.15C363.191 112.57 363.201 111.84 363.571 111.36C363.761 111.13 364.031 111 364.351 110.99C364.671 110.97 365.051 111.05 365.461 110.88C365.831 110.7 366.071 110.46 366.311 110.54C366.561 110.61 366.881 110.87 367.171 111.05C367.771 111.44 368.371 111.83 368.981 112.23C370.191 113.02 371.421 113.83 372.671 114.64L373.211 114.99L372.961 114.4C372.601 113.55 372.231 112.7 371.861 111.84C371.501 110.97 371.061 110.13 370.911 109.23C370.841 108.79 370.831 108.32 371.001 107.94C371.161 107.56 371.541 107.28 371.941 107.24C372.781 107.19 373.631 107.95 373.791 108.8L373.831 109.02L374.041 108.96C374.981 108.68 376.151 109.52 376.141 110.55V110.86L376.421 110.74C377.111 110.46 378.001 110.69 378.471 111.29C378.941 111.88 378.961 112.82 378.501 113.44L378.261 113.77H378.671C379.621 113.8 380.571 114.07 381.411 114.6L381.751 114.81L381.731 114.41C381.681 113.34 383.361 112.6 384.141 113.38L384.481 113.72L384.501 113.24C384.531 112.67 384.571 112.09 384.881 111.67C385.151 111.29 385.841 111.13 386.101 111.48L386.691 112.28L386.481 111.3C386.321 110.59 386.671 109.78 387.291 109.4C387.911 109.01 388.811 109.07 389.371 109.55L389.541 109.69L389.681 109.52C390.011 109.13 390.331 108.73 390.671 108.33L390.511 108.41C391.421 108.38 392.441 108.76 392.831 109.57C393.221 110.31 392.621 111.54 391.781 111.46L391.761 111.9C391.901 111.9 391.951 111.94 392.001 112.09C392.041 112.23 392.031 112.42 392.001 112.6C391.931 112.98 391.721 113.26 391.461 113.61C390.971 114.29 390.481 114.97 389.991 115.65L390.321 115.94C390.961 115.34 392.071 115.18 392.781 115.71L392.951 115.83L393.081 115.67C393.591 115.07 394.711 115.08 395.221 115.69L395.451 115.96L395.591 115.64C395.951 114.82 397.581 115.09 397.661 115.99L397.761 117.11L398.091 116.04C398.181 115.76 398.681 115.69 399.101 115.74C399.561 115.79 400.021 115.84 400.431 116C400.841 116.16 401.171 116.43 401.261 116.82C401.361 117.21 401.241 117.66 400.921 117.77L401.111 118.18C401.421 117.99 401.891 118.26 402.071 118.64C402.271 119 402.141 119.49 401.891 119.88C401.391 120.7 400.341 121.13 399.771 122.17L399.241 123.15L400.121 122.45C400.781 121.92 401.831 122.09 402.771 122.11C403.721 122.17 404.681 122.3 405.481 122.77L405.711 122.9L405.801 122.66C405.921 122.34 406.471 122.29 406.921 122.38C407.411 122.48 407.891 122.62 408.361 122.81C409.291 123.18 410.161 123.73 410.901 124.41C411.281 124.75 411.601 125.12 411.791 125.56C411.981 125.99 411.951 126.45 411.611 126.74C411.281 127.04 410.771 127.29 410.351 127.57L409.021 128.4C408.421 128.77 407.821 129.15 407.261 129.49L406.831 129.75L407.311 129.9C409.411 130.55 411.251 131.91 412.451 133.54L412.481 133.58L412.521 133.6C413.371 134.08 414.311 134.12 414.931 134.63C415.201 134.84 415.341 135.24 415.321 135.6C415.311 135.97 415.121 136.26 414.831 136.25L414.111 136.21L414.691 136.66C415.031 136.93 415.221 137.39 415.201 137.82C415.191 138.26 414.941 138.62 414.581 138.84L414.541 138.87L414.511 138.91C414.211 139.39 413.691 139.68 413.181 139.84L413.111 139.86L413.071 139.92C412.711 140.4 412.081 140.67 411.551 140.62L410.871 140.56L411.381 141.02C412.231 141.78 413.021 142.63 413.391 143.65C413.761 144.64 413.701 145.83 413.051 146.54L413.011 146.58V146.64C412.911 147.04 412.661 147.39 412.371 147.56L412.191 147.67L412.291 147.86C412.421 148.12 412.461 148.41 412.411 148.65L412.371 148.84L412.551 148.91C413.401 149.23 414.111 149.91 414.501 150.73C414.901 151.55 414.941 152.5 414.641 153.34C414.351 154.17 413.751 154.94 413.001 155.27C412.621 155.42 412.181 155.47 411.791 155.37C411.401 155.28 411.111 155.03 411.091 154.67L411.041 153.81L410.671 154.6C410.281 155.43 409.431 155.99 408.621 156.09L408.301 156.13L408.461 156.42C409.211 157.74 408.371 159.6 407.101 160L406.721 160.12L407.031 160.37C407.771 160.97 407.991 162.05 407.781 162.95C407.591 163.87 406.961 164.67 406.151 164.92L405.941 164.99L406.011 165.2C406.391 166.27 405.691 167.6 404.641 167.89C403.591 168.2 402.381 167.52 402.061 166.57L401.901 166.1L401.671 166.54C401.231 167.39 400.751 168.24 399.981 168.64C399.251 169.02 398.181 168.8 397.941 168.1L397.741 167.5L397.551 168.1C397.271 168.96 396.481 169.6 395.641 169.84C394.791 170.1 393.861 169.98 393.221 169.5L392.881 169.25V169.67C392.921 170.63 392.051 171.54 391.131 171.56C390.201 171.6 389.341 170.83 389.221 169.99L389.201 169.82H389.031C387.241 169.8 385.471 169.79 383.721 169.77C381.981 169.77 380.251 169.7 378.691 169.06C377.911 168.75 377.181 168.35 376.521 167.85C376.191 167.61 375.881 167.31 375.481 167.09C375.081 166.86 374.561 166.83 374.141 166.93C373.301 167.16 372.571 167.4 371.751 167.46C370.951 167.53 370.151 167.48 369.381 167.32C367.831 167.01 366.391 166.28 365.281 165.22C365.001 164.96 364.721 164.66 364.341 164.45C363.961 164.24 363.541 164.19 363.141 164.17C362.361 164.17 361.621 164.14 360.871 164.03C360.131 163.93 359.401 163.79 358.691 163.59C357.991 163.39 357.311 163.12 356.781 162.67C356.251 162.23 355.911 161.58 356.031 160.91C356.111 160.26 356.601 159.63 357.221 159.65H357.371L357.391 159.51C357.461 158.92 357.391 158.31 357.081 157.79C356.791 157.26 356.201 156.91 355.601 156.9C355.021 156.86 354.351 157.27 354.281 157.9C354.191 158.46 354.501 159.15 355.141 159.24L355.071 158.96C354.501 159.36 353.701 159.23 353.141 158.84C352.571 158.46 352.171 157.8 352.221 157.14C352.311 155.77 353.681 154.77 354.941 154.76H355.121L355.071 154.58C354.761 153.51 354.771 152.38 354.981 151.45L355.111 150.88L354.751 151.34C354.001 152.28 352.511 152.34 351.731 151.69L351.621 151.6L351.541 151.72C351.051 152.46 350.381 153.09 349.601 153.39C348.821 153.71 347.931 153.62 347.261 153.19C346.591 152.78 346.201 151.96 346.451 151.25C346.651 150.55 347.311 149.98 347.991 150.06L348.201 150.08L348.091 149.9C347.341 148.61 348.571 146.88 349.851 147.02H349.971L349.951 146.91C349.711 145.37 350.731 143.97 351.871 143.54L351.801 143.4C350.871 143.95 349.681 143.32 349.471 142.51L349.431 142.37L349.351 142.5C349.061 142.97 348.531 143.17 348.061 143.19C347.581 143.22 347.121 143.12 346.731 142.98C345.941 142.69 345.341 142.26 344.991 141.82C344.631 141.37 344.571 140.92 344.571 140.64C344.571 140.35 344.611 140.21 344.601 140.21L344.581 140.25Z" fill="#375A64"/>
<path d="M393.031 144.6C393.621 135.19 386.191 127.1 376.481 126.82C367.331 126.56 359.671 133.73 358.881 142.69C358.191 150.55 357.671 158.46 357.891 161.31C358.561 169.9 363.901 172.92 366.041 173.79C366.531 173.99 367.851 174.16 368.381 174.2C368.381 174.2 368.441 174.23 368.431 174.26L367.121 184.26C366.661 190.78 365.221 212.97 371.861 213.49C378.521 214.01 388.841 192.05 389.421 185.52L393.021 144.6H393.031Z" fill="#FFC19D"/>
<path d="M361.482 148.92C361.392 149.64 361.942 150.3 362.712 150.4C363.472 150.5 364.162 150 364.252 149.28C364.342 148.56 363.792 147.9 363.032 147.8C362.272 147.7 361.582 148.2 361.492 148.92H361.482Z" fill="#1A2E35"/>
<path d="M361.063 144.9C361.223 145.09 362.333 144.41 363.833 144.53C365.333 144.63 366.363 145.47 366.543 145.3C366.633 145.23 366.483 144.89 366.033 144.51C365.593 144.13 364.813 143.74 363.883 143.67C362.953 143.6 362.143 143.88 361.663 144.19C361.173 144.5 360.993 144.81 361.073 144.9H361.063Z" fill="#1A2E35"/>
<path d="M375.463 150.04C375.373 150.76 375.923 151.42 376.693 151.52C377.453 151.62 378.143 151.12 378.233 150.4C378.323 149.68 377.773 149.02 377.013 148.92C376.253 148.82 375.563 149.32 375.473 150.04H375.463Z" fill="#1A2E35"/>
<path d="M375.743 146.32C375.903 146.51 377.023 145.83 378.513 145.95C380.013 146.05 381.043 146.89 381.223 146.72C381.313 146.65 381.163 146.31 380.713 145.93C380.273 145.55 379.493 145.16 378.563 145.09C377.633 145.02 376.823 145.3 376.343 145.61C375.853 145.92 375.673 146.23 375.753 146.32H375.743Z" fill="#1A2E35"/>
<path d="M369.413 156.8C369.423 156.72 368.513 156.49 367.023 156.18C366.643 156.11 366.293 156.01 366.243 155.75C366.173 155.47 366.373 155.08 366.593 154.66C367.023 153.78 367.483 152.86 367.963 151.89C369.873 147.94 371.283 144.69 371.123 144.61C370.963 144.54 369.283 147.68 367.373 151.62C366.913 152.59 366.473 153.52 366.053 154.41C365.873 154.83 365.583 155.29 365.733 155.87C365.813 156.16 366.073 156.38 366.313 156.47C366.553 156.56 366.763 156.58 366.953 156.61C368.463 156.81 369.403 156.89 369.413 156.8Z" fill="#1A2E35"/>
<path d="M368.44 174.22C368.44 174.22 374.18 175.14 381.76 171.43C381.3 171.66 379.11 180.1 368.09 176.91L368.44 174.22Z" fill="#FF9C6A"/>
<path d="M369.743 160.39C370.343 159.73 371.313 159.42 372.243 159.59C372.883 159.71 373.513 160.07 373.873 160.62C374.223 161.17 374.243 161.91 373.843 162.38C373.393 162.91 372.543 162.97 371.843 162.71C371.143 162.46 370.573 161.95 370.023 161.44C369.873 161.3 369.723 161.15 369.633 160.97C369.543 160.79 369.543 160.56 369.683 160.42" fill="#FF9C6A"/>
<path d="M373.721 158.16C373.481 158.13 373.34 159.72 371.86 160.75C370.38 161.78 368.661 161.46 368.631 161.69C368.601 161.79 368.991 162.03 369.721 162.11C370.431 162.19 371.501 162.05 372.411 161.42C373.321 160.79 373.761 159.89 373.871 159.24C373.991 158.58 373.841 158.17 373.731 158.17L373.721 158.16Z" fill="#1A2E35"/>
<path d="M375.79 141.56C375.9 141.97 377.41 141.9 379.15 142.24C380.9 142.55 382.27 143.17 382.53 142.82C382.65 142.66 382.43 142.26 381.89 141.83C381.35 141.4 380.48 140.96 379.44 140.76C378.4 140.56 377.42 140.65 376.76 140.86C376.09 141.06 375.74 141.35 375.79 141.55V141.56Z" fill="#1A2E35"/>
<path d="M361.821 141.04C362.061 141.39 363.111 141.13 364.361 141.21C365.601 141.25 366.631 141.61 366.901 141.28C367.021 141.12 366.881 140.77 366.451 140.42C366.021 140.07 365.291 139.75 364.441 139.71C363.591 139.67 362.821 139.92 362.361 140.22C361.891 140.53 361.721 140.86 361.821 141.03V141.04Z" fill="#1A2E35"/>
<path d="M356.592 132.33C356.662 131.85 356.672 131.36 356.802 130.9C357.022 130.16 357.562 129.62 358.072 129.12C359.892 127.34 361.802 125.49 364.092 124.9C365.492 124.54 366.942 124.67 368.342 124.33C369.212 124.12 370.032 123.72 370.882 123.41C374.372 122.12 378.092 122.22 381.672 122.83C383.672 123.17 385.662 123.67 387.462 124.71C389.442 125.85 391.102 127.6 392.652 129.44C394.972 132.18 397.112 135.2 398.442 138.76C399.462 141.49 399.962 144.63 399.272 147.56C398.582 150.49 396.512 153.12 393.972 153.53C393.682 153.13 393.382 152.73 393.092 152.33L391.682 150.55C391.912 151.26 391.682 151.21 391.092 151.55C390.502 151.89 389.712 151.6 389.412 150.93C388.902 151.51 387.902 150.79 388.112 150C387.522 150.27 386.842 149.44 387.082 148.75C386.402 148.95 386.102 147.85 385.812 147.11C385.652 146.7 385.422 146.35 385.232 145.97C384.612 144.78 384.342 143.33 384.482 141.92C383.702 140.87 383.612 139.35 383.562 137.94C383.532 137.06 383.492 136.18 383.462 135.3C383.312 135.08 383.172 134.87 383.022 134.65C383.002 135.28 382.492 135.79 381.972 135.93C381.442 136.07 380.912 135.92 380.392 135.77C379.882 135.63 379.372 135.48 378.852 135.34C378.522 135.41 378.192 135.48 377.852 135.54C378.072 136.38 377.712 137.27 377.352 138.06C377.112 138.6 376.822 139.2 376.332 139.41C375.842 139.62 375.182 139.11 375.372 138.53C374.992 138.9 374.392 138.69 374.122 138.23C373.852 137.77 373.842 137.16 373.902 136.59C374.052 135.21 374.622 133.89 375.462 132.9C374.492 133.67 373.512 134.45 372.542 135.22C372.332 135.39 372.102 135.57 371.842 135.57C371.882 136.03 371.402 136.38 371.012 136.3C370.622 136.22 370.332 135.87 370.062 135.54C369.462 134.79 368.852 133.55 369.512 132.82C369.212 132.74 369.092 132.2 369.322 131.94C368.232 132.64 367.142 133.33 366.052 134.03C366.372 133.88 366.672 134.38 366.572 134.77C366.472 135.16 366.152 135.41 365.852 135.63C366.082 136.06 366.172 136.61 366.092 137.12C366.682 136.67 367.442 137.66 367.202 138.44C366.962 139.22 366.162 139.58 365.472 139.58C364.892 139.58 364.222 139.25 364.172 138.57C363.482 138.66 362.912 137.67 363.212 136.93C362.702 137.22 362.342 136.3 362.362 135.64C362.412 134.47 362.682 133.31 363.132 132.25C363.062 132.33 362.952 132.37 362.882 132.3C362.842 132.27 362.832 132.22 362.822 132.17C362.172 133.44 361.522 134.72 360.872 135.99C360.322 137.07 359.762 138.19 359.632 139.44C359.582 139.94 359.462 140.63 359.042 140.64C358.922 140.64 358.822 140.59 358.712 140.52C357.542 139.82 356.692 138.51 356.202 137.06C356.032 136.58 355.902 136.07 355.902 135.54C355.902 134.45 356.432 133.44 356.602 132.36L356.592 132.33Z" fill="#1A2E35"/>
<path d="M391.372 149.63C391.522 149.58 397.372 148.26 396.822 154.11C396.262 159.96 390.502 158.2 390.512 158.03C390.512 157.86 391.372 149.63 391.372 149.63Z" fill="#FFC19D"/>
<path d="M392.512 155.98C392.512 155.98 392.612 156.06 392.772 156.16C392.932 156.25 393.212 156.33 393.532 156.25C394.172 156.08 394.782 155.15 394.912 154.1C394.982 153.57 394.912 153.05 394.762 152.61C394.622 152.16 394.372 151.84 394.072 151.75C393.772 151.65 393.532 151.81 393.442 151.97C393.352 152.13 393.372 152.25 393.342 152.25C393.322 152.26 393.222 152.14 393.292 151.9C393.332 151.79 393.412 151.65 393.562 151.56C393.712 151.46 393.922 151.42 394.142 151.46C394.592 151.53 394.962 151.99 395.122 152.47C395.312 152.96 395.392 153.54 395.322 154.13C395.172 155.31 394.462 156.35 393.592 156.52C393.172 156.59 392.842 156.43 392.672 156.28C392.502 156.12 392.482 155.98 392.512 155.98Z" fill="#FF9C6A"/>
<path d="M370.162 131C370.162 131 369.882 130.77 369.832 130.21C369.812 129.94 369.892 129.59 370.172 129.35C370.442 129.11 370.912 128.98 371.312 129.16L371.552 129.26L371.472 129.02C371.332 128.61 371.472 128.04 371.892 127.75C372.292 127.45 372.972 127.51 373.342 127.93L373.552 127.77C373.552 127.77 373.502 127.67 373.482 127.62C373.442 127.44 373.502 127.23 373.622 127.08C373.742 126.93 373.932 126.85 374.122 126.82C374.322 126.8 374.522 126.82 374.702 126.9C374.882 126.96 375.072 127.11 375.342 127.1C375.622 127.07 375.772 126.88 375.922 126.8C376.072 126.69 376.242 126.62 376.402 126.56C376.732 126.44 377.062 126.41 377.362 126.43C377.962 126.46 378.422 126.68 378.702 126.88C378.982 127.07 379.102 127.23 379.122 127.21C379.122 127.21 379.032 127.03 378.762 126.8C378.492 126.57 378.022 126.31 377.372 126.25C377.052 126.22 376.692 126.25 376.332 126.36C376.152 126.42 375.972 126.5 375.802 126.62C375.622 126.73 375.482 126.88 375.342 126.88C375.192 126.88 375.022 126.77 374.802 126.69C374.582 126.61 374.342 126.56 374.092 126.59C373.852 126.62 373.582 126.73 373.412 126.94C373.242 127.15 373.152 127.43 373.222 127.71C373.242 127.8 373.282 127.88 373.332 127.96L373.542 127.8C373.072 127.28 372.262 127.22 371.742 127.59C371.232 127.97 371.072 128.64 371.262 129.14L371.412 129C370.892 128.79 370.362 128.97 370.052 129.26C369.732 129.56 369.662 129.98 369.702 130.27C369.742 130.57 369.872 130.78 369.972 130.9C370.082 131.02 370.152 131.06 370.162 131.05V131Z" fill="#375A64"/>
<path d="M363.473 132.13C363.473 132.13 363.183 131.92 363.033 131.35C362.973 131.08 362.973 130.7 363.173 130.36C363.373 130.02 363.773 129.72 364.263 129.7H364.453L364.333 129.54C364.053 129.16 363.823 128.6 364.003 128.07C364.083 127.81 364.303 127.61 364.583 127.52C364.853 127.43 365.173 127.47 365.353 127.69L366.033 128.55L365.573 127.56C365.413 127.22 365.423 126.78 365.593 126.41C365.763 126.04 366.133 125.77 366.563 125.71C366.863 125.67 367.183 125.72 367.433 125.87L367.723 126.05L367.623 125.72C367.483 125.25 367.983 124.77 368.443 124.75C368.933 124.71 369.403 124.96 369.803 125.22L370.043 125.38L369.983 125.1C369.913 124.75 370.113 124.4 370.383 124.19C370.653 123.98 370.993 123.9 371.313 123.87C371.963 123.82 372.543 123.92 372.993 124.05C373.903 124.33 374.343 124.71 374.363 124.68C374.363 124.68 374.273 124.57 374.053 124.42C373.833 124.27 373.503 124.07 373.043 123.91C372.583 123.75 371.993 123.62 371.303 123.66C370.963 123.68 370.583 123.76 370.253 124.01C369.933 124.25 369.673 124.67 369.753 125.14L369.933 125.02C369.523 124.75 369.023 124.46 368.423 124.5C368.123 124.52 367.823 124.67 367.613 124.89C367.403 125.11 367.263 125.46 367.363 125.8L367.553 125.65C367.243 125.46 366.873 125.4 366.513 125.45C366.013 125.51 365.543 125.85 365.343 126.3C365.133 126.74 365.123 127.26 365.323 127.67L365.543 127.53C365.273 127.2 364.823 127.17 364.503 127.29C364.163 127.4 363.883 127.67 363.783 127.99C363.573 128.64 363.853 129.25 364.173 129.66L364.253 129.5C363.683 129.54 363.243 129.9 363.033 130.28C362.813 130.67 362.833 131.09 362.923 131.38C363.013 131.68 363.163 131.87 363.273 131.98C363.383 132.09 363.463 132.13 363.473 132.12V132.13Z" fill="#375A64"/>
<path d="M349.262 132.14C349.262 132.14 349.222 131.78 349.662 131.45C349.872 131.29 350.182 131.17 350.562 131.21C350.942 131.24 351.342 131.41 351.792 131.61L351.932 131.68V131.52C351.902 131.05 352.372 130.59 352.942 130.49C353.522 130.4 354.152 130.65 354.782 130.95L355.572 131.33L354.912 130.75C354.552 130.43 354.692 129.74 355.102 129.42C355.532 129.08 356.172 129.07 356.772 129.17H356.852L357.362 129.28L356.952 128.95C356.452 128.55 356.662 127.63 357.202 127.38C357.752 127.09 358.462 127.3 358.872 127.69L359.372 128.16L359.062 127.54C358.662 126.75 358.842 125.82 359.262 125.24C359.692 124.64 360.372 124.4 360.902 124.38C361.442 124.35 361.862 124.51 362.122 124.65C362.382 124.79 362.502 124.9 362.512 124.89C362.512 124.89 362.492 124.85 362.432 124.8C362.372 124.74 362.282 124.67 362.152 124.59C361.892 124.43 361.462 124.24 360.882 124.24C360.322 124.24 359.572 124.47 359.082 125.12C358.602 125.75 358.392 126.76 358.822 127.66L359.012 127.52C358.532 127.07 357.752 126.81 357.052 127.16C356.702 127.33 356.472 127.69 356.402 128.07C356.332 128.44 356.422 128.9 356.762 129.17L356.872 128.93H356.792C356.162 128.81 355.452 128.8 354.912 129.22C354.652 129.43 354.492 129.74 354.442 130.05C354.392 130.36 354.472 130.72 354.722 130.94L354.862 130.73C354.232 130.44 353.552 130.16 352.882 130.28C352.232 130.4 351.682 130.93 351.712 131.54L351.842 131.45C351.392 131.25 350.962 131.09 350.552 131.07C350.142 131.04 349.792 131.19 349.572 131.38C349.352 131.56 349.252 131.78 349.232 131.93C349.212 132.08 349.232 132.16 349.232 132.15L349.262 132.14Z" fill="#375A64"/>
<path d="M357.812 119.35C357.812 119.35 357.912 119.44 358.152 119.5C358.382 119.57 358.733 119.62 359.173 119.64C359.603 119.67 360.143 119.69 360.633 119.99C360.873 120.14 361.052 120.37 361.092 120.68C361.142 120.97 361.033 121.32 360.753 121.43L360.923 121.57C361.003 121.24 361.442 121.06 361.842 120.87C362.242 120.68 362.672 120.5 363.122 120.44C363.582 120.37 364.022 120.47 364.362 120.74C364.702 120.99 364.903 121.4 364.823 121.76L364.753 122.08L365.022 121.88C365.572 121.47 366.232 121.31 366.802 121.32C367.382 121.32 367.883 121.47 368.263 121.66C369.033 122.04 369.292 122.51 369.332 122.48C369.332 122.48 369.283 122.36 369.133 122.17C368.983 121.99 368.722 121.74 368.332 121.52C367.942 121.31 367.422 121.12 366.812 121.11C366.203 121.08 365.492 121.24 364.872 121.68L365.073 121.81C365.183 121.33 364.923 120.82 364.533 120.53C364.153 120.21 363.603 120.09 363.103 120.17C362.603 120.24 362.152 120.43 361.742 120.62C361.542 120.72 361.333 120.81 361.143 120.94C360.953 121.06 360.763 121.25 360.703 121.5L360.643 121.75L360.872 121.65C361.292 121.46 361.402 120.98 361.342 120.64C361.292 120.27 361.043 119.97 360.763 119.81C360.203 119.49 359.633 119.5 359.203 119.49C358.763 119.49 358.423 119.47 358.193 119.42C357.963 119.38 357.842 119.33 357.832 119.34L357.812 119.35Z" fill="#375A64"/>
<path d="M371.332 115.4C371.332 115.4 371.602 115.38 372.012 115.56C372.212 115.65 372.442 115.8 372.632 116.04C372.832 116.27 372.982 116.6 372.982 116.96V117.1L373.122 117.07C373.472 116.98 373.892 117.28 374.042 117.7C374.192 118.13 374.092 118.64 373.972 119.16L373.852 119.67L374.212 119.27C374.212 119.27 374.252 119.23 374.272 119.21C374.512 118.96 374.882 118.87 375.212 118.91C375.552 118.95 375.842 119.12 376.042 119.36C376.452 119.85 376.522 120.49 376.442 120.96C376.362 121.45 376.172 121.82 376.052 122.08C375.922 122.33 375.842 122.47 375.852 122.48C375.862 122.48 375.982 122.37 376.142 122.13C376.302 121.89 376.522 121.52 376.632 121C376.742 120.49 376.702 119.78 376.242 119.2C375.812 118.61 374.752 118.38 374.092 119.02C374.072 119.05 374.042 119.08 374.022 119.1L374.252 119.21C374.372 118.69 374.492 118.12 374.302 117.6C374.112 117.1 373.592 116.72 373.092 116.85L373.232 116.96C373.222 116.53 373.032 116.16 372.802 115.92C372.572 115.67 372.312 115.52 372.082 115.44C371.852 115.36 371.662 115.35 371.542 115.36C371.412 115.37 371.352 115.39 371.352 115.4H371.332Z" fill="#375A64"/>
<path d="M382.18 124.41C382.18 124.41 382.31 124.43 382.53 124.36C382.75 124.29 383.07 124.15 383.37 123.87C383.68 123.59 383.98 123.16 384.09 122.6C384.14 122.33 384.15 122.05 384.33 121.9C384.5 121.73 384.83 121.64 385.05 121.35C385.5 120.76 385.36 119.92 384.86 119.54V119.73C385.51 119.25 385.9 118.68 386.12 118.26C386.34 117.84 386.39 117.56 386.37 117.55C386.34 117.54 386.24 117.79 386 118.18C385.76 118.57 385.35 119.09 384.72 119.53L384.59 119.62L384.72 119.72C385.1 120.02 385.2 120.72 384.85 121.18C384.7 121.4 384.4 121.47 384.15 121.71C383.89 121.97 383.9 122.32 383.86 122.56C383.78 123.06 383.52 123.46 383.25 123.74C382.7 124.3 382.16 124.37 382.18 124.42V124.41Z" fill="#375A64"/>
<path d="M385.383 127.03C385.383 127.03 385.453 127.06 385.603 127.08C385.743 127.1 385.963 127.11 386.233 127.08C386.773 127.03 387.573 126.8 388.283 126.14L388.113 126.12C388.413 126.59 388.963 126.95 389.593 127.07C389.913 127.13 390.253 127.12 390.593 127.04C390.913 126.94 391.273 126.81 391.493 126.45C391.573 126.31 391.593 126.18 391.633 126.08C391.673 125.99 391.733 125.91 391.823 125.85C391.993 125.73 392.223 125.68 392.453 125.63C392.683 125.59 392.943 125.53 393.153 125.41C393.373 125.3 393.583 125.07 393.583 124.79L393.403 124.89C393.953 125.17 394.543 125.18 395.013 125.07C395.493 124.96 395.863 124.73 396.133 124.5C396.393 124.26 396.543 124.03 396.633 123.86C396.713 123.69 396.733 123.59 396.723 123.59C396.683 123.57 396.573 123.98 396.043 124.39C395.783 124.59 395.423 124.79 394.973 124.88C394.533 124.98 394.003 124.94 393.523 124.69L393.353 124.6V124.79C393.343 124.95 393.213 125.1 393.033 125.2C392.853 125.3 392.643 125.35 392.403 125.38C392.163 125.43 391.903 125.47 391.663 125.64C391.543 125.72 391.443 125.85 391.383 125.99C391.333 126.13 391.313 126.25 391.263 126.33C391.133 126.57 390.813 126.71 390.533 126.79C390.243 126.87 389.933 126.87 389.653 126.83C389.083 126.73 388.593 126.41 388.313 126L388.233 125.89L388.143 125.98C387.503 126.62 386.743 126.86 386.233 126.95C385.713 127.04 385.403 127 385.403 127.03H385.383Z" fill="#375A64"/>
<path d="M405.551 136.95C405.551 136.95 405.571 136.92 405.591 136.86C405.611 136.8 405.641 136.71 405.661 136.59C405.701 136.35 405.721 135.98 405.621 135.53C405.531 135.08 405.321 134.55 405.041 133.99C404.891 133.71 404.751 133.4 404.521 133.1C404.401 132.96 404.271 132.81 404.091 132.71C403.921 132.6 403.661 132.56 403.441 132.66L403.601 132.78C403.711 132.17 403.481 131.46 402.921 131.04C402.361 130.62 401.511 130.57 400.871 131L401.071 131.12C401.111 130.74 400.961 130.35 400.661 130.09C400.371 129.82 399.921 129.74 399.541 129.86C399.331 129.92 399.131 130.04 398.991 130.21L399.221 130.32C399.261 130.07 399.151 129.83 398.991 129.67C398.831 129.51 398.631 129.4 398.411 129.37C397.981 129.3 397.601 129.45 397.251 129.56L397.411 129.62C397.181 129.17 396.761 128.87 396.331 128.72C395.901 128.57 395.451 128.54 395.031 128.61C394.201 128.74 393.531 129.13 392.951 129.43L393.081 129.56C393.161 129.42 393.151 129.22 393.071 129.1C392.991 128.97 392.881 128.89 392.761 128.82C392.531 128.7 392.291 128.64 392.061 128.65C391.621 128.68 391.261 128.77 390.981 128.88C390.701 128.98 390.491 129.1 390.351 129.18C390.221 129.26 390.151 129.32 390.161 129.33C390.171 129.35 390.451 129.16 391.011 128.99C391.291 128.9 391.651 128.83 392.061 128.81C392.261 128.81 392.471 128.87 392.661 128.97C392.851 129.08 393.011 129.28 392.901 129.47L392.731 129.75L393.031 129.6C393.621 129.31 394.281 128.95 395.051 128.84C395.431 128.78 395.841 128.81 396.231 128.95C396.611 129.09 396.971 129.35 397.161 129.73L397.211 129.83L397.321 129.79C397.661 129.67 398.011 129.56 398.351 129.61C398.661 129.65 398.981 129.95 398.931 130.25L398.851 130.71L399.161 130.36C399.271 130.24 399.421 130.14 399.591 130.09C399.891 130 400.231 130.06 400.451 130.27C400.681 130.47 400.811 130.79 400.771 131.07L400.741 131.36L400.981 131.2C401.511 130.83 402.261 130.87 402.731 131.22C403.211 131.57 403.431 132.2 403.341 132.72L403.301 132.94L403.501 132.85C403.801 132.71 404.121 132.97 404.321 133.22C404.531 133.48 404.681 133.79 404.831 134.06C405.131 134.61 405.341 135.12 405.451 135.55C405.671 136.42 405.461 136.94 405.511 136.94L405.551 136.95Z" fill="#375A64"/>
<path d="M403.401 144.57C403.401 144.57 403.461 144.52 403.551 144.41C403.641 144.3 403.771 144.14 403.911 143.91C404.041 143.68 404.201 143.37 404.201 142.96C404.201 142.76 404.161 142.54 404.051 142.34C403.951 142.14 403.761 141.94 403.511 141.85L403.551 142C403.821 141.67 403.921 141.16 403.711 140.69C403.501 140.23 402.961 139.91 402.391 139.99L402.501 140.19C402.791 139.87 402.791 139.37 402.561 139.01C402.331 138.64 401.901 138.44 401.481 138.39C401.261 138.36 401.051 138.39 400.891 138.34C400.731 138.3 400.631 138.18 400.551 137.99C400.471 137.81 400.421 137.58 400.261 137.39C400.111 137.2 399.891 137.06 399.671 136.99C399.181 136.84 398.711 136.87 398.261 136.83C397.821 136.8 397.391 136.7 397.151 136.4C397.031 136.25 396.951 136.05 396.831 135.86C396.711 135.66 396.531 135.51 396.331 135.4C395.941 135.19 395.461 135.18 395.091 135.36L395.231 135.54C395.531 135.14 395.421 134.63 395.191 134.31C394.951 133.96 394.581 133.81 394.241 133.73C393.551 133.61 392.971 133.71 392.491 133.8C392.021 133.9 391.661 134.03 391.421 134.13C391.181 134.23 391.061 134.3 391.071 134.31C391.081 134.34 391.581 134.1 392.521 133.94C392.981 133.88 393.571 133.79 394.201 133.93C394.511 134 394.831 134.15 395.011 134.44C395.201 134.72 395.271 135.13 395.041 135.41L394.721 135.8L395.181 135.59C395.491 135.45 395.881 135.46 396.211 135.64C396.371 135.73 396.511 135.85 396.611 136.02C396.711 136.18 396.791 136.39 396.941 136.58C397.101 136.77 397.311 136.9 397.541 136.98C397.771 137.06 398.001 137.09 398.231 137.11C398.691 137.15 399.161 137.13 399.581 137.26C399.771 137.31 399.931 137.42 400.051 137.57C400.171 137.71 400.221 137.91 400.311 138.11C400.381 138.31 400.571 138.56 400.821 138.61C401.061 138.67 401.261 138.64 401.451 138.67C401.821 138.71 402.171 138.89 402.351 139.17C402.531 139.45 402.531 139.84 402.331 140.06L402.101 140.31L402.441 140.25C402.891 140.18 403.361 140.44 403.531 140.81C403.711 141.18 403.631 141.63 403.421 141.91L403.341 142.01L403.471 142.05C403.891 142.19 404.061 142.65 404.071 142.99C404.081 143.35 403.951 143.66 403.831 143.89C403.581 144.35 403.401 144.59 403.421 144.6L403.401 144.57Z" fill="#375A64"/>
<path d="M404.233 158.93C404.233 158.93 404.333 158.93 404.493 158.87C404.653 158.81 404.903 158.69 405.133 158.45C405.373 158.21 405.613 157.85 405.673 157.37C405.743 156.9 405.633 156.32 405.253 155.85V155.99C405.543 155.65 405.883 155.27 406.053 154.73C406.133 154.46 406.143 154.16 406.063 153.88C405.983 153.6 405.793 153.31 405.493 153.17V153.41C405.983 153.17 406.263 152.62 406.273 152.09C406.283 151.78 406.223 151.47 406.073 151.2C405.943 150.93 405.673 150.71 405.433 150.59C405.193 150.46 405.083 150.33 405.103 150.07C405.113 149.81 405.083 149.52 404.993 149.28C404.823 148.77 404.423 148.42 404.103 148.14C403.773 147.85 403.463 147.58 403.173 147.34C402.593 146.86 402.033 146.55 401.623 146.44C401.413 146.38 401.253 146.36 401.143 146.36C401.033 146.36 400.973 146.36 400.973 146.37C400.973 146.4 401.203 146.39 401.593 146.54C401.983 146.68 402.493 146.99 403.053 147.48C403.333 147.73 403.643 148.01 403.963 148.3C404.293 148.59 404.633 148.91 404.773 149.36C404.853 149.58 404.873 149.81 404.863 150.07C404.863 150.2 404.863 150.37 404.973 150.52C405.073 150.66 405.203 150.74 405.323 150.81C405.803 151.03 406.043 151.53 406.023 152.07C406.003 152.53 405.763 152.98 405.393 153.17L405.153 153.29L405.393 153.4C405.833 153.61 405.963 154.22 405.823 154.65C405.683 155.11 405.373 155.49 405.093 155.83L405.033 155.9L405.093 155.97C405.433 156.38 405.553 156.9 405.503 157.33C405.463 157.77 405.253 158.11 405.043 158.35C404.613 158.82 404.213 158.89 404.223 158.92L404.233 158.93Z" fill="#375A64"/>
<path d="M382.031 135.58C382.031 135.58 382.361 135.55 382.841 135.33C383.081 135.22 383.361 135.06 383.601 134.77C383.831 134.49 384.021 134.09 383.961 133.64C383.951 133.54 383.911 133.44 383.881 133.35L383.811 133.53C384.191 133.37 384.441 133.04 384.541 132.71C384.641 132.38 384.561 132.05 384.441 131.84C384.191 131.39 383.851 131.32 383.851 131.35C383.821 131.38 384.111 131.51 384.281 131.92C384.361 132.12 384.401 132.38 384.311 132.65C384.221 132.91 384.011 133.17 383.711 133.29L383.591 133.34L383.641 133.47C383.671 133.54 383.691 133.61 383.701 133.69C383.751 134.03 383.611 134.38 383.421 134.62C383.231 134.87 382.971 135.04 382.761 135.16C382.321 135.41 382.021 135.53 382.041 135.57L382.031 135.58Z" fill="#375A64"/>
<path d="M376.132 132.2C376.132 132.2 375.882 131.84 376.032 131.22C376.112 130.92 376.332 130.58 376.722 130.44C377.102 130.3 377.642 130.38 377.972 130.75L378.122 130.92L378.182 130.7C378.252 130.44 378.372 130.17 378.552 129.95C378.722 129.73 378.982 129.55 379.252 129.53C379.682 129.51 380.122 129.94 379.972 130.28L380.222 130.35C380.332 129.8 380.672 129.36 381.062 129.09C381.452 128.82 381.882 128.74 382.232 128.75C382.942 128.78 383.302 129.09 383.322 129.04C383.322 129.03 383.252 128.95 383.072 128.84C382.892 128.74 382.612 128.61 382.232 128.58C381.862 128.55 381.372 128.61 380.932 128.9C380.492 129.18 380.102 129.67 379.962 130.29L380.212 130.36C380.322 130.09 380.212 129.76 380.012 129.57C379.812 129.37 379.542 129.24 379.242 129.25C378.852 129.27 378.542 129.51 378.342 129.77C378.142 130.03 378.012 130.33 377.942 130.62L378.152 130.57C377.732 130.12 377.092 130.06 376.642 130.23C376.172 130.41 375.932 130.84 375.872 131.17C375.802 131.51 375.872 131.79 375.962 131.96C376.042 132.13 376.122 132.19 376.132 132.19V132.2Z" fill="#375A64"/>
<path d="M323.443 434.88L320.073 451.47L308.983 452.51L304.312 447.01L308.592 427.21L323.443 434.88Z" fill="#FFC19D"/>
<path d="M302.112 445.17L302.072 446.47C302.072 446.47 280.842 454.66 280.512 458.83L322.182 459.86L321.942 445.32C315.682 448.17 309.192 448.35 302.112 445.17Z" fill="#009AD8"/>
<g opacity="0.6">
<path d="M317.612 449.86C318.412 450.11 318.952 451.07 318.742 451.92C318.532 452.77 317.602 453.35 316.802 453.11C315.992 452.87 315.322 451.74 315.612 450.92C315.912 450.1 317.032 449.48 317.762 449.91" fill="white"/>
</g>
<path d="M322.171 459.86L322.111 456.36L282.191 456.65C282.191 456.65 279.941 457.81 280.151 460.08L322.161 459.86H322.171Z" fill="#1A2E35"/>
<path d="M301.919 446.58C301.919 446.79 302.939 446.92 303.919 447.63C304.919 448.31 305.419 449.25 305.609 449.17C305.799 449.13 305.519 447.85 304.319 447.01C303.119 446.16 301.879 446.38 301.919 446.58Z" fill="#1A2E35"/>
<path d="M297.502 448.37C297.452 448.58 298.322 448.96 298.992 449.88C299.692 450.78 299.842 451.76 300.042 451.75C300.232 451.79 300.402 450.54 299.542 449.42C298.702 448.29 297.502 448.17 297.492 448.37H297.502Z" fill="#1A2E35"/>
<path d="M294.901 453.79C295.081 453.84 295.391 452.78 294.901 451.6C294.411 450.42 293.461 449.93 293.371 450.11C293.251 450.28 293.851 450.92 294.251 451.9C294.661 452.87 294.701 453.77 294.901 453.79Z" fill="#1A2E35"/>
<path d="M387.91 430.99C388.07 431.53 387.91 452.21 387.91 452.21L381.69 456.07L373.56 450.97L371.84 430.98H387.9L387.91 430.99Z" fill="#FFC19D"/>
<path d="M372.98 449.17C372.98 449.17 384.05 457.4 389.4 450.28L390.8 453.73L397.09 478.32C397.5 479.91 396.78 481.67 395.32 482.27C394.19 482.73 392.95 482.47 392.1 481.63C387.55 477.09 370.88 460.32 371.04 458.05L371.1 452.01C371.11 450.76 371.85 449.64 372.97 449.18L372.98 449.17Z" fill="#009AD8"/>
<path d="M394.781 482.42L371.041 455.93V457.25C370.931 458.68 371.511 459.4 372.171 460.16C374.341 462.66 379.511 469.81 392.111 482.48C392.841 483.22 394.231 482.57 394.781 482.42Z" fill="#1A2E35"/>
<g opacity="0.6">
<path d="M374.521 452C375.271 452.54 375.511 453.71 375.031 454.52C374.551 455.32 373.411 455.6 372.651 455.08C371.891 454.56 371.561 453.15 372.121 452.41C372.681 451.67 374.041 451.42 374.651 452.12" fill="white"/>
</g>
<path d="M387.941 468.85C388.111 468.94 388.771 467.3 390.541 466.42C392.281 465.48 393.921 465.91 393.961 465.72C393.991 465.64 393.611 465.4 392.911 465.3C392.221 465.2 391.221 465.3 390.251 465.8C389.281 466.31 388.601 467.08 388.261 467.72C387.921 468.36 387.871 468.82 387.941 468.85Z" fill="#1A2E35"/>
<path d="M390.072 473.01C390.212 473.14 391.162 472.13 392.702 471.66C394.232 471.16 395.552 471.45 395.602 471.26C395.692 471.1 394.252 470.45 392.512 471.01C390.762 471.55 389.922 472.93 390.072 473.01Z" fill="#1A2E35"/>
<path d="M383.983 463.53C384.123 463.68 385.573 462.11 387.903 461.16C390.213 460.18 392.303 460.27 392.303 460.06C392.353 459.89 390.143 459.47 387.663 460.52C385.173 461.54 383.843 463.44 383.983 463.52V463.53Z" fill="#1A2E35"/>
<path d="M383.45 456.04C383.53 456.23 385.17 455.5 387.3 455.41C389.43 455.29 391.13 455.85 391.19 455.66C391.27 455.51 389.56 454.61 387.27 454.73C384.98 454.83 383.35 455.9 383.45 456.04Z" fill="#1A2E35"/>
<path d="M388.521 455.35C388.521 455.35 388.551 454.92 388.351 454.18C388.151 453.45 387.751 452.4 386.931 451.32C386.511 450.81 386.051 450.15 385.171 449.9C384.731 449.78 384.141 449.97 383.861 450.45C383.591 450.91 383.571 451.43 383.651 451.92C384.031 453.86 385.951 455.42 388.091 455.29C390.231 455.12 391.901 453.5 392.431 451.66C392.531 451.19 392.561 450.63 392.251 450.16C391.931 449.68 391.301 449.59 390.901 449.75C390.061 450.06 389.601 450.69 389.161 451.18C388.311 452.22 387.841 453.24 387.591 453.95C387.341 454.66 387.291 455.08 387.331 455.09C387.451 455.15 387.801 453.44 389.501 451.5C389.931 451.04 390.431 450.48 391.041 450.3C391.341 450.21 391.621 450.28 391.781 450.52C391.941 450.75 391.941 451.14 391.851 451.51C391.391 453.02 389.861 454.5 388.051 454.61C386.251 454.74 384.561 453.36 384.241 451.8C384.171 451.42 384.201 451.03 384.351 450.77C384.501 450.51 384.781 450.4 385.071 450.46C385.681 450.59 386.181 451.16 386.581 451.63C388.211 453.63 388.401 455.4 388.521 455.34V455.35Z" fill="#1A2E35"/>
<path d="M399.612 260.27C399.612 260.27 403.942 268.27 407.372 281.19C410.792 294.11 414.642 300.6 413.242 324.41C412.532 336.56 402.482 369.55 400.162 381.16C398.252 390.71 392.292 435.61 389.272 447.48H371.962L370.202 314.58C370.202 314.58 342.692 392.13 339.172 401.1C335.652 410.07 323.442 445.58 323.442 445.58L301.922 439.85C301.922 439.85 315.072 376.27 318.342 360.45C321.612 344.63 330.502 299.96 334.282 286.51C338.062 273.06 341.642 258.88 341.642 258.88L399.612 260.26V260.27Z" fill="#1A2E35"/>
<path d="M397.5 283.8C397.5 283.8 397.53 284.05 397.68 284.46C397.82 284.88 398.08 285.45 398.46 286.14C399.21 287.5 400.57 289.23 402.47 290.62C404.38 292 406.4 292.72 407.88 292.98C408.62 293.11 409.23 293.17 409.65 293.15C410.07 293.15 410.3 293.13 410.3 293.09C410.3 293 409.38 292.97 407.94 292.62C406.51 292.28 404.58 291.53 402.73 290.2C400.89 288.86 399.54 287.23 398.74 285.95C397.93 284.67 397.58 283.77 397.5 283.8Z" fill="#375A64"/>
<path d="M332.512 293.46C332.512 293.46 332.732 293.56 333.142 293.65C333.552 293.75 334.162 293.82 334.922 293.84C335.682 293.85 336.592 293.8 337.572 293.57C338.552 293.34 339.612 292.96 340.642 292.4C342.712 291.25 344.212 289.66 345.162 288.44C346.102 287.2 346.542 286.33 346.502 286.31C346.432 286.26 345.902 287.06 344.902 288.21C343.902 289.35 342.412 290.86 340.412 291.96C338.422 293.06 336.372 293.44 334.902 293.49C333.422 293.54 332.502 293.37 332.492 293.47L332.512 293.46Z" fill="#375A64"/>
<path d="M369.931 285.95C369.931 285.95 369.831 286.33 369.741 287.02C369.651 287.71 369.551 288.72 369.441 289.97C369.231 292.46 369.071 295.92 369.101 299.74C369.131 303.56 369.361 307.02 369.611 309.51C369.731 310.75 369.851 311.76 369.961 312.45C370.061 313.14 370.131 313.52 370.171 313.52C370.201 313.52 370.191 313.13 370.151 312.43C370.101 311.63 370.031 310.64 369.961 309.48C369.801 306.99 369.631 303.55 369.591 299.74C369.561 295.93 369.671 292.49 369.791 290C369.851 288.84 369.891 287.85 369.931 287.05C369.961 286.35 369.961 285.96 369.931 285.96V285.95Z" fill="#375A64"/>
<path d="M393.08 183.51L408.75 190.98L406.57 219.56C406.57 219.56 404.72 221.73 401.72 237.04C398.72 252.35 408.76 282.16 408.76 282.16L335 284.01C335 284.01 343.66 222.2 344.66 214.02L348.34 182.77L363.17 181.96H367.45L371.13 208.6L389.69 182.77L393.09 183.53L393.08 183.51Z" fill="#F5C12B"/>
<path d="M324.912 238.93C324.962 238.93 325.122 238.3 325.142 237.25C325.162 236.2 324.992 234.72 324.462 233.2C323.922 231.68 323.142 230.45 322.472 229.66C321.802 228.87 321.292 228.49 321.252 228.54C321.132 228.64 322.992 230.42 324.012 233.38C325.072 236.32 324.762 238.94 324.912 238.94V238.93Z" fill="#1A2E35"/>
<path d="M294.972 231.84L321.242 231.61L331.182 202.27C331.182 202.27 332.372 199.29 336.382 191.92C341.642 182.24 348.332 182.75 348.332 182.75L356.392 195.29L347.832 214.5C347.832 214.5 339.642 250.72 330.142 252.31C314.382 254.95 286.172 244.06 286.172 244.06L294.972 231.83V231.84Z" fill="#F5C12B"/>
<g opacity="0.2">
<path d="M341.08 240.83C341.06 239.83 340.81 238.55 341.67 238.12C342.36 237.78 343.18 238.03 343.9 238.29C365.67 246.01 378.26 237.05 400.03 244.77L404.46 267.13C394.8 267.21 390.39 264.95 380.89 261.91C371.2 258.81 361.51 255.71 352.01 252.03C349.39 251.02 346.74 249.93 344.54 248.12C342.34 246.31 341.15 243.77 341.08 240.84V240.83Z" fill="black"/>
</g>
<path d="M346.359 203.86C346.439 203.91 346.159 204.44 345.849 205.34C345.539 206.25 345.189 207.52 344.939 208.97C344.429 211.86 344.319 214.25 344.179 214.25C344.039 214.25 343.909 211.82 344.429 208.88C344.689 207.41 345.099 206.11 345.509 205.21C345.919 204.31 346.309 203.83 346.359 203.86Z" fill="#1A2E35"/>
<path d="M480.465 232.494L486.483 232.648C489.922 232.737 492.649 235.608 492.561 239.046L492.542 239.786C492.454 243.225 489.583 245.952 486.144 245.864L480.126 245.71L480.465 232.494Z" fill="#009AD8"/>
<path d="M216.893 226.84L270.673 221.41L472.753 226.61C474.723 226.66 476.273 228.3 476.223 230.26L475.733 249.23C475.683 251.2 474.043 252.75 472.083 252.7L269.233 247.48L216.633 236.69L216.883 226.84H216.893Z" fill="#009AD8"/>
<path d="M216.802 229.61L211.862 229.48L207.662 230.9C207.312 231.16 207.402 231.49 207.642 231.85L211.862 233.23L216.702 233.35L216.802 229.6V229.61Z" fill="#1A2E35"/>
<path d="M274.868 221.5L270.68 221.392L270.01 247.483L274.199 247.591L274.868 221.5Z" fill="#1A2E35"/>
<path d="M476.911 227.77C476.841 230.34 474.711 232.36 472.151 232.3L371.281 229.7C368.711 229.63 366.691 227.5 366.751 224.94C366.821 222.37 368.951 220.35 371.511 220.41L472.381 223.01C474.951 223.08 476.971 225.21 476.911 227.77Z" fill="#009AD8"/>
<path d="M476.912 227.77C476.842 227.79 477.032 226.91 476.342 225.53C475.982 224.87 475.362 224.1 474.372 223.6C473.882 223.35 473.302 223.17 472.672 223.12C472.032 223.08 471.342 223.09 470.612 223.06C464.752 222.93 456.302 222.74 445.862 222.51C435.412 222.26 422.972 221.96 409.162 221.62C402.252 221.45 395.002 221.27 387.492 221.08C383.732 220.98 379.912 220.89 376.032 220.79C375.062 220.77 374.092 220.74 373.112 220.72C372.132 220.72 371.142 220.58 370.262 220.83C368.452 221.29 367.052 223.05 367.022 224.94C366.942 226.84 368.252 228.66 370.032 229.22C370.902 229.52 371.892 229.43 372.872 229.48C373.852 229.51 374.822 229.53 375.792 229.56C379.672 229.66 383.502 229.76 387.262 229.86C394.782 230.06 402.032 230.25 408.932 230.43C422.742 230.81 435.182 231.15 445.632 231.43C456.062 231.73 464.512 231.98 470.372 232.15C471.102 232.17 471.792 232.21 472.432 232.2C473.072 232.18 473.652 232.03 474.162 231.81C475.182 231.36 475.842 230.63 476.232 229.98C476.992 228.64 476.852 227.75 476.912 227.77C476.912 227.77 476.922 227.97 476.882 228.37C476.832 228.76 476.702 229.35 476.322 230.03C475.932 230.7 475.272 231.46 474.222 231.95C473.702 232.19 473.102 232.36 472.442 232.38C471.782 232.4 471.102 232.36 470.372 232.35C464.512 232.22 456.062 232.03 445.632 231.8C435.182 231.55 422.742 231.25 408.932 230.91C402.022 230.74 394.772 230.56 387.262 230.37C383.502 230.27 379.682 230.18 375.792 230.08C374.822 230.06 373.852 230.03 372.872 230.01L371.402 229.97C370.902 229.95 370.372 229.89 369.882 229.72C367.882 229.09 366.422 227.05 366.512 224.93C366.542 222.8 368.102 220.85 370.132 220.33C370.632 220.19 371.162 220.16 371.662 220.16L373.132 220.2C374.112 220.23 375.082 220.25 376.052 220.28C379.932 220.38 383.752 220.48 387.512 220.58C395.022 220.78 402.272 220.97 409.182 221.15C422.992 221.53 435.422 221.87 445.882 222.15C456.312 222.45 464.762 222.7 470.622 222.87C471.352 222.9 472.032 222.9 472.692 222.95C473.352 223.01 473.942 223.21 474.452 223.47C475.472 224.01 476.092 224.81 476.442 225.49C476.792 226.19 476.892 226.79 476.922 227.18C476.952 227.58 476.922 227.78 476.922 227.78L476.912 227.77Z" fill="#1A2E35"/>
<path d="M476.253 228.98L481.433 231.61L481.053 246.6L475.723 249.59L476.253 228.98Z" fill="#1A2E35"/>
<path d="M415.162 239.53L403.712 221.89L402.682 220.31L401.142 217.92L407.862 190.54C407.862 190.54 413.612 193.18 416.762 197.58C419.942 202.01 423.772 210.08 423.772 210.08C423.772 210.08 434.972 235.7 436.812 239.52C438.652 243.34 441.622 250.42 436.812 254.39C432.002 258.36 399.772 258.49 399.772 258.49L397.602 242.3L415.142 239.54L415.162 239.53Z" fill="#F5C12B"/>
<path d="M401.05 215.03C401.14 215.01 400.88 213.83 400.78 211.9C400.67 209.97 400.79 207.28 401.52 204.42C402.26 201.56 403.44 199.14 404.46 197.5C405.48 195.85 406.27 194.93 406.2 194.88C406.18 194.86 405.96 195.07 405.59 195.48C405.22 195.88 404.73 196.51 404.17 197.32C403.06 198.94 401.8 201.39 401.05 204.31C400.31 207.23 400.24 209.98 400.44 211.94C400.54 212.92 400.67 213.7 400.8 214.23C400.93 214.76 401.01 215.05 401.05 215.05V215.03Z" fill="#1A2E35"/>
<path d="M393.911 245.27C393.911 245.27 393.121 243.27 391.011 241.44C388.901 239.61 384.271 238.19 383.671 236.43C383.071 234.67 381.311 236.04 381.721 238.22C381.981 239.61 384.851 243.26 384.851 243.26C384.851 243.26 381.481 244.1 379.241 242.81C377.001 241.52 369.151 239.2 368.311 240.29C367.361 241.53 369.421 241.95 370.301 242.45C370.971 242.83 376.191 245.42 376.191 245.42C376.191 245.42 365.811 245.07 364.501 245.56C363.081 246.1 364.531 247.35 365.191 247.38C365.601 247.4 367.381 248.99 368.641 250.16C369.501 250.96 370.621 251.41 371.791 251.42L374.201 251.46L366.871 252.23C366.871 252.23 365.601 253.39 367.371 253.99C368.161 254.26 388.471 256.1 390.201 256.04C394.111 255.91 399.561 255.64 399.561 255.64L398.611 244.64L393.931 245.27H393.911Z" fill="#FFC19D"/>
<path d="M365.001 247.52C364.961 247.63 367.121 248.52 369.941 249.02C372.761 249.53 375.091 249.45 375.091 249.32C375.091 249.18 372.801 249.05 370.021 248.55C367.241 248.06 365.041 247.39 365.001 247.52Z" fill="#FF9C6A"/>
<g opacity="0.3">
<path d="M288.363 234.78C290.363 234.34 292.283 235.62 293.933 236.83C294.953 237.58 295.983 238.34 296.883 239.23C299.413 241.76 300.743 245.23 302.873 248.11L290.913 246.29L288.373 234.78H288.363Z" fill="black"/>
</g>
<path d="M306.672 248.6L301.442 247.51C301.442 247.51 296.742 240.01 294.272 239.1L292.882 238.48C292.882 238.48 291.072 234.5 288.602 235.01C287.132 234.05 285.822 234.43 285.682 235.9C285.682 235.9 284.952 232.57 282.232 233.94C279.512 235.31 286.002 246.84 286.002 246.84C286.002 246.84 288.282 252.75 291.112 250.77C291.112 250.77 293.942 251.43 295.832 250.37C295.832 250.37 297.582 252.84 301.722 250.96L306.682 248.6H306.672Z" fill="#FFC19D"/>
<path d="M295.312 249C295.312 249 295.222 249.19 295.282 249.56C295.332 249.92 295.542 250.44 296.002 250.9C296.452 251.37 297.192 251.77 298.052 251.86C298.912 251.97 299.852 251.82 300.782 251.56C302.642 251.05 304.212 250.26 305.272 249.59C306.332 248.92 306.912 248.39 306.872 248.35C306.792 248.22 304.292 250.11 300.652 251.1C299.752 251.35 298.882 251.5 298.102 251.42C297.322 251.36 296.672 251.04 296.232 250.65C295.322 249.85 295.392 248.97 295.312 249Z" fill="#FF9C6A"/>
<path d="M290.302 246.35C290.422 246.27 288.852 244 287.512 240.91C286.142 237.83 285.542 235.14 285.402 235.18C285.342 235.19 285.422 235.88 285.672 236.97C285.932 238.06 286.392 239.54 287.072 241.11C287.762 242.67 288.542 244.02 289.172 244.94C289.802 245.87 290.252 246.39 290.302 246.35Z" fill="#FF9C6A"/>
<path d="M293.302 246.1C293.422 246.03 292.102 243.67 290.812 240.62C289.512 237.57 288.742 234.98 288.602 235.02C288.482 235.05 289.052 237.72 290.372 240.81C291.672 243.9 293.202 246.17 293.302 246.11V246.1Z" fill="#FF9C6A"/>
<path d="M289.284 248.77C289.154 248.77 289.264 249.73 290.124 250.44C290.974 251.16 291.924 251.1 291.914 250.97C291.924 250.83 291.144 250.68 290.434 250.07C289.704 249.48 289.424 248.73 289.294 248.77H289.284Z" fill="#FF9C6A"/>
<path d="M296.552 244.45C296.662 244.37 295.822 243.12 294.862 241.54C293.902 239.96 293.172 238.64 293.052 238.7C292.932 238.75 293.472 240.19 294.452 241.79C295.432 243.4 296.452 244.54 296.552 244.46V244.45Z" fill="#FF9C6A"/>
<path d="M146.948 86.84L143.578 87.21L144.678 97.36L140.058 97.86L138.958 87.71L135.608 88.07L135.148 83.84L146.488 82.61L146.948 86.84Z" fill="black"/>
<path d="M159.2 91.87L159.62 95.73L149.49 96.83L147.93 82.45L157.87 81.37L158.29 85.23L152.97 85.81L153.14 87.41L157.8 86.9L158.16 90.23L153.5 90.74L153.69 92.47L159.19 91.87H159.2Z" fill="black"/>
<path d="M166.689 90.47L165.399 90.61L165.879 95.05L161.259 95.55L159.699 81.17L165.779 80.51C169.739 80.08 172.059 81.68 172.419 85C172.619 86.83 171.999 88.18 170.809 89.08L174.429 94.11L169.419 94.65L166.699 90.46L166.689 90.47ZM164.989 86.91L166.449 86.75C167.389 86.65 167.829 86.27 167.749 85.51C167.669 84.75 167.159 84.45 166.209 84.56L164.749 84.72L164.989 86.92V86.91Z" fill="black"/>
<path d="M190.807 77.79L192.367 92.17L187.747 92.67L186.927 85.11L184.327 91L183.057 91.14L179.247 85.94L180.067 93.5L175.447 94L173.887 79.62L178.857 79.08L183.017 84.82L185.847 78.32L190.817 77.78L190.807 77.79Z" fill="black"/>
<path d="M205.06 86.16C205.34 88.75 203.699 91.21 199.789 91.64C197.079 91.93 194.12 91.28 193.21 88.47L196.899 86.86C197.059 87.59 198.07 88.04 199.16 87.92C199.96 87.83 200.52 87.46 200.46 86.91C200.38 86.19 199.5 86.25 198.02 86.05C195.32 85.7 193.29 84.98 192.97 82.03C192.66 79.22 194.95 77.1 198.11 76.75C200.64 76.48 203.07 77.48 203.86 79.95L200.16 81.29C199.93 80.73 199.33 80.4 198.55 80.49C197.73 80.58 197.33 80.95 197.39 81.45C197.47 82.15 198.539 82.09 199.679 82.28C203.299 82.86 204.79 83.74 205.05 86.16H205.06Z" fill="black"/>
<path d="M63.5199 245.54C83.6399 269.07 89.5199 303.91 78.2299 332.74C65.6899 321.55 56.8599 304.49 56.2999 289.57C55.7399 274.65 59.6499 259.96 63.5199 245.54Z" fill="#F5C12B"/>
<path d="M67.0281 335.46C73.8581 345.92 77.1181 358.66 76.1781 371.11C65.2981 367.32 55.7181 355.04 49.9681 345.06C44.2181 335.08 41.0081 323.87 38.0781 312.73C49.8581 316.88 60.2081 325 67.0281 335.46Z" fill="#009AD8"/>
<path d="M68.7791 286.85C76.8891 315.97 80.9891 346.16 80.9291 376.39C80.9091 384.83 80.5691 393.26 79.9091 401.67C79.8691 402.15 80.6191 402.15 80.6591 401.67C83.0191 371.63 81.2691 341.3 75.4591 311.74C73.7991 303.3 71.8091 294.94 69.5091 286.65C69.3791 286.19 68.6591 286.38 68.7891 286.85H68.7791Z" fill="#1A2E35"/>
<path d="M81.2164 380.74C74.7864 365.42 66.8164 350.81 57.6264 336.97C54.9964 333.01 52.2764 329.11 49.4764 325.27C49.1964 324.88 48.5464 325.26 48.8264 325.65C58.5464 338.98 67.2864 353.03 74.5464 367.85C76.6564 372.16 78.6364 376.52 80.4864 380.94C80.6664 381.38 81.3964 381.19 81.2064 380.74H81.2164Z" fill="#1A2E35"/>
<path d="M92.17 351.76C86.48 360.48 83.75 371.1 84.54 381.49C93.61 378.33 101.6 368.09 106.4 359.77C111.19 351.45 113.87 342.1 116.31 332.81C106.49 336.27 97.86 343.04 92.17 351.76Z" fill="#009AD8"/>
<path d="M81.47 388.58C88.21 372.53 97.16 357.65 107.4 343.61C107.68 343.22 107.03 342.84 106.75 343.23C96.47 357.33 87.52 372.27 80.75 388.38C80.56 388.82 81.29 389.02 81.47 388.58Z" fill="#1A2E35"/>
<path d="M80.9479 393.17C68.1479 380 55.0779 367.1 42.2879 353.93C41.9479 353.58 41.4179 354.11 41.7579 354.46C54.5579 367.63 67.6279 380.53 80.4179 393.7C80.7579 394.05 81.2879 393.52 80.9479 393.17Z" fill="#1A2E35"/>
<path d="M41.2465 348.44C52.3465 359.15 62.4665 370.88 71.4265 383.44H69.3965C60.9465 383.04 52.7365 378.87 47.4365 372.28C42.1365 365.69 39.8165 356.78 41.2465 348.44Z" fill="#F5C12B"/>
<path d="M93.1281 322.5C88.3581 330.3 83.8681 338.26 79.6581 346.37C79.4381 346.8 80.0881 347.18 80.3081 346.75C84.5181 338.64 89.0081 330.68 93.7781 322.88C94.0281 322.47 93.3781 322.09 93.1281 322.5Z" fill="#1A2E35"/>
<path d="M105.299 283.54C107.119 291.72 108.919 302.35 108.939 310.87C108.959 319.39 106.359 327.7 101.519 333.4C96.6787 339.11 86.9088 341.61 82.9688 338.34L105.299 283.54Z" fill="#F5C12B"/>
<path d="M57.0369 406.51H105.547V397.52H57.0369V406.51Z" fill="#1A2E35"/>
<path d="M64.8981 438.54H95.0181L100.498 404.46H60.5781L64.8981 438.54Z" fill="#1A2E35"/>
<path opacity="0.2" d="M100.139 406.68H60.8594L61.3494 410.54H99.5194L100.139 406.68Z" fill="black"/>
</g>
<defs>
<clipPath id="clip0_3588_7412">
<rect width="492.54" height="482.83" fill="white"/>
</clipPath>
</defs>
</svg>
