<svg width="393" height="378" viewBox="0 0 393 378" fill="none" xmlns="http://www.w3.org/2000/svg">
<path d="M14.4683 196.985C7.72199 207.509 2.77427 219.202 0.85232 232.9C-5.92645 281.273 28.331 338.222 82.1976 333.243C112.579 330.432 138.96 310.637 169.9 310.65C202.878 310.657 232.447 328.458 266.023 323.732C295.573 319.57 323.967 306.008 344.843 284.545C449.725 176.71 312.63 -10.8809 177.769 44.1467C141.966 58.7541 113.157 86.7938 87.5089 114.911C63.7637 140.951 33.4151 167.42 14.4683 196.985Z" fill="#E5F2F7" fill-opacity="0.2"/>
<path d="M276.181 80.347C278.564 80.347 280.499 78.4123 280.499 76.0297C280.499 73.6471 278.564 71.7124 276.181 71.7124C273.798 71.7124 271.863 73.6471 271.863 76.0297C271.863 78.4123 273.798 80.347 276.181 80.347Z" fill="#008BD2"/>
<path d="M276.181 105.692C278.564 105.692 280.499 103.758 280.499 101.375C280.499 98.9925 278.564 97.0579 276.181 97.0579C273.798 97.0579 271.863 98.9925 271.863 101.375C271.863 103.758 273.798 105.692 276.181 105.692Z" fill="#008BD2"/>
<path d="M276.181 131.031C278.564 131.031 280.499 129.097 280.499 126.714C280.499 124.331 278.564 122.397 276.181 122.397C273.798 122.397 271.863 124.331 271.863 126.714C271.863 129.097 273.798 131.031 276.181 131.031Z" fill="#008BD2"/>
<path d="M131.78 293.79C131.78 291.407 129.845 289.473 127.462 289.473C125.079 289.473 123.145 291.407 123.145 293.79C123.145 296.173 125.079 298.107 127.462 298.107C129.845 298.107 131.78 296.173 131.78 293.79Z" fill="#8EC0F5"/>
<path d="M157.124 293.79C157.124 291.407 155.189 289.473 152.806 289.473C150.423 289.473 148.488 291.407 148.488 293.79C148.488 296.173 150.423 298.107 152.806 298.107C155.189 298.107 157.124 296.173 157.124 293.79Z" fill="#8EC0F5"/>
<path d="M182.472 293.79C182.472 291.407 180.537 289.473 178.154 289.473C175.771 289.473 173.836 291.407 173.836 293.79C173.836 296.173 175.771 298.107 178.154 298.107C180.537 298.107 182.472 296.173 182.472 293.79Z" fill="#8EC0F5"/>
<path d="M368.962 180.632H301.441C300.261 180.632 299.305 181.588 299.305 182.768V206.548C299.305 207.728 300.261 208.684 301.441 208.684H368.962C370.142 208.684 371.099 207.728 371.099 206.548V182.768C371.099 181.588 370.142 180.632 368.962 180.632Z" fill="#8EC0F5"/>
<path d="M365.566 208.684H304.836V212.755H365.566V208.684Z" fill="#005094"/>
<path d="M305.277 184.923H365.124C365.663 184.923 366.104 185.364 366.104 185.903V195.122C366.104 195.661 365.663 196.102 365.124 196.102H305.277C304.738 196.102 304.297 195.661 304.297 195.122V185.903C304.297 185.364 304.738 184.923 305.277 184.923Z" fill="#0F1E51"/>
<path d="M366.104 199.212H346.371V202.465H366.104V199.212Z" fill="#00EB9C"/>
<path d="M335.307 202.465H341.988V199.212H335.307V202.465Z" fill="#008BD2"/>
<path d="M368.962 212.755H301.441C300.261 212.755 299.305 213.711 299.305 214.891V238.672C299.305 239.851 300.261 240.808 301.441 240.808H368.962C370.142 240.808 371.099 239.851 371.099 238.672V214.891C371.099 213.711 370.142 212.755 368.962 212.755Z" fill="#8EC0F5"/>
<path d="M365.566 240.808H304.836V244.878H365.566V240.808Z" fill="#005094"/>
<path d="M365.124 217.053H305.277C304.736 217.053 304.297 217.492 304.297 218.033V227.252C304.297 227.793 304.736 228.232 305.277 228.232H365.124C365.666 228.232 366.104 227.793 366.104 227.252V218.033C366.104 217.492 365.666 217.053 365.124 217.053Z" fill="#0F1E51"/>
<path d="M366.104 231.335H346.371V234.588H366.104V231.335Z" fill="#00EB9C"/>
<path d="M335.307 234.595H341.988V231.342H335.307V234.595Z" fill="#008BD2"/>
<path d="M368.962 244.885H301.441C300.261 244.885 299.305 245.841 299.305 247.02V270.801C299.305 271.981 300.261 272.937 301.441 272.937H368.962C370.142 272.937 371.099 271.981 371.099 270.801V247.02C371.099 245.841 370.142 244.885 368.962 244.885Z" fill="#8EC0F5"/>
<path d="M365.566 272.937H304.836V277.008H365.566V272.937Z" fill="#005094"/>
<path d="M305.277 249.176H365.124C365.663 249.176 366.104 249.617 366.104 250.156V259.375C366.104 259.914 365.663 260.355 365.124 260.355H305.277C304.738 260.355 304.297 259.914 304.297 259.375V250.156C304.297 249.617 304.738 249.176 305.277 249.176Z" fill="#0F1E51"/>
<path d="M366.104 263.465H346.371V266.718H366.104V263.465Z" fill="#00EB9C"/>
<path d="M335.307 266.724H341.988V263.472H335.307V266.724Z" fill="#008BD2"/>
<path d="M114.455 145.269H260.699C263.549 145.269 265.861 147.58 265.861 150.43V249.812H109.293V150.43C109.293 147.58 111.605 145.269 114.455 145.269Z" fill="#0099D7"/>
<path d="M259.997 156.533V243.95H115.156V156.533C115.156 153.553 117.572 151.138 120.552 151.138H254.589C257.569 151.138 259.997 153.553 259.997 156.533Z" fill="#CCEEFD"/>
<path d="M265.862 249.812H109.295L86.1016 264.432H289.062L265.862 249.812Z" fill="#00AAE8"/>
<path d="M86.1002 264.432H289.061V271.106C289.061 275.683 285.347 279.397 280.769 279.397H94.3854C89.8078 279.397 86.0938 275.683 86.0938 271.106V264.432H86.1002Z" fill="#0F1E51"/>
<path d="M172.762 271.911H202.396C203.52 271.911 204.572 271.301 205.253 270.269L209.091 264.432H166.074L169.912 270.269C170.593 271.308 171.652 271.911 172.769 271.911H172.762Z" fill="#008BD2"/>
<path d="M241.635 166.609H137.051V243.95H241.635V166.609Z" fill="#8EC0F5"/>
<path d="M193.741 192.181H142.199V238.814H193.741V192.181Z" fill="#005094"/>
<path d="M184.905 202.179H151.043C150.043 202.179 149.238 201.368 149.238 200.374C149.238 199.375 150.05 198.569 151.043 198.569H184.905C185.905 198.569 186.71 199.381 186.71 200.374C186.71 201.374 185.898 202.179 184.905 202.179Z" fill="#008BD2"/>
<path d="M184.905 212.268H151.043C150.043 212.268 149.238 211.456 149.238 210.463C149.238 209.463 150.05 208.658 151.043 208.658H184.905C185.905 208.658 186.71 209.47 186.71 210.463C186.71 211.463 185.898 212.268 184.905 212.268Z" fill="#008BD2"/>
<path d="M184.905 222.35H151.043C150.043 222.35 149.238 221.539 149.238 220.545C149.238 219.546 150.05 218.741 151.043 218.741H184.905C185.905 218.741 186.71 219.552 186.71 220.545C186.71 221.545 185.898 222.35 184.905 222.35Z" fill="#008BD2"/>
<path d="M184.905 232.433H151.043C150.043 232.433 149.238 231.621 149.238 230.628C149.238 229.628 150.05 228.823 151.043 228.823H184.905C185.905 228.823 186.71 229.635 186.71 230.628C186.71 231.628 185.898 232.433 184.905 232.433Z" fill="#008BD2"/>
<path d="M237.706 170.595H142.199V187.267H237.706V170.595Z" fill="white"/>
<path d="M241.635 159.318H137.051V166.608H241.635V159.318Z" fill="#0F1E51"/>
<path d="M145.056 162.966C145.056 161.876 144.173 160.999 143.088 160.999C142.004 160.999 141.121 161.882 141.121 162.966C141.121 164.051 142.004 164.934 143.088 164.934C144.173 164.934 145.056 164.051 145.056 162.966Z" fill="#FF7725"/>
<path d="M152.81 162.966C152.81 161.876 151.927 160.999 150.842 160.999C149.758 160.999 148.875 161.882 148.875 162.966C148.875 164.051 149.758 164.934 150.842 164.934C151.927 164.934 152.81 164.051 152.81 162.966Z" fill="#FFC631"/>
<path d="M160.556 162.966C160.556 161.876 159.673 160.999 158.588 160.999C157.504 160.999 156.621 161.882 156.621 162.966C156.621 164.051 157.504 164.934 158.588 164.934C159.673 164.934 160.556 164.051 160.556 162.966Z" fill="#00EB9C"/>
<path d="M237.706 192.187H199.332V238.821H237.706V192.187Z" fill="#CCEEFD"/>
<path d="M208.389 203.328C210.746 199.985 212.038 196.038 212.843 192.181H210.668C209.895 195.7 208.713 199.134 206.635 202.095C204.96 204.477 202.343 206.685 199.344 207.723V209.963C203.097 208.879 206.35 206.211 208.395 203.322L208.389 203.328ZM229.316 233.264C228.283 234.822 227.9 236.601 227.524 238.314C227.491 238.483 227.446 238.646 227.42 238.821H229.621C229.621 238.821 229.634 238.788 229.634 238.769C229.978 237.178 230.309 235.672 231.114 234.445C232.367 232.549 234.698 231.472 236.776 230.628C237.088 230.498 237.387 230.381 237.711 230.264V227.979C237.107 228.18 236.53 228.407 235.965 228.641C233.582 229.609 230.913 230.849 229.322 233.264H229.316ZM208.856 215.683C212.888 213.203 218.005 209.729 221.803 204.815C224.81 200.933 226.608 196.472 226.965 192.181H224.797C224.439 196.012 222.823 199.998 220.109 203.51C216.518 208.145 211.609 211.482 207.726 213.859C207.116 214.235 206.48 214.612 205.863 214.995C203.655 216.326 201.389 217.676 199.331 219.299V222.11C201.616 220.052 204.33 218.422 206.967 216.832C207.596 216.449 208.233 216.072 208.856 215.683ZM225.342 215.514C223.517 216.598 221.621 217.637 219.784 218.643C215.771 220.864 211.609 223.149 207.908 226.044C204.097 229.018 201.181 232.413 199.324 235.997V238.821H200.363C202.447 233.66 206.564 229.81 209.226 227.739C212.797 224.947 216.875 222.694 220.823 220.519C222.667 219.5 224.589 218.448 226.433 217.345C229.809 215.339 234.199 212.443 237.698 208.431V204.997C234.231 209.833 229.114 213.255 225.342 215.508V215.514ZM220.076 230.563C217.563 233.114 216.18 236.036 216.096 238.821H218.239C218.349 236.601 219.537 234.179 221.608 232.063C223.777 229.842 226.459 228.213 229.03 226.778C231.842 225.213 234.737 223.766 237.698 222.474V220.123C234.387 221.539 231.121 223.149 227.991 224.895C225.277 226.408 222.433 228.148 220.076 230.556V230.563Z" fill="#008BD2"/>
<g style="mix-blend-mode:overlay" opacity="0.4">
<path d="M259.997 156.533V163.921L179.97 243.95H115.156V225.531L189.56 151.138H254.589C257.569 151.138 259.997 153.553 259.997 156.533Z" fill="white"/>
</g>
<path d="M230.117 148.391H195.47L188.263 166.634L180.555 148.391H145.908C134.201 148.391 124.715 138.906 124.715 127.201V118.949C124.715 107.244 134.201 97.759 145.908 97.759H230.117C241.824 97.759 251.31 107.244 251.31 118.949V127.201C251.31 138.906 241.824 148.391 230.117 148.391Z" fill="#0F1E51"/>
<path d="M172.684 132.596H159.516L157.068 138.646H148.082L161.834 107.504H170.509L184.3 138.646H175.132L172.684 132.596ZM170.107 126.104L166.1 116.138L162.094 126.104H170.107Z" fill="white"/>
<path d="M214.865 119.021C214.865 126.097 209.528 130.499 201.028 130.499H195.6V138.64H186.789V107.497H201.028C209.528 107.497 214.865 111.899 214.865 119.021ZM205.97 119.021C205.97 116.132 204.145 114.437 200.496 114.437H195.6V123.559H200.496C204.145 123.559 205.97 121.871 205.97 119.021Z" fill="white"/>
<path d="M219.129 107.504H227.94V138.647H219.129V107.504Z" fill="white"/>
<ellipse cx="336.649" cy="295.465" rx="0.649308" ry="0.649217" fill="#8EC0F5"/>
<path d="M336.649 298.049V329.627C336.649 355.985 315.28 377.351 288.918 377.351C262.556 377.351 241.188 355.985 241.188 329.627V287.752" stroke="#8EC0F5" stroke-width="2" stroke-linecap="round" stroke-linejoin="round"/>
<ellipse cx="241.181" cy="286.46" rx="0.649308" ry="0.649217" fill="#8EC0F5"/>
<path d="M336.648 298.029C337.997 298.029 339.09 296.937 339.09 295.588C339.09 294.24 337.997 293.147 336.648 293.147C335.3 293.147 334.207 294.24 334.207 295.588C334.207 296.937 335.3 298.029 336.648 298.029Z" fill="#8EC0F5"/>
<ellipse cx="63.2899" cy="82.5348" rx="0.649308" ry="0.649217" fill="#8EC0F5"/>
<path d="M63.2891 79.951V48.3731C63.2891 22.0149 84.6643 0.64917 111.026 0.64917C137.388 0.64917 158.757 22.0149 158.757 48.3731V90.2476" stroke="#8EC0F5" stroke-width="2" stroke-linecap="round" stroke-linejoin="round"/>
<ellipse cx="158.759" cy="91.5395" rx="0.649308" ry="0.649217" fill="#8EC0F5"/>
<path d="M63.2891 84.8526C64.6374 84.8526 65.7305 83.7597 65.7305 82.4115C65.7305 81.0634 64.6374 79.9705 63.2891 79.9705C61.9407 79.9705 60.8477 81.0634 60.8477 82.4115C60.8477 83.7597 61.9407 84.8526 63.2891 84.8526Z" fill="#8EC0F5"/>
<path d="M389.904 157.649H387.041C387.417 156.13 387.645 154.52 387.645 152.871C387.645 142.484 379.223 134.063 368.834 134.063C367.717 134.063 366.646 134.154 365.594 134.355V134.063C365.594 119.008 353.4 106.816 338.343 106.816C324.09 106.816 312.409 117.735 311.202 131.674C299.073 133.057 289.664 143.334 289.664 155.818C289.664 156.442 289.684 157.045 289.729 157.649H287.404C285.69 157.649 284.301 159.039 284.301 160.752C284.301 162.466 285.69 163.856 287.404 163.856H389.898C391.612 163.856 393.001 162.466 393.001 160.752C393.001 159.039 391.612 157.649 389.898 157.649H389.904Z" fill="#8EC0F5"/>
<path d="M90.2951 92.9744H21.6633C18.2745 92.9744 15.5273 95.7211 15.5273 99.1095V222.792C15.5273 226.18 18.2745 228.927 21.6633 228.927H90.2951C93.6839 228.927 96.4311 226.18 96.4311 222.792V99.1095C96.4311 95.7211 93.6839 92.9744 90.2951 92.9744Z" fill="#8EC0F5"/>
<path d="M91.0664 220.675L91.0664 101.226C91.0664 99.6304 89.7728 98.3369 88.177 98.3369H23.7786C22.1829 98.3369 20.8892 99.6304 20.8892 101.226L20.8892 220.675C20.8892 222.271 22.1829 223.564 23.7786 223.564H88.177C89.7728 223.564 91.0664 222.271 91.0664 220.675Z" fill="#0F1E51"/>
<path d="M67.1036 187.508C81.779 181.37 88.6993 164.499 82.5604 149.825C76.4216 135.152 59.5483 128.233 44.8729 134.371C30.1975 140.509 23.2773 157.38 29.4161 172.053C35.555 186.726 52.4283 193.646 67.1036 187.508Z" fill="#008BD2"/>
<path d="M63.4433 183.256C75.7634 179.132 82.4071 165.802 78.2824 153.484C74.1578 141.166 60.8267 134.523 48.5067 138.647C36.1866 142.771 29.5429 156.1 33.6675 168.418C37.7922 180.737 51.1232 187.38 63.4433 183.256Z" fill="white"/>
<path d="M50.5006 174.211H50.4746C49.7928 174.204 49.163 173.873 48.7604 173.321L42.8258 165.115C42.131 164.154 42.3453 162.817 43.3063 162.122C44.2607 161.428 45.6048 161.642 46.2996 162.603L50.5395 168.465L65.6879 148.528C66.4086 147.586 67.7527 147.398 68.6942 148.119C69.6357 148.833 69.824 150.183 69.1033 151.125L52.2018 173.367C51.7927 173.899 51.1629 174.217 50.4941 174.217L50.5006 174.211Z" fill="#00EB9C"/>
<path d="M41.6956 244.482C41.6956 242.885 40.3969 241.587 38.7996 241.587H23.7162C22.1189 241.587 20.8203 242.885 20.8203 244.482V290.667H81.8877V251.773C81.8877 249.345 79.9203 247.378 77.4919 247.378H44.5915C42.9942 247.378 41.6956 246.079 41.6956 244.482Z" fill="#005094"/>
<path d="M20.8203 290.667L25.9369 256.006C26.255 253.85 28.1055 252.253 30.2872 252.253H82.5695C85.2576 252.253 87.3159 254.642 86.9134 257.304L81.8812 290.667H20.8203Z" fill="#8EC0F5"/>
<path d="M336.793 61.4353C321.385 61.4353 308.898 73.9197 308.898 89.3257C308.898 104.732 321.391 117.216 336.793 117.216C352.194 117.216 364.687 104.732 364.687 89.3257C364.687 73.9197 352.194 61.4353 336.793 61.4353ZM329.611 64.0841C328.345 65.4215 327.176 67.1289 326.138 69.174C325.495 70.4399 324.923 71.8098 324.417 73.2575C324.19 73.1342 323.969 73.0043 323.748 72.8745C323.579 72.7771 323.41 72.6732 323.248 72.5694C321.891 71.7254 320.605 70.7581 319.411 69.6804C322.378 67.051 325.852 65.1488 329.611 64.0841ZM318.021 71.0048C319.359 72.2253 320.8 73.316 322.32 74.2508C322.508 74.3677 322.677 74.4716 322.846 74.569C323.17 74.7572 323.495 74.939 323.82 75.1143C322.644 79.1265 321.982 83.5671 321.904 88.3648H310.554C310.788 81.7883 313.418 75.6986 318.015 71.0048H318.021ZM310.567 90.3255H321.911C321.995 95.1232 322.657 99.5249 323.826 103.505C323.501 103.68 323.177 103.881 322.852 104.069C322.683 104.167 322.501 104.284 322.32 104.4C320.787 105.348 319.339 106.413 317.995 107.64C313.586 103.128 310.833 97.0773 310.567 90.3255ZM319.385 109.003C320.586 107.919 321.878 106.939 323.248 106.088C323.417 105.985 323.579 105.881 323.748 105.783C323.969 105.653 324.196 105.524 324.423 105.4C324.93 106.848 325.501 108.211 326.144 109.484C327.183 111.535 328.352 113.243 329.624 114.58C325.754 113.49 322.281 111.555 319.391 108.997L319.385 109.003ZM335.76 115.554C335.585 115.554 335.624 115.554 335.553 115.548C334.877 115.515 334.202 115.457 333.533 115.372C331.274 114.21 329.196 111.853 327.482 108.445C326.891 107.264 326.358 105.991 325.891 104.647C327.741 103.771 329.676 103.109 331.683 102.674C331.864 102.635 332.053 102.596 332.248 102.557C333.403 102.336 334.514 102.187 335.76 102.115V115.554ZM335.76 100.213C334.338 100.284 333.196 100.44 331.949 100.674C331.767 100.706 331.572 100.745 331.351 100.797C329.261 101.239 327.241 101.875 325.313 102.771C324.222 99.0185 323.605 94.7726 323.521 90.3255H335.767V100.213H335.76ZM335.76 88.3713H323.514C323.592 83.9307 324.209 79.6393 325.306 75.8609C327.235 76.7503 329.254 77.4255 331.345 77.867C331.566 77.9124 331.767 77.9514 331.942 77.9838C333.196 78.2241 334.338 78.3734 335.76 78.4448V88.3648V88.3713ZM335.76 76.5556C334.514 76.4841 333.403 76.3413 332.248 76.1141C332.046 76.0751 331.864 76.0362 331.676 75.9972C329.676 75.5623 327.735 74.9001 325.884 74.0236C326.352 72.6797 326.878 71.4073 327.475 70.2257C329.189 66.8173 331.274 64.4607 333.527 63.2986C334.195 63.2142 334.877 63.1557 335.553 63.1233C335.617 63.1233 335.579 63.1233 335.754 63.1168V76.5556H335.76ZM363.018 88.3713H351.668C351.59 83.9307 350.987 79.5225 349.902 75.6467C350.246 75.4844 350.584 75.3091 350.915 75.1273C351.103 75.0234 351.285 74.926 351.454 74.8286C353.097 73.9068 354.655 72.8096 356.09 71.5696C360.35 76.192 362.784 82.1453 363.012 88.3648L363.018 88.3713ZM354.746 70.2192C353.454 71.3164 352.064 72.2967 350.59 73.1277C350.409 73.2316 350.24 73.3225 350.078 73.4134C349.831 73.5432 349.584 73.673 349.337 73.7964C348.792 72.1539 348.156 70.6087 347.435 69.187C346.396 67.1419 345.227 65.4345 343.961 64.0906C347.98 65.2267 351.655 67.3172 354.746 70.2192ZM337.715 63.1168C337.715 63.1168 337.91 63.1168 337.987 63.1233C338.663 63.1557 339.357 63.2142 340.026 63.2986C342.286 64.4607 344.383 66.8173 346.097 70.2257C346.76 71.5371 347.344 72.9654 347.844 74.4846C345.954 75.2896 343.981 75.8674 341.942 76.218C341.766 76.2504 341.546 76.2764 341.338 76.3089C340.163 76.4842 338.955 76.5815 337.708 76.601V63.1168H337.715ZM337.715 78.4967C338.961 78.4772 340.331 78.3799 341.591 78.1916C341.825 78.1591 342.033 78.1267 342.208 78.0942C344.338 77.7371 346.415 77.1399 348.396 76.3218C349.409 79.9899 349.993 84.106 350.071 88.3713H337.721V78.4902L337.715 78.4967ZM337.715 90.3319H350.065C349.98 94.5973 349.409 98.6809 348.402 102.316C346.422 101.498 344.357 100.921 342.227 100.564C342.052 100.531 341.825 100.512 341.591 100.479C340.331 100.291 338.955 100.207 337.715 100.187V90.3384V90.3319ZM340.026 115.379C339.357 115.463 338.663 115.522 337.987 115.554C337.91 115.554 337.715 115.554 337.715 115.561V102.076C338.961 102.096 340.163 102.187 341.344 102.368C341.546 102.401 341.747 102.427 341.929 102.459C343.961 102.81 345.941 103.388 347.837 104.193C347.331 105.712 346.753 107.134 346.097 108.452C344.383 111.86 342.286 114.223 340.026 115.379ZM343.968 114.587C345.234 113.243 346.409 111.535 347.441 109.49C348.162 108.069 348.798 106.523 349.344 104.881C349.591 105.004 349.837 105.134 350.084 105.264C350.24 105.348 350.409 105.439 350.597 105.543C352.077 106.387 353.48 107.367 354.785 108.478C351.785 111.295 348.104 113.418 343.974 114.587H343.968ZM356.129 107.082C354.681 105.835 353.116 104.771 351.467 103.842C351.298 103.745 351.123 103.647 350.928 103.544C350.59 103.362 350.253 103.154 349.915 102.985C350.987 99.1353 351.597 94.9479 351.681 90.3319H363.025C362.772 96.9085 360.226 102.635 356.136 107.082H356.129Z" fill="#008BD2"/>
<path d="M67.2367 315.48C67.2172 315.299 67.1912 315.123 67.1653 314.942C67.1393 314.76 67.1068 314.584 67.0679 314.403L67.0094 314.137C66.9705 313.955 66.925 313.779 66.8731 313.604C66.3796 311.864 65.503 310.313 64.2628 308.982C63.2694 307.911 62.0942 307.06 60.7826 306.443C60.6657 306.385 60.5488 306.333 60.4319 306.287C60.3215 306.242 60.2112 306.197 60.1008 306.151C59.7631 306.021 59.4125 305.904 59.0619 305.801C58.8866 305.749 58.7113 305.703 58.536 305.664C58.3606 305.625 58.1788 305.586 58.0035 305.554L57.7308 305.508C57.2114 305.431 56.6854 305.385 56.166 305.372C55.64 305.366 55.1141 305.392 54.5947 305.456C54.3869 305.482 54.1791 305.515 53.9713 305.547C53.348 305.658 52.7246 305.827 52.1338 306.041C50.6858 306.56 49.3807 307.359 48.2444 308.417C45.9134 310.592 44.5953 313.669 44.6343 316.857C44.6343 317.129 44.6538 317.402 44.6732 317.675L44.6992 317.947C44.7187 318.129 44.7447 318.304 44.7706 318.486C44.855 319.025 44.9784 319.564 45.1407 320.083C45.1927 320.259 45.2511 320.434 45.316 320.609C45.8355 322.037 46.6276 323.329 47.673 324.446C48.9132 325.777 50.4001 326.764 52.1013 327.381C52.2766 327.445 52.4454 327.504 52.6208 327.556C52.8805 327.634 53.1467 327.705 53.4129 327.77C53.5882 327.809 53.77 327.848 53.9453 327.88L54.2181 327.926C54.3999 327.952 54.5752 327.978 54.757 327.997C55.0297 328.03 55.2959 328.049 55.5686 328.056C55.705 328.056 55.8413 328.062 55.9777 328.062C56.0231 328.062 56.0686 328.062 56.114 328.062C56.5685 328.062 57.0231 328.023 57.4711 327.965C57.6529 327.939 57.8347 327.913 58.01 327.88C58.1918 327.848 58.3671 327.809 58.5424 327.77C58.8087 327.705 59.0749 327.634 59.3346 327.556C60.9709 327.049 62.4383 326.199 63.6979 325.024C64.3992 324.368 65.016 323.635 65.529 322.83C65.6329 322.674 65.7238 322.511 65.8212 322.349C65.9575 322.109 66.0874 321.862 66.2108 321.609C66.2887 321.44 66.3666 321.278 66.438 321.109C66.4835 320.999 66.5289 320.882 66.5744 320.772C66.6588 320.544 66.7432 320.311 66.8146 320.077C66.8666 319.902 66.9185 319.726 66.964 319.551C67.0029 319.408 67.0354 319.265 67.0614 319.129C67.0873 319.006 67.1133 318.876 67.1393 318.752C67.1523 318.662 67.1717 318.571 67.1847 318.486C67.2107 318.304 67.2367 318.123 67.2562 317.947L67.2821 317.675C67.2951 317.493 67.3081 317.311 67.3146 317.129V316.863C67.3276 316.5 67.3146 316.136 67.2821 315.773L67.2562 315.5L67.2367 315.48ZM65.9381 317.064C65.9381 317.227 65.9251 317.383 65.9121 317.538L65.8861 317.779C65.8666 317.934 65.8472 318.097 65.8212 318.259C65.8082 318.337 65.7952 318.415 65.7822 318.493C65.7627 318.603 65.7368 318.713 65.7173 318.824C65.6913 318.947 65.6654 319.071 65.6329 319.194C65.5939 319.35 65.5485 319.506 65.503 319.655C65.4381 319.863 65.3667 320.064 65.2888 320.265C65.2498 320.363 65.2108 320.466 65.1719 320.564C65.1069 320.713 65.042 320.862 64.9706 321.005C64.8667 321.226 64.7498 321.44 64.633 321.654C64.555 321.797 64.4641 321.94 64.3797 322.076C63.9317 322.784 63.3863 323.433 62.7694 324.005C61.6591 325.037 60.367 325.79 58.932 326.231C58.6983 326.303 58.4645 326.368 58.2308 326.42C58.0749 326.459 57.9191 326.491 57.7633 326.517C57.6074 326.543 57.4451 326.569 57.2893 326.588C56.8932 326.64 56.4906 326.666 56.0946 326.673C55.9322 326.673 55.7764 326.673 55.6141 326.673C55.3738 326.666 55.1336 326.647 54.8998 326.621C54.7375 326.601 54.5817 326.582 54.4258 326.556L54.1856 326.517C54.0298 326.491 53.8739 326.459 53.7181 326.42C53.4843 326.368 53.2506 326.303 53.0168 326.231C52.861 326.186 52.7117 326.134 52.5623 326.076C51.0689 325.537 49.7573 324.667 48.6665 323.492C47.7445 322.505 47.0497 321.369 46.5952 320.116C46.5367 319.96 46.4848 319.811 46.4393 319.655C46.2965 319.2 46.1861 318.726 46.1147 318.246C46.0887 318.084 46.0692 317.928 46.0498 317.766L46.0238 317.525C46.0043 317.285 45.9913 317.045 45.9913 316.805C45.9589 313.994 47.1146 311.286 49.1729 309.378C50.1729 308.449 51.3221 307.748 52.5948 307.287C53.1207 307.099 53.6597 306.956 54.2116 306.859C54.3934 306.826 54.5752 306.8 54.7635 306.774C55.166 306.722 55.5686 306.703 55.9712 306.703C56.0296 306.703 56.0881 306.703 56.1465 306.703C56.6075 306.709 57.0685 306.748 57.523 306.82L57.7633 306.859C57.9191 306.885 58.0749 306.917 58.2308 306.956C58.3866 306.995 58.5424 307.034 58.6983 307.073C59.0099 307.157 59.3151 307.261 59.6138 307.378C59.7112 307.417 59.8086 307.456 59.9125 307.502C60.0164 307.547 60.1203 307.592 60.2242 307.638C61.3799 308.183 62.4123 308.936 63.2889 309.878C64.3797 311.046 65.1524 312.416 65.5874 313.948C65.6329 314.104 65.6718 314.26 65.7043 314.416L65.7563 314.649C65.7887 314.805 65.8147 314.968 65.8407 315.123C65.8666 315.279 65.8861 315.441 65.9056 315.597L65.9316 315.837C65.9575 316.156 65.9705 316.474 65.964 316.798V317.039L65.9381 317.064ZM85.4757 312.215C85.0277 311.734 84.4238 311.462 83.768 311.436L79.8917 311.299C79.4502 309.196 78.8593 307.287 77.6451 305.138L80.4761 302.503C81.463 301.581 81.5279 299.912 80.6189 298.932L75.392 293.323C74.9245 292.823 74.3076 292.608 73.6453 292.725C73.1324 292.816 72.6065 293.095 72.126 293.543L69.2885 296.186C67.399 294.894 65.4641 293.985 63.146 293.284L63.1655 289.272C63.211 287.921 62.1526 286.779 60.802 286.733L53.1402 286.46C51.8026 286.421 50.6469 287.473 50.5949 288.83L50.4456 292.745C48.0107 293.264 46.1342 293.952 44.1927 295.05L41.5566 292.219C41.0955 291.726 40.5501 291.479 39.9203 291.498C39.3619 291.518 38.81 291.765 38.3295 292.212L32.7195 297.439C31.7325 298.361 31.6806 299.588 32.5896 300.568L35.2323 303.405C33.9726 305.255 33.1026 307.125 32.3948 309.488L28.4405 309.423C27.7977 309.404 27.1614 309.637 26.6809 310.085C26.2069 310.533 25.9277 311.137 25.9082 311.793L25.642 319.467C25.5966 320.83 26.6614 321.979 28.0185 322.024L32.0117 322.2C32.5117 324.537 33.2909 326.608 34.4401 328.634L31.6092 331.269C30.5248 332.276 30.395 333.431 31.2585 334.36L36.4855 339.969C37.4464 341.001 39.0048 341.118 39.9593 340.229L42.7967 337.586C44.8031 338.95 46.6212 339.677 48.7574 340.3L48.5886 344.137C48.5431 345.487 49.6015 346.623 50.9585 346.675L58.6269 346.941C58.6269 346.941 58.6853 346.941 58.7178 346.941C59.3411 346.941 59.932 346.708 60.393 346.279C60.88 345.831 61.1592 345.221 61.1786 344.572L61.341 340.618C63.7174 340.112 65.7108 339.365 67.6847 338.248L70.3209 341.079C71.2104 342.033 72.7168 342.533 73.7557 341.566L79.3657 336.34C80.3981 335.379 80.1514 333.665 79.2813 332.73L76.6192 329.874C77.8269 327.926 78.8008 325.829 79.4112 323.875L83.3135 323.998C83.9693 324.018 84.5927 323.79 85.0732 323.342C85.5536 322.894 85.8329 322.291 85.8523 321.635L86.125 313.974C86.151 313.319 85.9173 312.695 85.4692 312.215H85.4757ZM84.4953 321.583C84.4823 321.875 84.3589 322.148 84.1446 322.343C83.9304 322.544 83.6447 322.648 83.3525 322.635L78.9242 322.498C78.5866 322.479 78.3333 322.693 78.2489 322.992C77.6516 325.108 76.5672 327.452 75.1907 329.581C75.0219 329.841 75.0673 330.198 75.2751 330.425L78.2814 333.652C78.697 334.093 78.8528 334.944 78.4307 335.34L72.8207 340.566C72.4052 340.956 71.6844 340.56 71.3078 340.151L68.3015 336.924C68.0808 336.69 67.7302 336.638 67.4574 336.801C65.3017 338.086 63.2499 338.852 60.5943 339.378C60.4319 339.411 60.2826 339.501 60.1852 339.631L60.1333 339.696C60.0488 339.807 59.9969 339.943 59.9969 340.079L59.8151 344.513C59.8021 344.806 59.6787 345.078 59.458 345.279C59.2372 345.481 58.958 345.598 58.6658 345.578L50.9975 345.312C50.3936 345.292 49.9196 344.786 49.9391 344.189L50.1339 339.826C50.1469 339.508 49.9456 339.229 49.6404 339.144C47.251 338.469 45.329 337.736 43.1344 336.164C43.0175 336.08 42.8811 336.041 42.7448 336.041C42.5695 336.041 42.3942 336.106 42.2578 336.229L39.0308 339.235C38.5762 339.657 37.875 339.462 37.4789 339.04L32.252 333.431C32.0702 333.236 31.7975 332.944 32.5377 332.263L35.7647 329.257C35.9985 329.036 36.0504 328.685 35.8881 328.413C34.5765 326.212 33.7649 324.076 33.2584 321.492C33.2259 321.343 33.148 321.206 33.0311 321.103L32.9402 321.025C32.8234 320.927 32.6805 320.869 32.5312 320.862L28.0834 320.668C27.4796 320.648 26.9861 320.116 27.0121 319.512L27.2783 311.838C27.2913 311.546 27.4146 311.273 27.6289 311.072C27.8432 310.871 28.1159 310.767 28.4211 310.78L32.9078 310.858C33.2454 310.858 33.4922 310.657 33.5766 310.365C34.3298 307.683 35.2323 305.762 36.6803 303.743C36.8686 303.483 36.8296 303.106 36.6088 302.866L33.6025 299.64C33.1935 299.198 33.213 298.854 33.661 298.432L39.271 293.206C39.5047 292.985 39.758 292.862 39.9787 292.855C40.206 292.849 40.3878 292.946 40.5761 293.147L43.5824 296.374C43.8032 296.608 44.1538 296.66 44.4265 296.497C46.5303 295.244 48.4977 294.517 51.2312 293.978C51.439 293.939 51.6338 293.764 51.7312 293.569C51.7702 293.485 51.7961 293.394 51.7961 293.297L51.965 288.882C51.9844 288.278 52.4974 287.791 53.1012 287.824L60.7631 288.096C61.3669 288.116 61.8409 288.629 61.8214 289.252L61.7955 293.797C61.7955 294.102 61.9968 294.374 62.289 294.452C64.8992 295.186 66.899 296.134 68.9638 297.614C69.2301 297.802 69.6002 297.763 69.8404 297.543L73.0675 294.537C73.3467 294.277 73.6389 294.108 73.8856 294.063C74.0999 294.03 74.2492 294.082 74.405 294.251L79.632 299.86C80.041 300.295 80.0021 301.1 79.5605 301.509L76.3335 304.515C76.0997 304.736 76.0478 305.086 76.2101 305.359C77.6191 307.722 78.2165 309.767 78.671 312.104C78.7229 312.358 78.9177 312.559 79.1645 312.624C79.2424 312.643 79.3203 312.65 79.3917 312.643L83.7226 312.793C84.0148 312.806 84.2875 312.929 84.4823 313.137C84.6836 313.351 84.7875 313.63 84.7745 313.922L84.5018 321.583H84.4953ZM74.6712 314.669C74.6388 314.37 74.5998 314.072 74.5544 313.773C74.5089 313.474 74.4505 313.176 74.392 312.884C74.3596 312.734 74.3271 312.585 74.2947 312.436C74.2232 312.143 74.1518 311.845 74.0674 311.553C73.2493 308.67 71.7883 306.086 69.73 303.872C68.0743 302.094 66.1329 300.678 63.9447 299.652C63.7499 299.562 63.5551 299.471 63.3603 299.386C63.1785 299.308 62.9902 299.23 62.8084 299.159C62.2435 298.938 61.6656 298.744 61.0812 298.581C60.7891 298.497 60.4969 298.425 60.2047 298.354C59.9125 298.289 59.6138 298.224 59.3151 298.172C59.1658 298.146 59.0164 298.12 58.8671 298.094C58.01 297.958 57.1334 297.887 56.2634 297.867C55.3933 297.854 54.5167 297.9 53.6532 298.003C53.309 298.042 52.9584 298.094 52.6143 298.159C51.5754 298.348 50.5495 298.62 49.5625 298.971C47.1601 299.834 44.9914 301.159 43.1084 302.912C39.232 306.521 37.0439 311.631 37.1088 316.928C37.1088 317.383 37.1348 317.837 37.1737 318.279C37.1867 318.428 37.1997 318.577 37.2192 318.726C37.2516 319.025 37.2906 319.324 37.3361 319.622C37.4789 320.518 37.6867 321.414 37.9529 322.278C38.0438 322.57 38.1412 322.855 38.2451 323.148C39.1087 325.517 40.4268 327.66 42.1604 329.523C44.2187 331.73 46.6926 333.373 49.5106 334.392C49.7963 334.496 50.082 334.593 50.3742 334.684C50.8092 334.821 51.2507 334.937 51.6922 335.041C51.9844 335.106 52.2831 335.171 52.5818 335.223C52.7311 335.249 52.8805 335.275 53.0298 335.301C53.3285 335.346 53.6272 335.385 53.9259 335.418C54.3739 335.463 54.8284 335.496 55.2764 335.515C55.5037 335.522 55.7309 335.528 55.9582 335.528C56.0361 335.528 56.1075 335.528 56.1855 335.528C56.9387 335.522 57.6983 335.463 58.4386 335.366C58.7372 335.327 59.0359 335.281 59.3346 335.223C59.6333 335.171 59.932 335.106 60.2242 335.041C60.6657 334.937 61.1072 334.821 61.5422 334.684C64.2564 333.84 66.6913 332.431 68.782 330.477C69.9508 329.393 70.9702 328.166 71.8208 326.835C71.9896 326.576 72.1454 326.309 72.3013 326.037C72.5285 325.641 72.7428 325.225 72.9441 324.81C73.074 324.53 73.2038 324.251 73.3207 323.972C73.3986 323.784 73.4765 323.596 73.5479 323.407C73.6908 323.024 73.8271 322.641 73.944 322.258C74.0349 321.966 74.1193 321.674 74.1908 321.382C74.2492 321.148 74.3011 320.914 74.3531 320.681C74.3985 320.473 74.4375 320.265 74.4765 320.057C74.5024 319.908 74.5284 319.759 74.5544 319.609C74.5998 319.311 74.6388 319.012 74.6712 318.714C74.6907 318.564 74.7037 318.415 74.7167 318.259C74.7427 317.96 74.7622 317.662 74.7686 317.357C74.7686 317.207 74.7751 317.052 74.7816 316.902C74.7881 316.305 74.7686 315.701 74.7167 315.097C74.7037 314.948 74.6907 314.792 74.6712 314.643V314.669ZM73.4116 317.324C73.3986 317.603 73.3856 317.883 73.3596 318.162C73.3467 318.298 73.3337 318.441 73.3207 318.577C73.2882 318.856 73.2558 319.135 73.2103 319.415C73.1908 319.551 73.1649 319.687 73.1389 319.824C73.1064 320.018 73.0675 320.213 73.022 320.401C72.9766 320.622 72.9246 320.836 72.8727 321.051C72.8012 321.323 72.7233 321.59 72.6454 321.862C72.535 322.219 72.4117 322.576 72.2753 322.927C72.2104 323.102 72.139 323.277 72.0675 323.453C71.9571 323.712 71.8403 323.972 71.7234 324.232C71.5416 324.615 71.3403 324.998 71.126 325.368C70.9832 325.615 70.8338 325.861 70.678 326.108C69.8859 327.342 68.9379 328.478 67.8535 329.484C65.9121 331.295 63.6525 332.607 61.1332 333.386C60.7306 333.509 60.3151 333.62 59.906 333.717C59.6333 333.782 59.3541 333.84 59.0814 333.886C58.8022 333.938 58.5295 333.977 58.2503 334.016C57.562 334.106 56.8542 334.158 56.1595 334.165C55.8803 334.165 55.6011 334.165 55.3219 334.152C54.9063 334.139 54.4843 334.106 54.0687 334.061C53.7895 334.029 53.5103 333.996 53.2376 333.951C53.1012 333.931 52.9584 333.905 52.822 333.879C52.5428 333.827 52.2701 333.775 51.9974 333.71C51.5884 333.613 51.1793 333.503 50.7767 333.379C50.5105 333.295 50.2378 333.204 49.9781 333.113C47.3614 332.165 45.0693 330.646 43.1603 328.595C41.5501 326.868 40.3294 324.875 39.5307 322.68C39.4333 322.414 39.3424 322.148 39.258 321.875C39.0113 321.07 38.8165 320.239 38.6866 319.408C38.6412 319.129 38.6087 318.856 38.5762 318.571C38.5632 318.434 38.5503 318.292 38.5373 318.155C38.5048 317.74 38.4853 317.318 38.4788 316.896C38.4204 311.981 40.4462 307.242 44.0434 303.892C45.79 302.269 47.8029 301.035 50.03 300.237C50.9455 299.906 51.9 299.652 52.861 299.484C53.1792 299.425 53.5038 299.38 53.822 299.341C54.5232 299.256 55.2375 299.211 55.9452 299.211C56.0426 299.211 56.1465 299.211 56.2439 299.211C57.049 299.224 57.8607 299.295 58.6593 299.419C58.7957 299.438 58.9385 299.464 59.0749 299.49C59.3541 299.542 59.6268 299.594 59.8995 299.659C60.1722 299.724 60.4449 299.789 60.7176 299.867C61.2566 300.016 61.7955 300.198 62.3214 300.406C62.4902 300.471 62.6655 300.542 62.8344 300.613C63.0162 300.691 63.198 300.776 63.3798 300.86C65.4056 301.808 67.2107 303.126 68.7431 304.775C70.652 306.826 72.0091 309.222 72.7623 311.897C72.8402 312.169 72.9116 312.442 72.9701 312.715C73.0025 312.851 73.0285 312.987 73.061 313.124C73.1194 313.396 73.1713 313.676 73.2103 313.955C73.2558 314.234 73.2882 314.507 73.3207 314.792C73.3337 314.929 73.3467 315.071 73.3596 315.208C73.4051 315.766 73.4246 316.331 73.4181 316.883C73.4181 317.019 73.4181 317.162 73.4116 317.298V317.324Z" fill="#008BD2"/>
<path d="M55.8945 238.055V201.471" stroke="white" stroke-width="2" stroke-linecap="round" stroke-linejoin="round"/>
<path d="M47.082 241.353V213.521" stroke="white" stroke-width="2" stroke-linecap="round" stroke-linejoin="round"/>
<path d="M63.418 245.651V206.931" stroke="white" stroke-width="2" stroke-linecap="round" stroke-linejoin="round"/>
<path d="M337.434 173.815V137.231" stroke="white" stroke-width="2" stroke-linecap="round" stroke-linejoin="round"/>
<path d="M328.621 177.113V149.281" stroke="white" stroke-width="2" stroke-linecap="round" stroke-linejoin="round"/>
<path d="M344.957 181.404V142.685" stroke="white" stroke-width="2" stroke-linecap="round" stroke-linejoin="round"/>
<path d="M158.758 340.826V348.935" stroke="#008BD2" stroke-width="2" stroke-linecap="round" stroke-linejoin="round"/>
<path d="M162.809 344.877H154.699" stroke="#008BD2" stroke-width="2" stroke-linecap="round" stroke-linejoin="round"/>
<path d="M231.473 73.712V81.8208" stroke="#008BD2" stroke-width="2" stroke-linecap="round" stroke-linejoin="round"/>
<path d="M235.532 77.7632H227.422" stroke="#008BD2" stroke-width="2" stroke-linecap="round" stroke-linejoin="round"/>
<path d="M299.305 293.79V301.899" stroke="#008BD2" stroke-width="2" stroke-linecap="round" stroke-linejoin="round"/>
<path d="M303.364 297.848H295.254" stroke="#008BD2" stroke-width="2" stroke-linecap="round" stroke-linejoin="round"/>
<path d="M115.156 57.8322V65.9409" stroke="#8EC0F5" stroke-width="2" stroke-linecap="round" stroke-linejoin="round"/>
<path d="M119.215 61.8898H111.105" stroke="#8EC0F5" stroke-width="2" stroke-linecap="round" stroke-linejoin="round"/>
<path d="M366.105 312.65V320.759" stroke="#8EC0F5" stroke-width="2" stroke-linecap="round" stroke-linejoin="round"/>
<path d="M370.165 316.701H362.055" stroke="#8EC0F5" stroke-width="2" stroke-linecap="round" stroke-linejoin="round"/>
<path d="M295.258 36.7327V44.8414" stroke="#8EC0F5" stroke-width="2" stroke-linecap="round" stroke-linejoin="round"/>
<path d="M299.309 40.7838H291.199" stroke="#8EC0F5" stroke-width="2" stroke-linecap="round" stroke-linejoin="round"/>
<path d="M251.797 286.46V329.718C251.797 350.213 268.419 366.833 288.918 366.833C309.416 366.833 326.039 350.213 326.039 329.718V286.46" stroke="#8EC0F5" stroke-width="2" stroke-linecap="round" stroke-linejoin="round"/>
<path d="M148.148 91.3903V48.1329C148.148 27.6372 131.526 11.0172 111.027 11.0172C90.5285 11.0172 73.9062 27.6372 73.9062 48.1329V91.3903" stroke="#8EC0F5" stroke-width="2" stroke-linecap="round" stroke-linejoin="round"/>
<path d="M183.251 40.7837H142.539C139.842 40.7837 137.656 42.9695 137.656 45.6658V77.1983C137.656 79.8946 139.842 82.0804 142.539 82.0804H183.251C185.947 82.0804 188.133 79.8946 188.133 77.1983V45.6658C188.133 42.9695 185.947 40.7837 183.251 40.7837Z" fill="#FF7725"/>
<path d="M157.29 59.2409L150.057 61.8897L157.29 64.519V67.2327L146.953 63.305V60.4809L157.29 56.5531V59.2474V59.2409Z" fill="white"/>
<path d="M165.075 51.2036H168.094L160.926 71.6604H157.906L165.075 51.2036Z" fill="white"/>
<path d="M178.829 60.4744V63.2985L168.492 67.2263V64.5125L175.725 61.8832L168.492 59.2344V56.5402L178.829 60.4679V60.4744Z" fill="white"/>
<path d="M220.973 292.654H261.678C264.372 292.654 266.561 294.842 266.561 297.536V329.062C266.561 331.756 264.372 333.944 261.678 333.944H220.973C218.278 333.944 216.09 331.756 216.09 329.062V297.53C216.09 294.835 218.278 292.647 220.973 292.647V292.654Z" fill="#FAC62B"/>
<path d="M227.071 313.299C228.045 313.63 228.5 314.273 228.5 315.792V323.297C228.5 324.849 229.227 325.725 230.811 325.725H231.629V327.517H230.506C227.772 327.517 226.344 326.18 226.344 323.479V315.766C226.344 314.675 225.857 314.214 224.974 314.214H223.941V312.39H224.974C225.857 312.39 226.344 311.936 226.344 310.839V303.126C226.344 300.425 227.772 299.088 230.506 299.088H231.629V300.88H230.811C229.233 300.88 228.5 301.762 228.5 303.308V310.813C228.5 312.332 228.045 312.968 227.071 313.306V313.299Z" fill="white"/>
<path d="M254.778 310.813V303.308C254.778 301.756 254.051 300.88 252.467 300.88H251.648V299.088H252.772C255.505 299.088 256.934 300.425 256.934 303.126V310.839C256.934 311.929 257.421 312.39 258.304 312.39H259.336V314.214H258.304C257.421 314.214 256.934 314.669 256.934 315.766V323.479C256.934 326.18 255.505 327.517 252.772 327.517H251.648V325.725H252.467C254.044 325.725 254.778 324.842 254.778 323.297V315.792C254.778 314.273 255.233 313.637 256.207 313.299C255.233 312.968 254.778 312.325 254.778 310.806V310.813Z" fill="white"/>
<path d="M248.18 319.48C248.18 320.22 248.784 320.824 249.524 320.824C250.264 320.824 250.868 320.22 250.868 319.48C250.868 318.74 250.264 318.136 249.524 318.136C248.784 318.136 248.18 318.74 248.18 319.48Z" fill="white"/>
<path d="M240.297 319.48C240.297 320.22 240.901 320.824 241.641 320.824C242.381 320.824 242.985 320.22 242.985 319.48C242.985 318.74 242.381 318.136 241.641 318.136C240.901 318.136 240.297 318.74 240.297 319.48Z" fill="white"/>
<path d="M232.414 319.48C232.414 320.22 233.018 320.824 233.758 320.824C234.498 320.824 235.102 320.22 235.102 319.48C235.102 318.74 234.498 318.136 233.758 318.136C233.018 318.136 232.414 318.74 232.414 319.48Z" fill="white"/>
</svg>
