<svg width="36" height="36" viewBox="0 0 36 36" fill="none" xmlns="http://www.w3.org/2000/svg">
<path d="M0 2.25C0 1.65326 0.237053 1.08097 0.65901 0.65901C1.08097 0.237053 1.65326 0 2.25 0L29.25 0C29.8467 0 30.419 0.237053 30.841 0.65901C31.2629 1.08097 31.5 1.65326 31.5 2.25V13.5H22.5C21.3065 13.5 20.1619 13.9741 19.318 14.818C18.4741 15.6619 18 16.8065 18 18V31.5H4.5V27H13.5V24.75H2.25C1.65326 24.75 1.08097 24.5129 0.65901 24.091C0.237053 23.669 0 23.0967 0 22.5V2.25Z" fill="#009FDD"/>
<path d="M20.25 18C20.25 17.4033 20.4871 16.831 20.909 16.409C21.331 15.9871 21.9033 15.75 22.5 15.75H33.75C34.3467 15.75 34.919 15.9871 35.341 16.409C35.7629 16.831 36 17.4033 36 18V33.75C36 34.3467 35.7629 34.919 35.341 35.341C34.919 35.7629 34.3467 36 33.75 36H22.5C21.9033 36 21.331 35.7629 20.909 35.341C20.4871 34.919 20.25 34.3467 20.25 33.75V18Z" fill="#009FDD"/>
</svg>
