<svg width="92" height="92" viewBox="0 0 92 92" fill="none" xmlns="http://www.w3.org/2000/svg">
<g filter="url(#filter0_d_3887_10265)">
<circle cx="48" cy="42" r="35" fill="white"/>
</g>
<path d="M45.2505 47.7026L45.2415 47.6816C45.0604 47.6388 44.8804 47.5918 44.7015 47.5406L44.688 47.5361C42.9769 47.0443 41.3967 46.1778 40.062 44.9996C38.5941 43.7046 37.4652 42.0702 36.7739 40.2388C36.0825 38.4075 35.8496 36.4348 36.0955 34.4928C36.3414 32.5508 37.0586 30.6985 38.1847 29.0972C39.3107 27.496 40.8113 26.1946 42.5556 25.3064C44.3 24.4182 46.2351 23.9702 48.1923 24.0015C50.1495 24.0328 52.0694 24.5425 53.7844 25.486C55.4995 26.4295 56.9577 27.7782 58.032 29.4146C59.1062 31.051 59.7638 32.9254 59.9475 34.8743C60.006 35.4938 59.4975 35.9993 58.875 35.9993C58.254 35.9993 57.7575 35.4938 57.6855 34.8758C57.4872 33.1707 56.8423 31.5481 55.8159 30.1722C54.7895 28.7962 53.4181 27.7156 51.8402 27.0397C50.2624 26.3637 48.534 26.1163 46.8299 26.3224C45.1257 26.5286 43.5062 27.181 42.1351 28.2137C40.7639 29.2464 39.6897 30.6229 39.021 32.2039C38.3523 33.7849 38.1128 35.5144 38.3268 37.2176C38.5408 38.9208 39.2007 40.5373 40.2397 41.9038C41.2787 43.2702 42.66 44.3381 44.244 44.9996L44.304 45.0251C44.604 45.1481 44.912 45.2566 45.228 45.3506C45.4935 44.709 45.9733 44.1794 46.5856 43.8521C47.1979 43.5247 47.9048 43.4199 48.5857 43.5554C49.2666 43.691 49.8795 44.0585 50.3197 44.5954C50.76 45.1323 51.0004 45.8053 51 46.4996C51.0007 47.1891 50.7638 47.8578 50.3293 48.3931C49.8949 48.9284 49.2892 49.2978 48.6144 49.439C47.9396 49.5802 47.2367 49.4846 46.624 49.1684C46.0113 48.8522 45.5263 48.3345 45.2505 47.7026ZM43.7715 49.6107C41.1068 48.7819 38.7441 47.189 36.9765 45.0296C35.8811 45.1579 34.8709 45.684 34.1378 46.5081C33.4048 47.3321 32.9999 48.3967 33 49.4997V50.5722C33 56.1494 39.315 60 48 60C56.685 60 63 55.9379 63 50.5722V49.4997C63 48.3062 62.5259 47.1616 61.682 46.3176C60.8381 45.4737 59.6935 44.9996 58.5 44.9996H53.0325C53.3863 46.1846 53.3104 47.4566 52.8182 48.5912C52.326 49.7258 51.449 50.6502 50.3419 51.2014C49.2348 51.7527 47.9686 51.8954 46.7666 51.6044C45.5646 51.3133 44.5039 50.6073 43.7715 49.6107ZM55.5 35.9993C55.5 33.7312 54.495 31.6987 52.9035 30.3231C52.105 29.6343 51.1701 29.1215 50.16 28.8184C49.1499 28.5153 48.0873 28.4287 47.0414 28.5641C45.9955 28.6995 44.99 29.054 44.0904 29.6044C43.1908 30.1548 42.4174 30.8887 41.8207 31.7583C41.224 32.6278 40.8173 33.6135 40.6273 34.6508C40.4373 35.6882 40.4682 36.754 40.7179 37.7786C40.9677 38.8032 41.4308 39.7637 42.0768 40.5972C42.7229 41.4307 43.5375 42.1186 44.4675 42.616C45.4339 41.7368 46.6935 41.2495 48 41.2495C49.307 41.2492 50.5672 41.7364 51.534 42.616C52.7324 41.9758 53.7343 41.022 54.4329 39.8566C55.1314 38.6913 55.5002 37.358 55.5 35.9993Z" fill="#0AA81A"/>
<defs>
<filter id="filter0_d_3887_10265" x="0" y="0" width="92" height="92" filterUnits="userSpaceOnUse" color-interpolation-filters="sRGB">
<feFlood flood-opacity="0" result="BackgroundImageFix"/>
<feColorMatrix in="SourceAlpha" type="matrix" values="0 0 0 0 0 0 0 0 0 0 0 0 0 0 0 0 0 0 127 0" result="hardAlpha"/>
<feMorphology radius="3" operator="dilate" in="SourceAlpha" result="effect1_dropShadow_3887_10265"/>
<feOffset dx="-2" dy="4"/>
<feGaussianBlur stdDeviation="4"/>
<feComposite in2="hardAlpha" operator="out"/>
<feColorMatrix type="matrix" values="0 0 0 0 0.264317 0 0 0 0 0.264317 0 0 0 0 0.264317 0 0 0 0.2 0"/>
<feBlend mode="normal" in2="BackgroundImageFix" result="effect1_dropShadow_3887_10265"/>
<feBlend mode="normal" in="SourceGraphic" in2="effect1_dropShadow_3887_10265" result="shape"/>
</filter>
</defs>
</svg>
