<svg width="38" height="23" viewBox="0 0 38 23" fill="none" xmlns="http://www.w3.org/2000/svg">
<g clip-path="url(#clip0_4158_2378)">
<path d="M32.6802 3.07602L31.3705 7.52688L29.2085 0.279663H24.7188L22.5854 7.52688L21.2928 3.1634L17.2148 4.61401L20.3262 15.1178H24.8446L26.9779 7.8706L29.1113 15.1178H33.6068L36.741 4.52662L32.6802 3.07602Z" fill="#009CDA"/>
<path d="M33.509 0.279663L33.1602 1.44481L37.2267 2.88959L37.9988 0.279663H33.509Z" fill="#F9C229"/>
<path d="M20.4462 0.279663H15.9336L16.7286 2.9828L20.8123 1.52637L20.4462 0.279663Z" fill="#F9C229"/>
<path d="M0 18.188C0 19.5162 0.531909 20.7163 1.38411 21.5902C2.2363 22.464 3.42023 23 4.72426 23V19.5512L0 17.3898V18.1821V18.188Z" fill="#F9C229"/>
<path d="M8.39615 0H0V15.8227L0.051475 15.8343V15.846L4.72998 17.984V15.4965H8.63636C13.0461 15.4965 16.1002 12.3564 16.1002 7.70162C16.1002 3.04686 12.9374 0 8.39615 0ZM8.05298 11.6573C5.91963 11.6573 4.19235 9.89792 4.19235 7.72492C4.19235 5.55193 5.91963 3.79255 8.05298 3.79255C10.1863 3.79255 11.9136 5.55193 11.9136 7.72492C11.9136 9.89792 10.1863 11.6573 8.05298 11.6573Z" fill="#009CDA"/>
</g>
<defs>
<clipPath id="clip0_4158_2378">
<rect width="38" height="23" fill="white"/>
</clipPath>
</defs>
</svg>
