<svg width="30" height="31" viewBox="0 0 30 31" fill="none" xmlns="http://www.w3.org/2000/svg">
<path fill-rule="evenodd" clip-rule="evenodd" d="M3.29368 0.585938C2.44708 0.585938 1.63515 0.922249 1.03651 1.52089C0.437874 2.11953 0.101563 2.93145 0.101562 3.77806L0.101563 16.5465C0.101563 17.3931 0.437874 18.2051 1.03651 18.8037C1.63515 19.4023 2.44708 19.7386 3.29368 19.7386H26.7025C27.5492 19.7386 28.3611 19.4023 28.9597 18.8037C29.5584 18.2051 29.8947 17.3931 29.8947 16.5465V3.77806C29.8947 2.93145 29.5584 2.11953 28.9597 1.52089C28.3611 0.922249 27.5492 0.585938 26.7025 0.585938L3.29368 0.585938ZM16.3282 3.68016C16.3282 3.32741 16.188 2.98911 15.9386 2.73968C15.6892 2.49024 15.3509 2.35011 14.9981 2.35011C14.6454 2.35011 14.3071 2.49024 14.0576 2.73968C13.8082 2.98911 13.6681 3.32741 13.6681 3.68016V4.5314C12.9022 4.62114 12.193 4.97943 11.6663 5.54263C11.1396 6.10582 10.8296 6.83747 10.7913 7.60762C10.753 8.37776 10.989 9.13655 11.4572 9.7492C11.9254 10.3618 12.5957 10.7887 13.3489 10.9539L15.8962 11.5094C16.1012 11.5483 16.2841 11.663 16.4084 11.8308C16.5326 11.9985 16.5891 12.2069 16.5665 12.4144C16.544 12.6219 16.4441 12.8133 16.2867 12.9505C16.1293 13.0876 15.9261 13.1604 15.7174 13.1544H14.2788C14.1067 13.1549 13.9387 13.102 13.798 13.0029C13.6573 12.9037 13.5509 12.7633 13.4936 12.6011C13.3678 12.2798 13.1221 12.0199 12.8084 11.8764C12.4947 11.7328 12.1374 11.7168 11.8121 11.8317C11.4868 11.9465 11.2188 12.1834 11.0648 12.4921C10.9108 12.8008 10.8828 13.1573 10.9867 13.4864C11.3995 14.6568 12.4189 15.5399 13.6681 15.7613V16.6444C13.6681 16.9972 13.8082 17.3355 14.0576 17.5849C14.3071 17.8343 14.6454 17.9745 14.9981 17.9745C15.3509 17.9745 15.6892 17.8343 15.9386 17.5849C16.188 17.3355 16.3282 16.9972 16.3282 16.6444V15.7591C17.1244 15.6181 17.8469 15.2051 18.3725 14.5906C18.8982 13.9762 19.1943 13.1984 19.2103 12.3899C19.2264 11.5815 18.9615 10.7926 18.4607 10.1577C17.9599 9.52286 17.2543 9.08147 16.4644 8.90885L13.9171 8.35343C13.7719 8.32296 13.6432 8.23963 13.5561 8.11963C13.4689 7.99962 13.4294 7.8515 13.4453 7.70402C13.4612 7.55655 13.5314 7.42026 13.6422 7.32161C13.7529 7.22297 13.8964 7.16901 14.0447 7.17021H15.7174C15.8897 7.16901 16.058 7.2217 16.1988 7.32092C16.3396 7.42013 16.4458 7.5609 16.5027 7.72351C16.5564 7.89365 16.6438 8.05124 16.7597 8.1869C16.8756 8.32256 17.0176 8.43351 17.1773 8.51315C17.3369 8.5928 17.511 8.6395 17.6891 8.65049C17.8671 8.66148 18.0456 8.63652 18.2139 8.57711C18.3821 8.5177 18.5367 8.42504 18.6684 8.30466C18.8 8.18428 18.9062 8.03863 18.9804 7.87639C19.0547 7.71414 19.0955 7.53862 19.1005 7.36027C19.1055 7.18192 19.0746 7.00438 19.0095 6.83823C18.8039 6.25565 18.4474 5.73808 17.9763 5.3384C17.5052 4.93872 16.9365 4.67125 16.3282 4.56332V3.68016ZM5.95378 8.56623C6.37708 8.56623 6.78304 8.73439 7.08236 9.03371C7.38168 9.33303 7.54984 9.73899 7.54984 10.1623C7.54984 10.5856 7.38168 10.9916 7.08236 11.2909C6.78304 11.5902 6.37708 11.7584 5.95378 11.7584C5.53048 11.7584 5.12451 11.5902 4.8252 11.2909C4.52588 10.9916 4.35772 10.5856 4.35772 10.1623C4.35772 9.73899 4.52588 9.33303 4.8252 9.03371C5.12451 8.73439 5.53048 8.56623 5.95378 8.56623ZM24.0424 8.56623C24.4658 8.56623 24.8717 8.73439 25.171 9.03371C25.4704 9.33303 25.6385 9.73899 25.6385 10.1623C25.6385 10.5856 25.4704 10.9916 25.171 11.2909C24.8717 11.5902 24.4658 11.7584 24.0424 11.7584C23.6192 11.7584 23.2132 11.5902 22.9139 11.2909C22.6145 10.9916 22.4464 10.5856 22.4464 10.1623C22.4464 9.73899 22.6145 9.33303 22.9139 9.03371C23.2132 8.73439 23.6192 8.56623 24.0424 8.56623ZM9.67792 21.6007C10.4121 21.6007 11.008 22.1966 11.008 22.9308V27.1869C11.008 27.5397 10.8678 27.878 10.6184 28.1274C10.369 28.3768 10.0307 28.517 9.67792 28.517C9.32517 28.517 8.98686 28.3768 8.73743 28.1274C8.488 27.878 8.34787 27.5397 8.34787 27.1869V22.9308C8.34787 22.1966 8.94373 21.6007 9.67792 21.6007ZM21.6484 22.9308C21.6484 22.7561 21.614 22.5831 21.5471 22.4218C21.4803 22.2604 21.3823 22.1138 21.2588 21.9903C21.1353 21.8668 20.9887 21.7688 20.8273 21.702C20.6659 21.6351 20.493 21.6007 20.3183 21.6007C20.1436 21.6007 19.9707 21.6351 19.8093 21.702C19.648 21.7688 19.5013 21.8668 19.3778 21.9903C19.2543 22.1138 19.1563 22.2604 19.0895 22.4218C19.0227 22.5831 18.9883 22.7561 18.9883 22.9308V27.1869C18.9883 27.3616 19.0227 27.5345 19.0895 27.6959C19.1563 27.8573 19.2543 28.0039 19.3778 28.1274C19.5013 28.2509 19.648 28.3489 19.8093 28.4157C19.9707 28.4826 20.1436 28.517 20.3183 28.517C20.493 28.517 20.6659 28.4826 20.8273 28.4157C20.9887 28.3489 21.1353 28.2509 21.2588 28.1274C21.3823 28.0039 21.4803 27.8573 21.5471 27.6959C21.614 27.5345 21.6484 27.3616 21.6484 27.1869V22.9308ZM16.3282 24.5268C16.3282 24.1741 16.188 23.8358 15.9386 23.5863C15.6892 23.3369 15.3509 23.1968 14.9981 23.1968C14.6454 23.1968 14.3071 23.3369 14.0576 23.5863C13.8082 23.8358 13.6681 24.1741 13.6681 24.5268V28.783C13.6681 29.1357 13.8082 29.474 14.0576 29.7235C14.3071 29.9729 14.6454 30.113 14.9981 30.113C15.3509 30.113 15.6892 29.9729 15.9386 29.7235C16.188 29.474 16.3282 29.1357 16.3282 28.783V24.5268Z" fill="#D9821C"/>
</svg>
